<svg width="30" height="30" viewBox="0 0 30 30" fill="none" xmlns="http://www.w3.org/2000/svg">
<circle cx="15.1897" cy="15.1111" r="13.9788" fill="#FFFEA3" stroke="#404040" stroke-width="0.4883"/>
<path d="M14.8857 10.2363C15.2929 10.2363 15.6211 10.2997 15.9883 10.5283C16.3356 10.7447 16.7101 11.1047 17.2334 11.6602L18.3018 12.7939L18.9932 12.127C19.2828 11.8471 19.5626 11.6278 19.8135 11.4902C19.9389 11.4215 20.0659 11.3689 20.1885 11.3418C20.3098 11.315 20.4457 11.3099 20.5752 11.3594C20.7999 11.4453 20.9902 11.5887 21.0811 11.8135C21.1697 12.0333 21.1397 12.2734 21.0537 12.5029C20.8851 12.953 20.4479 13.5034 19.7969 14.1426L18.5244 15.3916L18.3359 15.5771L18.1436 15.3965L17.499 14.793L17.3193 14.624V15.1631C17.3193 15.8254 17.1973 16.7055 17.0342 17.1338C16.973 17.2941 16.9475 17.3887 16.9453 17.4678C16.9434 17.5357 16.9591 17.6125 17.0273 17.7314C17.0997 17.8574 17.2242 18.0185 17.4326 18.248C17.6395 18.4758 17.9175 18.7592 18.2861 19.1299V19.1309C18.9958 19.8446 19.3833 20.2075 19.6553 20.375C19.7825 20.4534 19.8652 20.4758 19.9287 20.4795C19.9948 20.4833 20.0709 20.4683 20.1934 20.4219C20.5718 20.2785 21.039 20.3048 21.4043 20.415C21.5893 20.4709 21.7684 20.5548 21.9072 20.667C22.0428 20.7766 22.1747 20.944 22.1748 21.165C22.1748 21.2208 22.1591 21.2663 22.1504 21.2891C22.1401 21.3159 22.1277 21.3408 22.1162 21.3613C22.0932 21.4025 22.0634 21.447 22.0312 21.4912C21.966 21.5807 21.8752 21.6913 21.7686 21.8135C21.5539 22.0593 21.2603 22.3687 20.9395 22.6826L19.7861 23.8105L19.5918 24L19.3994 23.8086L17.0322 21.46L14.8613 19.3047L13.3613 20.8291C12.6026 21.5992 12.2107 22.0224 12.0273 22.3154C11.9404 22.4544 11.9143 22.5428 11.9092 22.6084C11.9041 22.6743 11.9181 22.7484 11.9639 22.8662C12.1217 23.2732 12.144 23.7192 12.0576 24.0752C12.0144 24.2531 11.9404 24.4256 11.8252 24.5586C11.7064 24.6957 11.5374 24.7959 11.3291 24.7959C11.25 24.7958 11.1787 24.7695 11.1338 24.75C11.0822 24.7276 11.0282 24.698 10.9746 24.665C10.8667 24.5987 10.7399 24.5062 10.6045 24.3984C10.3326 24.1821 10.0059 23.8869 9.68848 23.5645L8.55762 22.416L8.36621 22.2217L8.55859 22.0283L10.8262 19.7578L12.9033 17.6777L11.5371 16.2598L9.98242 14.6465L9.79785 14.4551L9.98242 14.2637L11.8916 12.292C12.717 11.4396 13.2419 10.9263 13.6621 10.6299C13.8773 10.4781 14.0739 10.3768 14.2773 10.3154C14.4807 10.2541 14.6773 10.2363 14.8857 10.2363ZM14.8721 5.42578C15.3901 5.42624 15.8832 5.65486 16.3564 6.06055C16.8875 6.51583 17.1688 7.10475 17.1689 7.70996C17.1689 8.31533 16.8876 8.90496 16.3564 9.36035C15.8867 9.76307 15.3948 9.99136 14.8809 9.99609C14.3657 10.0008 13.8758 9.78049 13.4131 9.38379C12.3438 8.46698 12.3258 6.96887 13.3887 6.05762C13.8611 5.65269 14.354 5.42535 14.8721 5.42578Z" fill="#404040" stroke="#404040" stroke-width="0.551118"/>
</svg>
