<svg width="65" height="40" viewBox="0 0 65 40" fill="none" xmlns="http://www.w3.org/2000/svg">
<path d="M64.3623 17.8277C64.5517 17.714 64.6132 17.4683 64.4995 17.2789C64.3859 17.0894 64.1402 17.028 63.9507 17.1416L64.1565 17.4846L64.3623 17.8277ZM27.6057 9.92215L27.2669 10.1347L27.6057 9.92215ZM-7.25809 37.6488C-7.25809 38.827 -6.30296 39.7822 -5.12475 39.7822C-3.94655 39.7822 -2.99142 38.827 -2.99142 37.6488C-2.99142 36.4706 -3.94655 35.5155 -5.12475 35.5155C-6.30296 35.5155 -7.25809 36.4706 -7.25809 37.6488ZM-5.34928 36.5425C-5.46438 36.354 -5.71055 36.2944 -5.89911 36.4095C-6.08767 36.5246 -6.14721 36.7708 -6.03211 36.9593L-5.6907 36.7509L-5.34928 36.5425ZM-7.9973 33.2521C-7.90661 33.4536 -7.66978 33.5433 -7.46835 33.4526C-7.26691 33.3619 -7.17714 33.1251 -7.26784 32.9237L-7.63257 33.0879L-7.9973 33.2521ZM-8.04414 31.0231C-8.12019 30.8157 -8.34997 30.7092 -8.55739 30.7852C-8.7648 30.8613 -8.87129 31.0911 -8.79524 31.2985L-8.41969 31.1608L-8.04414 31.0231ZM-9.92878 27.2479C-9.88699 27.4648 -9.67726 27.6068 -9.46034 27.565C-9.24341 27.5232 -9.10144 27.3135 -9.14322 27.0966L-9.536 27.1722L-9.92878 27.2479ZM-9.4397 25.0822C-9.46198 24.8624 -9.65822 24.7023 -9.87801 24.7246C-10.0978 24.7469 -10.2579 24.9431 -10.2356 25.1629L-9.83766 25.1225L-9.4397 25.0822ZM-10.2608 20.9348C-10.281 21.1548 -10.119 21.3495 -9.89904 21.3697C-9.67906 21.3899 -9.48434 21.228 -9.46413 21.008L-9.86245 20.9714L-10.2608 20.9348ZM-9.17628 18.991C-9.13408 18.7742 -9.27567 18.5642 -9.49252 18.522C-9.70936 18.4798 -9.91936 18.6214 -9.96155 18.8383L-9.56891 18.9147L-9.17628 18.991ZM-8.7381 14.7899C-8.823 14.9939 -8.7265 15.228 -8.52255 15.3129C-8.3186 15.3978 -8.08444 15.3013 -7.99954 15.0974L-8.36882 14.9436L-8.7381 14.7899ZM-7.12395 13.258C-7.01925 13.0635 -7.09207 12.8209 -7.28659 12.7162C-7.48112 12.6115 -7.72369 12.6843 -7.82839 12.8789L-7.47617 13.0684L-7.12395 13.258ZM-5.47594 9.36835C-5.61577 9.53938 -5.59047 9.79138 -5.41943 9.9312C-5.2484 10.071 -4.9964 10.0457 -4.85658 9.87469L-5.16626 9.62152L-5.47594 9.36835ZM-3.49348 8.35637C-3.33852 8.19892 -3.34054 7.94566 -3.49799 7.7907C-3.65544 7.63574 -3.9087 7.63776 -4.06365 7.79521L-3.77857 8.07579L-3.49348 8.35637ZM-0.844172 5.06396C-1.02466 5.19134 -1.06771 5.44093 -0.940321 5.62141C-0.812935 5.8019 -0.563354 5.84495 -0.382866 5.71756L-0.61352 5.39076L-0.844172 5.06396ZM1.33581 4.61468C1.52681 4.50368 1.59166 4.25885 1.48066 4.06785C1.36965 3.87685 1.12483 3.812 0.93383 3.92301L1.13482 4.26884L1.33581 4.61468ZM4.75832 2.13335C4.55064 2.20868 4.44336 2.4381 4.51869 2.64578C4.59402 2.85345 4.82344 2.96073 5.03112 2.8854L4.89472 2.50938L4.75832 2.13335ZM6.97947 2.27837C7.19321 2.22252 7.32121 2.00398 7.26536 1.79024C7.20951 1.5765 6.99097 1.4485 6.77723 1.50435L6.87835 1.89136L6.97947 2.27837ZM10.9522 0.835205C10.7317 0.848313 10.5636 1.03771 10.5767 1.25823C10.5898 1.47876 10.7792 1.6469 10.9997 1.6338L10.976 1.2345L10.9522 0.835205ZM13.0345 1.61932C13.2551 1.62949 13.4423 1.45884 13.4525 1.23816C13.4626 1.01748 13.292 0.830336 13.0713 0.820166L13.0529 1.21974L13.0345 1.61932ZM17.2551 1.48548C17.0423 1.426 16.8216 1.55025 16.7621 1.76301C16.7027 1.97577 16.8269 2.19646 17.0397 2.25594L17.1474 1.87071L17.2551 1.48548ZM18.9569 2.91717C19.161 3.00159 19.3949 2.90454 19.4794 2.70039C19.5638 2.49625 19.4667 2.26232 19.2626 2.17789L19.1097 2.54753L18.9569 2.91717ZM22.9563 4.25956C22.7783 4.12876 22.5279 4.16705 22.3971 4.34509C22.2663 4.52312 22.3046 4.77347 22.4827 4.90427L22.7195 4.58191L22.9563 4.25956ZM24.0443 6.1991C24.2059 6.34968 24.459 6.34073 24.6096 6.17909C24.7602 6.01745 24.7512 5.76434 24.5896 5.61376L24.3169 5.90643L24.0443 6.1991ZM27.352 8.81364C27.2256 8.63241 26.9763 8.58791 26.7951 8.71424C26.6139 8.84057 26.5694 9.0899 26.6957 9.27112L27.0238 9.04238L27.352 8.81364ZM27.8191 10.9864C27.9421 11.1699 28.1905 11.219 28.3741 11.096C28.5576 10.9731 28.6067 10.7246 28.4837 10.5411L28.1514 10.7638L27.8191 10.9864ZM30.8657 13.6421C30.7194 13.4766 30.4666 13.4609 30.3011 13.6072C30.1355 13.7534 30.1199 14.0062 30.2661 14.1718L30.5659 13.907L30.8657 13.6421ZM31.6517 15.6277C31.81 15.7818 32.0632 15.7784 32.2173 15.6201C32.3715 15.4619 32.3681 15.2086 32.2098 15.0545L31.9308 15.3411L31.6517 15.6277ZM35.2199 17.5419C35.0383 17.4161 34.7891 17.4613 34.6632 17.6428C34.5374 17.8244 34.5826 18.0736 34.7641 18.1995L34.992 17.8707L35.2199 17.5419ZM36.4703 19.2743C36.6622 19.3837 36.9065 19.3167 37.0158 19.1248C37.1252 18.9328 37.0582 18.6886 36.8663 18.5792L36.6683 18.9268L36.4703 19.2743ZM40.4097 20.1953C40.2013 20.122 39.9729 20.2316 39.8997 20.44C39.8264 20.6484 39.936 20.8768 40.1444 20.95L40.277 20.5727L40.4097 20.1953ZM42.0775 21.5349C42.2915 21.5895 42.5094 21.4603 42.564 21.2463C42.6187 21.0322 42.4895 20.8144 42.2754 20.7598L42.1765 21.1473L42.0775 21.5349ZM46.1219 21.4033C45.9018 21.3847 45.7082 21.548 45.6896 21.7682C45.671 21.9883 45.8344 22.1818 46.0545 22.2004L46.0882 21.8019L46.1219 21.4033ZM48.0676 22.2927C48.2885 22.2945 48.469 22.1168 48.4708 21.8959C48.4725 21.675 48.2949 21.4945 48.074 21.4927L48.0708 21.8927L48.0676 22.2927ZM51.9775 21.2468C51.7585 21.2757 51.6043 21.4766 51.6331 21.6956C51.662 21.9147 51.8629 22.0688 52.082 22.04L52.0297 21.6434L51.9775 21.2468ZM54.0679 21.7132C54.2846 21.6704 54.4257 21.4601 54.3829 21.2433C54.3402 21.0266 54.1298 20.8855 53.9131 20.9283L53.9905 21.3207L54.0679 21.7132ZM57.7049 19.9393C57.4949 20.0076 57.3799 20.2333 57.4482 20.4433C57.5166 20.6534 57.7422 20.7684 57.9523 20.7L57.8286 20.3197L57.7049 19.9393ZM59.845 20.0225C60.0507 19.942 60.1522 19.7099 60.0716 19.5042C59.9911 19.2985 59.759 19.1971 59.5533 19.2776L59.6992 19.6501L59.845 20.0225ZM63.1055 17.6262C62.9118 17.7324 62.8409 17.9756 62.9471 18.1693C63.0533 18.363 63.2964 18.4339 63.4901 18.3277L63.2978 17.9769L63.1055 17.6262ZM-5.12475 37.6488L-4.78941 37.4308C-4.98246 37.1339 -5.16905 36.8378 -5.34928 36.5425L-5.6907 36.7509L-6.03211 36.9593C-5.84788 37.2612 -5.65724 37.5637 -5.4601 37.8669L-5.12475 37.6488ZM-7.63257 33.0879L-7.26784 32.9237C-7.55548 32.2848 -7.81386 31.6511 -8.04414 31.0231L-8.41969 31.1608L-8.79524 31.2985C-8.55825 31.9448 -8.29262 32.5962 -7.9973 33.2521L-7.63257 33.0879ZM-9.536 27.1722L-9.14322 27.0966C-9.27424 26.4165 -9.37252 25.7448 -9.4397 25.0822L-9.83766 25.1225L-10.2356 25.1629C-10.166 25.8494 -10.0642 26.5447 -9.92878 27.2479L-9.536 27.1722ZM-9.86245 20.9714L-9.46413 21.008C-9.40117 20.3228 -9.30452 19.6501 -9.17628 18.991L-9.56891 18.9147L-9.96155 18.8383C-10.0949 19.5236 -10.1954 20.2228 -10.2608 20.9348L-9.86245 20.9714ZM-8.36882 14.9436L-7.99954 15.0974C-7.7371 14.4669 -7.44444 13.8534 -7.12395 13.258L-7.47617 13.0684L-7.82839 12.8789C-8.16124 13.4973 -8.46533 14.1347 -8.7381 14.7899L-8.36882 14.9436ZM-5.16626 9.62152L-4.85658 9.87469C-4.42521 9.34704 -3.96999 8.84053 -3.49348 8.35637L-3.77857 8.07579L-4.06365 7.79521C-4.55715 8.29663 -5.0288 8.82141 -5.47594 9.36835L-5.16626 9.62152ZM-0.61352 5.39076L-0.382866 5.71756C0.174544 5.32415 0.748327 4.95611 1.33581 4.61468L1.13482 4.26884L0.93383 3.92301C0.326076 4.27622 -0.267504 4.65695 -0.844172 5.06396L-0.61352 5.39076ZM4.89472 2.50938L5.03112 2.8854C5.67307 2.65254 6.32346 2.44978 6.97947 2.27837L6.87835 1.89136L6.77723 1.50435C6.09706 1.68207 5.42314 1.8922 4.75832 2.13335L4.89472 2.50938ZM10.976 1.2345L10.9997 1.6338C11.6791 1.59341 12.3583 1.58816 13.0345 1.61932L13.0529 1.21974L13.0713 0.820166C12.3664 0.787683 11.659 0.793192 10.9522 0.835205L10.976 1.2345ZM17.1474 1.87071L17.0397 2.25594C17.6884 2.4373 18.3284 2.65727 18.9569 2.91717L19.1097 2.54753L19.2626 2.17789C18.6042 1.90561 17.934 1.67528 17.2551 1.48548L17.1474 1.87071ZM22.7195 4.58191L22.4827 4.90427C23.0186 5.29804 23.54 5.72926 24.0443 6.1991L24.3169 5.90643L24.5896 5.61376C24.0627 5.12286 23.5174 4.67181 22.9563 4.25956L22.7195 4.58191ZM27.0238 9.04238L26.6957 9.27112C26.8905 9.55059 27.081 9.83842 27.2669 10.1347L27.6057 9.92215L27.9445 9.70956C27.7519 9.40244 27.5543 9.10382 27.352 8.81364L27.0238 9.04238ZM27.6057 9.92215L27.2669 10.1347C27.4488 10.4248 27.6329 10.7086 27.8191 10.9864L28.1514 10.7638L28.4837 10.5411C28.302 10.27 28.1223 9.99289 27.9445 9.70956L27.6057 9.92215ZM30.5659 13.907L30.2661 14.1718C30.7197 14.6853 31.1819 15.1702 31.6517 15.6277L31.9308 15.3411L32.2098 15.0545C31.7546 14.6112 31.3062 14.1408 30.8657 13.6421L30.5659 13.907ZM34.992 17.8707L34.7641 18.1995C35.3264 18.5891 35.8955 18.9469 36.4703 19.2743L36.6683 18.9268L36.8663 18.5792C36.312 18.2634 35.7627 17.9182 35.2199 17.5419L34.992 17.8707ZM40.277 20.5727L40.1444 20.95C40.7865 21.1757 41.4315 21.37 42.0775 21.5349L42.1765 21.1473L42.2754 20.7598C41.6516 20.6005 41.0291 20.413 40.4097 20.1953L40.277 20.5727ZM46.0882 21.8019L46.0545 22.2004C46.7292 22.2574 47.4009 22.2873 48.0676 22.2927L48.0708 21.8927L48.074 21.4927C47.4269 21.4875 46.7755 21.4585 46.1219 21.4033L46.0882 21.8019ZM52.0297 21.6434L52.082 22.04C52.7548 21.9513 53.4176 21.8414 54.0679 21.7132L53.9905 21.3207L53.9131 20.9283C53.2788 21.0533 52.6329 21.1605 51.9775 21.2468L52.0297 21.6434ZM57.8286 20.3197L57.9523 20.7C58.6055 20.4876 59.2375 20.2604 59.845 20.0225L59.6992 19.6501L59.5533 19.2776C58.9601 19.5099 58.3429 19.7318 57.7049 19.9393L57.8286 20.3197ZM63.2978 17.9769L63.4901 18.3277C63.7933 18.1614 64.0843 17.9944 64.3623 17.8277L64.1565 17.4846L63.9507 17.1416C63.6819 17.3029 63.3999 17.4648 63.1055 17.6262L63.2978 17.9769Z" fill="#FFFEA3"/>
</svg>
