<svg width="218" height="102" viewBox="0 0 218 102" fill="none" xmlns="http://www.w3.org/2000/svg">
<rect x="0.763672" y="68.1716" width="129.686" height="19.0016" fill="white"/>
<path d="M96.082 12.5391V18.6165H99.5356V20.7048H96.082V26.7018H93.5118V12.5391H96.082ZM88.3179 27.157C93.2173 27.157 96.2694 28.8704 96.2694 31.8154C96.2694 34.7604 93.2173 36.5006 88.3179 36.4738C83.365 36.5006 80.2593 34.7604 80.2593 31.8154C80.2593 28.8704 83.365 27.157 88.3179 27.157ZM88.3179 29.2185C84.8375 29.1917 82.7492 30.1555 82.776 31.8154C82.7492 33.4753 84.8375 34.4391 88.3179 34.4391C91.718 34.4391 93.8063 33.4753 93.8331 31.8154C93.8063 30.1555 91.718 29.1917 88.3179 29.2185ZM88.9337 14.3061V16.3676H80.7413V22.9001C85.4666 22.8867 88.1305 22.7395 91.1558 22.1237L91.3968 24.1852C88.184 24.8545 85.3194 24.9616 80.1255 24.9616H78.2246V14.3061H88.9337ZM120.245 12.5659V30.1287H117.701V12.5659H120.245ZM120.968 33.9572V36.0187H104.556V28.4688H107.126V33.9572H120.968ZM109.081 16.2605C109.054 19.7677 111.303 22.9804 114.997 24.2655L113.686 26.3002C110.915 25.2695 108.866 23.2348 107.796 20.6244C106.738 23.4088 104.663 25.6443 101.852 26.7286L100.487 24.7206C104.262 23.3285 106.484 19.8748 106.484 16.2605V13.8777H109.081V16.2605ZM131.316 14.2525C135.118 14.2258 137.822 16.5818 137.848 19.9551C137.822 23.3285 135.118 25.6845 131.316 25.6845C127.541 25.6845 124.757 23.3285 124.783 19.9551C124.757 16.5818 127.541 14.2258 131.316 14.2525ZM131.316 16.4479C128.987 16.4479 127.273 17.8401 127.3 19.9551C127.273 22.0702 128.987 23.4623 131.316 23.4623C133.645 23.4623 135.359 22.0702 135.359 19.9551C135.359 17.8401 133.645 16.4479 131.316 16.4479ZM143.337 12.5391V36.5809H140.793V12.5391H143.337ZM123.632 29.2988C127.996 29.2988 134.047 29.2452 139.294 28.4956L139.481 30.3429C134.047 31.387 128.237 31.4138 123.953 31.4138L123.632 29.2988Z" fill="#676767"/>
<path d="M144.148 70.7523C144.148 73.028 146.29 74.9824 149.797 75.732L148.753 77.7132C145.996 77.0974 143.974 75.7186 142.917 73.8847C141.886 75.8793 139.824 77.3785 136.973 78.0345L135.902 76.0533C139.436 75.3037 141.605 73.1351 141.605 70.7523H136.438V68.7444H141.605V66.1742H144.148V68.7444H149.289V70.7523H144.148ZM154.831 66.1474V90.1089H152.314V66.1474H154.831ZM134.858 79.507C139.409 79.507 145.433 79.4802 150.654 78.8109L150.841 80.6582C148.646 81.0196 146.384 81.2472 144.175 81.381V89.3861H141.632V81.5149C139.329 81.6086 137.134 81.622 135.206 81.622L134.858 79.507ZM180.278 70.083V72.1713H176.878V75.1966H180.278V77.2848H176.878V81.5149H174.335V66.1206H176.878V70.083H180.278ZM169.221 81.7023C174.121 81.7023 177.146 83.2551 177.146 85.9056C177.146 88.5026 174.121 90.0822 169.221 90.0554C164.268 90.0822 161.243 88.5026 161.27 85.9056C161.243 83.2551 164.268 81.7023 169.221 81.7023ZM169.221 83.6567C165.768 83.6567 163.76 84.4331 163.787 85.9056C163.76 87.2978 165.768 88.1278 169.221 88.1278C172.621 88.1278 174.629 87.2978 174.629 85.9056C174.629 84.4331 172.621 83.6567 169.221 83.6567ZM172.354 68.6908V70.6988H158.057V68.6908H163.947V65.9332H166.491V68.6908H172.354ZM165.205 71.7964C168.659 71.7964 171.015 73.5099 171.015 76.0801C171.015 78.6502 168.659 80.3369 165.205 80.3101C161.698 80.3369 159.369 78.6502 159.369 76.0801C159.369 73.5099 161.698 71.7964 165.205 71.7964ZM165.205 73.6973C163.171 73.6973 161.805 74.6076 161.832 76.0801C161.805 77.499 163.171 78.3825 165.205 78.3825C167.24 78.3825 168.606 77.499 168.632 76.0801C168.606 74.6076 167.24 73.6973 165.205 73.6973ZM203.049 78.6502V80.685H181.176V78.6502H203.049ZM200.586 87.5388V89.6002H183.933V82.6394H186.504V87.5388H200.586ZM192.099 66.9238C197.293 66.897 200.666 68.7176 200.666 71.7161C200.666 74.7414 197.293 76.562 192.099 76.5887C186.878 76.562 183.532 74.7414 183.532 71.7161C183.532 68.7176 186.878 66.897 192.099 66.9238ZM192.099 68.9585C188.431 68.9585 186.129 70.0027 186.156 71.7161C186.129 73.4831 188.431 74.5005 192.099 74.5005C195.767 74.5005 198.043 73.4831 198.043 71.7161C198.043 70.0027 195.767 68.9585 192.099 68.9585ZM208.257 82.0771C208.284 78.5699 209.328 77.499 211.095 76.4013C212.219 75.7052 213.076 74.7414 213.076 73.3225C213.076 71.6358 211.791 70.5917 210.185 70.5917C208.739 70.5917 207.347 71.4752 207.213 73.4563H204.321C204.428 70.0562 206.999 68.1821 210.185 68.1821C213.665 68.1821 215.994 70.2704 215.994 73.3225C215.994 75.4643 214.977 76.91 213.263 77.9541C211.657 78.918 211.041 79.9086 210.988 82.0771V82.2378H208.257V82.0771ZM209.729 88.0207C208.685 88.0207 207.802 87.1639 207.829 86.1198C207.802 85.0757 208.685 84.2189 209.729 84.2189C210.747 84.2189 211.63 85.0757 211.63 86.1198C211.63 87.1639 210.747 88.0207 209.729 88.0207Z" fill="#676767"/>
<mask id="path-4-outside-1_2446_3232" maskUnits="userSpaceOnUse" x="5.41211" y="61.8333" width="121" height="32" fill="black">
<rect fill="white" x="5.41211" y="61.8333" width="121" height="32"/>
<path d="M22.7886 75.8802H20.5405V69.2458H10.4243V67.217H21.5549C21.957 67.217 22.2585 67.3267 22.4596 67.546C22.6789 67.7471 22.7886 68.0486 22.7886 68.4507V75.8802ZM23.1175 92.1923H20.8695V85.4481H10.0131V83.4194H15.5784V79.7458H5.84598V77.717H27.5588V79.7458H17.8264V83.4194H21.8839C22.2859 83.4194 22.5875 83.5291 22.7886 83.7484C23.0079 83.9494 23.1175 84.251 23.1175 84.6531V92.1923ZM38.992 77.717H48.6696V79.7458H26.9567V77.717H36.744V74.1531H33.2074C32.8053 74.1531 32.4946 74.0526 32.2753 73.8515C32.0742 73.6322 31.9737 73.3215 31.9737 72.9194V63.0773H43.7897V65.1061H34.2218V67.5734H43.5155V69.5747H34.2218V72.1244H43.8445V74.1531H38.992V77.717ZM70.356 71.0277H66.0793V79.7458H63.8861V62.7484H66.0793V68.999H70.356V62.5839H72.5493V73.8241C72.5493 75.0486 72.7229 75.9625 73.0702 76.5656C73.4174 77.1687 73.9657 77.5526 74.7151 77.717V79.7458C73.326 79.6544 72.2477 79.1518 71.4801 78.2379C70.7307 77.3241 70.356 75.999 70.356 74.2627V71.0277ZM61.7203 77.717V79.7458H48.0675V77.717H51.5766C51.3939 77.516 51.2568 77.2693 51.1654 76.9768C51.074 76.6661 51.0283 76.264 51.0283 75.7706V68.8894H60.3495V70.9181H53.2216V75.8802C53.2216 76.5199 53.3495 76.986 53.6054 77.2784C53.8795 77.5708 54.2907 77.717 54.8391 77.717H61.7203ZM93.624 62.5839H95.8721V68.7523H99.7102V70.781H95.8721V73.9063C95.8721 75.1674 96.0823 76.1178 96.5026 76.7575C96.9413 77.3972 97.6815 77.717 98.7233 77.717H99.4086V79.7458H98.6958C97.0327 79.7458 95.7716 79.2614 94.9126 78.2928C94.0535 77.3241 93.624 75.8894 93.624 73.9886V62.5839ZM74.1044 79.7458V77.717H76.2428C78.3081 77.717 79.9073 77.2419 81.0405 76.2915C82.1919 75.3411 82.7676 74.0069 82.7676 72.2888V70.781H77.2023V68.7523H90.4987V70.781H85.0979V72.2888C85.0979 73.952 85.6279 75.2588 86.688 76.2092C87.7663 77.1413 89.265 77.6257 91.1841 77.6622V79.6361C89.5757 79.6361 88.141 79.3254 86.8799 78.704C85.6188 78.0643 84.641 77.1779 83.9465 76.0447C83.2702 77.2144 82.2833 78.1283 80.9856 78.7862C79.688 79.4259 78.1984 79.7458 76.517 79.7458H74.1044ZM89.923 92.6035C88.8264 92.6035 87.8394 92.375 86.9622 91.9181C86.1031 91.4612 85.4269 90.8306 84.9334 90.0265C84.4582 89.2223 84.2206 88.3176 84.2206 87.3124C84.2206 86.3071 84.4582 85.4024 84.9334 84.5983C85.4269 83.7941 86.1031 83.1727 86.9622 82.734C87.8394 82.2771 88.8264 82.0486 89.923 82.0486H95.0222V84.0774H89.923C88.9178 84.0774 88.0862 84.3789 87.4282 84.9821C86.7885 85.5852 86.4687 86.362 86.4687 87.3124C86.4687 88.2628 86.7885 89.0395 87.4282 89.6427C88.0862 90.2641 88.9178 90.5748 89.923 90.5748C90.9282 90.5748 91.7507 90.2641 92.3904 89.6427C93.03 89.0395 93.3499 88.2628 93.3499 87.3124C93.3499 86.5996 93.1854 86.0147 92.8564 85.5578H95.077C95.4243 86.033 95.5979 86.6178 95.5979 87.3124C95.5979 88.3176 95.3512 89.2223 94.8577 90.0265C94.3825 90.8306 93.7154 91.4612 92.8564 91.9181C91.9974 92.375 91.0196 92.6035 89.923 92.6035ZM125.972 79.7458C124.565 79.6544 123.477 79.1518 122.709 78.2379C121.942 77.3058 121.558 75.9808 121.558 74.2627V70.781H116.212V68.7523H121.558V62.5839H123.806V73.8241C123.806 76.0904 124.528 77.3881 125.972 77.717V79.7458ZM98.776 79.7458V77.717H100.914C102.925 77.717 104.478 77.2419 105.575 76.2915C106.672 75.3411 107.22 74.0069 107.22 72.2888V70.781H101.874V68.7523H114.732V70.781H109.55V72.2888C109.55 73.952 110.062 75.2588 111.085 76.2092C112.127 77.1413 113.571 77.6257 115.417 77.6622V79.6361C113.845 79.6361 112.447 79.3254 111.222 78.704C109.998 78.0643 109.057 77.1779 108.399 76.0447C107.759 77.2144 106.809 78.1283 105.548 78.7862C104.286 79.4259 102.833 79.7458 101.188 79.7458H98.776ZM117.61 92.5761C116.532 92.5761 115.563 92.3476 114.704 91.8907C113.845 91.4521 113.169 90.8306 112.675 90.0265C112.2 89.2223 111.963 88.3176 111.963 87.3124C111.963 86.3071 112.2 85.4024 112.675 84.5983C113.169 83.7941 113.845 83.1727 114.704 82.734C115.563 82.2771 116.532 82.0486 117.61 82.0486H122.682V84.0774H117.61C116.623 84.0774 115.81 84.3789 115.17 84.9821C114.531 85.5852 114.211 86.362 114.211 87.3124C114.211 88.2628 114.531 89.0395 115.17 89.6427C115.81 90.2458 116.623 90.5474 117.61 90.5474C118.615 90.5474 119.438 90.2458 120.078 89.6427C120.717 89.0395 121.037 88.2628 121.037 87.3124C121.037 86.9834 120.991 86.6635 120.9 86.3528C120.809 86.0421 120.69 85.7771 120.544 85.5578H122.764C122.929 85.8137 123.057 86.0695 123.148 86.3254C123.239 86.5813 123.285 86.9103 123.285 87.3124C123.285 88.3176 123.038 89.2223 122.545 90.0265C122.07 90.8306 121.403 91.4521 120.544 91.8907C119.685 92.3476 118.707 92.5761 117.61 92.5761Z"/>
</mask>
<path d="M22.7886 75.8802H20.5405V69.2458H10.4243V67.217H21.5549C21.957 67.217 22.2585 67.3267 22.4596 67.546C22.6789 67.7471 22.7886 68.0486 22.7886 68.4507V75.8802ZM23.1175 92.1923H20.8695V85.4481H10.0131V83.4194H15.5784V79.7458H5.84598V77.717H27.5588V79.7458H17.8264V83.4194H21.8839C22.2859 83.4194 22.5875 83.5291 22.7886 83.7484C23.0079 83.9494 23.1175 84.251 23.1175 84.6531V92.1923ZM38.992 77.717H48.6696V79.7458H26.9567V77.717H36.744V74.1531H33.2074C32.8053 74.1531 32.4946 74.0526 32.2753 73.8515C32.0742 73.6322 31.9737 73.3215 31.9737 72.9194V63.0773H43.7897V65.1061H34.2218V67.5734H43.5155V69.5747H34.2218V72.1244H43.8445V74.1531H38.992V77.717ZM70.356 71.0277H66.0793V79.7458H63.8861V62.7484H66.0793V68.999H70.356V62.5839H72.5493V73.8241C72.5493 75.0486 72.7229 75.9625 73.0702 76.5656C73.4174 77.1687 73.9657 77.5526 74.7151 77.717V79.7458C73.326 79.6544 72.2477 79.1518 71.4801 78.2379C70.7307 77.3241 70.356 75.999 70.356 74.2627V71.0277ZM61.7203 77.717V79.7458H48.0675V77.717H51.5766C51.3939 77.516 51.2568 77.2693 51.1654 76.9768C51.074 76.6661 51.0283 76.264 51.0283 75.7706V68.8894H60.3495V70.9181H53.2216V75.8802C53.2216 76.5199 53.3495 76.986 53.6054 77.2784C53.8795 77.5708 54.2907 77.717 54.8391 77.717H61.7203ZM93.624 62.5839H95.8721V68.7523H99.7102V70.781H95.8721V73.9063C95.8721 75.1674 96.0823 76.1178 96.5026 76.7575C96.9413 77.3972 97.6815 77.717 98.7233 77.717H99.4086V79.7458H98.6958C97.0327 79.7458 95.7716 79.2614 94.9126 78.2928C94.0535 77.3241 93.624 75.8894 93.624 73.9886V62.5839ZM74.1044 79.7458V77.717H76.2428C78.3081 77.717 79.9073 77.2419 81.0405 76.2915C82.1919 75.3411 82.7676 74.0069 82.7676 72.2888V70.781H77.2023V68.7523H90.4987V70.781H85.0979V72.2888C85.0979 73.952 85.6279 75.2588 86.688 76.2092C87.7663 77.1413 89.265 77.6257 91.1841 77.6622V79.6361C89.5757 79.6361 88.141 79.3254 86.8799 78.704C85.6188 78.0643 84.641 77.1779 83.9465 76.0447C83.2702 77.2144 82.2833 78.1283 80.9856 78.7862C79.688 79.4259 78.1984 79.7458 76.517 79.7458H74.1044ZM89.923 92.6035C88.8264 92.6035 87.8394 92.375 86.9622 91.9181C86.1031 91.4612 85.4269 90.8306 84.9334 90.0265C84.4582 89.2223 84.2206 88.3176 84.2206 87.3124C84.2206 86.3071 84.4582 85.4024 84.9334 84.5983C85.4269 83.7941 86.1031 83.1727 86.9622 82.734C87.8394 82.2771 88.8264 82.0486 89.923 82.0486H95.0222V84.0774H89.923C88.9178 84.0774 88.0862 84.3789 87.4282 84.9821C86.7885 85.5852 86.4687 86.362 86.4687 87.3124C86.4687 88.2628 86.7885 89.0395 87.4282 89.6427C88.0862 90.2641 88.9178 90.5748 89.923 90.5748C90.9282 90.5748 91.7507 90.2641 92.3904 89.6427C93.03 89.0395 93.3499 88.2628 93.3499 87.3124C93.3499 86.5996 93.1854 86.0147 92.8564 85.5578H95.077C95.4243 86.033 95.5979 86.6178 95.5979 87.3124C95.5979 88.3176 95.3512 89.2223 94.8577 90.0265C94.3825 90.8306 93.7154 91.4612 92.8564 91.9181C91.9974 92.375 91.0196 92.6035 89.923 92.6035ZM125.972 79.7458C124.565 79.6544 123.477 79.1518 122.709 78.2379C121.942 77.3058 121.558 75.9808 121.558 74.2627V70.781H116.212V68.7523H121.558V62.5839H123.806V73.8241C123.806 76.0904 124.528 77.3881 125.972 77.717V79.7458ZM98.776 79.7458V77.717H100.914C102.925 77.717 104.478 77.2419 105.575 76.2915C106.672 75.3411 107.22 74.0069 107.22 72.2888V70.781H101.874V68.7523H114.732V70.781H109.55V72.2888C109.55 73.952 110.062 75.2588 111.085 76.2092C112.127 77.1413 113.571 77.6257 115.417 77.6622V79.6361C113.845 79.6361 112.447 79.3254 111.222 78.704C109.998 78.0643 109.057 77.1779 108.399 76.0447C107.759 77.2144 106.809 78.1283 105.548 78.7862C104.286 79.4259 102.833 79.7458 101.188 79.7458H98.776ZM117.61 92.5761C116.532 92.5761 115.563 92.3476 114.704 91.8907C113.845 91.4521 113.169 90.8306 112.675 90.0265C112.2 89.2223 111.963 88.3176 111.963 87.3124C111.963 86.3071 112.2 85.4024 112.675 84.5983C113.169 83.7941 113.845 83.1727 114.704 82.734C115.563 82.2771 116.532 82.0486 117.61 82.0486H122.682V84.0774H117.61C116.623 84.0774 115.81 84.3789 115.17 84.9821C114.531 85.5852 114.211 86.362 114.211 87.3124C114.211 88.2628 114.531 89.0395 115.17 89.6427C115.81 90.2458 116.623 90.5474 117.61 90.5474C118.615 90.5474 119.438 90.2458 120.078 89.6427C120.717 89.0395 121.037 88.2628 121.037 87.3124C121.037 86.9834 120.991 86.6635 120.9 86.3528C120.809 86.0421 120.69 85.7771 120.544 85.5578H122.764C122.929 85.8137 123.057 86.0695 123.148 86.3254C123.239 86.5813 123.285 86.9103 123.285 87.3124C123.285 88.3176 123.038 89.2223 122.545 90.0265C122.07 90.8306 121.403 91.4521 120.544 91.8907C119.685 92.3476 118.707 92.5761 117.61 92.5761Z" fill="#FF6A6A"/>
<path d="M22.7886 75.8802V76.2378H23.1461V75.8802H22.7886ZM20.5405 75.8802H20.1829V76.2378H20.5405V75.8802ZM20.5405 69.2458H20.8981V68.8882H20.5405V69.2458ZM10.4243 69.2458H10.0667V69.6033H10.4243V69.2458ZM10.4243 67.217V66.8594H10.0667V67.217H10.4243ZM22.4596 67.546L22.196 67.7876L22.2065 67.7991L22.2179 67.8096L22.4596 67.546ZM23.1175 92.1923V92.5499H23.4751V92.1923H23.1175ZM20.8695 92.1923H20.5119V92.5499H20.8695V92.1923ZM20.8695 85.4481H21.2271V85.0905H20.8695V85.4481ZM10.0131 85.4481H9.65549V85.8057H10.0131V85.4481ZM10.0131 83.4194V83.0618H9.65549V83.4194H10.0131ZM15.5784 83.4194V83.777H15.936V83.4194H15.5784ZM15.5784 79.7458H15.936V79.3882H15.5784V79.7458ZM5.84598 79.7458H5.48839V80.1034H5.84598V79.7458ZM5.84598 77.717V77.3595H5.48839V77.717H5.84598ZM27.5588 77.717H27.9164V77.3595H27.5588V77.717ZM27.5588 79.7458V80.1034H27.9164V79.7458H27.5588ZM17.8264 79.7458V79.3882H17.4688V79.7458H17.8264ZM17.8264 83.4194H17.4688V83.777H17.8264V83.4194ZM22.7886 83.7484L22.525 83.99L22.5355 84.0015L22.5469 84.012L22.7886 83.7484ZM22.7886 75.8802V75.5226H20.5405V75.8802V76.2378H22.7886V75.8802ZM20.5405 75.8802H20.8981V69.2458H20.5405H20.1829V75.8802H20.5405ZM20.5405 69.2458V68.8882H10.4243V69.2458V69.6033H20.5405V69.2458ZM10.4243 69.2458H10.7819V67.217H10.4243H10.0667V69.2458H10.4243ZM10.4243 67.217V67.5746H21.5549V67.217V66.8594H10.4243V67.217ZM21.5549 67.217V67.5746C21.8935 67.5746 22.084 67.6655 22.196 67.7876L22.4596 67.546L22.7232 67.3044C22.433 66.9879 22.0205 66.8594 21.5549 66.8594V67.217ZM22.4596 67.546L22.2179 67.8096C22.3401 67.9216 22.431 68.1121 22.431 68.4507H22.7886H23.1461C23.1461 67.9851 23.0177 67.5726 22.7012 67.2824L22.4596 67.546ZM22.7886 68.4507H22.431V75.8802H22.7886H23.1461V68.4507H22.7886ZM23.1175 92.1923V91.8347H20.8695V92.1923V92.5499H23.1175V92.1923ZM20.8695 92.1923H21.2271V85.4481H20.8695H20.5119V92.1923H20.8695ZM20.8695 85.4481V85.0905H10.0131V85.4481V85.8057H20.8695V85.4481ZM10.0131 85.4481H10.3707V83.4194H10.0131H9.65549V85.4481H10.0131ZM10.0131 83.4194V83.777H15.5784V83.4194V83.0618H10.0131V83.4194ZM15.5784 83.4194H15.936V79.7458H15.5784H15.2208V83.4194H15.5784ZM15.5784 79.7458V79.3882H5.84598V79.7458V80.1034H15.5784V79.7458ZM5.84598 79.7458H6.20356V77.717H5.84598H5.48839V79.7458H5.84598ZM5.84598 77.717V78.0746H27.5588V77.717V77.3595H5.84598V77.717ZM27.5588 77.717H27.2012V79.7458H27.5588H27.9164V77.717H27.5588ZM27.5588 79.7458V79.3882H17.8264V79.7458V80.1034H27.5588V79.7458ZM17.8264 79.7458H17.4688V83.4194H17.8264H18.184V79.7458H17.8264ZM17.8264 83.4194V83.777H21.8839V83.4194V83.0618H17.8264V83.4194ZM21.8839 83.4194V83.777C22.2224 83.777 22.413 83.8679 22.525 83.99L22.7886 83.7484L23.0522 83.5068C22.762 83.1902 22.3495 83.0618 21.8839 83.0618V83.4194ZM22.7886 83.7484L22.5469 84.012C22.6691 84.1239 22.76 84.3145 22.76 84.6531H23.1175H23.4751C23.4751 84.1875 23.3467 83.7749 23.0302 83.4848L22.7886 83.7484ZM23.1175 84.6531H22.76V92.1923H23.1175H23.4751V84.6531H23.1175ZM38.992 77.717H38.6344V78.0746H38.992V77.717ZM48.6696 77.717H49.0272V77.3595H48.6696V77.717ZM48.6696 79.7458V80.1034H49.0272V79.7458H48.6696ZM26.9567 79.7458H26.5991V80.1034H26.9567V79.7458ZM26.9567 77.717V77.3595H26.5991V77.717H26.9567ZM36.744 77.717V78.0746H37.1015V77.717H36.744ZM36.744 74.1531H37.1015V73.7955H36.744V74.1531ZM32.2753 73.8515L32.0117 74.0931L32.0222 74.1046L32.0337 74.1151L32.2753 73.8515ZM31.9737 63.0773V62.7197H31.6161V63.0773H31.9737ZM43.7897 63.0773H44.1473V62.7197H43.7897V63.0773ZM43.7897 65.1061V65.4637H44.1473V65.1061H43.7897ZM34.2218 65.1061V64.7485H33.8642V65.1061H34.2218ZM34.2218 67.5734H33.8642V67.931H34.2218V67.5734ZM43.5155 67.5734H43.8731V67.2158H43.5155V67.5734ZM43.5155 69.5747V69.9323H43.8731V69.5747H43.5155ZM34.2218 69.5747V69.2171H33.8642V69.5747H34.2218ZM34.2218 72.1244H33.8642V72.4819H34.2218V72.1244ZM43.8445 72.1244H44.2021V71.7668H43.8445V72.1244ZM43.8445 74.1531V74.5107H44.2021V74.1531H43.8445ZM38.992 74.1531V73.7955H38.6344V74.1531H38.992ZM38.992 77.717V78.0746H48.6696V77.717V77.3595H38.992V77.717ZM48.6696 77.717H48.312V79.7458H48.6696H49.0272V77.717H48.6696ZM48.6696 79.7458V79.3882H26.9567V79.7458V80.1034H48.6696V79.7458ZM26.9567 79.7458H27.3143V77.717H26.9567H26.5991V79.7458H26.9567ZM26.9567 77.717V78.0746H36.744V77.717V77.3595H26.9567V77.717ZM36.744 77.717H37.1015V74.1531H36.744H36.3864V77.717H36.744ZM36.744 74.1531V73.7955H33.2074V74.1531V74.5107H36.744V74.1531ZM33.2074 74.1531V73.7955C32.8629 73.7955 32.65 73.7099 32.5169 73.5879L32.2753 73.8515L32.0337 74.1151C32.3392 74.3952 32.7478 74.5107 33.2074 74.5107V74.1531ZM32.2753 73.8515L32.5389 73.6099C32.4169 73.4768 32.3313 73.2639 32.3313 72.9194H31.9737H31.6161C31.6161 73.379 31.7316 73.7876 32.0117 74.0931L32.2753 73.8515ZM31.9737 72.9194H32.3313V63.0773H31.9737H31.6161V72.9194H31.9737ZM31.9737 63.0773V63.4349H43.7897V63.0773V62.7197H31.9737V63.0773ZM43.7897 63.0773H43.4321V65.1061H43.7897H44.1473V63.0773H43.7897ZM43.7897 65.1061V64.7485H34.2218V65.1061V65.4637H43.7897V65.1061ZM34.2218 65.1061H33.8642V67.5734H34.2218H34.5794V65.1061H34.2218ZM34.2218 67.5734V67.931H43.5155V67.5734V67.2158H34.2218V67.5734ZM43.5155 67.5734H43.1579V69.5747H43.5155H43.8731V67.5734H43.5155ZM43.5155 69.5747V69.2171H34.2218V69.5747V69.9323H43.5155V69.5747ZM34.2218 69.5747H33.8642V72.1244H34.2218H34.5794V69.5747H34.2218ZM34.2218 72.1244V72.4819H43.8445V72.1244V71.7668H34.2218V72.1244ZM43.8445 72.1244H43.4869V74.1531H43.8445H44.2021V72.1244H43.8445ZM43.8445 74.1531V73.7955H38.992V74.1531V74.5107H43.8445V74.1531ZM38.992 74.1531H38.6344V77.717H38.992H39.3496V74.1531H38.992ZM70.356 71.0277H70.7136V70.6702H70.356V71.0277ZM66.0793 71.0277V70.6702H65.7217V71.0277H66.0793ZM66.0793 79.7458V80.1034H66.4369V79.7458H66.0793ZM63.8861 79.7458H63.5285V80.1034H63.8861V79.7458ZM63.8861 62.7484V62.3908H63.5285V62.7484H63.8861ZM66.0793 62.7484H66.4369V62.3908H66.0793V62.7484ZM66.0793 68.999H65.7217V69.3566H66.0793V68.999ZM70.356 68.999V69.3566H70.7136V68.999H70.356ZM70.356 62.5839V62.2263H69.9985V62.5839H70.356ZM72.5493 62.5839H72.9069V62.2263H72.5493V62.5839ZM73.0702 76.5656L73.3801 76.3872H73.38L73.0702 76.5656ZM74.7151 77.717H75.0727V77.4294L74.7917 77.3678L74.7151 77.717ZM74.7151 79.7458L74.6916 80.1026L75.0727 80.1277V79.7458H74.7151ZM71.4801 78.2379L71.2035 78.4647L71.2063 78.4679L71.4801 78.2379ZM61.7203 77.717H62.0779V77.3595H61.7203V77.717ZM61.7203 79.7458V80.1034H62.0779V79.7458H61.7203ZM48.0675 79.7458H47.7099V80.1034H48.0675V79.7458ZM48.0675 77.717V77.3595H47.7099V77.717H48.0675ZM51.5766 77.717V78.0746H52.385L51.8412 77.4765L51.5766 77.717ZM51.1654 76.9768L50.8223 77.0778L50.8241 77.0835L51.1654 76.9768ZM51.0283 68.8894V68.5318H50.6708V68.8894H51.0283ZM60.3495 68.8894H60.7071V68.5318H60.3495V68.8894ZM60.3495 70.9181V71.2757H60.7071V70.9181H60.3495ZM53.2216 70.9181V70.5605H52.864V70.9181H53.2216ZM53.6054 77.2784L53.3361 77.514L53.3445 77.523L53.6054 77.2784ZM70.356 71.0277V70.6702H66.0793V71.0277V71.3853H70.356V71.0277ZM66.0793 71.0277H65.7217V79.7458H66.0793H66.4369V71.0277H66.0793ZM66.0793 79.7458V79.3882H63.8861V79.7458V80.1034H66.0793V79.7458ZM63.8861 79.7458H64.2437V62.7484H63.8861H63.5285V79.7458H63.8861ZM63.8861 62.7484V63.1059H66.0793V62.7484V62.3908H63.8861V62.7484ZM66.0793 62.7484H65.7217V68.999H66.0793H66.4369V62.7484H66.0793ZM66.0793 68.999V69.3566H70.356V68.999V68.6414H66.0793V68.999ZM70.356 68.999H70.7136V62.5839H70.356H69.9985V68.999H70.356ZM70.356 62.5839V62.9415H72.5493V62.5839V62.2263H70.356V62.5839ZM72.5493 62.5839H72.1917V73.8241H72.5493H72.9069V62.5839H72.5493ZM72.5493 73.8241H72.1917C72.1917 75.0701 72.3662 76.0596 72.7603 76.744L73.0702 76.5656L73.38 76.3872C73.0796 75.8654 72.9069 75.0272 72.9069 73.8241H72.5493ZM73.0702 76.5656L72.7603 76.744C73.1632 77.4439 73.8019 77.8827 74.6384 78.0663L74.7151 77.717L74.7917 77.3678C74.1295 77.2224 73.6716 76.8936 73.3801 76.3872L73.0702 76.5656ZM74.7151 77.717H74.3575V79.7458H74.7151H75.0727V77.717H74.7151ZM74.7151 79.7458L74.7385 79.389C73.4292 79.3028 72.4483 78.8347 71.7539 78.0079L71.4801 78.2379L71.2063 78.4679C72.0471 79.4689 73.2229 80.006 74.6916 80.1026L74.7151 79.7458ZM71.4801 78.2379L71.7566 78.0112C71.0794 77.1853 70.7136 75.9539 70.7136 74.2627H70.356H69.9985C69.9985 76.0441 70.3821 77.4629 71.2036 78.4647L71.4801 78.2379ZM70.356 74.2627H70.7136V71.0277H70.356H69.9985V74.2627H70.356ZM61.7203 77.717H61.3627V79.7458H61.7203H62.0779V77.717H61.7203ZM61.7203 79.7458V79.3882H48.0675V79.7458V80.1034H61.7203V79.7458ZM48.0675 79.7458H48.4251V77.717H48.0675H47.7099V79.7458H48.0675ZM48.0675 77.717V78.0746H51.5766V77.717V77.3595H48.0675V77.717ZM51.5766 77.717L51.8412 77.4765C51.6977 77.3186 51.5846 77.1193 51.5067 76.8702L51.1654 76.9768L50.8241 77.0835C50.929 77.4192 51.09 77.7134 51.312 77.9576L51.5766 77.717ZM51.1654 76.9768L51.5085 76.8759C51.4304 76.6104 51.3859 76.2458 51.3859 75.7706H51.0283H50.6708C50.6708 76.2823 50.7177 76.7219 50.8224 77.0777L51.1654 76.9768ZM51.0283 75.7706H51.3859V68.8894H51.0283H50.6708V75.7706H51.0283ZM51.0283 68.8894V69.2469H60.3495V68.8894V68.5318H51.0283V68.8894ZM60.3495 68.8894H59.9919V70.9181H60.3495H60.7071V68.8894H60.3495ZM60.3495 70.9181V70.5605H53.2216V70.9181V71.2757H60.3495V70.9181ZM53.2216 70.9181H52.864V75.8802H53.2216H53.5791V70.9181H53.2216ZM53.2216 75.8802H52.864C52.864 76.5543 52.9964 77.1255 53.3363 77.5139L53.6054 77.2784L53.8745 77.0429C53.7026 76.8464 53.5791 76.4855 53.5791 75.8802H53.2216ZM53.6054 77.2784L53.3445 77.523C53.7083 77.911 54.2295 78.0746 54.8391 78.0746V77.717V77.3595C54.352 77.3595 54.0508 77.2307 53.8662 77.0338L53.6054 77.2784ZM54.8391 77.717V78.0746H61.7203V77.717V77.3595H54.8391V77.717ZM93.624 62.5839V62.2263H93.2664V62.5839H93.624ZM95.8721 62.5839H96.2297V62.2263H95.8721V62.5839ZM95.8721 68.7523H95.5145V69.1099H95.8721V68.7523ZM99.7102 68.7523H100.068V68.3947H99.7102V68.7523ZM99.7102 70.781V71.1386H100.068V70.781H99.7102ZM95.8721 70.781V70.4234H95.5145V70.781H95.8721ZM96.5026 76.7575L96.2037 76.9539L96.2077 76.9597L96.5026 76.7575ZM99.4086 77.717H99.7662V77.3595H99.4086V77.717ZM99.4086 79.7458V80.1034H99.7662V79.7458H99.4086ZM94.9126 78.2928L94.645 78.53L94.9126 78.2928ZM74.1044 79.7458H73.7468V80.1034H74.1044V79.7458ZM74.1044 77.717V77.3595H73.7468V77.717H74.1044ZM81.0405 76.2915L80.8128 76.0157L80.8107 76.0175L81.0405 76.2915ZM82.7676 70.781H83.1252V70.4234H82.7676V70.781ZM77.2023 70.781H76.8448V71.1386H77.2023V70.781ZM77.2023 68.7523V68.3947H76.8448V68.7523H77.2023ZM90.4987 68.7523H90.8563V68.3947H90.4987V68.7523ZM90.4987 70.781V71.1386H90.8563V70.781H90.4987ZM85.0979 70.781V70.4234H84.7403V70.781H85.0979ZM86.688 76.2092L86.4492 76.4755L86.4542 76.4797L86.688 76.2092ZM91.1841 77.6622H91.5417V77.3114L91.1909 77.3047L91.1841 77.6622ZM91.1841 79.6361V79.9937H91.5417V79.6361H91.1841ZM86.8799 78.704L86.7181 79.0229L86.7218 79.0248L86.8799 78.704ZM83.9465 76.0447L84.2514 75.8579L83.9375 75.3458L83.6369 75.8657L83.9465 76.0447ZM80.9856 78.7862L81.1438 79.107L81.1474 79.1052L80.9856 78.7862ZM86.9622 91.9181L86.7942 92.2338L86.797 92.2353L86.9622 91.9181ZM84.9334 90.0265L84.6255 90.2084L84.6286 90.2135L84.9334 90.0265ZM84.9334 84.5983L84.6286 84.4112L84.6256 84.4163L84.9334 84.5983ZM86.9622 82.734L87.1248 83.0525L87.1273 83.0512L86.9622 82.734ZM95.0222 82.0486H95.3798V81.6911H95.0222V82.0486ZM95.0222 84.0774V84.435H95.3798V84.0774H95.0222ZM87.4282 84.9821L87.1866 84.7184L87.1829 84.7219L87.4282 84.9821ZM87.4282 89.6427L87.6737 89.3827L87.6735 89.3825L87.4282 89.6427ZM92.3904 89.6427L92.145 89.3824L92.1412 89.3862L92.3904 89.6427ZM92.8564 85.5578V85.2002H92.1583L92.5662 85.7667L92.8564 85.5578ZM95.077 85.5578L95.3658 85.3468L95.2586 85.2002H95.077V85.5578ZM94.8577 90.0265L94.5529 89.8394L94.5499 89.8446L94.8577 90.0265ZM92.8564 91.9181L92.6885 91.6024L92.8564 91.9181ZM93.624 62.5839V62.9415H95.8721V62.5839V62.2263H93.624V62.5839ZM95.8721 62.5839H95.5145V68.7523H95.8721H96.2297V62.5839H95.8721ZM95.8721 68.7523V69.1099H99.7102V68.7523V68.3947H95.8721V68.7523ZM99.7102 68.7523H99.3526V70.781H99.7102H100.068V68.7523H99.7102ZM99.7102 70.781V70.4234H95.8721V70.781V71.1386H99.7102V70.781ZM95.8721 70.781H95.5145V73.9063H95.8721H96.2297V70.781H95.8721ZM95.8721 73.9063H95.5145C95.5145 75.1965 95.7276 76.2292 96.2038 76.9539L96.5026 76.7575L96.8015 76.5611C96.4369 76.0064 96.2297 75.1384 96.2297 73.9063H95.8721ZM96.5026 76.7575L96.2077 76.9597C96.7348 77.7284 97.6081 78.0746 98.7233 78.0746V77.717V77.3595C97.7549 77.3595 97.1478 77.0661 96.7975 76.5553L96.5026 76.7575ZM98.7233 77.717V78.0746H99.4086V77.717V77.3595H98.7233V77.717ZM99.4086 77.717H99.0511V79.7458H99.4086H99.7662V77.717H99.4086ZM99.4086 79.7458V79.3882H98.6958V79.7458V80.1034H99.4086V79.7458ZM98.6958 79.7458V79.3882C97.1039 79.3882 95.953 78.9271 95.1801 78.0555L94.9126 78.2928L94.645 78.53C95.5901 79.5957 96.9614 80.1034 98.6958 80.1034V79.7458ZM94.9126 78.2928L95.1801 78.0555C94.4011 77.1771 93.9816 75.842 93.9816 73.9886H93.624H93.2664C93.2664 75.9367 93.706 77.4711 94.645 78.53L94.9126 78.2928ZM93.624 73.9886H93.9816V62.5839H93.624H93.2664V73.9886H93.624ZM74.1044 79.7458H74.462V77.717H74.1044H73.7468V79.7458H74.1044ZM74.1044 77.717V78.0746H76.2428V77.717V77.3595H74.1044V77.717ZM76.2428 77.717V78.0746C78.3591 78.0746 80.0513 77.5878 81.2703 76.5654L81.0405 76.2915L80.8107 76.0175C79.7633 76.8959 78.257 77.3595 76.2428 77.3595V77.717ZM81.0405 76.2915L81.2681 76.5672C82.5148 75.5382 83.1252 74.0956 83.1252 72.2888H82.7676H82.41C82.41 73.9182 81.869 75.1439 80.8128 76.0157L81.0405 76.2915ZM82.7676 72.2888H83.1252V70.781H82.7676H82.41V72.2888H82.7676ZM82.7676 70.781V70.4234H77.2023V70.781V71.1386H82.7676V70.781ZM77.2023 70.781H77.5599V68.7523H77.2023H76.8448V70.781H77.2023ZM77.2023 68.7523V69.1099H90.4987V68.7523V68.3947H77.2023V68.7523ZM90.4987 68.7523H90.1411V70.781H90.4987H90.8563V68.7523H90.4987ZM90.4987 70.781V70.4234H85.0979V70.781V71.1386H90.4987V70.781ZM85.0979 70.781H84.7403V72.2888H85.0979H85.4555V70.781H85.0979ZM85.0979 72.2888H84.7403C84.7403 74.0349 85.3006 75.4456 86.4493 76.4755L86.688 76.2092L86.9267 75.943C85.9552 75.072 85.4555 73.8692 85.4555 72.2888H85.0979ZM86.688 76.2092L86.4542 76.4797C87.6146 77.4829 89.2037 77.9822 91.1773 78.0197L91.1841 77.6622L91.1909 77.3047C89.3263 77.2692 87.918 76.7998 86.9218 75.9387L86.688 76.2092ZM91.1841 77.6622H90.8265V79.6361H91.1841H91.5417V77.6622H91.1841ZM91.1841 79.6361V79.2785C89.6226 79.2785 88.2433 78.9771 87.038 78.3832L86.8799 78.704L86.7218 79.0248C88.0388 79.6737 89.5288 79.9937 91.1841 79.9937V79.6361ZM86.8799 78.704L87.0417 78.3851C85.8356 77.7733 84.9091 76.931 84.2514 75.8579L83.9465 76.0447L83.6416 76.2316C84.3729 77.4248 85.402 78.3553 86.7181 79.0229L86.8799 78.704ZM83.9465 76.0447L83.6369 75.8657C82.998 76.9708 82.0647 77.8382 80.8239 78.4673L80.9856 78.7862L81.1474 79.1052C82.5019 78.4184 83.5424 77.458 84.2561 76.2237L83.9465 76.0447ZM80.9856 78.7862L80.8275 78.4655C79.5864 79.0773 78.1525 79.3882 76.517 79.3882V79.7458V80.1034C78.2444 80.1034 79.7895 79.7746 81.1437 79.107L80.9856 78.7862ZM76.517 79.7458V79.3882H74.1044V79.7458V80.1034H76.517V79.7458ZM89.923 92.6035V92.2459C88.8775 92.2459 87.9483 92.0285 87.1273 91.601L86.9622 91.9181L86.797 92.2353C87.7306 92.7215 88.7752 92.9611 89.923 92.9611V92.6035ZM86.9622 91.9181L87.1301 91.6024C86.3255 91.1744 85.6973 90.5875 85.2382 89.8394L84.9334 90.0265L84.6286 90.2135C85.1565 91.0737 85.8808 91.7479 86.7942 92.2338L86.9622 91.9181ZM84.9334 90.0265L85.2413 89.8446C84.8011 89.0997 84.5782 88.2586 84.5782 87.3124H84.2206H83.863C83.863 88.3765 84.1153 89.3449 84.6256 90.2084L84.9334 90.0265ZM84.2206 87.3124H84.5782C84.5782 86.3661 84.8011 85.5251 85.2413 84.7802L84.9334 84.5983L84.6256 84.4163C84.1153 85.2798 83.863 86.2482 83.863 87.3124H84.2206ZM84.9334 84.5983L85.2382 84.7853C85.6965 84.0385 86.323 83.4619 87.1248 83.0525L86.9622 82.734L86.7995 82.4156C85.8833 82.8834 85.1573 83.5497 84.6286 84.4112L84.9334 84.5983ZM86.9622 82.734L87.1273 83.0512C87.9483 82.6236 88.8775 82.4062 89.923 82.4062V82.0486V81.6911C88.7752 81.6911 87.7306 81.9306 86.797 82.4169L86.9622 82.734ZM89.923 82.0486V82.4062H95.0222V82.0486V81.6911H89.923V82.0486ZM95.0222 82.0486H94.6646V84.0774H95.0222H95.3798V82.0486H95.0222ZM95.0222 84.0774V83.7198H89.923V84.0774V84.435H95.0222V84.0774ZM89.923 84.0774V83.7198C88.8405 83.7198 87.9189 84.0471 87.1866 84.7185L87.4282 84.9821L87.6698 85.2457C88.2534 84.7107 88.9951 84.435 89.923 84.435V84.0774ZM87.4282 84.9821L87.1829 84.7219C86.4653 85.3985 86.1111 86.2724 86.1111 87.3124H86.4687H86.8263C86.8263 86.4516 87.1117 85.772 87.6735 85.2423L87.4282 84.9821ZM86.4687 87.3124H86.1111C86.1111 88.3524 86.4653 89.2263 87.1829 89.9028L87.4282 89.6427L87.6735 89.3825C87.1117 88.8528 86.8263 88.1732 86.8263 87.3124H86.4687ZM87.4282 89.6427L87.1827 89.9026C87.9146 90.5939 88.8374 90.9324 89.923 90.9324V90.5748V90.2172C88.9981 90.2172 88.2578 89.9342 87.6737 89.3827L87.4282 89.6427ZM89.923 90.5748V90.9324C91.0084 90.9324 91.9244 90.5938 92.6395 89.8991L92.3904 89.6427L92.1412 89.3862C91.5769 89.9343 90.848 90.2172 89.923 90.2172V90.5748ZM92.3904 89.6427L92.6357 89.9028C93.3532 89.2263 93.7075 88.3524 93.7075 87.3124H93.3499H92.9923C92.9923 88.1732 92.7069 88.8528 92.145 89.3825L92.3904 89.6427ZM93.3499 87.3124H93.7075C93.7075 86.5446 93.5298 85.8811 93.1466 85.3489L92.8564 85.5578L92.5662 85.7667C92.841 86.1483 92.9923 86.6545 92.9923 87.3124H93.3499ZM92.8564 85.5578V85.9154H95.077V85.5578V85.2002H92.8564V85.5578ZM95.077 85.5578L94.7883 85.7688C95.0832 86.1723 95.2403 86.6796 95.2403 87.3124H95.5979H95.9555C95.9555 86.5561 95.7654 85.8937 95.3658 85.3468L95.077 85.5578ZM95.5979 87.3124H95.2403C95.2403 88.2561 95.0096 89.0952 94.5529 89.8394L94.8577 90.0265L95.1625 90.2135C95.6928 89.3493 95.9555 88.3791 95.9555 87.3124H95.5979ZM94.8577 90.0265L94.5499 89.8446C94.1096 90.5897 93.492 91.175 92.6885 91.6024L92.8564 91.9181L93.0243 92.2338C93.9389 91.7474 94.6555 91.0716 95.1656 90.2084L94.8577 90.0265ZM92.8564 91.9181L92.6885 91.6024C91.8875 92.0285 90.9686 92.2459 89.923 92.2459V92.6035V92.9611C91.0706 92.9611 92.1074 92.7216 93.0243 92.2338L92.8564 91.9181ZM125.972 79.7458L125.949 80.1026L126.329 80.1273V79.7458H125.972ZM122.709 78.2379L122.433 78.4653L122.436 78.4679L122.709 78.2379ZM121.558 70.781H121.916V70.4234H121.558V70.781ZM116.212 70.781H115.854V71.1386H116.212V70.781ZM116.212 68.7523V68.3947H115.854V68.7523H116.212ZM121.558 68.7523V69.1099H121.916V68.7523H121.558ZM121.558 62.5839V62.2263H121.2V62.5839H121.558ZM123.806 62.5839H124.164V62.2263H123.806V62.5839ZM125.972 77.717H126.329V77.4318L126.051 77.3684L125.972 77.717ZM98.776 79.7458H98.4184V80.1034H98.776V79.7458ZM98.776 77.717V77.3595H98.4184V77.717H98.776ZM105.575 76.2915L105.341 76.0212L105.575 76.2915ZM107.22 70.781H107.577V70.4234H107.22V70.781ZM101.874 70.781H101.516V71.1386H101.874V70.781ZM101.874 68.7523V68.3947H101.516V68.7523H101.874ZM114.732 68.7523H115.089V68.3947H114.732V68.7523ZM114.732 70.781V71.1386H115.089V70.781H114.732ZM109.55 70.781V70.4234H109.193V70.781H109.55ZM111.085 76.2092L110.842 76.4713L110.847 76.4757L111.085 76.2092ZM115.417 77.6622H115.775V77.3116L115.424 77.3047L115.417 77.6622ZM115.417 79.6361V79.9937H115.775V79.6361H115.417ZM111.222 78.704L111.057 79.021L111.061 79.0229L111.222 78.704ZM108.399 76.0447L108.708 75.8652L108.389 75.3165L108.085 75.8731L108.399 76.0447ZM105.548 78.7862L105.709 79.1052L105.713 79.1033L105.548 78.7862ZM114.704 91.8907L114.872 91.575L114.867 91.5722L114.704 91.8907ZM112.675 90.0265L112.368 90.2084L112.371 90.2135L112.675 90.0265ZM112.675 84.5983L112.371 84.4112L112.368 84.4163L112.675 84.5983ZM114.704 82.734L114.867 83.0525L114.872 83.0497L114.704 82.734ZM122.682 82.0486H123.04V81.6911H122.682V82.0486ZM122.682 84.0774V84.435H123.04V84.0774H122.682ZM115.17 84.9821L114.925 84.7219L115.17 84.9821ZM115.17 89.6427L114.925 89.9028L115.17 89.6427ZM120.078 89.6427L119.832 89.3825L120.078 89.6427ZM120.9 86.3528L120.557 86.4537L120.9 86.3528ZM120.544 85.5578V85.2002H119.875L120.246 85.7561L120.544 85.5578ZM122.764 85.5578L123.065 85.3644L122.959 85.2002H122.764V85.5578ZM123.148 86.3254L123.485 86.2051L123.148 86.3254ZM122.545 90.0265L122.24 89.8394L122.237 89.8446L122.545 90.0265ZM120.544 91.8907L120.381 91.5722L120.376 91.575L120.544 91.8907ZM125.972 79.7458L125.995 79.3889C124.666 79.3026 123.677 78.8336 122.983 78.0079L122.709 78.2379L122.436 78.4679C123.277 79.47 124.463 80.0061 125.949 80.1026L125.972 79.7458ZM122.709 78.2379L122.985 78.0106C122.289 77.1648 121.916 75.9322 121.916 74.2627H121.558H121.2C121.2 76.0293 121.595 77.4468 122.433 78.4653L122.709 78.2379ZM121.558 74.2627H121.916V70.781H121.558H121.2V74.2627H121.558ZM121.558 70.781V70.4234H116.212V70.781V71.1386H121.558V70.781ZM116.212 70.781H116.57V68.7523H116.212H115.854V70.781H116.212ZM116.212 68.7523V69.1099H121.558V68.7523V68.3947H116.212V68.7523ZM121.558 68.7523H121.916V62.5839H121.558H121.2V68.7523H121.558ZM121.558 62.5839V62.9415H123.806V62.5839V62.2263H121.558V62.5839ZM123.806 62.5839H123.448V73.8241H123.806H124.164V62.5839H123.806ZM123.806 73.8241H123.448C123.448 74.9887 123.633 75.9481 124.035 76.6709C124.445 77.4082 125.071 77.8786 125.892 78.0657L125.972 77.717L126.051 77.3684C125.429 77.2265 124.972 76.8836 124.66 76.3232C124.34 75.7484 124.164 74.9258 124.164 73.8241H123.806ZM125.972 77.717H125.614V79.7458H125.972H126.329V77.717H125.972ZM98.776 79.7458H99.1335V77.717H98.776H98.4184V79.7458H98.776ZM98.776 77.717V78.0746H100.914V77.717V77.3595H98.776V77.717ZM100.914 77.717V78.0746C102.978 78.0746 104.626 77.5869 105.809 76.5617L105.575 76.2915L105.341 76.0212C104.33 76.8968 102.872 77.3595 100.914 77.3595V77.717ZM105.575 76.2915L105.809 76.5617C106.999 75.5307 107.577 74.0896 107.577 72.2888H107.22H106.862C106.862 73.9241 106.344 75.1514 105.341 76.0212L105.575 76.2915ZM107.22 72.2888H107.577V70.781H107.22H106.862V72.2888H107.22ZM107.22 70.781V70.4234H101.874V70.781V71.1386H107.22V70.781ZM101.874 70.781H102.231V68.7523H101.874H101.516V70.781H101.874ZM101.874 68.7523V69.1099H114.732V68.7523V68.3947H101.874V68.7523ZM114.732 68.7523H114.374V70.781H114.732H115.089V68.7523H114.732ZM114.732 70.781V70.4234H109.55V70.781V71.1386H114.732V70.781ZM109.55 70.781H109.193V72.2888H109.55H109.908V70.781H109.55ZM109.55 72.2888H109.193C109.193 74.0309 109.732 75.4404 110.842 76.4713L111.085 76.2092L111.329 75.9472C110.392 75.0773 109.908 73.8732 109.908 72.2888H109.55ZM111.085 76.2092L110.847 76.4757C111.971 77.481 113.506 77.982 115.41 78.0197L115.417 77.6622L115.424 77.3047C113.636 77.2693 112.284 76.8016 111.324 75.9427L111.085 76.2092ZM115.417 77.6622H115.059V79.6361H115.417H115.775V77.6622H115.417ZM115.417 79.6361V79.2785C113.893 79.2785 112.552 78.9776 111.384 78.3851L111.222 78.704L111.061 79.0229C112.342 79.6732 113.797 79.9937 115.417 79.9937V79.6361ZM111.222 78.704L111.388 78.387C110.22 77.7769 109.33 76.9366 108.708 75.8652L108.399 76.0447L108.089 76.2243C108.783 77.4191 109.776 78.3517 111.057 79.0209L111.222 78.704ZM108.399 76.0447L108.085 75.8731C107.482 76.9765 106.585 77.8417 105.382 78.4692L105.548 78.7862L105.713 79.1033C107.032 78.4149 108.036 77.4523 108.712 76.2163L108.399 76.0447ZM105.548 78.7862L105.386 78.4673C104.182 79.0777 102.786 79.3882 101.188 79.3882V79.7458V80.1034C102.88 80.1034 104.39 79.7741 105.709 79.1051L105.548 78.7862ZM101.188 79.7458V79.3882H98.776V79.7458V80.1034H101.188V79.7458ZM117.61 92.5761V92.2185C116.584 92.2185 115.674 92.0015 114.872 91.575L114.704 91.8907L114.536 92.2064C115.452 92.6937 116.48 92.9337 117.61 92.9337V92.5761ZM114.704 91.8907L114.867 91.5722C114.065 91.1628 113.439 90.5863 112.98 89.8394L112.675 90.0265L112.371 90.2135C112.899 91.075 113.625 91.7413 114.542 92.2092L114.704 91.8907ZM112.675 90.0265L112.983 89.8446C112.543 89.0997 112.32 88.2586 112.32 87.3124H111.963H111.605C111.605 88.3765 111.857 89.3449 112.368 90.2084L112.675 90.0265ZM111.963 87.3124H112.32C112.32 86.3661 112.543 85.5251 112.983 84.7802L112.675 84.5983L112.368 84.4163C111.857 85.2798 111.605 86.2482 111.605 87.3124H111.963ZM112.675 84.5983L112.98 84.7853C113.439 84.0385 114.065 83.4619 114.867 83.0525L114.704 82.734L114.542 82.4156C113.625 82.8834 112.899 83.5497 112.371 84.4112L112.675 84.5983ZM114.704 82.734L114.872 83.0497C115.674 82.6232 116.584 82.4062 117.61 82.4062V82.0486V81.6911C116.48 81.6911 115.452 81.931 114.536 82.4183L114.704 82.734ZM117.61 82.0486V82.4062H122.682V82.0486V81.6911H117.61V82.0486ZM122.682 82.0486H122.324V84.0774H122.682H123.04V82.0486H122.682ZM122.682 84.0774V83.7198H117.61V84.0774V84.435H122.682V84.0774ZM117.61 84.0774V83.7198C116.544 83.7198 115.639 84.0484 114.925 84.7219L115.17 84.9821L115.416 85.2423C115.981 84.7095 116.702 84.435 117.61 84.435V84.0774ZM115.17 84.9821L114.925 84.7219C114.207 85.3985 113.853 86.2724 113.853 87.3124H114.211H114.568C114.568 86.4516 114.854 85.772 115.416 85.2423L115.17 84.9821ZM114.211 87.3124H113.853C113.853 88.3524 114.207 89.2263 114.925 89.9028L115.17 89.6427L115.416 89.3825C114.854 88.8528 114.568 88.1732 114.568 87.3124H114.211ZM115.17 89.6427L114.925 89.9028C115.639 90.5764 116.544 90.9049 117.61 90.9049V90.5474V90.1898C116.702 90.1898 115.981 89.9152 115.416 89.3825L115.17 89.6427ZM117.61 90.5474V90.9049C118.693 90.9049 119.607 90.5776 120.323 89.9028L120.078 89.6427L119.832 89.3825C119.268 89.914 118.538 90.1898 117.61 90.1898V90.5474ZM120.078 89.6427L120.323 89.9028C121.04 89.2263 121.395 88.3524 121.395 87.3124H121.037H120.679C120.679 88.1732 120.394 88.8528 119.832 89.3825L120.078 89.6427ZM121.037 87.3124H121.395C121.395 86.9498 121.344 86.5959 121.243 86.2519L120.9 86.3528L120.557 86.4537C120.639 86.7312 120.679 87.017 120.679 87.3124H121.037ZM120.9 86.3528L121.243 86.2519C121.144 85.9142 121.011 85.6147 120.841 85.3594L120.544 85.5578L120.246 85.7561C120.368 85.9395 120.474 86.17 120.557 86.4537L120.9 86.3528ZM120.544 85.5578V85.9154H122.764V85.5578V85.2002H120.544V85.5578ZM122.764 85.5578L122.463 85.7512C122.615 85.9868 122.73 86.2183 122.811 86.4457L123.148 86.3254L123.485 86.2051C123.383 85.9208 123.243 85.6405 123.065 85.3644L122.764 85.5578ZM123.148 86.3254L122.811 86.4457C122.884 86.6492 122.928 86.9335 122.928 87.3124H123.285H123.643C123.643 86.8871 123.595 86.5134 123.485 86.2051L123.148 86.3254ZM123.285 87.3124H122.928C122.928 88.2561 122.697 89.0952 122.24 89.8394L122.545 90.0265L122.85 90.2135C123.38 89.3493 123.643 88.3791 123.643 87.3124H123.285ZM122.545 90.0265L122.237 89.8446C121.798 90.5884 121.182 91.1634 120.381 91.5722L120.544 91.8907L120.706 92.2092C121.624 91.7408 122.342 91.0729 122.853 90.2084L122.545 90.0265ZM120.544 91.8907L120.376 91.575C119.575 92.0011 118.656 92.2185 117.61 92.2185V92.5761V92.9337C118.758 92.9337 119.795 92.6942 120.712 92.2064L120.544 91.8907Z" fill="#FF6A6A" mask="url(#path-4-outside-1_2446_3232)"/>
</svg>
