<svg width="171" height="70" viewBox="0 0 171 70" fill="none" xmlns="http://www.w3.org/2000/svg">
<path d="M103.653 59.7159H157.066C159.689 59.7159 159.993 60.8112 157.744 62.1623L150.366 66.5954C148.117 67.9464 144.168 69.0419 141.544 69.0419H88.1323C85.5091 69.0419 85.2057 67.9464 87.4539 66.5954L94.8319 62.1623C97.0103 60.8533 100.785 59.7843 103.404 59.7189L103.653 59.7159Z" fill="#676767" stroke="#787878" stroke-width="0.5"/>
<path opacity="0.44" d="M93.0302 64.3786L150.595 64.3786" stroke="white" stroke-linecap="round" stroke-linejoin="round" stroke-dasharray="5 4"/>
<path d="M121.452 15.8167C122.537 15.8167 123.426 15.9872 124.417 16.6047C125.345 17.1822 126.334 18.1363 127.697 19.5823L130.358 22.4065L132.03 20.7922C132.791 20.0568 133.534 19.4752 134.207 19.1067C134.542 18.9225 134.887 18.7769 135.228 18.7014C135.523 18.6362 135.86 18.6135 136.195 18.7063L136.338 18.7532L136.565 18.8499C137.085 19.0934 137.529 19.4728 137.757 20.0383C138.011 20.6676 137.92 21.3415 137.688 21.9622C137.234 23.1742 136.07 24.6303 134.373 26.2971L131.056 29.552L130.444 30.1536L129.818 29.5667L128.14 27.9963H128.139L127.968 27.8362V28.8303C127.968 30.5669 127.651 32.8854 127.215 34.0295C127.057 34.4454 127 34.6665 126.995 34.8401C126.991 34.9776 127.019 35.1466 127.184 35.4348C127.363 35.7459 127.678 36.1539 128.219 36.7502C128.755 37.3405 129.476 38.0766 130.437 39.0432C132.292 40.9087 133.286 41.8361 133.972 42.259C134.287 42.4531 134.473 42.4976 134.601 42.5051C134.737 42.513 134.909 42.4857 135.218 42.3684C136.251 41.9771 137.509 42.0518 138.487 42.3469C138.983 42.4967 139.472 42.7217 139.857 43.0325C140.232 43.3353 140.62 43.8181 140.62 44.47C140.62 44.6477 140.571 44.7896 140.545 44.8567C140.515 44.9373 140.477 45.0096 140.445 45.0676C140.38 45.184 140.297 45.3061 140.211 45.4241C140.037 45.6635 139.797 45.9559 139.517 46.2766C139.095 46.7604 138.557 47.3358 137.96 47.9397L137.347 48.55L134.343 51.4875L133.712 52.1047L133.087 51.4836L126.919 45.3625L121.389 39.8743L117.604 43.717C115.622 45.7287 114.619 46.8175 114.154 47.5608C113.936 47.9088 113.883 48.1113 113.873 48.2444C113.862 48.3782 113.888 48.5406 114.002 48.8362V48.8372C114.427 49.9304 114.489 51.13 114.255 52.094C114.139 52.5755 113.934 53.052 113.61 53.426C113.274 53.8137 112.789 54.1067 112.185 54.1067C111.941 54.1067 111.728 54.0254 111.605 53.9719C111.46 53.9089 111.311 53.8271 111.167 53.7385C110.877 53.5604 110.542 53.3164 110.186 53.0334C109.471 52.4647 108.616 51.6904 107.785 50.8459L104.836 47.8538L104.213 47.2209L104.841 46.593L110.75 40.677L116.038 35.3811L112.597 31.8108L108.547 27.6077L107.948 26.9846L108.549 26.3635L113.523 21.2268L114.998 19.7209C116.344 18.3682 117.328 17.4611 118.162 16.8733C118.734 16.4699 119.262 16.1963 119.815 16.0295C120.367 15.8629 120.898 15.8167 121.452 15.8167ZM115.309 26.8411C115.25 26.8431 115.195 26.8554 115.143 26.8733C115.286 26.9314 115.424 26.9324 115.533 26.9114L115.545 26.8928C115.525 26.8803 115.442 26.8365 115.309 26.8411ZM115.535 26.9114C115.543 26.9097 115.551 26.9084 115.559 26.9065C115.554 26.8988 115.548 26.8951 115.546 26.8938L115.535 26.9114ZM121.416 3.28247C122.821 3.28371 124.145 3.90323 125.399 4.97778C126.818 6.19401 127.577 7.7776 127.577 9.41235C127.577 11.047 126.817 12.6298 125.399 13.8459C124.154 14.9132 122.833 15.5316 121.439 15.5442C120.042 15.5568 118.726 14.9599 117.499 13.9075C114.632 11.4501 114.58 7.419 117.434 4.97192C118.686 3.8988 120.01 3.28128 121.416 3.28247Z" fill="#404040" stroke="#404040" stroke-width="1.79004"/>
<path d="M75.125 41.8157C75.3144 41.7021 75.3758 41.4564 75.2622 41.2669C75.1486 41.0775 74.9029 41.016 74.7134 41.1297L74.9192 41.4727L75.125 41.8157ZM38.3684 33.9102L38.0296 34.1228L38.3684 33.9102ZM3.50461 61.6369C3.50461 62.8151 4.45973 63.7702 5.63794 63.7702C6.81615 63.7702 7.77127 62.8151 7.77127 61.6369C7.77127 60.4586 6.81615 59.5035 5.63794 59.5035C4.45973 59.5035 3.50461 60.4586 3.50461 61.6369ZM5.41342 60.5306C5.29831 60.342 5.05215 60.2825 4.86359 60.3976C4.67503 60.5127 4.61548 60.7588 4.73059 60.9474L5.072 60.739L5.41342 60.5306ZM2.76539 57.2402C2.85609 57.4416 3.09291 57.5314 3.29435 57.4407C3.49579 57.35 3.58556 57.1131 3.49486 56.9117L3.13013 57.0759L2.76539 57.2402ZM2.71856 55.0111C2.64251 54.8037 2.41272 54.6972 2.20531 54.7733C1.9979 54.8493 1.89141 55.0791 1.96745 55.2865L2.34301 55.1488L2.71856 55.0111ZM0.833914 51.2359C0.875702 51.4529 1.08543 51.5948 1.30236 51.5531C1.51928 51.5113 1.66126 51.3015 1.61947 51.0846L1.22669 51.1603L0.833914 51.2359ZM1.323 49.0702C1.30071 48.8504 1.10447 48.6903 0.884686 48.7126C0.664899 48.7349 0.504791 48.9311 0.527076 49.1509L0.925036 49.1106L1.323 49.0702ZM0.501923 44.9229C0.481713 45.1428 0.643664 45.3376 0.863651 45.3578C1.08364 45.378 1.27836 45.216 1.29857 44.996L0.900246 44.9594L0.501923 44.9229ZM1.58642 42.9791C1.62861 42.7622 1.48703 42.5522 1.27018 42.5101C1.05333 42.4679 0.843339 42.6094 0.801146 42.8263L1.19378 42.9027L1.58642 42.9791ZM2.02459 38.7779C1.93969 38.9819 2.0362 39.2161 2.24015 39.301C2.4441 39.3859 2.67825 39.2893 2.76315 39.0854L2.39387 38.9317L2.02459 38.7779ZM3.63874 37.2461C3.74345 37.0515 3.67063 36.809 3.4761 36.7043C3.28158 36.5996 3.03901 36.6724 2.9343 36.8669L3.28652 37.0565L3.63874 37.2461ZM5.28675 33.3564C5.14693 33.5274 5.17223 33.7794 5.34326 33.9192C5.51429 34.0591 5.76629 34.0338 5.90612 33.8627L5.59644 33.6096L5.28675 33.3564ZM7.26922 32.3444C7.42418 32.187 7.42216 31.9337 7.26471 31.7787C7.10726 31.6238 6.854 31.6258 6.69904 31.7832L6.98413 32.0638L7.26922 32.3444ZM9.91852 29.052C9.73804 29.1794 9.69499 29.429 9.82237 29.6094C9.94976 29.7899 10.1993 29.833 10.3798 29.7056L10.1492 29.3788L9.91852 29.052ZM12.0985 28.6027C12.2895 28.4917 12.3544 28.2469 12.2434 28.0559C12.1323 27.8649 11.8875 27.8 11.6965 27.911L11.8975 28.2569L12.0985 28.6027ZM15.521 26.1214C15.3133 26.1967 15.2061 26.4261 15.2814 26.6338C15.3567 26.8415 15.5861 26.9488 15.7938 26.8734L15.6574 26.4974L15.521 26.1214ZM17.7422 26.2664C17.9559 26.2106 18.0839 25.992 18.0281 25.7783C17.9722 25.5645 17.7537 25.4365 17.5399 25.4924L17.641 25.8794L17.7422 26.2664ZM21.7149 24.8232C21.4944 24.8364 21.3263 25.0257 21.3394 25.2463C21.3525 25.4668 21.5419 25.6349 21.7624 25.6218L21.7387 25.2225L21.7149 24.8232ZM23.7972 25.6074C24.0178 25.6175 24.205 25.4469 24.2151 25.2262C24.2253 25.0055 24.0547 24.8184 23.834 24.8082L23.8156 25.2078L23.7972 25.6074ZM28.0178 25.4735C27.805 25.414 27.5843 25.5383 27.5248 25.751C27.4654 25.9638 27.5896 26.1845 27.8024 26.244L27.9101 25.8587L28.0178 25.4735ZM29.7196 26.9052C29.9237 26.9896 30.1576 26.8926 30.2421 26.6884C30.3265 26.4843 30.2294 26.2504 30.0253 26.1659L29.8724 26.5356L29.7196 26.9052ZM33.719 28.2476C33.541 28.1168 33.2906 28.1551 33.1598 28.3331C33.029 28.5112 33.0673 28.7615 33.2454 28.8923L33.4822 28.57L33.719 28.2476ZM34.807 30.1871C34.9686 30.3377 35.2217 30.3288 35.3723 30.1671C35.5229 30.0055 35.5139 29.7524 35.3523 29.6018L35.0796 29.8945L34.807 30.1871ZM38.1147 32.8017C37.9883 32.6204 37.739 32.5759 37.5578 32.7023C37.3766 32.8286 37.3321 33.0779 37.4584 33.2592L37.7865 33.0304L38.1147 32.8017ZM38.5818 34.9745C38.7048 35.158 38.9532 35.2071 39.1368 35.0841C39.3203 34.9611 39.3694 34.7126 39.2464 34.5291L38.9141 34.7518L38.5818 34.9745ZM41.6284 37.6302C41.4821 37.4646 41.2293 37.449 41.0638 37.5952C40.8982 37.7415 40.8825 37.9943 41.0288 38.1598L41.3286 37.895L41.6284 37.6302ZM42.4144 39.6157C42.5727 39.7698 42.8259 39.7665 42.98 39.6082C43.1341 39.4499 43.1308 39.1967 42.9725 39.0425L42.6935 39.3291L42.4144 39.6157ZM45.9826 41.53C45.801 41.4041 45.5518 41.4493 45.4259 41.6309C45.3001 41.8124 45.3453 42.0616 45.5268 42.1875L45.7547 41.8587L45.9826 41.53ZM47.233 43.2623C47.4249 43.3717 47.6692 43.3048 47.7785 43.1128C47.8879 42.9209 47.8209 42.6766 47.629 42.5672L47.431 42.9148L47.233 43.2623ZM51.1724 44.1833C50.964 44.1101 50.7356 44.2196 50.6624 44.4281C50.5891 44.6365 50.6987 44.8648 50.9071 44.9381L51.0397 44.5607L51.1724 44.1833ZM52.8402 45.5229C53.0542 45.5776 53.2721 45.4484 53.3267 45.2343C53.3814 45.0203 53.2522 44.8025 53.0381 44.7478L52.9391 45.1354L52.8402 45.5229ZM56.8846 45.3913C56.6645 45.3727 56.4709 45.5361 56.4523 45.7562C56.4337 45.9763 56.5971 46.1699 56.8172 46.1885L56.8509 45.7899L56.8846 45.3913ZM58.8303 46.2807C59.0512 46.2825 59.2317 46.1049 59.2335 45.884C59.2352 45.663 59.0576 45.4825 58.8367 45.4807L58.8335 45.8807L58.8303 46.2807ZM62.7402 45.2349C62.5212 45.2637 62.367 45.4646 62.3958 45.6837C62.4247 45.9027 62.6256 46.0569 62.8446 46.028L62.7924 45.6314L62.7402 45.2349ZM64.8306 45.7012C65.0473 45.6585 65.1884 45.4481 65.1456 45.2314C65.1029 45.0146 64.8925 44.8736 64.6758 44.9163L64.7532 45.3088L64.8306 45.7012ZM68.4676 43.9273C68.2575 43.9956 68.1426 44.2213 68.2109 44.4314C68.2793 44.6415 68.5049 44.7564 68.715 44.6881L68.5913 44.3077L68.4676 43.9273ZM70.6077 44.0106C70.8134 43.93 70.9149 43.698 70.8343 43.4923C70.7538 43.2866 70.5217 43.1851 70.316 43.2657L70.4619 43.6381L70.6077 44.0106ZM73.8682 41.6143C73.6745 41.7205 73.6036 41.9636 73.7098 42.1573C73.816 42.351 74.0591 42.4219 74.2528 42.3157L74.0605 41.965L73.8682 41.6143ZM5.63794 61.6369L5.97329 61.4188C5.78023 61.1219 5.59365 60.8258 5.41342 60.5306L5.072 60.739L4.73059 60.9474C4.91482 61.2492 5.10546 61.5517 5.3026 61.8549L5.63794 61.6369ZM3.13013 57.0759L3.49486 56.9117C3.20722 56.2729 2.94884 55.6392 2.71856 55.0111L2.34301 55.1488L1.96745 55.2865C2.20444 55.9329 2.47007 56.5843 2.76539 57.2402L3.13013 57.0759ZM1.22669 51.1603L1.61947 51.0846C1.48846 50.4045 1.39018 49.7328 1.323 49.0702L0.925036 49.1106L0.527076 49.1509C0.596684 49.8374 0.698447 50.5327 0.833914 51.2359L1.22669 51.1603ZM0.900246 44.9594L1.29857 44.996C1.36152 44.3108 1.45817 43.6382 1.58642 42.9791L1.19378 42.9027L0.801146 42.8263C0.6678 43.5116 0.567341 44.2108 0.501923 44.9229L0.900246 44.9594ZM2.39387 38.9317L2.76315 39.0854C3.02559 38.455 3.31825 37.8415 3.63874 37.2461L3.28652 37.0565L2.9343 36.8669C2.60145 37.4853 2.29736 38.1227 2.02459 38.7779L2.39387 38.9317ZM5.59644 33.6096L5.90612 33.8627C6.33749 33.3351 6.79271 32.8286 7.26922 32.3444L6.98413 32.0638L6.69904 31.7832C6.20555 32.2847 5.73389 32.8094 5.28675 33.3564L5.59644 33.6096ZM10.1492 29.3788L10.3798 29.7056C10.9372 29.3122 11.511 28.9441 12.0985 28.6027L11.8975 28.2569L11.6965 27.911C11.0888 28.2643 10.4952 28.645 9.91852 29.052L10.1492 29.3788ZM15.6574 26.4974L15.7938 26.8734C16.4358 26.6406 17.0862 26.4378 17.7422 26.2664L17.641 25.8794L17.5399 25.4924C16.8598 25.6701 16.1858 25.8802 15.521 26.1214L15.6574 26.4974ZM21.7387 25.2225L21.7624 25.6218C22.4418 25.5814 23.121 25.5762 23.7972 25.6074L23.8156 25.2078L23.834 24.8082C23.1291 24.7757 22.4217 24.7812 21.7149 24.8232L21.7387 25.2225ZM27.9101 25.8587L27.8024 26.244C28.4511 26.4253 29.0911 26.6453 29.7196 26.9052L29.8724 26.5356L30.0253 26.1659C29.3669 25.8936 28.6967 25.6633 28.0178 25.4735L27.9101 25.8587ZM33.4822 28.57L33.2454 28.8923C33.7813 29.2861 34.3027 29.7173 34.807 30.1871L35.0796 29.8945L35.3523 29.6018C34.8254 29.1109 34.2801 28.6598 33.719 28.2476L33.4822 28.57ZM37.7865 33.0304L37.4584 33.2592C37.6532 33.5386 37.8437 33.8265 38.0296 34.1228L38.3684 33.9102L38.7072 33.6976C38.5145 33.3905 38.3169 33.0919 38.1147 32.8017L37.7865 33.0304ZM38.3684 33.9102L38.0296 34.1228C38.2115 34.4128 38.3956 34.6967 38.5818 34.9745L38.9141 34.7518L39.2464 34.5291C39.0647 34.2581 38.885 33.9809 38.7072 33.6976L38.3684 33.9102ZM41.3286 37.895L41.0288 38.1598C41.4824 38.6733 41.9446 39.1582 42.4144 39.6157L42.6935 39.3291L42.9725 39.0425C42.5173 38.5993 42.0689 38.1289 41.6284 37.6302L41.3286 37.895ZM45.7547 41.8587L45.5268 42.1875C46.0891 42.5772 46.6582 42.9349 47.233 43.2623L47.431 42.9148L47.629 42.5672C47.0747 42.2514 46.5254 41.9062 45.9826 41.53L45.7547 41.8587ZM51.0397 44.5607L50.9071 44.9381C51.5492 45.1638 52.1942 45.358 52.8402 45.5229L52.9391 45.1354L53.0381 44.7478C52.4143 44.5885 51.7918 44.4011 51.1724 44.1833L51.0397 44.5607ZM56.8509 45.7899L56.8172 46.1885C57.4919 46.2455 58.1636 46.2754 58.8303 46.2807L58.8335 45.8807L58.8367 45.4807C58.1896 45.4755 57.5382 45.4465 56.8846 45.3913L56.8509 45.7899ZM62.7924 45.6314L62.8446 46.028C63.5175 45.9394 64.1803 45.8294 64.8306 45.7012L64.7532 45.3088L64.6758 44.9163C64.0415 45.0414 63.3956 45.1485 62.7402 45.2349L62.7924 45.6314ZM68.5913 44.3077L68.715 44.6881C69.3682 44.4757 70.0002 44.2485 70.6077 44.0106L70.4619 43.6381L70.316 43.2657C69.7228 43.4979 69.1056 43.7198 68.4676 43.9273L68.5913 44.3077ZM74.0605 41.965L74.2528 42.3157C74.556 42.1494 74.847 41.9824 75.125 41.8157L74.9192 41.4727L74.7134 41.1297C74.4446 41.2909 74.1626 41.4528 73.8682 41.6143L74.0605 41.965Z" fill="#404040"/>
<path d="M170.402 4.18188L163.947 4.18188" stroke="#404040" stroke-linecap="round" stroke-linejoin="round" stroke-dasharray="2.3 3"/>
<path d="M167.18 0.927002L167.18 7.427" stroke="#404040" stroke-linecap="round" stroke-linejoin="round" stroke-dasharray="2.3 3"/>
</svg>
