<svg width="76" height="50" viewBox="0 0 76 50" fill="none" xmlns="http://www.w3.org/2000/svg">
<path d="M1.04806 19.5027C0.857981 19.3902 0.612633 19.453 0.500064 19.6431C0.387495 19.8332 0.450332 20.0785 0.640414 20.1911L0.844238 19.8469L1.04806 19.5027ZM46.1275 9.27845L46.4488 9.51666L46.1275 9.27845ZM66.3763 47.5892C66.3763 48.7674 67.3314 49.7225 68.5096 49.7225C69.6878 49.7225 70.6429 48.7674 70.6429 47.5892C70.6429 46.411 69.6878 45.4559 68.5096 45.4559C67.3314 45.4559 66.3763 46.411 66.3763 47.5892ZM1.47684 20.665C1.67101 20.7704 1.91383 20.6984 2.01919 20.5042C2.12454 20.31 2.05254 20.0672 1.85837 19.9619L1.66761 20.3135L1.47684 20.665ZM5.24639 21.5291C5.04078 21.4483 4.8086 21.5495 4.72779 21.7551C4.64699 21.9607 4.74816 22.1928 4.95376 22.2737L5.10007 21.9014L5.24639 21.5291ZM6.76004 22.9273C6.96971 22.9969 7.19609 22.8833 7.26567 22.6737C7.33525 22.464 7.22168 22.2376 7.01201 22.1681L6.88603 22.5477L6.76004 22.9273ZM10.6225 23.161C10.4067 23.1135 10.1933 23.2499 10.1458 23.4657C10.0983 23.6814 10.2347 23.8948 10.4504 23.9423L10.5365 23.5517L10.6225 23.161ZM12.3302 24.3057C12.5481 24.342 12.7542 24.1947 12.7904 23.9768C12.8267 23.7589 12.6795 23.5528 12.4616 23.5165L12.3959 23.9111L12.3302 24.3057ZM16.1838 23.9366C15.9633 23.9236 15.774 24.0918 15.7609 24.3123C15.7479 24.5329 15.9161 24.7222 16.1366 24.7352L16.1602 24.3359L16.1838 23.9366ZM18.0524 24.7961C18.2734 24.797 18.4532 24.6187 18.4541 24.3978C18.4551 24.1769 18.2768 23.997 18.0559 23.9961L18.0541 24.3961L18.0524 24.7961ZM21.7907 23.8018C21.5711 23.8258 21.4126 24.0233 21.4366 24.2429C21.4607 24.4625 21.6582 24.6211 21.8778 24.597L21.8343 24.1994L21.7907 23.8018ZM23.7779 24.3326C23.9957 24.2958 24.1424 24.0893 24.1056 23.8715C24.0687 23.6537 23.8623 23.507 23.6445 23.5438L23.7112 23.9382L23.7779 24.3326ZM27.2895 22.7015C27.0776 22.7641 26.9566 22.9865 27.0191 23.1984C27.0816 23.4103 27.3041 23.5313 27.5159 23.4688L27.4027 23.0852L27.2895 22.7015ZM29.3371 22.8713C29.5449 22.7962 29.6524 22.5668 29.5772 22.3591C29.5021 22.1513 29.2727 22.0439 29.065 22.119L29.2011 22.4951L29.3371 22.8713ZM32.4972 20.6403C32.2999 20.7396 32.2204 20.9801 32.3196 21.1774C32.4189 21.3748 32.6594 21.4543 32.8567 21.355L32.677 20.9977L32.4972 20.6403ZM34.5433 20.4443C34.7346 20.3337 34.8 20.089 34.6895 19.8978C34.5789 19.7065 34.3343 19.6411 34.143 19.7516L34.3431 20.0979L34.5433 20.4443ZM37.2725 17.7003C37.0947 17.8314 37.0568 18.0818 37.1878 18.2596C37.3189 18.4375 37.5693 18.4754 37.7471 18.3443L37.5098 18.0223L37.2725 17.7003ZM39.2585 17.1677C39.4292 17.0275 39.4539 16.7754 39.3137 16.6047C39.1735 16.434 38.9215 16.4092 38.7507 16.5494L39.0046 16.8585L39.2585 17.1677ZM41.5282 14.0268C41.372 14.183 41.372 14.4363 41.5282 14.5925C41.6845 14.7487 41.9377 14.7486 42.0939 14.5924L41.811 14.3096L41.5282 14.0268ZM43.4165 13.2077C43.5655 13.0446 43.554 12.7916 43.3909 12.6426C43.2278 12.4936 42.9748 12.5051 42.8258 12.6682L43.1212 12.938L43.4165 13.2077ZM45.2323 9.79893C45.0973 9.9738 45.1296 10.225 45.3045 10.36C45.4794 10.495 45.7306 10.4626 45.8656 10.2878L45.5489 10.0433L45.2323 9.79893ZM47.0673 8.72416C47.2075 8.55347 47.1829 8.30141 47.0122 8.16117C46.8415 8.02094 46.5894 8.04563 46.4492 8.21632L46.7582 8.47024L47.0673 8.72416ZM49.3619 5.33089C49.1896 5.46912 49.1619 5.72088 49.3002 5.8932C49.4384 6.06551 49.6902 6.09314 49.8625 5.95491L49.6122 5.6429L49.3619 5.33089ZM51.4627 4.8054C51.6487 4.68621 51.7028 4.43881 51.5836 4.2528C51.4645 4.0668 51.217 4.01263 51.031 4.13182L51.2468 4.46861L51.4627 4.8054ZM54.6955 2.28935C54.4891 2.36807 54.3856 2.59921 54.4643 2.80563C54.543 3.01204 54.7742 3.11556 54.9806 3.03684L54.838 2.6631L54.6955 2.28935ZM56.8578 2.42308C57.0708 2.36444 57.1959 2.14425 57.1373 1.93126C57.0786 1.71827 56.8584 1.59314 56.6455 1.65177L56.7516 2.03743L56.8578 2.42308ZM60.6745 0.918577C60.4546 0.93963 60.2934 1.13497 60.3145 1.35488C60.3355 1.57479 60.5308 1.73599 60.7508 1.71494L60.7126 1.31676L60.6745 0.918577ZM62.7315 1.6035C62.9524 1.59955 63.1282 1.41728 63.1243 1.19641C63.1203 0.975527 62.9381 0.799677 62.7172 0.803633L62.7243 1.20357L62.7315 1.6035ZM66.7937 1.02164C66.5744 0.99482 66.3749 1.15084 66.3481 1.37012C66.3213 1.5894 66.4773 1.7889 66.6966 1.81572L66.7451 1.41868L66.7937 1.02164ZM68.6656 2.12103C68.8827 2.16174 69.0918 2.01873 69.1325 1.8016C69.1732 1.58447 69.0302 1.37545 68.813 1.33473L68.7393 1.72788L68.6656 2.12103ZM72.7654 2.3245C72.5546 2.2584 72.3301 2.37571 72.264 2.58651C72.1979 2.7973 72.3153 3.02176 72.526 3.08785L72.6457 2.70617L72.7654 2.3245ZM74.4107 3.73794C74.6174 3.81582 74.8481 3.71137 74.926 3.50464C75.0039 3.29791 74.8994 3.06718 74.6927 2.9893L74.5517 3.36362L74.4107 3.73794ZM78.4204 4.63512C78.2236 4.53485 77.9827 4.61314 77.8825 4.80998C77.7822 5.00683 77.8605 5.24769 78.0573 5.34796L78.2389 4.99154L78.4204 4.63512ZM79.8067 6.30129C79.9977 6.41239 80.2425 6.34766 80.3536 6.15672C80.4647 5.96577 80.4 5.72092 80.209 5.60982L80.0079 5.95556L79.8067 6.30129ZM83.6104 7.86045C83.4337 7.72789 83.183 7.76369 83.0504 7.94041C82.9179 8.11713 82.9537 8.36786 83.1304 8.50042L83.3704 8.18044L83.6104 7.86045ZM84.6846 9.74321C84.8527 9.88655 85.1052 9.86648 85.2485 9.69838C85.3919 9.53029 85.3718 9.27782 85.2037 9.13448L84.9441 9.43884L84.6846 9.74321ZM88.1244 11.9879C87.9778 11.8226 87.725 11.8076 87.5597 11.9542C87.3945 12.1008 87.3794 12.3536 87.526 12.5189L87.8252 12.2534L88.1244 11.9879ZM88.7854 14.0546C88.9185 14.2309 89.1693 14.266 89.3456 14.1329C89.5219 13.9998 89.557 13.749 89.4239 13.5726L89.1046 13.8136L88.7854 14.0546ZM91.5891 17.0455C91.4907 16.8477 91.2505 16.7672 91.0528 16.8657C90.855 16.9642 90.7745 17.2043 90.873 17.4021L91.2311 17.2238L91.5891 17.0455ZM91.6567 19.2118C91.7332 19.4191 91.9632 19.5251 92.1705 19.4486C92.3777 19.3722 92.4838 19.1422 92.4073 18.9349L92.032 19.0734L91.6567 19.2118ZM93.3533 22.9439C93.3305 22.7242 93.1339 22.5645 92.9142 22.5873C92.6945 22.6101 92.5348 22.8067 92.5576 23.0265L92.9555 22.9852L93.3533 22.9439ZM92.6268 24.9805C92.6194 25.2012 92.7924 25.3862 93.0132 25.3936C93.2339 25.401 93.4189 25.228 93.4263 25.0072L93.0265 24.9938L92.6268 24.9805ZM92.7186 29.0811C92.7855 28.8706 92.6692 28.6456 92.4586 28.5787C92.2481 28.5117 92.0232 28.6281 91.9562 28.8386L92.3374 28.9599L92.7186 29.0811ZM91.2493 30.6546C91.1566 30.8551 91.2441 31.0928 91.4446 31.1855C91.6452 31.2781 91.8829 31.1906 91.9755 30.9901L91.6124 30.8223L91.2493 30.6546ZM89.8458 34.5094C89.979 34.3331 89.944 34.0823 89.7677 33.9491C89.5915 33.8159 89.3406 33.8509 89.2075 34.0272L89.5266 34.2683L89.8458 34.5094ZM87.9535 35.542C87.8055 35.706 87.8185 35.9589 87.9826 36.1069C88.1466 36.2549 88.3996 36.2418 88.5475 36.0778L88.2505 35.8099L87.9535 35.542ZM85.5821 38.9092C85.7519 38.7678 85.7749 38.5156 85.6335 38.3459C85.4922 38.1761 85.24 38.1531 85.0702 38.2944L85.3261 38.6018L85.5821 38.9092ZM83.5329 39.5012C83.3554 39.6327 83.3182 39.8832 83.4497 40.0607C83.5813 40.2382 83.8318 40.2754 84.0093 40.1438L83.7711 39.8225L83.5329 39.5012ZM80.6311 42.3988C80.8202 42.2847 80.881 42.0388 80.7668 41.8497C80.6526 41.6606 80.4067 41.5998 80.2176 41.714L80.4243 42.0564L80.6311 42.3988ZM78.4605 42.7268C78.267 42.8333 78.1965 43.0766 78.303 43.2701C78.4096 43.4636 78.6528 43.5341 78.8464 43.4276L78.6534 43.0772L78.4605 42.7268ZM75.2539 45.2484C75.454 45.1548 75.5404 44.9167 75.4469 44.7166C75.3533 44.5165 75.1153 44.4301 74.9151 44.5236L75.0845 44.886L75.2539 45.2484ZM73.0553 45.3598C72.8526 45.4475 72.7593 45.683 72.847 45.8857C72.9348 46.0885 73.1702 46.1817 73.373 46.094L73.2142 45.7269L73.0553 45.3598ZM69.6373 47.5994C69.8441 47.5217 69.9488 47.2911 69.8711 47.0843C69.7934 46.8775 69.5628 46.7728 69.356 46.8505L69.4966 47.225L69.6373 47.5994ZM0.844238 19.8469L0.640414 20.1911C0.907948 20.3495 1.18693 20.5077 1.47684 20.665L1.66761 20.3135L1.85837 19.9619C1.577 19.8092 1.30673 19.6559 1.04806 19.5027L0.844238 19.8469ZM5.10007 21.9014L4.95376 22.2737C5.53286 22.5012 6.13565 22.7201 6.76004 22.9273L6.88603 22.5477L7.01201 22.1681C6.40136 21.9654 5.81212 21.7514 5.24639 21.5291L5.10007 21.9014ZM10.5365 23.5517L10.4504 23.9423C11.0637 24.0774 11.6908 24.1992 12.3302 24.3057L12.3959 23.9111L12.4616 23.5165C11.8361 23.4124 11.2226 23.2932 10.6225 23.161L10.5365 23.5517ZM16.1602 24.3359L16.1366 24.7352C16.7674 24.7725 17.4063 24.7933 18.0524 24.7961L18.0541 24.3961L18.0559 23.9961C17.4247 23.9934 16.8003 23.9731 16.1838 23.9366L16.1602 24.3359ZM21.8343 24.1994L21.8778 24.597C22.5072 24.5281 23.1409 24.4404 23.7779 24.3326L23.7112 23.9382L23.6445 23.5438C23.0231 23.649 22.4049 23.7345 21.7907 23.8018L21.8343 24.1994ZM27.4027 23.0852L27.5159 23.4688C28.122 23.2899 28.7293 23.0911 29.3371 22.8713L29.2011 22.4951L29.065 22.119C28.4724 22.3333 27.8803 22.5271 27.2895 22.7015L27.4027 23.0852ZM32.677 20.9977L32.8567 21.355C33.4201 21.0717 33.9825 20.7684 34.5433 20.4443L34.3431 20.0979L34.143 19.7516C33.5956 20.068 33.0468 20.3639 32.4972 20.6403L32.677 20.9977ZM37.5098 18.0223L37.7471 18.3443C38.2535 17.9712 38.7574 17.5792 39.2585 17.1677L39.0046 16.8585L38.7507 16.5494C38.2604 16.9521 37.7675 17.3355 37.2725 17.7003L37.5098 18.0223ZM41.811 14.3096L42.0939 14.5924C42.5381 14.1482 42.9791 13.6868 43.4165 13.2077L43.1212 12.938L42.8258 12.6682C42.3964 13.1385 41.9637 13.5912 41.5282 14.0268L41.811 14.3096ZM45.5489 10.0433L45.8656 10.2878C46.0609 10.0347 46.2553 9.77769 46.4488 9.51666L46.1275 9.27845L45.8061 9.04025C45.6157 9.29714 45.4244 9.55001 45.2323 9.79893L45.5489 10.0433ZM46.1275 9.27845L46.4488 9.51666C46.6504 9.24473 46.8566 8.9806 47.0673 8.72416L46.7582 8.47024L46.4492 8.21632C46.23 8.48309 46.0156 8.7577 45.8061 9.04025L46.1275 9.27845ZM49.6122 5.6429L49.8625 5.95491C50.3798 5.53994 50.9137 5.15712 51.4627 4.8054L51.2468 4.46861L51.031 4.13182C50.4585 4.49867 49.9015 4.89801 49.3619 5.33089L49.6122 5.6429ZM54.838 2.6631L54.9806 3.03684C55.595 2.80253 56.2214 2.59829 56.8578 2.42308L56.7516 2.03743L56.6455 1.65177C55.9851 1.83356 55.3345 2.04569 54.6955 2.28935L54.838 2.6631ZM60.7126 1.31676L60.7508 1.71494C61.4057 1.65224 62.0665 1.61542 62.7315 1.6035L62.7243 1.20357L62.7172 0.803633C62.0322 0.815904 61.3507 0.853844 60.6745 0.918577L60.7126 1.31676ZM66.7451 1.41868L66.6966 1.81572C67.3531 1.89602 68.01 1.99809 68.6656 2.12103L68.7393 1.72788L68.813 1.33473C68.1412 1.20875 67.4675 1.10404 66.7937 1.02164L66.7451 1.41868ZM72.6457 2.70617L72.526 3.08785C73.1595 3.28647 73.7883 3.50347 74.4107 3.73794L74.5517 3.36362L74.6927 2.9893C74.0564 2.74958 73.4134 2.52766 72.7654 2.3245L72.6457 2.70617ZM78.2389 4.99154L78.0573 5.34796C78.6508 5.65029 79.2345 5.96838 79.8067 6.30129L80.0079 5.95556L80.209 5.60982C79.6239 5.26938 79.0272 4.94417 78.4204 4.63512L78.2389 4.99154ZM83.3704 8.18044L83.1304 8.50042C83.665 8.90141 84.1836 9.31602 84.6846 9.74321L84.9441 9.43884L85.2037 9.13448C84.6898 8.69623 84.158 8.27122 83.6104 7.86045L83.3704 8.18044ZM87.8252 12.2534L87.526 12.5189C87.9705 13.0197 88.3909 13.532 88.7854 14.0546L89.1046 13.8136L89.4239 13.5726C89.0162 13.0326 88.5823 12.5039 88.1244 11.9879L87.8252 12.2534ZM91.2311 17.2238L90.873 17.4021C91.1694 17.9973 91.4314 18.601 91.6567 19.2118L92.032 19.0734L92.4073 18.9349C92.1715 18.2958 91.8978 17.6655 91.5891 17.0455L91.2311 17.2238ZM92.9555 22.9852L92.5576 23.0265C92.6248 23.6736 92.6487 24.3254 92.6268 24.9805L93.0265 24.9938L93.4263 25.0072C93.4495 24.3149 93.4242 23.6266 93.3533 22.9439L92.9555 22.9852ZM92.3374 28.9599L91.9562 28.8386C91.764 29.4432 91.5291 30.0489 91.2493 30.6546L91.6124 30.8223L91.9755 30.9901C92.269 30.3548 92.516 29.718 92.7186 29.0811L92.3374 28.9599ZM89.5266 34.2683L89.2075 34.0272C88.8248 34.5337 88.4073 35.0389 87.9535 35.542L88.2505 35.8099L88.5475 36.0778C89.0162 35.5582 89.4486 35.0351 89.8458 34.5094L89.5266 34.2683ZM85.3261 38.6018L85.0702 38.2944C84.5841 38.6992 84.0719 39.1016 83.5329 39.5012L83.7711 39.8225L84.0093 40.1438C84.56 39.7356 85.084 39.3239 85.5821 38.9092L85.3261 38.6018ZM80.4243 42.0564L80.2176 41.714C79.6537 42.0545 79.0682 42.3921 78.4605 42.7268L78.6534 43.0772L78.8464 43.4276C79.4631 43.088 80.0579 42.745 80.6311 42.3988L80.4243 42.0564ZM75.0845 44.886L74.9151 44.5236C74.3128 44.8051 73.693 45.0839 73.0553 45.3598L73.2142 45.7269L73.373 46.094C74.0175 45.8152 74.6444 45.5332 75.2539 45.2484L75.0845 44.886ZM69.4966 47.225L69.356 46.8505C69.0323 46.9721 68.7047 47.093 68.3733 47.2132L68.5096 47.5892L68.646 47.9653C68.9803 47.844 69.3107 47.7221 69.6373 47.5994L69.4966 47.225Z" fill="#FFFEA3"/>
</svg>
