<svg width="43" height="43" viewBox="0 0 43 43" fill="none" xmlns="http://www.w3.org/2000/svg">
<circle opacity="0.05" cx="21.0837" cy="21.0837" r="21.0837" fill="white"/>
<path d="M18.7651 9.81226C20.1699 8.7101 22.1695 8.74716 23.5347 9.92261L34.4019 19.28C35.4024 20.1417 35.5145 21.6515 34.6528 22.6521C33.7911 23.6525 32.2813 23.7656 31.2808 22.9041L30.4956 22.2273V30.4207C30.4956 31.9298 29.2723 33.1541 27.7632 33.1541H14.4028C12.8938 33.1539 11.6704 31.9297 11.6704 30.4207V22.2273L10.8853 22.9041C9.88465 23.7655 8.37477 23.6526 7.51318 22.6521C6.6518 21.6516 6.76391 20.1417 7.76416 19.28L18.6313 9.92261L18.7651 9.81226ZM18.7847 23.4773C18.4075 23.4774 18.1011 23.7837 18.1011 24.1609V30.6882C18.1011 31.0654 18.4075 31.3717 18.7847 31.3718H23.3823C23.7596 31.3718 24.0659 31.0655 24.0659 30.6882V24.1609C24.0659 23.7836 23.7596 23.4773 23.3823 23.4773H18.7847Z" fill="#F7FEA3"/>
</svg>
