<svg width="43" height="43" viewBox="0 0 43 43" fill="none" xmlns="http://www.w3.org/2000/svg">
<circle opacity="0.05" cx="21.0837" cy="21.0837" r="21.0837" fill="white"/>
<path d="M20.0678 9.85541C20.4597 8.97622 21.7076 8.97622 22.0995 9.85541L24.7269 15.7496C24.8885 16.1122 25.2312 16.3612 25.626 16.4028L32.0436 17.0802C33.0008 17.1812 33.3865 18.3681 32.6714 19.0125L27.8776 23.3326C27.5827 23.5984 27.4518 24.0012 27.5342 24.3896L28.8731 30.7024C29.0729 31.644 28.0633 32.3775 27.2294 31.8966L21.6394 28.6724C21.2955 28.4741 20.8719 28.4741 20.528 28.6724L14.9379 31.8966C14.1041 32.3775 13.0945 31.644 13.2942 30.7024L14.6332 24.3896C14.7156 24.0012 14.5847 23.5984 14.2897 23.3326L9.49593 19.0125C8.78088 18.3681 9.16651 17.1812 10.1238 17.0802L16.5414 16.4028C16.9362 16.3612 17.2788 16.1122 17.4405 15.7496L20.0678 9.85541Z" fill="#F7FEA3"/>
</svg>
