<svg width="549" height="1184" viewBox="0 0 549 1184" fill="none" xmlns="http://www.w3.org/2000/svg">
<path d="M71.1625 339.782C49.9041 315.452 52.3939 278.496 76.7234 257.237C80.0285 254.349 83.5665 251.9 87.2666 249.884C122.052 230.93 173.279 236.531 203.109 210.465L384.729 51.7717C388.472 48.5012 394.158 48.8842 397.428 52.6273L399.483 54.979C402.754 58.722 402.371 64.4076 398.628 67.6782L217.008 226.372C187.177 252.437 185.856 303.952 162.408 335.881C159.914 339.277 157.012 342.455 153.707 345.342C129.377 366.601 92.4209 364.111 71.1625 339.782Z" fill="url(#paint0_linear_33_514)"/>
<path d="M71.539 339.453C50.4624 315.331 52.9308 278.69 77.0524 257.614C80.3297 254.75 83.8375 252.321 87.5056 250.323C104.814 240.892 126.219 237.567 147.145 233.331C168.021 229.106 188.412 223.972 203.438 210.842L385.058 52.1481C388.594 49.0594 393.963 49.4211 397.052 52.956L399.107 55.3078C402.196 58.8428 401.834 64.2126 398.299 67.3014L216.679 225.995C201.652 239.125 193.83 258.643 186.842 278.763C179.838 298.933 173.673 319.698 162.005 335.585C159.532 338.952 156.655 342.102 153.378 344.966L152.81 345.456C128.684 366.003 92.451 363.386 71.539 339.453Z" stroke="black" stroke-opacity="0.64"/>
<path d="M52.4975 591.661C23.8179 576.784 12.6288 541.474 27.5058 512.795C29.7196 508.527 32.3859 504.646 35.4154 501.182C61.1363 471.765 109.941 459.052 128.536 424.684L339.486 34.8003C341.822 30.4824 347.188 28.8334 351.546 31.0941L354.316 32.5309C358.782 34.8479 360.482 40.3771 358.087 44.8028L148.44 432.279C129.332 467.594 146.787 517.271 135.68 555.858C134.624 559.528 133.19 563.149 131.364 566.669C116.487 595.349 81.177 606.538 52.4975 591.661Z" fill="url(#paint1_linear_33_514)"/>
<path d="M52.7277 591.217C24.2932 576.467 13.1998 541.459 27.9497 513.025C30.1449 508.793 32.7883 504.945 35.7917 501.51C48.5908 486.872 67.1364 476.387 84.9139 465.213C102.649 454.065 119.608 442.235 128.975 424.922L339.926 35.0384C342.132 30.9604 347.2 29.4034 351.316 31.5384L354.085 32.9752C358.304 35.1635 359.908 40.3847 357.647 44.5644L148 432.041C138.375 449.831 137.973 471.207 138.56 492.855C139.148 514.556 140.727 536.52 135.2 555.72C134.153 559.358 132.731 562.948 130.92 566.439L130.57 567.103C115.623 595.045 80.9399 605.852 52.7277 591.217Z" stroke="black" stroke-opacity="0.64"/>
<path d="M251.573 573.88C281.429 561.533 315.642 575.728 327.989 605.584C329.826 610.027 331.076 614.566 331.773 619.116C337.697 657.74 315.973 703.254 330.274 739.619L492.513 1152.16C494.31 1156.73 492.114 1161.89 487.577 1163.77L484.693 1164.96C480.043 1166.88 474.72 1164.62 472.879 1159.94L311.641 749.947C296.945 712.579 247.709 693.92 225.356 660.563C223.23 657.39 221.385 653.961 219.869 650.296C207.522 620.439 221.717 586.227 251.573 573.88Z" fill="url(#paint2_linear_33_514)"/>
<path d="M251.764 574.342C281.365 562.101 315.285 576.174 327.527 605.775C329.349 610.181 330.588 614.682 331.279 619.192C334.227 638.411 330.296 659.35 327.387 680.145C324.485 700.891 322.605 721.483 329.809 739.801L492.048 1152.34C493.745 1156.65 491.67 1161.53 487.385 1163.31L484.502 1164.5C480.11 1166.31 475.084 1164.18 473.344 1159.75L312.106 749.764C304.703 730.941 288.615 716.86 271.682 703.36C254.707 689.827 236.893 676.882 225.771 660.285C223.663 657.139 221.834 653.739 220.331 650.105L220.049 649.41C208.311 619.975 222.394 586.488 251.764 574.342Z" stroke="black" stroke-opacity="0.64"/>
<mask id="path-7-outside-1_33_514" maskUnits="userSpaceOnUse" x="262.139" y="368.137" width="121" height="43" fill="black">
<rect fill="white" x="262.139" y="368.137" width="121" height="43"/>
<path d="M294.326 392.548C292.483 392.429 291.059 391.771 290.054 390.574C289.049 389.354 288.547 387.619 288.547 385.37V380.955H280.148V378.298H288.547V370.079H291.49V384.795C291.49 387.763 292.435 389.462 294.326 389.892V392.548ZM264.103 389.892C266.615 389.82 268.59 389.067 270.025 387.631C271.461 386.171 272.179 384.221 272.179 381.78V376.575H275.158V381.78C275.158 384.197 275.852 386.123 277.24 387.559C278.652 388.995 280.578 389.749 283.019 389.82V392.405C280.913 392.381 279.035 391.902 277.384 390.969C275.733 390.012 274.5 388.708 273.687 387.057C272.897 388.756 271.641 390.096 269.918 391.077C268.219 392.034 266.28 392.524 264.103 392.548V389.892ZM283.952 409.347C282.54 409.347 281.272 409.048 280.148 408.45C279.023 407.875 278.137 407.062 277.491 406.009C276.869 404.956 276.558 403.771 276.558 402.455C276.558 401.139 276.869 399.955 277.491 398.902C278.137 397.849 279.023 397.035 280.148 396.461C281.272 395.863 282.54 395.564 283.952 395.564H290.593V398.22H283.952C282.66 398.22 281.595 398.615 280.758 399.404C279.92 400.194 279.501 401.211 279.501 402.455C279.501 403.7 279.92 404.717 280.758 405.506C281.595 406.296 282.66 406.691 283.952 406.691C285.268 406.691 286.345 406.296 287.183 405.506C288.02 404.717 288.439 403.7 288.439 402.455C288.439 402.024 288.379 401.606 288.26 401.199C288.14 400.792 287.984 400.445 287.793 400.158H290.7C290.916 400.493 291.083 400.828 291.203 401.163C291.323 401.498 291.382 401.929 291.382 402.455C291.382 403.771 291.059 404.956 290.413 406.009C289.791 407.062 288.918 407.875 287.793 408.45C286.668 409.048 285.388 409.347 283.952 409.347ZM316.144 387.559H313.2V383.934H300.745V381.349H313.2V377.293H300.53V374.637H314.529C315.055 374.637 315.45 374.781 315.713 375.068C316 375.331 316.144 375.726 316.144 376.252V387.559ZM294.248 392.548V389.892H322.677V392.548H294.248ZM313.954 401.019H316.898V408.952H301.355C300.829 408.952 300.422 408.808 300.135 408.521C299.872 408.258 299.74 407.863 299.74 407.337V396.425H316.898V399.081H302.683V406.332H313.954V401.019ZM352.829 392.548C350.987 392.429 349.563 391.771 348.558 390.574C347.553 389.354 347.05 387.619 347.05 385.37V380.955H338.651V378.298H347.05V370.079H349.993V384.795C349.993 387.763 350.939 389.462 352.829 389.892V392.548ZM322.606 389.892C325.119 389.82 327.093 389.067 328.529 387.631C329.965 386.171 330.682 384.221 330.682 381.78V376.575H333.662V381.78C333.662 384.197 334.356 386.123 335.743 387.559C337.155 388.995 339.082 389.749 341.522 389.82V392.405C339.417 392.381 337.538 391.902 335.887 390.969C334.236 390.012 333.004 388.708 332.19 387.057C331.4 388.756 330.144 390.096 328.421 391.077C326.722 392.034 324.784 392.524 322.606 392.548V389.892ZM342.456 409.347C341.044 409.347 339.776 409.048 338.651 408.45C337.526 407.875 336.641 407.062 335.995 406.009C335.373 404.956 335.061 403.771 335.061 402.455C335.061 401.139 335.373 399.955 335.995 398.902C336.641 397.849 337.526 397.035 338.651 396.461C339.776 395.863 341.044 395.564 342.456 395.564H349.096V398.22H342.456C341.164 398.22 340.099 398.615 339.261 399.404C338.424 400.194 338.005 401.211 338.005 402.455C338.005 403.7 338.424 404.717 339.261 405.506C340.099 406.296 341.164 406.691 342.456 406.691C343.772 406.691 344.849 406.296 345.686 405.506C346.524 404.717 346.942 403.7 346.942 402.455C346.942 402.024 346.883 401.606 346.763 401.199C346.643 400.792 346.488 400.445 346.296 400.158H349.204C349.419 400.493 349.587 400.828 349.706 401.163C349.826 401.498 349.886 401.929 349.886 402.455C349.886 403.771 349.563 404.956 348.917 406.009C348.294 407.062 347.421 407.875 346.296 408.45C345.172 409.048 343.891 409.347 342.456 409.347ZM374.647 387.559H371.704V383.934H359.249V381.349H371.704V377.293H359.033V374.637H373.032C373.558 374.637 373.953 374.781 374.216 375.068C374.504 375.331 374.647 375.726 374.647 376.252V387.559ZM352.752 392.548V389.892H381.18V392.548H352.752ZM372.458 401.019H375.401V408.952H359.859C359.332 408.952 358.926 408.808 358.638 408.521C358.375 408.258 358.244 407.863 358.244 407.337V396.425H375.401V399.081H361.187V406.332H372.458V401.019Z"/>
</mask>
<path d="M294.326 392.548C292.483 392.429 291.059 391.771 290.054 390.574C289.049 389.354 288.547 387.619 288.547 385.37V380.955H280.148V378.298H288.547V370.079H291.49V384.795C291.49 387.763 292.435 389.462 294.326 389.892V392.548ZM264.103 389.892C266.615 389.82 268.59 389.067 270.025 387.631C271.461 386.171 272.179 384.221 272.179 381.78V376.575H275.158V381.78C275.158 384.197 275.852 386.123 277.24 387.559C278.652 388.995 280.578 389.749 283.019 389.82V392.405C280.913 392.381 279.035 391.902 277.384 390.969C275.733 390.012 274.5 388.708 273.687 387.057C272.897 388.756 271.641 390.096 269.918 391.077C268.219 392.034 266.28 392.524 264.103 392.548V389.892ZM283.952 409.347C282.54 409.347 281.272 409.048 280.148 408.45C279.023 407.875 278.137 407.062 277.491 406.009C276.869 404.956 276.558 403.771 276.558 402.455C276.558 401.139 276.869 399.955 277.491 398.902C278.137 397.849 279.023 397.035 280.148 396.461C281.272 395.863 282.54 395.564 283.952 395.564H290.593V398.22H283.952C282.66 398.22 281.595 398.615 280.758 399.404C279.92 400.194 279.501 401.211 279.501 402.455C279.501 403.7 279.92 404.717 280.758 405.506C281.595 406.296 282.66 406.691 283.952 406.691C285.268 406.691 286.345 406.296 287.183 405.506C288.02 404.717 288.439 403.7 288.439 402.455C288.439 402.024 288.379 401.606 288.26 401.199C288.14 400.792 287.984 400.445 287.793 400.158H290.7C290.916 400.493 291.083 400.828 291.203 401.163C291.323 401.498 291.382 401.929 291.382 402.455C291.382 403.771 291.059 404.956 290.413 406.009C289.791 407.062 288.918 407.875 287.793 408.45C286.668 409.048 285.388 409.347 283.952 409.347ZM316.144 387.559H313.2V383.934H300.745V381.349H313.2V377.293H300.53V374.637H314.529C315.055 374.637 315.45 374.781 315.713 375.068C316 375.331 316.144 375.726 316.144 376.252V387.559ZM294.248 392.548V389.892H322.677V392.548H294.248ZM313.954 401.019H316.898V408.952H301.355C300.829 408.952 300.422 408.808 300.135 408.521C299.872 408.258 299.74 407.863 299.74 407.337V396.425H316.898V399.081H302.683V406.332H313.954V401.019ZM352.829 392.548C350.987 392.429 349.563 391.771 348.558 390.574C347.553 389.354 347.05 387.619 347.05 385.37V380.955H338.651V378.298H347.05V370.079H349.993V384.795C349.993 387.763 350.939 389.462 352.829 389.892V392.548ZM322.606 389.892C325.119 389.82 327.093 389.067 328.529 387.631C329.965 386.171 330.682 384.221 330.682 381.78V376.575H333.662V381.78C333.662 384.197 334.356 386.123 335.743 387.559C337.155 388.995 339.082 389.749 341.522 389.82V392.405C339.417 392.381 337.538 391.902 335.887 390.969C334.236 390.012 333.004 388.708 332.19 387.057C331.4 388.756 330.144 390.096 328.421 391.077C326.722 392.034 324.784 392.524 322.606 392.548V389.892ZM342.456 409.347C341.044 409.347 339.776 409.048 338.651 408.45C337.526 407.875 336.641 407.062 335.995 406.009C335.373 404.956 335.061 403.771 335.061 402.455C335.061 401.139 335.373 399.955 335.995 398.902C336.641 397.849 337.526 397.035 338.651 396.461C339.776 395.863 341.044 395.564 342.456 395.564H349.096V398.22H342.456C341.164 398.22 340.099 398.615 339.261 399.404C338.424 400.194 338.005 401.211 338.005 402.455C338.005 403.7 338.424 404.717 339.261 405.506C340.099 406.296 341.164 406.691 342.456 406.691C343.772 406.691 344.849 406.296 345.686 405.506C346.524 404.717 346.942 403.7 346.942 402.455C346.942 402.024 346.883 401.606 346.763 401.199C346.643 400.792 346.488 400.445 346.296 400.158H349.204C349.419 400.493 349.587 400.828 349.706 401.163C349.826 401.498 349.886 401.929 349.886 402.455C349.886 403.771 349.563 404.956 348.917 406.009C348.294 407.062 347.421 407.875 346.296 408.45C345.172 409.048 343.891 409.347 342.456 409.347ZM374.647 387.559H371.704V383.934H359.249V381.349H371.704V377.293H359.033V374.637H373.032C373.558 374.637 373.953 374.781 374.216 375.068C374.504 375.331 374.647 375.726 374.647 376.252V387.559ZM352.752 392.548V389.892H381.18V392.548H352.752ZM372.458 401.019H375.401V408.952H359.859C359.332 408.952 358.926 408.808 358.638 408.521C358.375 408.258 358.244 407.863 358.244 407.337V396.425H375.401V399.081H361.187V406.332H372.458V401.019Z" fill="#FFFEA3"/>
<path d="M294.326 392.548L294.261 393.546L295.326 393.615V392.548H294.326ZM290.054 390.574L289.282 391.21L289.289 391.217L290.054 390.574ZM288.547 380.955H289.547V379.955H288.547V380.955ZM280.148 380.955H279.148V381.955H280.148V380.955ZM280.148 378.298V377.298H279.148V378.298H280.148ZM288.547 378.298V379.298H289.547V378.298H288.547ZM288.547 370.079V369.079H287.547V370.079H288.547ZM291.49 370.079H292.49V369.079H291.49V370.079ZM294.326 389.892H295.326V389.094L294.548 388.917L294.326 389.892ZM264.103 389.892L264.074 388.893L263.103 388.92V389.892H264.103ZM270.025 387.631L270.732 388.338L270.738 388.332L270.025 387.631ZM272.179 376.575V375.575H271.179V376.575H272.179ZM275.158 376.575H276.158V375.575H275.158V376.575ZM277.24 387.559L276.521 388.254L276.527 388.26L277.24 387.559ZM283.019 389.82H284.019V388.849L283.048 388.821L283.019 389.82ZM283.019 392.405L283.008 393.405L284.019 393.416V392.405H283.019ZM277.384 390.969L276.882 391.834L276.892 391.84L277.384 390.969ZM273.687 387.057L274.584 386.615L273.66 384.741L272.78 386.635L273.687 387.057ZM269.918 391.077L270.408 391.948L270.412 391.946L269.918 391.077ZM264.103 392.548H263.103V393.559L264.114 393.548L264.103 392.548ZM280.148 408.45L280.617 407.567L280.61 407.563L280.602 407.559L280.148 408.45ZM277.491 406.009L276.63 406.517L276.635 406.525L276.639 406.532L277.491 406.009ZM277.491 398.902L276.639 398.379L276.635 398.386L276.63 398.393L277.491 398.902ZM280.148 396.461L280.602 397.351L280.61 397.348L280.617 397.344L280.148 396.461ZM290.593 395.564H291.593V394.564H290.593V395.564ZM290.593 398.22V399.22H291.593V398.22H290.593ZM280.758 399.404L281.444 400.132L281.444 400.132L280.758 399.404ZM280.758 405.506L281.444 404.779L281.444 404.779L280.758 405.506ZM287.183 405.506L286.497 404.779L286.497 404.779L287.183 405.506ZM288.26 401.199L287.3 401.481L288.26 401.199ZM287.793 400.158V399.158H285.924L286.961 400.713L287.793 400.158ZM290.7 400.158L291.542 399.617L291.246 399.158H290.7V400.158ZM291.203 401.163L290.261 401.499L290.261 401.499L291.203 401.163ZM290.413 406.009L289.561 405.486L289.557 405.493L289.552 405.5L290.413 406.009ZM287.793 408.45L287.338 407.559L287.331 407.563L287.323 407.567L287.793 408.45ZM294.326 392.548L294.391 391.551C292.767 391.445 291.618 390.881 290.82 389.931L290.054 390.574L289.289 391.217C290.501 392.661 292.2 393.412 294.261 393.546L294.326 392.548ZM290.054 390.574L290.826 389.939C290.02 388.96 289.547 387.483 289.547 385.37H288.547H287.547C287.547 387.755 288.079 389.748 289.282 391.21L290.054 390.574ZM288.547 385.37H289.547V380.955H288.547H287.547V385.37H288.547ZM288.547 380.955V379.955H280.148V380.955V381.955H288.547V380.955ZM280.148 380.955H281.148V378.298H280.148H279.148V380.955H280.148ZM280.148 378.298V379.298H288.547V378.298V377.298H280.148V378.298ZM288.547 378.298H289.547V370.079H288.547H287.547V378.298H288.547ZM288.547 370.079V371.079H291.49V370.079V369.079H288.547V370.079ZM291.49 370.079H290.49V384.795H291.49H292.49V370.079H291.49ZM291.49 384.795H290.49C290.49 386.367 290.737 387.725 291.325 388.781C291.935 389.878 292.881 390.589 294.104 390.867L294.326 389.892L294.548 388.917C293.88 388.765 293.408 388.411 293.073 387.809C292.715 387.166 292.49 386.191 292.49 384.795H291.49ZM294.326 389.892H293.326V392.548H294.326H295.326V389.892H294.326ZM264.103 389.892L264.131 390.892C266.835 390.815 269.076 389.995 270.732 388.338L270.025 387.631L269.318 386.924C268.104 388.138 266.395 388.826 264.074 388.893L264.103 389.892ZM270.025 387.631L270.738 388.332C272.393 386.65 273.179 384.429 273.179 381.78H272.179H271.179C271.179 384.013 270.53 385.692 269.312 386.93L270.025 387.631ZM272.179 381.78H273.179V376.575H272.179H271.179V381.78H272.179ZM272.179 376.575V377.575H275.158V376.575V375.575H272.179V376.575ZM275.158 376.575H274.158V381.78H275.158H276.158V376.575H275.158ZM275.158 381.78H274.158C274.158 384.398 274.916 386.594 276.521 388.254L277.24 387.559L277.959 386.864C276.788 385.653 276.158 383.996 276.158 381.78H275.158ZM277.24 387.559L276.527 388.26C278.157 389.918 280.349 390.742 282.99 390.82L283.019 389.82L283.048 388.821C280.807 388.755 279.147 388.072 277.953 386.858L277.24 387.559ZM283.019 389.82H282.019V392.405H283.019H284.019V389.82H283.019ZM283.019 392.405L283.03 391.405C281.074 391.383 279.364 390.94 277.876 390.098L277.384 390.969L276.892 391.84C278.705 392.865 280.752 393.379 283.008 393.405L283.019 392.405ZM277.384 390.969L277.885 390.104C276.398 389.242 275.307 388.082 274.584 386.615L273.687 387.057L272.79 387.499C273.694 389.333 275.067 390.782 276.882 391.834L277.384 390.969ZM273.687 387.057L272.78 386.635C272.083 388.134 270.976 389.323 269.423 390.208L269.918 391.077L270.412 391.946C272.305 390.868 273.711 389.377 274.593 387.478L273.687 387.057ZM269.918 391.077L269.427 390.205C267.891 391.071 266.121 391.526 264.092 391.548L264.103 392.548L264.114 393.548C266.44 393.523 268.546 392.997 270.408 391.948L269.918 391.077ZM264.103 392.548H265.103V389.892H264.103H263.103V392.548H264.103ZM283.952 409.347V408.347C282.686 408.347 281.582 408.08 280.617 407.567L280.148 408.45L279.678 409.332C280.962 410.016 282.395 410.347 283.952 410.347V409.347ZM280.148 408.45L280.602 407.559C279.638 407.066 278.891 406.378 278.344 405.486L277.491 406.009L276.639 406.532C277.384 407.745 278.408 408.684 279.693 409.34L280.148 408.45ZM277.491 406.009L278.352 405.5C277.828 404.613 277.558 403.606 277.558 402.455H276.558H275.558C275.558 403.936 275.91 405.299 276.63 406.517L277.491 406.009ZM276.558 402.455H277.558C277.558 401.304 277.828 400.298 278.352 399.41L277.491 398.902L276.63 398.393C275.91 399.612 275.558 400.974 275.558 402.455H276.558ZM277.491 398.902L278.344 399.425C278.891 398.532 279.638 397.844 280.602 397.351L280.148 396.461L279.693 395.57C278.408 396.226 277.384 397.165 276.639 398.379L277.491 398.902ZM280.148 396.461L280.617 397.344C281.582 396.83 282.686 396.564 283.952 396.564V395.564V394.564C282.395 394.564 280.962 394.895 279.678 395.578L280.148 396.461ZM283.952 395.564V396.564H290.593V395.564V394.564H283.952V395.564ZM290.593 395.564H289.593V398.22H290.593H291.593V395.564H290.593ZM290.593 398.22V397.22H283.952V398.22V399.22H290.593V398.22ZM283.952 398.22V397.22C282.439 397.22 281.118 397.69 280.072 398.677L280.758 399.404L281.444 400.132C282.072 399.539 282.881 399.22 283.952 399.22V398.22ZM280.758 399.404L280.072 398.677C279.016 399.672 278.501 400.96 278.501 402.455H279.501H280.501C280.501 401.461 280.824 400.716 281.444 400.132L280.758 399.404ZM279.501 402.455H278.501C278.501 403.95 279.016 405.239 280.072 406.234L280.758 405.506L281.444 404.779C280.824 404.194 280.501 403.449 280.501 402.455H279.501ZM280.758 405.506L280.072 406.234C281.118 407.22 282.439 407.691 283.952 407.691V406.691V405.691C282.881 405.691 282.072 405.371 281.444 404.779L280.758 405.506ZM283.952 406.691V407.691C285.484 407.691 286.819 407.224 287.869 406.234L287.183 405.506L286.497 404.779C285.872 405.368 285.053 405.691 283.952 405.691V406.691ZM287.183 405.506L287.869 406.234C288.924 405.239 289.439 403.95 289.439 402.455H288.439H287.439C287.439 403.449 287.117 404.194 286.497 404.779L287.183 405.506ZM288.439 402.455H289.439C289.439 401.93 289.366 401.417 289.219 400.917L288.26 401.199L287.3 401.481C287.393 401.795 287.439 402.118 287.439 402.455H288.439ZM288.26 401.199L289.219 400.917C289.077 400.434 288.883 399.991 288.625 399.603L287.793 400.158L286.961 400.713C287.085 400.899 287.203 401.15 287.3 401.481L288.26 401.199ZM287.793 400.158V401.158H290.7V400.158V399.158H287.793V400.158ZM290.7 400.158L289.859 400.699C290.038 400.977 290.17 401.244 290.261 401.499L291.203 401.163L292.145 400.827C291.997 400.412 291.793 400.009 291.542 399.617L290.7 400.158ZM291.203 401.163L290.261 401.499C290.329 401.688 290.382 401.994 290.382 402.455H291.382H292.382C292.382 401.864 292.317 401.308 292.145 400.827L291.203 401.163ZM291.382 402.455H290.382C290.382 403.599 290.104 404.601 289.561 405.486L290.413 406.009L291.266 406.532C292.015 405.311 292.382 403.943 292.382 402.455H291.382ZM290.413 406.009L289.552 405.5C289.03 406.384 288.3 407.068 287.338 407.559L287.793 408.45L288.248 409.34C289.535 408.683 290.552 407.739 291.274 406.517L290.413 406.009ZM287.793 408.45L287.323 407.567C286.361 408.079 285.245 408.347 283.952 408.347V409.347V410.347C285.531 410.347 286.976 410.017 288.263 409.332L287.793 408.45ZM316.144 387.559V388.559H317.144V387.559H316.144ZM313.2 387.559H312.2V388.559H313.2V387.559ZM313.2 383.934H314.2V382.934H313.2V383.934ZM300.745 383.934H299.745V384.934H300.745V383.934ZM300.745 381.349V380.349H299.745V381.349H300.745ZM313.2 381.349V382.349H314.2V381.349H313.2ZM313.2 377.293H314.2V376.293H313.2V377.293ZM300.53 377.293H299.53V378.293H300.53V377.293ZM300.53 374.637V373.637H299.53V374.637H300.53ZM315.713 375.068L314.976 375.744L315.005 375.776L315.037 375.805L315.713 375.068ZM294.248 392.548H293.248V393.548H294.248V392.548ZM294.248 389.892V388.892H293.248V389.892H294.248ZM322.677 389.892H323.677V388.892H322.677V389.892ZM322.677 392.548V393.548H323.677V392.548H322.677ZM313.954 401.019V400.019H312.954V401.019H313.954ZM316.898 401.019H317.898V400.019H316.898V401.019ZM316.898 408.952V409.952H317.898V408.952H316.898ZM300.135 408.521L299.428 409.228L299.428 409.228L300.135 408.521ZM299.74 396.425V395.425H298.74V396.425H299.74ZM316.898 396.425H317.898V395.425H316.898V396.425ZM316.898 399.081V400.081H317.898V399.081H316.898ZM302.683 399.081V398.081H301.683V399.081H302.683ZM302.683 406.332H301.683V407.332H302.683V406.332ZM313.954 406.332V407.332H314.954V406.332H313.954ZM316.144 387.559V386.559H313.2V387.559V388.559H316.144V387.559ZM313.2 387.559H314.2V383.934H313.2H312.2V387.559H313.2ZM313.2 383.934V382.934H300.745V383.934V384.934H313.2V383.934ZM300.745 383.934H301.745V381.349H300.745H299.745V383.934H300.745ZM300.745 381.349V382.349H313.2V381.349V380.349H300.745V381.349ZM313.2 381.349H314.2V377.293H313.2H312.2V381.349H313.2ZM313.2 377.293V376.293H300.53V377.293V378.293H313.2V377.293ZM300.53 377.293H301.53V374.637H300.53H299.53V377.293H300.53ZM300.53 374.637V375.637H314.529V374.637V373.637H300.53V374.637ZM314.529 374.637V375.637C314.877 375.637 314.962 375.728 314.976 375.744L315.713 375.068L316.45 374.392C315.938 373.833 315.233 373.637 314.529 373.637V374.637ZM315.713 375.068L315.037 375.805C315.053 375.819 315.144 375.904 315.144 376.252H316.144H317.144C317.144 375.548 316.948 374.843 316.389 374.331L315.713 375.068ZM316.144 376.252H315.144V387.559H316.144H317.144V376.252H316.144ZM294.248 392.548H295.248V389.892H294.248H293.248V392.548H294.248ZM294.248 389.892V390.892H322.677V389.892V388.892H294.248V389.892ZM322.677 389.892H321.677V392.548H322.677H323.677V389.892H322.677ZM322.677 392.548V391.548H294.248V392.548V393.548H322.677V392.548ZM313.954 401.019V402.019H316.898V401.019V400.019H313.954V401.019ZM316.898 401.019H315.898V408.952H316.898H317.898V401.019H316.898ZM316.898 408.952V407.952H301.355V408.952V409.952H316.898V408.952ZM301.355 408.952V407.952C301.012 407.952 300.891 407.863 300.842 407.814L300.135 408.521L299.428 409.228C299.954 409.754 300.646 409.952 301.355 409.952V408.952ZM300.135 408.521L300.842 407.814C300.833 407.805 300.74 407.709 300.74 407.337H299.74H298.74C298.74 408.017 298.911 408.712 299.428 409.228L300.135 408.521ZM299.74 407.337H300.74V396.425H299.74H298.74V407.337H299.74ZM299.74 396.425V397.425H316.898V396.425V395.425H299.74V396.425ZM316.898 396.425H315.898V399.081H316.898H317.898V396.425H316.898ZM316.898 399.081V398.081H302.683V399.081V400.081H316.898V399.081ZM302.683 399.081H301.683V406.332H302.683H303.683V399.081H302.683ZM302.683 406.332V407.332H313.954V406.332V405.332H302.683V406.332ZM313.954 406.332H314.954V401.019H313.954H312.954V406.332H313.954ZM352.829 392.548L352.764 393.546L353.829 393.615V392.548H352.829ZM348.558 390.574L347.786 391.21L347.792 391.217L348.558 390.574ZM347.05 380.955H348.05V379.955H347.05V380.955ZM338.651 380.955H337.651V381.955H338.651V380.955ZM338.651 378.298V377.298H337.651V378.298H338.651ZM347.05 378.298V379.298H348.05V378.298H347.05ZM347.05 370.079V369.079H346.05V370.079H347.05ZM349.993 370.079H350.993V369.079H349.993V370.079ZM352.829 389.892H353.829V389.094L353.051 388.917L352.829 389.892ZM322.606 389.892L322.578 388.893L321.606 388.92V389.892H322.606ZM328.529 387.631L329.236 388.338L329.242 388.332L328.529 387.631ZM330.682 376.575V375.575H329.682V376.575H330.682ZM333.662 376.575H334.662V375.575H333.662V376.575ZM335.743 387.559L335.024 388.254L335.03 388.26L335.743 387.559ZM341.522 389.82H342.522V388.849L341.552 388.821L341.522 389.82ZM341.522 392.405L341.511 393.405L342.522 393.416V392.405H341.522ZM335.887 390.969L335.385 391.834L335.395 391.84L335.887 390.969ZM332.19 387.057L333.087 386.615L332.164 384.741L331.283 386.635L332.19 387.057ZM328.421 391.077L328.912 391.948L328.916 391.946L328.421 391.077ZM322.606 392.548H321.606V393.559L322.617 393.548L322.606 392.548ZM338.651 408.45L339.121 407.567L339.113 407.563L339.106 407.559L338.651 408.45ZM335.995 406.009L335.134 406.517L335.138 406.525L335.142 406.532L335.995 406.009ZM335.995 398.902L335.142 398.379L335.138 398.386L335.134 398.393L335.995 398.902ZM338.651 396.461L339.106 397.351L339.113 397.348L339.121 397.344L338.651 396.461ZM349.096 395.564H350.096V394.564H349.096V395.564ZM349.096 398.22V399.22H350.096V398.22H349.096ZM339.261 399.404L339.947 400.132L339.947 400.132L339.261 399.404ZM339.261 405.506L339.947 404.779L339.947 404.779L339.261 405.506ZM345.686 405.506L345 404.779L345 404.779L345.686 405.506ZM346.763 401.199L345.804 401.481L346.763 401.199ZM346.296 400.158V399.158H344.428L345.464 400.713L346.296 400.158ZM349.204 400.158L350.045 399.617L349.75 399.158H349.204V400.158ZM349.706 401.163L348.765 401.499L348.765 401.499L349.706 401.163ZM348.917 406.009L348.064 405.486L348.06 405.493L348.056 405.5L348.917 406.009ZM346.296 408.45L345.842 407.559L345.834 407.563L345.827 407.567L346.296 408.45ZM352.829 392.548L352.894 391.551C351.27 391.445 350.121 390.881 349.323 389.931L348.558 390.574L347.792 391.217C349.004 392.661 350.703 393.412 352.764 393.546L352.829 392.548ZM348.558 390.574L349.33 389.939C348.523 388.96 348.05 387.483 348.05 385.37H347.05H346.05C346.05 387.755 346.582 389.748 347.786 391.21L348.558 390.574ZM347.05 385.37H348.05V380.955H347.05H346.05V385.37H347.05ZM347.05 380.955V379.955H338.651V380.955V381.955H347.05V380.955ZM338.651 380.955H339.651V378.298H338.651H337.651V380.955H338.651ZM338.651 378.298V379.298H347.05V378.298V377.298H338.651V378.298ZM347.05 378.298H348.05V370.079H347.05H346.05V378.298H347.05ZM347.05 370.079V371.079H349.993V370.079V369.079H347.05V370.079ZM349.993 370.079H348.993V384.795H349.993H350.993V370.079H349.993ZM349.993 384.795H348.993C348.993 386.367 349.241 387.725 349.829 388.781C350.439 389.878 351.384 390.589 352.607 390.867L352.829 389.892L353.051 388.917C352.384 388.765 351.911 388.411 351.576 387.809C351.219 387.166 350.993 386.191 350.993 384.795H349.993ZM352.829 389.892H351.829V392.548H352.829H353.829V389.892H352.829ZM322.606 389.892L322.635 390.892C325.339 390.815 327.579 389.995 329.236 388.338L328.529 387.631L327.822 386.924C326.607 388.138 324.899 388.826 322.578 388.893L322.606 389.892ZM328.529 387.631L329.242 388.332C330.896 386.65 331.682 384.429 331.682 381.78H330.682H329.682C329.682 384.013 329.033 385.692 327.816 386.93L328.529 387.631ZM330.682 381.78H331.682V376.575H330.682H329.682V381.78H330.682ZM330.682 376.575V377.575H333.662V376.575V375.575H330.682V376.575ZM333.662 376.575H332.662V381.78H333.662H334.662V376.575H333.662ZM333.662 381.78H332.662C332.662 384.398 333.42 386.594 335.024 388.254L335.743 387.559L336.462 386.864C335.291 385.653 334.662 383.996 334.662 381.78H333.662ZM335.743 387.559L335.03 388.26C336.66 389.918 338.853 390.742 341.493 390.82L341.522 389.82L341.552 388.821C339.311 388.755 337.65 388.072 336.457 386.858L335.743 387.559ZM341.522 389.82H340.522V392.405H341.522H342.522V389.82H341.522ZM341.522 392.405L341.534 391.405C339.578 391.383 337.868 390.94 336.379 390.098L335.887 390.969L335.395 391.84C337.209 392.865 339.256 393.379 341.511 393.405L341.522 392.405ZM335.887 390.969L336.389 390.104C334.901 389.242 333.81 388.082 333.087 386.615L332.19 387.057L331.293 387.499C332.197 389.333 333.57 390.782 335.386 391.834L335.887 390.969ZM332.19 387.057L331.283 386.635C330.586 388.134 329.48 389.323 327.926 390.208L328.421 391.077L328.916 391.946C330.808 390.868 332.214 389.377 333.097 387.478L332.19 387.057ZM328.421 391.077L327.93 390.205C326.394 391.071 324.625 391.526 322.595 391.548L322.606 392.548L322.617 393.548C324.943 393.523 327.05 392.997 328.912 391.948L328.421 391.077ZM322.606 392.548H323.606V389.892H322.606H321.606V392.548H322.606ZM342.456 409.347V408.347C341.19 408.347 340.085 408.08 339.121 407.567L338.651 408.45L338.181 409.332C339.466 410.016 340.898 410.347 342.456 410.347V409.347ZM338.651 408.45L339.106 407.559C338.141 407.066 337.395 406.378 336.847 405.486L335.995 406.009L335.142 406.532C335.887 407.745 336.911 408.684 338.196 409.34L338.651 408.45ZM335.995 406.009L336.856 405.5C336.331 404.613 336.061 403.606 336.061 402.455H335.061H334.061C334.061 403.936 334.414 405.299 335.134 406.517L335.995 406.009ZM335.061 402.455H336.061C336.061 401.304 336.331 400.298 336.856 399.41L335.995 398.902L335.134 398.393C334.414 399.612 334.061 400.974 334.061 402.455H335.061ZM335.995 398.902L336.847 399.425C337.395 398.532 338.141 397.844 339.106 397.351L338.651 396.461L338.196 395.57C336.911 396.226 335.887 397.165 335.142 398.379L335.995 398.902ZM338.651 396.461L339.121 397.344C340.085 396.83 341.19 396.564 342.456 396.564V395.564V394.564C340.898 394.564 339.466 394.895 338.181 395.578L338.651 396.461ZM342.456 395.564V396.564H349.096V395.564V394.564H342.456V395.564ZM349.096 395.564H348.096V398.22H349.096H350.096V395.564H349.096ZM349.096 398.22V397.22H342.456V398.22V399.22H349.096V398.22ZM342.456 398.22V397.22C340.942 397.22 339.621 397.69 338.575 398.677L339.261 399.404L339.947 400.132C340.576 399.539 341.385 399.22 342.456 399.22V398.22ZM339.261 399.404L338.575 398.677C337.52 399.672 337.005 400.96 337.005 402.455H338.005H339.005C339.005 401.461 339.327 400.716 339.947 400.132L339.261 399.404ZM338.005 402.455H337.005C337.005 403.95 337.52 405.239 338.575 406.234L339.261 405.506L339.947 404.779C339.327 404.194 339.005 403.449 339.005 402.455H338.005ZM339.261 405.506L338.575 406.234C339.621 407.22 340.942 407.691 342.456 407.691V406.691V405.691C341.385 405.691 340.576 405.371 339.947 404.779L339.261 405.506ZM342.456 406.691V407.691C343.988 407.691 345.322 407.224 346.372 406.234L345.686 405.506L345 404.779C344.375 405.368 343.556 405.691 342.456 405.691V406.691ZM345.686 405.506L346.372 406.234C347.428 405.239 347.942 403.95 347.942 402.455H346.942H345.942C345.942 403.449 345.62 404.194 345 404.779L345.686 405.506ZM346.942 402.455H347.942C347.942 401.93 347.869 401.417 347.722 400.917L346.763 401.199L345.804 401.481C345.896 401.795 345.942 402.118 345.942 402.455H346.942ZM346.763 401.199L347.722 400.917C347.581 400.434 347.387 399.991 347.128 399.603L346.296 400.158L345.464 400.713C345.589 400.899 345.706 401.15 345.804 401.481L346.763 401.199ZM346.296 400.158V401.158H349.204V400.158V399.158H346.296V400.158ZM349.204 400.158L348.363 400.699C348.542 400.977 348.673 401.244 348.765 401.499L349.706 401.163L350.648 400.827C350.5 400.412 350.297 400.009 350.045 399.617L349.204 400.158ZM349.706 401.163L348.765 401.499C348.832 401.688 348.886 401.994 348.886 402.455H349.886H350.886C350.886 401.864 350.82 401.308 350.648 400.827L349.706 401.163ZM349.886 402.455H348.886C348.886 403.599 348.607 404.601 348.064 405.486L348.917 406.009L349.769 406.532C350.518 405.311 350.886 403.943 350.886 402.455H349.886ZM348.917 406.009L348.056 405.5C347.533 406.384 346.803 407.068 345.842 407.559L346.296 408.45L346.751 409.34C348.039 408.683 349.056 407.739 349.778 406.517L348.917 406.009ZM346.296 408.45L345.827 407.567C344.864 408.079 343.749 408.347 342.456 408.347V409.347V410.347C344.034 410.347 345.479 410.017 346.766 409.332L346.296 408.45ZM374.647 387.559V388.559H375.647V387.559H374.647ZM371.704 387.559H370.704V388.559H371.704V387.559ZM371.704 383.934H372.704V382.934H371.704V383.934ZM359.249 383.934H358.249V384.934H359.249V383.934ZM359.249 381.349V380.349H358.249V381.349H359.249ZM371.704 381.349V382.349H372.704V381.349H371.704ZM371.704 377.293H372.704V376.293H371.704V377.293ZM359.033 377.293H358.033V378.293H359.033V377.293ZM359.033 374.637V373.637H358.033V374.637H359.033ZM374.216 375.068L373.479 375.744L373.509 375.776L373.541 375.805L374.216 375.068ZM352.752 392.548H351.752V393.548H352.752V392.548ZM352.752 389.892V388.892H351.752V389.892H352.752ZM381.18 389.892H382.18V388.892H381.18V389.892ZM381.18 392.548V393.548H382.18V392.548H381.18ZM372.458 401.019V400.019H371.458V401.019H372.458ZM375.401 401.019H376.401V400.019H375.401V401.019ZM375.401 408.952V409.952H376.401V408.952H375.401ZM358.638 408.521L357.931 409.228L357.931 409.228L358.638 408.521ZM358.244 396.425V395.425H357.244V396.425H358.244ZM375.401 396.425H376.401V395.425H375.401V396.425ZM375.401 399.081V400.081H376.401V399.081H375.401ZM361.187 399.081V398.081H360.187V399.081H361.187ZM361.187 406.332H360.187V407.332H361.187V406.332ZM372.458 406.332V407.332H373.458V406.332H372.458ZM374.647 387.559V386.559H371.704V387.559V388.559H374.647V387.559ZM371.704 387.559H372.704V383.934H371.704H370.704V387.559H371.704ZM371.704 383.934V382.934H359.249V383.934V384.934H371.704V383.934ZM359.249 383.934H360.249V381.349H359.249H358.249V383.934H359.249ZM359.249 381.349V382.349H371.704V381.349V380.349H359.249V381.349ZM371.704 381.349H372.704V377.293H371.704H370.704V381.349H371.704ZM371.704 377.293V376.293H359.033V377.293V378.293H371.704V377.293ZM359.033 377.293H360.033V374.637H359.033H358.033V377.293H359.033ZM359.033 374.637V375.637H373.032V374.637V373.637H359.033V374.637ZM373.032 374.637V375.637C373.381 375.637 373.465 375.728 373.479 375.744L374.216 375.068L374.954 374.392C374.441 373.833 373.736 373.637 373.032 373.637V374.637ZM374.216 375.068L373.541 375.805C373.556 375.819 373.647 375.904 373.647 376.252H374.647H375.647C375.647 375.548 375.451 374.843 374.892 374.331L374.216 375.068ZM374.647 376.252H373.647V387.559H374.647H375.647V376.252H374.647ZM352.752 392.548H353.752V389.892H352.752H351.752V392.548H352.752ZM352.752 389.892V390.892H381.18V389.892V388.892H352.752V389.892ZM381.18 389.892H380.18V392.548H381.18H382.18V389.892H381.18ZM381.18 392.548V391.548H352.752V392.548V393.548H381.18V392.548ZM372.458 401.019V402.019H375.401V401.019V400.019H372.458V401.019ZM375.401 401.019H374.401V408.952H375.401H376.401V401.019H375.401ZM375.401 408.952V407.952H359.859V408.952V409.952H375.401V408.952ZM359.859 408.952V407.952C359.516 407.952 359.394 407.863 359.345 407.814L358.638 408.521L357.931 409.228C358.457 409.754 359.149 409.952 359.859 409.952V408.952ZM358.638 408.521L359.345 407.814C359.336 407.805 359.244 407.709 359.244 407.337H358.244H357.244C357.244 408.017 357.414 408.712 357.931 409.228L358.638 408.521ZM358.244 407.337H359.244V396.425H358.244H357.244V407.337H358.244ZM358.244 396.425V397.425H375.401V396.425V395.425H358.244V396.425ZM375.401 396.425H374.401V399.081H375.401H376.401V396.425H375.401ZM375.401 399.081V398.081H361.187V399.081V400.081H375.401V399.081ZM361.187 399.081H360.187V406.332H361.187H362.187V399.081H361.187ZM361.187 406.332V407.332H372.458V406.332V405.332H361.187V406.332ZM372.458 406.332H373.458V401.019H372.458H371.458V406.332H372.458Z" fill="black" fill-opacity="0.25" mask="url(#path-7-outside-1_33_514)"/>
<circle cx="237.363" cy="347.905" r="8.52173" fill="#FFFDB0"/>
<circle cx="237.363" cy="347.905" r="8.02173" stroke="black" stroke-opacity="0.25"/>
<circle cx="276.617" cy="450.977" r="8.52173" fill="#FFFDB0"/>
<circle cx="276.617" cy="450.977" r="8.02173" stroke="black" stroke-opacity="0.25"/>
<circle cx="134.375" cy="665.445" r="20.3291" fill="#FFFDB0"/>
<circle cx="134.375" cy="665.445" r="19.8291" stroke="black" stroke-opacity="0.25"/>
<circle cx="249.642" cy="784.41" r="12.2799" fill="#FFFDB0"/>
<circle cx="249.642" cy="784.41" r="11.7799" stroke="black" stroke-opacity="0.25"/>
<circle cx="268.666" cy="819.998" r="7.9519" fill="#FFFDB0"/>
<circle cx="268.666" cy="819.998" r="7.4519" stroke="black" stroke-opacity="0.25"/>
<circle cx="224.949" cy="331.898" r="5.40283" fill="#FFFDB0"/>
<circle cx="224.949" cy="331.898" r="4.90283" stroke="black" stroke-opacity="0.25"/>
<defs>
<linearGradient id="paint0_linear_33_514" x1="71.1625" y1="339.782" x2="398.456" y2="53.8031" gradientUnits="userSpaceOnUse">
<stop stop-color="#FFFEA3"/>
<stop offset="1" stop-color="white"/>
</linearGradient>
<linearGradient id="paint1_linear_33_514" x1="52.4975" y1="591.661" x2="252.632" y2="205.849" gradientUnits="userSpaceOnUse">
<stop stop-color="#FFFEA3"/>
<stop offset="1" stop-color="white"/>
</linearGradient>
<linearGradient id="paint2_linear_33_514" x1="251.573" y1="573.88" x2="417.668" y2="975.523" gradientUnits="userSpaceOnUse">
<stop stop-color="#FFFEA3"/>
<stop offset="1" stop-color="white"/>
</linearGradient>
</defs>
</svg>
