<svg width="711" height="1536" viewBox="0 0 711 1536" fill="none" xmlns="http://www.w3.org/2000/svg">
<mask id="path-1-outside-1_33_541" maskUnits="userSpaceOnUse" x="175.285" y="654.336" width="128" height="44" fill="black">
<rect fill="white" x="175.285" y="654.336" width="128" height="44"/>
<path d="M201.693 656.277H204.636V664.353H209.661V667.009H204.636V671.101C204.636 672.753 204.911 673.997 205.462 674.834C206.036 675.672 207.005 676.091 208.369 676.091H209.266V678.747H208.333C206.156 678.747 204.504 678.113 203.38 676.844C202.255 675.576 201.693 673.698 201.693 671.209V656.277ZM192.755 662.81H195.698V678.747H177.249V676.091H182.13C181.891 675.827 181.712 675.504 181.592 675.122C181.472 674.715 181.413 674.188 181.413 673.542V662.81H184.356V668.266H190.745V670.922H184.356V673.686C184.356 674.523 184.523 675.134 184.858 675.516C185.217 675.899 185.756 676.091 186.474 676.091H192.755V662.81ZM192.647 691.202H204.528V693.858H191.319C190.793 693.858 190.386 693.715 190.099 693.428C189.836 693.164 189.704 692.77 189.704 692.243V682.695H192.647V691.202ZM233.267 656.277H236.21V664.353H240.877V667.009H236.21V671.101C236.21 672.753 236.486 673.997 237.036 674.834C237.61 675.672 238.579 676.091 239.943 676.091H240.841V678.747H239.908C237.73 678.747 236.079 678.113 234.954 676.844C233.829 675.576 233.267 673.698 233.267 671.209V656.277ZM209.182 678.747V676.091H210.977C212.293 676.091 213.358 675.648 214.171 674.763C214.985 673.853 215.392 672.669 215.392 671.209V667.081H211.946V664.425H220.919V667.081H218.371V671.209C218.371 672.549 218.646 673.65 219.197 674.511C219.771 675.349 220.513 675.792 221.422 675.839C222.331 675.792 223.061 675.337 223.612 674.475C224.162 673.614 224.437 672.525 224.437 671.209V667.081H221.924V664.425H230.862V667.081H227.416V671.209C227.416 672.549 227.799 673.662 228.565 674.547C229.355 675.409 230.372 675.875 231.616 675.947V678.603C230.419 678.579 229.295 678.244 228.242 677.598C227.189 676.928 226.423 676.091 225.945 675.086C225.562 676.067 224.952 676.868 224.114 677.491C223.277 678.113 222.379 678.436 221.422 678.46C220.393 678.436 219.46 678.113 218.622 677.491C217.809 676.868 217.222 676.067 216.863 675.086C216.457 676.186 215.703 677.072 214.602 677.742C213.525 678.412 212.317 678.747 210.977 678.747H209.182ZM235.959 694.648H233.016V684.741H221.422V682.085H234.344C234.87 682.085 235.265 682.229 235.528 682.516C235.816 682.779 235.959 683.174 235.959 683.7V694.648ZM263.055 656.277H265.998V664.353H271.024V667.009H265.998V671.101C265.998 672.753 266.274 673.997 266.824 674.834C267.398 675.672 268.367 676.091 269.731 676.091H270.629V678.747H269.696C267.518 678.747 265.867 678.113 264.742 676.844C263.617 675.576 263.055 673.698 263.055 671.209V656.277ZM240.765 676.091C243.325 676.019 245.335 675.265 246.795 673.829C248.255 672.37 248.985 670.419 248.985 667.979V662.774H251.964V667.979C251.964 670.395 252.67 672.322 254.082 673.758C255.517 675.193 257.48 675.947 259.968 676.019V678.603C257.838 678.579 255.924 678.101 254.225 677.168C252.55 676.21 251.306 674.906 250.492 673.255C249.702 674.954 248.446 676.294 246.723 677.275C245 678.232 243.014 678.723 240.765 678.747V676.091ZM254.261 694.648H266.25V697.304H252.933C252.406 697.304 252 697.161 251.713 696.873C251.449 696.61 251.318 696.215 251.318 695.689V688.259H262.624V684.634H251.318V681.977H263.952C264.479 681.977 264.874 682.121 265.137 682.408C265.424 682.671 265.568 683.066 265.568 683.593V690.879H254.261V694.648ZM293.927 656.277H296.87V664.353H301.895V667.009H296.87V671.101C296.87 672.753 297.145 673.997 297.696 674.834C298.27 675.672 299.239 676.091 300.603 676.091H301.501V678.747H300.567C298.39 678.747 296.739 678.113 295.614 676.844C294.489 675.576 293.927 673.698 293.927 671.209V656.277ZM289.584 676.091V678.747H270.56V676.091H275.37C274.987 675.588 274.795 674.834 274.795 673.829V668.697H284.774V664.389H274.795V661.733H286.102C286.628 661.733 287.023 661.877 287.286 662.164C287.574 662.427 287.717 662.822 287.717 663.348V671.317H277.739V673.937C277.739 674.703 277.882 675.253 278.169 675.588C278.48 675.923 278.959 676.091 279.605 676.091H289.584ZM289.656 695.438C288.268 695.438 287.011 695.139 285.887 694.54C284.786 693.966 283.924 693.152 283.302 692.1C282.68 691.071 282.369 689.898 282.369 688.582C282.369 687.266 282.68 686.093 283.302 685.064C283.924 684.035 284.786 683.234 285.887 682.659C287.011 682.061 288.268 681.762 289.656 681.762H296.152V684.418H289.656C288.387 684.418 287.346 684.813 286.533 685.603C285.719 686.368 285.312 687.362 285.312 688.582C285.312 689.802 285.719 690.807 286.533 691.597C287.346 692.387 288.387 692.782 289.656 692.782C290.9 692.782 291.929 692.387 292.742 691.597C293.556 690.807 293.963 689.802 293.963 688.582C293.963 687.744 293.771 687.003 293.389 686.356H296.296C296.703 687.003 296.906 687.744 296.906 688.582C296.906 689.898 296.595 691.071 295.973 692.1C295.351 693.152 294.489 693.966 293.389 694.54C292.288 695.139 291.043 695.438 289.656 695.438Z"/>
</mask>
<path d="M201.693 656.277H204.636V664.353H209.661V667.009H204.636V671.101C204.636 672.753 204.911 673.997 205.462 674.834C206.036 675.672 207.005 676.091 208.369 676.091H209.266V678.747H208.333C206.156 678.747 204.504 678.113 203.38 676.844C202.255 675.576 201.693 673.698 201.693 671.209V656.277ZM192.755 662.81H195.698V678.747H177.249V676.091H182.13C181.891 675.827 181.712 675.504 181.592 675.122C181.472 674.715 181.413 674.188 181.413 673.542V662.81H184.356V668.266H190.745V670.922H184.356V673.686C184.356 674.523 184.523 675.134 184.858 675.516C185.217 675.899 185.756 676.091 186.474 676.091H192.755V662.81ZM192.647 691.202H204.528V693.858H191.319C190.793 693.858 190.386 693.715 190.099 693.428C189.836 693.164 189.704 692.77 189.704 692.243V682.695H192.647V691.202ZM233.267 656.277H236.21V664.353H240.877V667.009H236.21V671.101C236.21 672.753 236.486 673.997 237.036 674.834C237.61 675.672 238.579 676.091 239.943 676.091H240.841V678.747H239.908C237.73 678.747 236.079 678.113 234.954 676.844C233.829 675.576 233.267 673.698 233.267 671.209V656.277ZM209.182 678.747V676.091H210.977C212.293 676.091 213.358 675.648 214.171 674.763C214.985 673.853 215.392 672.669 215.392 671.209V667.081H211.946V664.425H220.919V667.081H218.371V671.209C218.371 672.549 218.646 673.65 219.197 674.511C219.771 675.349 220.513 675.792 221.422 675.839C222.331 675.792 223.061 675.337 223.612 674.475C224.162 673.614 224.437 672.525 224.437 671.209V667.081H221.924V664.425H230.862V667.081H227.416V671.209C227.416 672.549 227.799 673.662 228.565 674.547C229.355 675.409 230.372 675.875 231.616 675.947V678.603C230.419 678.579 229.295 678.244 228.242 677.598C227.189 676.928 226.423 676.091 225.945 675.086C225.562 676.067 224.952 676.868 224.114 677.491C223.277 678.113 222.379 678.436 221.422 678.46C220.393 678.436 219.46 678.113 218.622 677.491C217.809 676.868 217.222 676.067 216.863 675.086C216.457 676.186 215.703 677.072 214.602 677.742C213.525 678.412 212.317 678.747 210.977 678.747H209.182ZM235.959 694.648H233.016V684.741H221.422V682.085H234.344C234.87 682.085 235.265 682.229 235.528 682.516C235.816 682.779 235.959 683.174 235.959 683.7V694.648ZM263.055 656.277H265.998V664.353H271.024V667.009H265.998V671.101C265.998 672.753 266.274 673.997 266.824 674.834C267.398 675.672 268.367 676.091 269.731 676.091H270.629V678.747H269.696C267.518 678.747 265.867 678.113 264.742 676.844C263.617 675.576 263.055 673.698 263.055 671.209V656.277ZM240.765 676.091C243.325 676.019 245.335 675.265 246.795 673.829C248.255 672.37 248.985 670.419 248.985 667.979V662.774H251.964V667.979C251.964 670.395 252.67 672.322 254.082 673.758C255.517 675.193 257.48 675.947 259.968 676.019V678.603C257.838 678.579 255.924 678.101 254.225 677.168C252.55 676.21 251.306 674.906 250.492 673.255C249.702 674.954 248.446 676.294 246.723 677.275C245 678.232 243.014 678.723 240.765 678.747V676.091ZM254.261 694.648H266.25V697.304H252.933C252.406 697.304 252 697.161 251.713 696.873C251.449 696.61 251.318 696.215 251.318 695.689V688.259H262.624V684.634H251.318V681.977H263.952C264.479 681.977 264.874 682.121 265.137 682.408C265.424 682.671 265.568 683.066 265.568 683.593V690.879H254.261V694.648ZM293.927 656.277H296.87V664.353H301.895V667.009H296.87V671.101C296.87 672.753 297.145 673.997 297.696 674.834C298.27 675.672 299.239 676.091 300.603 676.091H301.501V678.747H300.567C298.39 678.747 296.739 678.113 295.614 676.844C294.489 675.576 293.927 673.698 293.927 671.209V656.277ZM289.584 676.091V678.747H270.56V676.091H275.37C274.987 675.588 274.795 674.834 274.795 673.829V668.697H284.774V664.389H274.795V661.733H286.102C286.628 661.733 287.023 661.877 287.286 662.164C287.574 662.427 287.717 662.822 287.717 663.348V671.317H277.739V673.937C277.739 674.703 277.882 675.253 278.169 675.588C278.48 675.923 278.959 676.091 279.605 676.091H289.584ZM289.656 695.438C288.268 695.438 287.011 695.139 285.887 694.54C284.786 693.966 283.924 693.152 283.302 692.1C282.68 691.071 282.369 689.898 282.369 688.582C282.369 687.266 282.68 686.093 283.302 685.064C283.924 684.035 284.786 683.234 285.887 682.659C287.011 682.061 288.268 681.762 289.656 681.762H296.152V684.418H289.656C288.387 684.418 287.346 684.813 286.533 685.603C285.719 686.368 285.312 687.362 285.312 688.582C285.312 689.802 285.719 690.807 286.533 691.597C287.346 692.387 288.387 692.782 289.656 692.782C290.9 692.782 291.929 692.387 292.742 691.597C293.556 690.807 293.963 689.802 293.963 688.582C293.963 687.744 293.771 687.003 293.389 686.356H296.296C296.703 687.003 296.906 687.744 296.906 688.582C296.906 689.898 296.595 691.071 295.973 692.1C295.351 693.152 294.489 693.966 293.389 694.54C292.288 695.139 291.043 695.438 289.656 695.438Z" fill="#FFFEA3"/>
<path d="M201.693 656.277V655.277H200.693V656.277H201.693ZM204.636 656.277H205.636V655.277H204.636V656.277ZM204.636 664.353H203.636V665.353H204.636V664.353ZM209.661 664.353H210.661V663.353H209.661V664.353ZM209.661 667.009V668.009H210.661V667.009H209.661ZM204.636 667.009V666.009H203.636V667.009H204.636ZM205.462 674.834L204.626 675.384L204.631 675.392L204.637 675.4L205.462 674.834ZM209.266 676.091H210.266V675.091H209.266V676.091ZM209.266 678.747V679.747H210.266V678.747H209.266ZM203.38 676.844L204.128 676.181L204.128 676.181L203.38 676.844ZM192.755 662.81V661.81H191.755V662.81H192.755ZM195.698 662.81H196.698V661.81H195.698V662.81ZM195.698 678.747V679.747H196.698V678.747H195.698ZM177.249 678.747H176.249V679.747H177.249V678.747ZM177.249 676.091V675.091H176.249V676.091H177.249ZM182.13 676.091V677.091H184.391L182.87 675.418L182.13 676.091ZM181.592 675.122L180.633 675.404L180.635 675.412L180.637 675.42L181.592 675.122ZM181.413 662.81V661.81H180.413V662.81H181.413ZM184.356 662.81H185.356V661.81H184.356V662.81ZM184.356 668.266H183.356V669.266H184.356V668.266ZM190.745 668.266H191.745V667.266H190.745V668.266ZM190.745 670.922V671.922H191.745V670.922H190.745ZM184.356 670.922V669.922H183.356V670.922H184.356ZM184.858 675.516L184.106 676.175L184.117 676.188L184.129 676.2L184.858 675.516ZM192.755 676.091V677.091H193.755V676.091H192.755ZM192.647 691.202H191.647V692.202H192.647V691.202ZM204.528 691.202H205.528V690.202H204.528V691.202ZM204.528 693.858V694.858H205.528V693.858H204.528ZM190.099 693.428L190.806 692.721L190.806 692.721L190.099 693.428ZM189.704 682.695V681.695H188.704V682.695H189.704ZM192.647 682.695H193.647V681.695H192.647V682.695ZM201.693 656.277V657.277H204.636V656.277V655.277H201.693V656.277ZM204.636 656.277H203.636V664.353H204.636H205.636V656.277H204.636ZM204.636 664.353V665.353H209.661V664.353V663.353H204.636V664.353ZM209.661 664.353H208.661V667.009H209.661H210.661V664.353H209.661ZM209.661 667.009V666.009H204.636V667.009V668.009H209.661V667.009ZM204.636 667.009H203.636V671.101H204.636H205.636V667.009H204.636ZM204.636 671.101H203.636C203.636 672.834 203.919 674.308 204.626 675.384L205.462 674.834L206.297 674.285C205.903 673.685 205.636 672.671 205.636 671.101H204.636ZM205.462 674.834L204.637 675.4C205.458 676.598 206.8 677.091 208.369 677.091V676.091V675.091C207.21 675.091 206.613 674.746 206.286 674.269L205.462 674.834ZM208.369 676.091V677.091H209.266V676.091V675.091H208.369V676.091ZM209.266 676.091H208.266V678.747H209.266H210.266V676.091H209.266ZM209.266 678.747V677.747H208.333V678.747V679.747H209.266V678.747ZM208.333 678.747V677.747C206.355 677.747 205.012 677.178 204.128 676.181L203.38 676.844L202.632 677.508C203.997 679.048 205.956 679.747 208.333 679.747V678.747ZM203.38 676.844L204.128 676.181C203.227 675.165 202.693 673.565 202.693 671.209H201.693H200.693C200.693 673.83 201.283 675.987 202.632 677.508L203.38 676.844ZM201.693 671.209H202.693V656.277H201.693H200.693V671.209H201.693ZM192.755 662.81V663.81H195.698V662.81V661.81H192.755V662.81ZM195.698 662.81H194.698V678.747H195.698H196.698V662.81H195.698ZM195.698 678.747V677.747H177.249V678.747V679.747H195.698V678.747ZM177.249 678.747H178.249V676.091H177.249H176.249V678.747H177.249ZM177.249 676.091V677.091H182.13V676.091V675.091H177.249V676.091ZM182.13 676.091L182.87 675.418C182.741 675.276 182.628 675.085 182.546 674.823L181.592 675.122L180.637 675.42C180.795 675.924 181.041 676.379 181.39 676.763L182.13 676.091ZM181.592 675.122L182.551 674.839C182.469 674.559 182.413 674.137 182.413 673.542H181.413H180.413C180.413 674.239 180.476 674.871 180.633 675.404L181.592 675.122ZM181.413 673.542H182.413V662.81H181.413H180.413V673.542H181.413ZM181.413 662.81V663.81H184.356V662.81V661.81H181.413V662.81ZM184.356 662.81H183.356V668.266H184.356H185.356V662.81H184.356ZM184.356 668.266V669.266H190.745V668.266V667.266H184.356V668.266ZM190.745 668.266H189.745V670.922H190.745H191.745V668.266H190.745ZM190.745 670.922V669.922H184.356V670.922V671.922H190.745V670.922ZM184.356 670.922H183.356V673.686H184.356H185.356V670.922H184.356ZM184.356 673.686H183.356C183.356 674.62 183.536 675.524 184.106 676.175L184.858 675.516L185.611 674.858C185.511 674.743 185.356 674.427 185.356 673.686H184.356ZM184.858 675.516L184.129 676.2C184.738 676.851 185.584 677.091 186.474 677.091V676.091V675.091C185.927 675.091 185.696 674.948 185.588 674.832L184.858 675.516ZM186.474 676.091V677.091H192.755V676.091V675.091H186.474V676.091ZM192.755 676.091H193.755V662.81H192.755H191.755V676.091H192.755ZM192.647 691.202V692.202H204.528V691.202V690.202H192.647V691.202ZM204.528 691.202H203.528V693.858H204.528H205.528V691.202H204.528ZM204.528 693.858V692.858H191.319V693.858V694.858H204.528V693.858ZM191.319 693.858V692.858C190.976 692.858 190.855 692.769 190.806 692.721L190.099 693.428L189.392 694.135C189.917 694.66 190.61 694.858 191.319 694.858V693.858ZM190.099 693.428L190.806 692.721C190.796 692.711 190.704 692.615 190.704 692.243H189.704H188.704C188.704 692.924 188.875 693.618 189.392 694.135L190.099 693.428ZM189.704 692.243H190.704V682.695H189.704H188.704V692.243H189.704ZM189.704 682.695V683.695H192.647V682.695V681.695H189.704V682.695ZM192.647 682.695H191.647V691.202H192.647H193.647V682.695H192.647ZM233.267 656.277V655.277H232.267V656.277H233.267ZM236.21 656.277H237.21V655.277H236.21V656.277ZM236.21 664.353H235.21V665.353H236.21V664.353ZM240.877 664.353H241.877V663.353H240.877V664.353ZM240.877 667.009V668.009H241.877V667.009H240.877ZM236.21 667.009V666.009H235.21V667.009H236.21ZM237.036 674.834L236.2 675.384L236.206 675.392L236.211 675.4L237.036 674.834ZM240.841 676.091H241.841V675.091H240.841V676.091ZM240.841 678.747V679.747H241.841V678.747H240.841ZM234.954 676.844L234.206 677.508L234.206 677.508L234.954 676.844ZM209.182 678.747H208.182V679.747H209.182V678.747ZM209.182 676.091V675.091H208.182V676.091H209.182ZM214.171 674.763L214.908 675.439L214.917 675.429L214.171 674.763ZM215.392 667.081H216.392V666.081H215.392V667.081ZM211.946 667.081H210.946V668.081H211.946V667.081ZM211.946 664.425V663.425H210.946V664.425H211.946ZM220.919 664.425H221.919V663.425H220.919V664.425ZM220.919 667.081V668.081H221.919V667.081H220.919ZM218.371 667.081V666.081H217.371V667.081H218.371ZM219.197 674.511L218.354 675.05L218.363 675.063L218.372 675.077L219.197 674.511ZM221.422 675.839L221.369 676.838L221.422 676.841L221.475 676.838L221.422 675.839ZM223.612 674.475L222.769 673.937L222.769 673.937L223.612 674.475ZM224.437 667.081H225.437V666.081H224.437V667.081ZM221.924 667.081H220.924V668.081H221.924V667.081ZM221.924 664.425V663.425H220.924V664.425H221.924ZM230.862 664.425H231.862V663.425H230.862V664.425ZM230.862 667.081V668.081H231.862V667.081H230.862ZM227.416 667.081V666.081H226.416V667.081H227.416ZM228.565 674.547L227.809 675.201L227.818 675.212L227.828 675.223L228.565 674.547ZM231.616 675.947H232.616V675.003L231.674 674.949L231.616 675.947ZM231.616 678.603L231.596 679.603L232.616 679.624V678.603H231.616ZM228.242 677.598L227.705 678.442L227.712 678.446L227.719 678.451L228.242 677.598ZM225.945 675.086L226.848 674.656L225.854 672.568L225.013 674.722L225.945 675.086ZM221.422 678.46L221.399 679.459L221.423 679.46L221.447 679.459L221.422 678.46ZM218.622 677.491L218.015 678.285L218.026 678.293L218.622 677.491ZM216.863 675.086L217.803 674.742L216.868 672.188L215.925 674.739L216.863 675.086ZM214.602 677.742L214.082 676.888L214.074 676.893L214.602 677.742ZM235.959 694.648V695.648H236.959V694.648H235.959ZM233.016 694.648H232.016V695.648H233.016V694.648ZM233.016 684.741H234.016V683.741H233.016V684.741ZM221.422 684.741H220.422V685.741H221.422V684.741ZM221.422 682.085V681.085H220.422V682.085H221.422ZM235.528 682.516L234.791 683.192L234.821 683.224L234.853 683.253L235.528 682.516ZM233.267 656.277V657.277H236.21V656.277V655.277H233.267V656.277ZM236.21 656.277H235.21V664.353H236.21H237.21V656.277H236.21ZM236.21 664.353V665.353H240.877V664.353V663.353H236.21V664.353ZM240.877 664.353H239.877V667.009H240.877H241.877V664.353H240.877ZM240.877 667.009V666.009H236.21V667.009V668.009H240.877V667.009ZM236.21 667.009H235.21V671.101H236.21H237.21V667.009H236.21ZM236.21 671.101H235.21C235.21 672.834 235.494 674.308 236.2 675.384L237.036 674.834L237.872 674.285C237.477 673.685 237.21 672.671 237.21 671.101H236.21ZM237.036 674.834L236.211 675.4C237.033 676.598 238.374 677.091 239.943 677.091V676.091V675.091C238.785 675.091 238.188 674.746 237.861 674.269L237.036 674.834ZM239.943 676.091V677.091H240.841V676.091V675.091H239.943V676.091ZM240.841 676.091H239.841V678.747H240.841H241.841V676.091H240.841ZM240.841 678.747V677.747H239.908V678.747V679.747H240.841V678.747ZM239.908 678.747V677.747C237.929 677.747 236.586 677.178 235.702 676.181L234.954 676.844L234.206 677.508C235.571 679.048 237.531 679.747 239.908 679.747V678.747ZM234.954 676.844L235.702 676.181C234.801 675.165 234.267 673.565 234.267 671.209H233.267H232.267C232.267 673.83 232.857 675.987 234.206 677.508L234.954 676.844ZM233.267 671.209H234.267V656.277H233.267H232.267V671.209H233.267ZM209.182 678.747H210.182V676.091H209.182H208.182V678.747H209.182ZM209.182 676.091V677.091H210.977V676.091V675.091H209.182V676.091ZM210.977 676.091V677.091C212.543 677.091 213.886 676.552 214.908 675.439L214.171 674.763L213.435 674.086C212.83 674.745 212.042 675.091 210.977 675.091V676.091ZM214.171 674.763L214.917 675.429C215.925 674.302 216.392 672.864 216.392 671.209H215.392H214.392C214.392 672.474 214.045 673.405 213.426 674.096L214.171 674.763ZM215.392 671.209H216.392V667.081H215.392H214.392V671.209H215.392ZM215.392 667.081V666.081H211.946V667.081V668.081H215.392V667.081ZM211.946 667.081H212.946V664.425H211.946H210.946V667.081H211.946ZM211.946 664.425V665.425H220.919V664.425V663.425H211.946V664.425ZM220.919 664.425H219.919V667.081H220.919H221.919V664.425H220.919ZM220.919 667.081V666.081H218.371V667.081V668.081H220.919V667.081ZM218.371 667.081H217.371V671.209H218.371H219.371V667.081H218.371ZM218.371 671.209H217.371C217.371 672.682 217.673 673.985 218.354 675.05L219.197 674.511L220.039 673.973C219.619 673.315 219.371 672.417 219.371 671.209H218.371ZM219.197 674.511L218.372 675.077C219.099 676.137 220.11 676.772 221.369 676.838L221.422 675.839L221.475 674.841C220.915 674.811 220.443 674.561 220.021 673.946L219.197 674.511ZM221.422 675.839L221.475 676.838C222.749 676.771 223.755 676.109 224.454 675.014L223.612 674.475L222.769 673.937C222.367 674.565 221.913 674.812 221.369 674.841L221.422 675.839ZM223.612 674.475L224.454 675.014C225.133 673.951 225.437 672.662 225.437 671.209H224.437H223.437C223.437 672.389 223.191 673.277 222.769 673.937L223.612 674.475ZM224.437 671.209H225.437V667.081H224.437H223.437V671.209H224.437ZM224.437 667.081V666.081H221.924V667.081V668.081H224.437V667.081ZM221.924 667.081H222.924V664.425H221.924H220.924V667.081H221.924ZM221.924 664.425V665.425H230.862V664.425V663.425H221.924V664.425ZM230.862 664.425H229.862V667.081H230.862H231.862V664.425H230.862ZM230.862 667.081V666.081H227.416V667.081V668.081H230.862V667.081ZM227.416 667.081H226.416V671.209H227.416H228.416V667.081H227.416ZM227.416 671.209H226.416C226.416 672.752 226.863 674.108 227.809 675.201L228.565 674.547L229.321 673.893C228.735 673.216 228.416 672.346 228.416 671.209H227.416ZM228.565 674.547L227.828 675.223C228.806 676.29 230.073 676.86 231.558 676.945L231.616 675.947L231.674 674.949C230.67 674.891 229.903 674.527 229.302 673.872L228.565 674.547ZM231.616 675.947H230.616V678.603H231.616H232.616V675.947H231.616ZM231.616 678.603L231.636 677.604C230.623 677.583 229.671 677.302 228.765 676.746L228.242 677.598L227.719 678.451C228.918 679.187 230.216 679.576 231.596 679.603L231.616 678.603ZM228.242 677.598L228.779 676.755C227.865 676.173 227.236 675.471 226.848 674.656L225.945 675.086L225.042 675.516C225.611 676.71 226.513 677.684 227.705 678.442L228.242 677.598ZM225.945 675.086L225.013 674.722C224.698 675.53 224.203 676.179 223.518 676.688L224.114 677.491L224.71 678.293C225.7 677.558 226.426 676.604 226.876 675.449L225.945 675.086ZM224.114 677.491L223.518 676.688C222.83 677.199 222.129 677.442 221.397 677.46L221.422 678.46L221.447 679.459C222.629 679.43 223.723 679.027 224.71 678.293L224.114 677.491ZM221.422 678.46L221.445 677.46C220.626 677.441 219.892 677.188 219.219 676.688L218.622 677.491L218.026 678.293C219.027 679.037 220.16 679.431 221.399 679.459L221.422 678.46ZM218.622 677.491L219.23 676.696C218.57 676.192 218.097 675.548 217.803 674.742L216.863 675.086L215.924 675.429C216.347 676.585 217.047 677.545 218.015 678.285L218.622 677.491ZM216.863 675.086L215.925 674.739C215.605 675.607 215.01 676.323 214.082 676.888L214.602 677.742L215.122 678.596C216.395 677.821 217.309 676.766 217.801 675.432L216.863 675.086ZM214.602 677.742L214.074 676.893C213.165 677.458 212.141 677.747 210.977 677.747V678.747V679.747C212.492 679.747 213.886 679.365 215.13 678.591L214.602 677.742ZM210.977 678.747V677.747H209.182V678.747V679.747H210.977V678.747ZM235.959 694.648V693.648H233.016V694.648V695.648H235.959V694.648ZM233.016 694.648H234.016V684.741H233.016H232.016V694.648H233.016ZM233.016 684.741V683.741H221.422V684.741V685.741H233.016V684.741ZM221.422 684.741H222.422V682.085H221.422H220.422V684.741H221.422ZM221.422 682.085V683.085H234.344V682.085V681.085H221.422V682.085ZM234.344 682.085V683.085C234.693 683.085 234.777 683.176 234.791 683.192L235.528 682.516L236.266 681.84C235.753 681.281 235.048 681.085 234.344 681.085V682.085ZM235.528 682.516L234.853 683.253C234.868 683.267 234.959 683.351 234.959 683.7H235.959H236.959C236.959 682.996 236.763 682.291 236.204 681.779L235.528 682.516ZM235.959 683.7H234.959V694.648H235.959H236.959V683.7H235.959ZM263.055 656.277V655.277H262.055V656.277H263.055ZM265.998 656.277H266.998V655.277H265.998V656.277ZM265.998 664.353H264.998V665.353H265.998V664.353ZM271.024 664.353H272.024V663.353H271.024V664.353ZM271.024 667.009V668.009H272.024V667.009H271.024ZM265.998 667.009V666.009H264.998V667.009H265.998ZM266.824 674.834L265.988 675.384L265.994 675.392L265.999 675.4L266.824 674.834ZM270.629 676.091H271.629V675.091H270.629V676.091ZM270.629 678.747V679.747H271.629V678.747H270.629ZM264.742 676.844L265.49 676.181L265.49 676.181L264.742 676.844ZM240.765 676.091L240.737 675.091L239.765 675.118V676.091H240.765ZM246.795 673.829L247.496 674.542L247.502 674.536L246.795 673.829ZM248.985 662.774V661.774H247.985V662.774H248.985ZM251.964 662.774H252.964V661.774H251.964V662.774ZM254.082 673.758L253.368 674.459L253.374 674.465L254.082 673.758ZM259.968 676.019H260.968V675.047L259.997 675.019L259.968 676.019ZM259.968 678.603L259.957 679.603L260.968 679.615V678.603H259.968ZM254.225 677.168L253.729 678.036L253.736 678.04L253.744 678.044L254.225 677.168ZM250.492 673.255L251.389 672.813L250.466 670.939L249.585 672.834L250.492 673.255ZM246.723 677.275L247.209 678.149L247.218 678.144L246.723 677.275ZM240.765 678.747H239.765V679.758L240.775 679.747L240.765 678.747ZM254.261 694.648H253.261V695.648H254.261V694.648ZM266.25 694.648H267.25V693.648H266.25V694.648ZM266.25 697.304V698.304H267.25V697.304H266.25ZM251.713 696.873L252.42 696.166L252.42 696.166L251.713 696.873ZM251.318 688.259V687.259H250.318V688.259H251.318ZM262.624 688.259V689.259H263.624V688.259H262.624ZM262.624 684.634H263.624V683.634H262.624V684.634ZM251.318 684.634H250.318V685.634H251.318V684.634ZM251.318 681.977V680.977H250.318V681.977H251.318ZM265.137 682.408L264.4 683.084L264.429 683.116L264.461 683.145L265.137 682.408ZM265.568 690.879V691.879H266.568V690.879H265.568ZM254.261 690.879V689.879H253.261V690.879H254.261ZM263.055 656.277V657.277H265.998V656.277V655.277H263.055V656.277ZM265.998 656.277H264.998V664.353H265.998H266.998V656.277H265.998ZM265.998 664.353V665.353H271.024V664.353V663.353H265.998V664.353ZM271.024 664.353H270.024V667.009H271.024H272.024V664.353H271.024ZM271.024 667.009V666.009H265.998V667.009V668.009H271.024V667.009ZM265.998 667.009H264.998V671.101H265.998H266.998V667.009H265.998ZM265.998 671.101H264.998C264.998 672.834 265.282 674.308 265.988 675.384L266.824 674.834L267.66 674.285C267.265 673.685 266.998 672.671 266.998 671.101H265.998ZM266.824 674.834L265.999 675.4C266.821 676.598 268.162 677.091 269.731 677.091V676.091V675.091C268.573 675.091 267.976 674.746 267.649 674.269L266.824 674.834ZM269.731 676.091V677.091H270.629V676.091V675.091H269.731V676.091ZM270.629 676.091H269.629V678.747H270.629H271.629V676.091H270.629ZM270.629 678.747V677.747H269.696V678.747V679.747H270.629V678.747ZM269.696 678.747V677.747C267.717 677.747 266.374 677.178 265.49 676.181L264.742 676.844L263.994 677.508C265.359 679.048 267.319 679.747 269.696 679.747V678.747ZM264.742 676.844L265.49 676.181C264.589 675.165 264.055 673.565 264.055 671.209H263.055H262.055C262.055 673.83 262.646 675.987 263.994 677.508L264.742 676.844ZM263.055 671.209H264.055V656.277H263.055H262.055V671.209H263.055ZM240.765 676.091L240.793 677.09C243.54 677.013 245.814 676.197 247.496 674.542L246.795 673.829L246.094 673.116C244.856 674.333 243.111 675.025 240.737 675.091L240.765 676.091ZM246.795 673.829L247.502 674.536C249.183 672.855 249.985 670.633 249.985 667.979H248.985H247.985C247.985 670.206 247.326 671.884 246.088 673.122L246.795 673.829ZM248.985 667.979H249.985V662.774H248.985H247.985V667.979H248.985ZM248.985 662.774V663.774H251.964V662.774V661.774H248.985V662.774ZM251.964 662.774H250.964V667.979H251.964H252.964V662.774H251.964ZM251.964 667.979H250.964C250.964 670.602 251.737 672.799 253.368 674.459L254.082 673.758L254.795 673.056C253.603 671.844 252.964 670.189 252.964 667.979H251.964ZM254.082 673.758L253.374 674.465C255.03 676.12 257.256 676.941 259.939 677.019L259.968 676.019L259.997 675.019C257.703 674.953 256.005 674.267 254.789 673.05L254.082 673.758ZM259.968 676.019H258.968V678.603H259.968H260.968V676.019H259.968ZM259.968 678.603L259.979 677.603C257.998 677.581 256.247 677.137 254.707 676.291L254.225 677.168L253.744 678.044C255.601 679.064 257.679 679.578 259.957 679.603L259.968 678.603ZM254.225 677.168L254.721 676.299C253.211 675.436 252.11 674.276 251.389 672.813L250.492 673.255L249.595 673.697C250.501 675.536 251.89 676.985 253.729 678.036L254.225 677.168ZM250.492 673.255L249.585 672.834C248.888 674.333 247.782 675.522 246.228 676.406L246.723 677.275L247.218 678.144C249.11 677.067 250.516 675.575 251.399 673.677L250.492 673.255ZM246.723 677.275L246.238 676.401C244.679 677.267 242.861 677.725 240.754 677.747L240.765 678.747L240.775 679.747C243.167 679.721 245.321 679.198 247.209 678.149L246.723 677.275ZM240.765 678.747H241.765V676.091H240.765H239.765V678.747H240.765ZM254.261 694.648V695.648H266.25V694.648V693.648H254.261V694.648ZM266.25 694.648H265.25V697.304H266.25H267.25V694.648H266.25ZM266.25 697.304V696.304H252.933V697.304V698.304H266.25V697.304ZM252.933 697.304V696.304C252.59 696.304 252.468 696.215 252.42 696.166L251.713 696.873L251.005 697.581C251.531 698.106 252.223 698.304 252.933 698.304V697.304ZM251.713 696.873L252.42 696.166C252.41 696.157 252.318 696.061 252.318 695.689H251.318H250.318C250.318 696.37 250.488 697.064 251.005 697.581L251.713 696.873ZM251.318 695.689H252.318V688.259H251.318H250.318V695.689H251.318ZM251.318 688.259V689.259H262.624V688.259V687.259H251.318V688.259ZM262.624 688.259H263.624V684.634H262.624H261.624V688.259H262.624ZM262.624 684.634V683.634H251.318V684.634V685.634H262.624V684.634ZM251.318 684.634H252.318V681.977H251.318H250.318V684.634H251.318ZM251.318 681.977V682.977H263.952V681.977V680.977H251.318V681.977ZM263.952 681.977V682.977C264.301 682.977 264.386 683.068 264.4 683.084L265.137 682.408L265.874 681.732C265.362 681.173 264.656 680.977 263.952 680.977V681.977ZM265.137 682.408L264.461 683.145C264.477 683.159 264.568 683.244 264.568 683.593H265.568H266.568C266.568 682.889 266.372 682.183 265.813 681.671L265.137 682.408ZM265.568 683.593H264.568V690.879H265.568H266.568V683.593H265.568ZM265.568 690.879V689.879H254.261V690.879V691.879H265.568V690.879ZM254.261 690.879H253.261V694.648H254.261H255.261V690.879H254.261ZM293.927 656.277V655.277H292.927V656.277H293.927ZM296.87 656.277H297.87V655.277H296.87V656.277ZM296.87 664.353H295.87V665.353H296.87V664.353ZM301.895 664.353H302.895V663.353H301.895V664.353ZM301.895 667.009V668.009H302.895V667.009H301.895ZM296.87 667.009V666.009H295.87V667.009H296.87ZM297.696 674.834L296.86 675.384L296.866 675.392L296.871 675.4L297.696 674.834ZM301.501 676.091H302.501V675.091H301.501V676.091ZM301.501 678.747V679.747H302.501V678.747H301.501ZM289.584 676.091H290.584V675.091H289.584V676.091ZM289.584 678.747V679.747H290.584V678.747H289.584ZM270.56 678.747H269.56V679.747H270.56V678.747ZM270.56 676.091V675.091H269.56V676.091H270.56ZM275.37 676.091V677.091H277.389L276.165 675.485L275.37 676.091ZM274.795 668.697V667.697H273.795V668.697H274.795ZM284.774 668.697V669.697H285.774V668.697H284.774ZM284.774 664.389H285.774V663.389H284.774V664.389ZM274.795 664.389H273.795V665.389H274.795V664.389ZM274.795 661.733V660.733H273.795V661.733H274.795ZM287.286 662.164L286.549 662.839L286.579 662.872L286.611 662.901L287.286 662.164ZM287.717 671.317V672.317H288.717V671.317H287.717ZM277.739 671.317V670.317H276.739V671.317H277.739ZM278.169 675.588L277.41 676.239L277.423 676.254L277.437 676.269L278.169 675.588ZM285.887 694.54L286.356 693.657L286.349 693.654L285.887 694.54ZM283.302 692.1L284.163 691.591L284.158 691.582L283.302 692.1ZM283.302 685.064L282.447 684.547L282.447 684.547L283.302 685.064ZM285.887 682.659L286.349 683.546L286.356 683.542L285.887 682.659ZM296.152 681.762H297.152V680.762H296.152V681.762ZM296.152 684.418V685.418H297.152V684.418H296.152ZM286.533 685.603L287.218 686.331L287.224 686.326L287.229 686.32L286.533 685.603ZM286.533 691.597L287.229 690.879L287.229 690.879L286.533 691.597ZM292.742 691.597L293.439 692.315L293.439 692.315L292.742 691.597ZM293.389 686.356V685.356H291.634L292.528 686.866L293.389 686.356ZM296.296 686.356L297.142 685.824L296.848 685.356H296.296V686.356ZM295.973 692.1L295.117 691.582L295.112 691.591L295.973 692.1ZM293.389 694.54L292.926 693.654L292.918 693.658L292.911 693.662L293.389 694.54ZM293.927 656.277V657.277H296.87V656.277V655.277H293.927V656.277ZM296.87 656.277H295.87V664.353H296.87H297.87V656.277H296.87ZM296.87 664.353V665.353H301.895V664.353V663.353H296.87V664.353ZM301.895 664.353H300.895V667.009H301.895H302.895V664.353H301.895ZM301.895 667.009V666.009H296.87V667.009V668.009H301.895V667.009ZM296.87 667.009H295.87V671.101H296.87H297.87V667.009H296.87ZM296.87 671.101H295.87C295.87 672.834 296.154 674.308 296.86 675.384L297.696 674.834L298.532 674.285C298.137 673.685 297.87 672.671 297.87 671.101H296.87ZM297.696 674.834L296.871 675.4C297.693 676.598 299.034 677.091 300.603 677.091V676.091V675.091C299.445 675.091 298.848 674.746 298.521 674.269L297.696 674.834ZM300.603 676.091V677.091H301.501V676.091V675.091H300.603V676.091ZM301.501 676.091H300.501V678.747H301.501H302.501V676.091H301.501ZM301.501 678.747V677.747H300.567V678.747V679.747H301.501V678.747ZM300.567 678.747V677.747C298.589 677.747 297.246 677.178 296.362 676.181L295.614 676.844L294.866 677.508C296.231 679.048 298.191 679.747 300.567 679.747V678.747ZM295.614 676.844L296.362 676.181C295.461 675.165 294.927 673.565 294.927 671.209H293.927H292.927C292.927 673.83 293.517 675.987 294.866 677.508L295.614 676.844ZM293.927 671.209H294.927V656.277H293.927H292.927V671.209H293.927ZM289.584 676.091H288.584V678.747H289.584H290.584V676.091H289.584ZM289.584 678.747V677.747H270.56V678.747V679.747H289.584V678.747ZM270.56 678.747H271.56V676.091H270.56H269.56V678.747H270.56ZM270.56 676.091V677.091H275.37V676.091V675.091H270.56V676.091ZM275.37 676.091L276.165 675.485C275.973 675.232 275.795 674.736 275.795 673.829H274.795H273.795C273.795 674.933 274.001 675.944 274.574 676.697L275.37 676.091ZM274.795 673.829H275.795V668.697H274.795H273.795V673.829H274.795ZM274.795 668.697V669.697H284.774V668.697V667.697H274.795V668.697ZM284.774 668.697H285.774V664.389H284.774H283.774V668.697H284.774ZM284.774 664.389V663.389H274.795V664.389V665.389H284.774V664.389ZM274.795 664.389H275.795V661.733H274.795H273.795V664.389H274.795ZM274.795 661.733V662.733H286.102V661.733V660.733H274.795V661.733ZM286.102 661.733V662.733C286.451 662.733 286.535 662.824 286.549 662.839L287.286 662.164L288.024 661.488C287.511 660.929 286.806 660.733 286.102 660.733V661.733ZM287.286 662.164L286.611 662.901C286.626 662.915 286.717 662.999 286.717 663.348H287.717H288.717C288.717 662.644 288.521 661.939 287.962 661.427L287.286 662.164ZM287.717 663.348H286.717V671.317H287.717H288.717V663.348H287.717ZM287.717 671.317V670.317H277.739V671.317V672.317H287.717V671.317ZM277.739 671.317H276.739V673.937H277.739H278.739V671.317H277.739ZM277.739 673.937H276.739C276.739 674.782 276.888 675.63 277.41 676.239L278.169 675.588L278.929 674.937C278.876 674.876 278.739 674.624 278.739 673.937H277.739ZM278.169 675.588L277.437 676.269C278.004 676.88 278.799 677.091 279.605 677.091V676.091V675.091C279.12 675.091 278.957 674.966 278.902 674.908L278.169 675.588ZM279.605 676.091V677.091H289.584V676.091V675.091H279.605V676.091ZM289.656 695.438V694.438C288.416 694.438 287.324 694.172 286.356 693.657L285.887 694.54L285.417 695.423C286.699 696.105 288.119 696.438 289.656 696.438V695.438ZM285.887 694.54L286.349 693.654C285.411 693.164 284.689 692.481 284.163 691.591L283.302 692.1L282.441 692.608C283.16 693.824 284.161 694.768 285.424 695.427L285.887 694.54ZM283.302 692.1L284.158 691.582C283.639 690.724 283.369 689.733 283.369 688.582H282.369H281.369C281.369 690.063 281.721 691.417 282.447 692.617L283.302 692.1ZM282.369 688.582H283.369C283.369 687.43 283.639 686.44 284.158 685.582L283.302 685.064L282.447 684.547C281.721 685.746 281.369 687.101 281.369 688.582H282.369ZM283.302 685.064L284.158 685.582C284.682 684.715 285.405 684.038 286.349 683.546L285.887 682.659L285.424 681.773C284.166 682.429 283.167 683.356 282.447 684.547L283.302 685.064ZM285.887 682.659L286.356 683.542C287.324 683.028 288.416 682.762 289.656 682.762V681.762V680.762C288.119 680.762 286.699 681.095 285.417 681.776L285.887 682.659ZM289.656 681.762V682.762H296.152V681.762V680.762H289.656V681.762ZM296.152 681.762H295.152V684.418H296.152H297.152V681.762H296.152ZM296.152 684.418V683.418H289.656V684.418V685.418H296.152V684.418ZM289.656 684.418V683.418C288.161 683.418 286.859 683.892 285.836 684.885L286.533 685.603L287.229 686.32C287.833 685.734 288.614 685.418 289.656 685.418V684.418ZM286.533 685.603L285.847 684.874C284.813 685.848 284.312 687.114 284.312 688.582H285.312H286.312C286.312 687.609 286.625 686.889 287.218 686.331L286.533 685.603ZM285.312 688.582H284.312C284.312 690.05 284.813 691.321 285.836 692.315L286.533 691.597L287.229 690.879C286.625 690.293 286.312 689.555 286.312 688.582H285.312ZM286.533 691.597L285.836 692.315C286.859 693.308 288.161 693.782 289.656 693.782V692.782V691.782C288.614 691.782 287.833 691.466 287.229 690.879L286.533 691.597ZM289.656 692.782V693.782C291.132 693.782 292.42 693.304 293.439 692.315L292.742 691.597L292.046 690.879C291.438 691.47 290.668 691.782 289.656 691.782V692.782ZM292.742 691.597L293.439 692.315C294.462 691.321 294.963 690.05 294.963 688.582H293.963H292.963C292.963 689.555 292.65 690.293 292.046 690.879L292.742 691.597ZM293.963 688.582H294.963C294.963 687.586 294.733 686.664 294.249 685.847L293.389 686.356L292.528 686.866C292.809 687.341 292.963 687.903 292.963 688.582H293.963ZM293.389 686.356V687.356H296.296V686.356V685.356H293.389V686.356ZM296.296 686.356L295.45 686.889C295.746 687.361 295.906 687.914 295.906 688.582H296.906H297.906C297.906 687.575 297.659 686.645 297.142 685.824L296.296 686.356ZM296.906 688.582H295.906C295.906 689.733 295.636 690.724 295.117 691.582L295.973 692.1L296.829 692.617C297.554 691.417 297.906 690.063 297.906 688.582H296.906ZM295.973 692.1L295.112 691.591C294.586 692.481 293.864 693.164 292.926 693.654L293.389 694.54L293.851 695.427C295.115 694.768 296.115 693.824 296.834 692.608L295.973 692.1ZM293.389 694.54L292.911 693.662C291.972 694.172 290.895 694.438 289.656 694.438V695.438V696.438C291.192 696.438 292.603 696.105 293.866 695.419L293.389 694.54Z" fill="#64C82B" mask="url(#path-1-outside-1_33_541)"/>
<circle cx="353.683" cy="631.15" r="8.52173" fill="#FF8D50"/>
<circle cx="353.683" cy="631.15" r="8.02173" stroke="black" stroke-opacity="0.25"/>
<circle cx="392.938" cy="734.222" r="8.52173" fill="#FF8D50"/>
<circle cx="392.938" cy="734.222" r="8.02173" stroke="black" stroke-opacity="0.25"/>
<circle cx="284.152" cy="948.69" r="20.3291" fill="#FF8D50"/>
<circle cx="284.152" cy="948.69" r="19.8291" stroke="black" stroke-opacity="0.25"/>
<circle cx="191.785" cy="482.621" r="20.3291" fill="#FF8D50"/>
<circle cx="191.785" cy="482.621" r="19.8291" stroke="black" stroke-opacity="0.25"/>
<circle cx="372.609" cy="397.378" r="20.3291" fill="#FF8D50"/>
<circle cx="372.609" cy="397.378" r="19.8291" stroke="black" stroke-opacity="0.25"/>
<circle cx="365.963" cy="1067.66" r="12.2799" fill="#FF8D50"/>
<circle cx="365.963" cy="1067.66" r="11.7799" stroke="black" stroke-opacity="0.25"/>
<circle cx="384.987" cy="1103.24" r="7.9519" fill="#FF8D50"/>
<circle cx="384.987" cy="1103.24" r="7.4519" stroke="black" stroke-opacity="0.25"/>
<circle cx="341.27" cy="615.143" r="5.40283" fill="#FF8D50"/>
<circle cx="341.27" cy="615.143" r="4.90283" stroke="black" stroke-opacity="0.25"/>
<path d="M347.059 915.035C316.557 904.384 300.465 871.022 311.116 840.519C312.701 835.98 314.789 831.761 317.296 827.901C338.577 795.128 385.08 775.61 398.604 738.949L552.025 323.051C553.724 318.445 558.801 316.051 563.436 317.669L566.382 318.698C571.132 320.357 573.6 325.589 571.858 330.31L419.385 743.639C405.488 781.312 429.824 828.004 424.311 867.778C423.787 871.561 422.882 875.348 421.575 879.093C410.923 909.595 377.561 925.687 347.059 915.035Z" fill="url(#paint0_linear_33_541)"/>
<path d="M347.224 914.563C316.982 904.003 301.028 870.926 311.588 840.684C313.16 836.183 315.23 831.999 317.715 828.172C328.305 811.865 345.173 798.851 361.182 785.264C377.154 771.71 392.26 757.59 399.073 739.123L552.494 323.224C554.099 318.874 558.894 316.613 563.271 318.142L566.217 319.171C570.703 320.737 573.033 325.678 571.389 330.136L418.916 743.466C411.916 762.443 414.555 783.66 418.211 805.005C421.876 826.402 426.559 847.92 423.817 867.709C423.297 871.46 422.399 875.215 421.103 878.928L420.851 879.634C410.025 909.417 377.229 925.041 347.224 914.563Z" stroke="black" stroke-opacity="0.64"/>
<path d="M413.725 926.335C443.581 913.988 477.794 928.182 490.141 958.039C491.978 962.482 493.227 967.021 493.925 971.57C499.848 1010.19 478.125 1055.71 492.426 1092.07L654.665 1504.61C656.462 1509.18 654.266 1514.35 649.729 1516.22L646.845 1517.41C642.195 1519.34 636.872 1517.07 635.03 1512.39L473.793 1102.4C459.097 1065.03 409.86 1046.37 387.508 1013.02C385.382 1009.84 383.537 1006.42 382.021 1002.75C369.674 972.894 383.868 938.681 413.725 926.335Z" fill="url(#paint1_linear_33_541)"/>
<path d="M413.916 926.797C443.517 914.556 477.437 928.629 489.679 958.23C491.5 962.635 492.74 967.136 493.431 971.646C496.379 990.866 492.448 1011.8 489.539 1032.6C486.637 1053.35 484.756 1073.94 491.96 1092.26L654.2 1504.79C655.897 1509.11 653.822 1513.99 649.537 1515.76L646.654 1516.95C642.262 1518.77 637.236 1516.63 635.496 1512.21L474.258 1102.22C466.855 1083.4 450.767 1069.31 433.834 1055.81C416.859 1042.28 399.044 1029.34 387.923 1012.74C385.815 1009.59 383.986 1006.19 382.483 1002.56L382.201 1001.86C370.463 972.429 384.546 938.942 413.916 926.797Z" stroke="black" stroke-opacity="0.64"/>
<path d="M336.475 594.381C307.578 608.831 272.438 597.12 257.987 568.224C255.837 563.924 254.266 559.485 253.244 554.998C244.573 516.896 262.986 469.945 246.121 434.696L54.7894 34.8188C52.6704 30.3902 54.4915 25.0805 58.8825 22.8847L61.6733 21.4891C66.1739 19.2384 71.6454 21.115 73.8173 25.6542L263.967 423.062C281.298 459.283 331.743 474.372 356.424 506.045C358.772 509.057 360.858 512.346 362.632 515.893C377.082 544.79 365.371 579.93 336.475 594.381Z" fill="url(#paint2_linear_33_541)"/>
<path d="M336.251 593.934C307.601 608.261 272.761 596.65 258.434 568C256.302 563.736 254.744 559.336 253.731 554.887C249.417 535.927 251.84 514.761 253.254 493.811C254.665 472.911 255.067 452.237 246.572 434.48L55.2405 34.6031C53.2393 30.4205 54.9596 25.4059 59.1067 23.3321L61.8973 21.9366C66.1477 19.8111 71.3145 21.5832 73.3657 25.8699L263.516 423.277C272.246 441.523 289.301 454.417 307.156 466.671C325.055 478.955 343.75 490.593 356.03 506.352C358.358 509.339 360.425 512.599 362.184 516.117L362.516 516.79C376.329 545.31 364.677 579.718 336.251 593.934Z" stroke="black" stroke-opacity="0.64"/>
<defs>
<linearGradient id="paint0_linear_33_541" x1="347.059" y1="915.035" x2="490.352" y2="504.704" gradientUnits="userSpaceOnUse">
<stop stop-color="#FFFAA3"/>
<stop offset="1" stop-color="white"/>
</linearGradient>
<linearGradient id="paint1_linear_33_541" x1="413.725" y1="926.335" x2="579.82" y2="1327.98" gradientUnits="userSpaceOnUse">
<stop stop-color="#FFFAA3"/>
<stop offset="1" stop-color="white"/>
</linearGradient>
<linearGradient id="paint2_linear_33_541" x1="336.475" y1="594.381" x2="142.077" y2="205.646" gradientUnits="userSpaceOnUse">
<stop stop-color="#FFFAA3"/>
<stop offset="1" stop-color="white"/>
</linearGradient>
</defs>
</svg>
