<svg width="519" height="1204" viewBox="0 0 519 1204" fill="none" xmlns="http://www.w3.org/2000/svg">
<mask id="path-1-outside-1_33_557" maskUnits="userSpaceOnUse" x="196.681" y="470.564" width="125" height="44" fill="black">
<rect fill="white" x="196.681" y="470.564" width="125" height="44"/>
<path d="M229.227 494.975C227.48 494.856 226.08 494.102 225.027 492.714C223.974 491.326 223.448 489.256 223.448 486.504V472.505H226.391V485.858C226.391 487.773 226.63 489.244 227.109 490.273C227.611 491.302 228.317 491.984 229.227 492.319V494.975ZM198.645 492.319C200.033 492.199 201.157 491.661 202.019 490.704C202.88 489.747 203.311 488.538 203.311 487.079V479.541H206.29V487.079C206.29 488.466 206.565 489.627 207.116 490.56C207.666 491.47 208.396 491.972 209.305 492.068C210.215 491.972 210.945 491.47 211.495 490.56C212.045 489.627 212.32 488.466 212.32 487.079V479.541H215.3V487.079C215.3 488.49 215.707 489.663 216.52 490.596C217.334 491.529 218.411 492.056 219.751 492.176V494.832C218.506 494.76 217.334 494.377 216.233 493.683C215.156 492.965 214.354 492.08 213.828 491.027C213.445 492.104 212.835 492.977 211.997 493.647C211.16 494.317 210.263 494.664 209.305 494.688C208.3 494.664 207.379 494.317 206.542 493.647C205.728 492.977 205.154 492.104 204.819 491.027C204.436 492.128 203.67 493.049 202.521 493.791C201.397 494.509 200.104 494.903 198.645 494.975V492.319ZM218.817 511.774C217.405 511.774 216.137 511.475 215.013 510.876C213.888 510.302 213.002 509.489 212.356 508.436C211.734 507.383 211.423 506.198 211.423 504.882C211.423 503.566 211.734 502.381 212.356 501.329C213.002 500.276 213.888 499.462 215.013 498.888C216.137 498.29 217.405 497.99 218.817 497.99H225.458V500.647H218.817C217.525 500.647 216.46 501.041 215.623 501.831C214.785 502.621 214.366 503.638 214.366 504.882C214.366 506.126 214.785 507.143 215.623 507.933C216.46 508.723 217.525 509.118 218.817 509.118C220.11 509.118 221.174 508.723 222.012 507.933C222.849 507.143 223.268 506.126 223.268 504.882C223.268 503.949 223.053 503.183 222.622 502.585H225.565C225.996 503.279 226.212 504.045 226.212 504.882C226.212 506.198 225.888 507.383 225.242 508.436C224.62 509.489 223.747 510.302 222.622 510.876C221.497 511.475 220.229 511.774 218.817 511.774ZM259.723 494.975C257.976 494.856 256.576 494.102 255.523 492.714C254.47 491.326 253.944 489.256 253.944 486.504V472.505H256.887V485.858C256.887 487.773 257.126 489.244 257.605 490.273C258.108 491.302 258.813 491.984 259.723 492.319V494.975ZM229.141 492.319C230.529 492.199 231.653 491.661 232.515 490.704C233.376 489.747 233.807 488.538 233.807 487.079V479.541H236.786V487.079C236.786 488.466 237.062 489.627 237.612 490.56C238.162 491.47 238.892 491.972 239.801 492.068C240.711 491.972 241.441 491.47 241.991 490.56C242.541 489.627 242.817 488.466 242.817 487.079V479.541H245.796V487.079C245.796 488.49 246.203 489.663 247.016 490.596C247.83 491.529 248.907 492.056 250.247 492.176V494.832C249.002 494.76 247.83 494.377 246.729 493.683C245.652 492.965 244.851 492.08 244.324 491.027C243.941 492.104 243.331 492.977 242.494 493.647C241.656 494.317 240.759 494.664 239.801 494.688C238.796 494.664 237.875 494.317 237.038 493.647C236.224 492.977 235.65 492.104 235.315 491.027C234.932 492.128 234.166 493.049 233.017 493.791C231.893 494.509 230.601 494.903 229.141 494.975V492.319ZM249.313 511.774C247.902 511.774 246.633 511.475 245.509 510.876C244.384 510.302 243.499 509.489 242.852 508.436C242.23 507.383 241.919 506.198 241.919 504.882C241.919 503.566 242.23 502.381 242.852 501.329C243.499 500.276 244.384 499.462 245.509 498.888C246.633 498.29 247.902 497.99 249.313 497.99H255.954V500.647H249.313C248.021 500.647 246.956 501.041 246.119 501.831C245.281 502.621 244.863 503.638 244.863 504.882C244.863 506.126 245.281 507.143 246.119 507.933C246.956 508.723 248.021 509.118 249.313 509.118C250.606 509.118 251.67 508.723 252.508 507.933C253.346 507.143 253.764 506.126 253.764 504.882C253.764 503.949 253.549 503.183 253.118 502.585H256.062C256.492 503.279 256.708 504.045 256.708 504.882C256.708 506.198 256.385 507.383 255.738 508.436C255.116 509.489 254.243 510.302 253.118 510.876C251.994 511.475 250.725 511.774 249.313 511.774ZM291.69 494.975C289.944 494.856 288.544 494.102 287.491 492.714C286.438 491.326 285.912 489.256 285.912 486.504V472.505H288.855V485.858C288.855 487.773 289.094 489.244 289.573 490.273C290.075 491.302 290.781 491.984 291.69 492.319V494.975ZM259.637 494.975V492.319H262.437C265.141 492.319 267.235 491.697 268.718 490.453C270.226 489.208 270.98 487.461 270.98 485.212V483.238H263.693V480.582H281.102V483.238H274.031V485.212C274.031 487.39 274.724 489.101 276.112 490.345C277.524 491.565 279.486 492.199 281.999 492.247V494.832C279.893 494.832 278.015 494.425 276.364 493.611C274.713 492.774 273.432 491.613 272.523 490.13C271.638 491.661 270.345 492.858 268.646 493.719C266.947 494.557 264.997 494.975 262.796 494.975H259.637ZM275.933 510.876H288.711V513.533H274.605C274.078 513.533 273.672 513.389 273.384 513.102C273.121 512.839 272.99 512.444 272.99 511.917V504.487H285.086V500.862H272.99V498.206H286.414C286.94 498.206 287.335 498.349 287.599 498.636C287.886 498.9 288.029 499.295 288.029 499.821V507.108H275.933V510.876ZM296.201 486.468C298.761 486.325 300.747 485.631 302.159 484.386C303.571 483.118 304.277 481.407 304.277 479.254V478.643H296.739V475.987H314.722V478.643H307.328V479.254C307.328 481.383 308.022 483.07 309.41 484.315C310.798 485.559 312.748 486.253 315.26 486.397V488.981C313.059 488.861 311.133 488.395 309.481 487.581C307.854 486.744 306.634 485.631 305.82 484.243C305.007 485.703 303.762 486.851 302.087 487.689C300.412 488.526 298.45 489.005 296.201 489.125V486.468ZM319.998 492.319V494.975H307.256V505.026H304.313V494.975H291.57V492.319H319.998Z"/>
</mask>
<path d="M229.227 494.975C227.48 494.856 226.08 494.102 225.027 492.714C223.974 491.326 223.448 489.256 223.448 486.504V472.505H226.391V485.858C226.391 487.773 226.63 489.244 227.109 490.273C227.611 491.302 228.317 491.984 229.227 492.319V494.975ZM198.645 492.319C200.033 492.199 201.157 491.661 202.019 490.704C202.88 489.747 203.311 488.538 203.311 487.079V479.541H206.29V487.079C206.29 488.466 206.565 489.627 207.116 490.56C207.666 491.47 208.396 491.972 209.305 492.068C210.215 491.972 210.945 491.47 211.495 490.56C212.045 489.627 212.32 488.466 212.32 487.079V479.541H215.3V487.079C215.3 488.49 215.707 489.663 216.52 490.596C217.334 491.529 218.411 492.056 219.751 492.176V494.832C218.506 494.76 217.334 494.377 216.233 493.683C215.156 492.965 214.354 492.08 213.828 491.027C213.445 492.104 212.835 492.977 211.997 493.647C211.16 494.317 210.263 494.664 209.305 494.688C208.3 494.664 207.379 494.317 206.542 493.647C205.728 492.977 205.154 492.104 204.819 491.027C204.436 492.128 203.67 493.049 202.521 493.791C201.397 494.509 200.104 494.903 198.645 494.975V492.319ZM218.817 511.774C217.405 511.774 216.137 511.475 215.013 510.876C213.888 510.302 213.002 509.489 212.356 508.436C211.734 507.383 211.423 506.198 211.423 504.882C211.423 503.566 211.734 502.381 212.356 501.329C213.002 500.276 213.888 499.462 215.013 498.888C216.137 498.29 217.405 497.99 218.817 497.99H225.458V500.647H218.817C217.525 500.647 216.46 501.041 215.623 501.831C214.785 502.621 214.366 503.638 214.366 504.882C214.366 506.126 214.785 507.143 215.623 507.933C216.46 508.723 217.525 509.118 218.817 509.118C220.11 509.118 221.174 508.723 222.012 507.933C222.849 507.143 223.268 506.126 223.268 504.882C223.268 503.949 223.053 503.183 222.622 502.585H225.565C225.996 503.279 226.212 504.045 226.212 504.882C226.212 506.198 225.888 507.383 225.242 508.436C224.62 509.489 223.747 510.302 222.622 510.876C221.497 511.475 220.229 511.774 218.817 511.774ZM259.723 494.975C257.976 494.856 256.576 494.102 255.523 492.714C254.47 491.326 253.944 489.256 253.944 486.504V472.505H256.887V485.858C256.887 487.773 257.126 489.244 257.605 490.273C258.108 491.302 258.813 491.984 259.723 492.319V494.975ZM229.141 492.319C230.529 492.199 231.653 491.661 232.515 490.704C233.376 489.747 233.807 488.538 233.807 487.079V479.541H236.786V487.079C236.786 488.466 237.062 489.627 237.612 490.56C238.162 491.47 238.892 491.972 239.801 492.068C240.711 491.972 241.441 491.47 241.991 490.56C242.541 489.627 242.817 488.466 242.817 487.079V479.541H245.796V487.079C245.796 488.49 246.203 489.663 247.016 490.596C247.83 491.529 248.907 492.056 250.247 492.176V494.832C249.002 494.76 247.83 494.377 246.729 493.683C245.652 492.965 244.851 492.08 244.324 491.027C243.941 492.104 243.331 492.977 242.494 493.647C241.656 494.317 240.759 494.664 239.801 494.688C238.796 494.664 237.875 494.317 237.038 493.647C236.224 492.977 235.65 492.104 235.315 491.027C234.932 492.128 234.166 493.049 233.017 493.791C231.893 494.509 230.601 494.903 229.141 494.975V492.319ZM249.313 511.774C247.902 511.774 246.633 511.475 245.509 510.876C244.384 510.302 243.499 509.489 242.852 508.436C242.23 507.383 241.919 506.198 241.919 504.882C241.919 503.566 242.23 502.381 242.852 501.329C243.499 500.276 244.384 499.462 245.509 498.888C246.633 498.29 247.902 497.99 249.313 497.99H255.954V500.647H249.313C248.021 500.647 246.956 501.041 246.119 501.831C245.281 502.621 244.863 503.638 244.863 504.882C244.863 506.126 245.281 507.143 246.119 507.933C246.956 508.723 248.021 509.118 249.313 509.118C250.606 509.118 251.67 508.723 252.508 507.933C253.346 507.143 253.764 506.126 253.764 504.882C253.764 503.949 253.549 503.183 253.118 502.585H256.062C256.492 503.279 256.708 504.045 256.708 504.882C256.708 506.198 256.385 507.383 255.738 508.436C255.116 509.489 254.243 510.302 253.118 510.876C251.994 511.475 250.725 511.774 249.313 511.774ZM291.69 494.975C289.944 494.856 288.544 494.102 287.491 492.714C286.438 491.326 285.912 489.256 285.912 486.504V472.505H288.855V485.858C288.855 487.773 289.094 489.244 289.573 490.273C290.075 491.302 290.781 491.984 291.69 492.319V494.975ZM259.637 494.975V492.319H262.437C265.141 492.319 267.235 491.697 268.718 490.453C270.226 489.208 270.98 487.461 270.98 485.212V483.238H263.693V480.582H281.102V483.238H274.031V485.212C274.031 487.39 274.724 489.101 276.112 490.345C277.524 491.565 279.486 492.199 281.999 492.247V494.832C279.893 494.832 278.015 494.425 276.364 493.611C274.713 492.774 273.432 491.613 272.523 490.13C271.638 491.661 270.345 492.858 268.646 493.719C266.947 494.557 264.997 494.975 262.796 494.975H259.637ZM275.933 510.876H288.711V513.533H274.605C274.078 513.533 273.672 513.389 273.384 513.102C273.121 512.839 272.99 512.444 272.99 511.917V504.487H285.086V500.862H272.99V498.206H286.414C286.94 498.206 287.335 498.349 287.599 498.636C287.886 498.9 288.029 499.295 288.029 499.821V507.108H275.933V510.876ZM296.201 486.468C298.761 486.325 300.747 485.631 302.159 484.386C303.571 483.118 304.277 481.407 304.277 479.254V478.643H296.739V475.987H314.722V478.643H307.328V479.254C307.328 481.383 308.022 483.07 309.41 484.315C310.798 485.559 312.748 486.253 315.26 486.397V488.981C313.059 488.861 311.133 488.395 309.481 487.581C307.854 486.744 306.634 485.631 305.82 484.243C305.007 485.703 303.762 486.851 302.087 487.689C300.412 488.526 298.45 489.005 296.201 489.125V486.468ZM319.998 492.319V494.975H307.256V505.026H304.313V494.975H291.57V492.319H319.998Z" fill="#4E2AB0"/>
<path d="M229.227 494.975L229.158 495.973L230.227 496.046V494.975H229.227ZM225.027 492.714L224.23 493.318L224.23 493.318L225.027 492.714ZM223.448 472.505V471.505H222.448V472.505H223.448ZM226.391 472.505H227.391V471.505H226.391V472.505ZM227.109 490.273L226.202 490.695L226.206 490.703L226.21 490.712L227.109 490.273ZM229.227 492.319H230.227V491.622L229.572 491.381L229.227 492.319ZM198.645 492.319L198.559 491.323L197.645 491.402V492.319H198.645ZM202.019 490.704L201.276 490.035L201.276 490.035L202.019 490.704ZM203.311 479.541V478.541H202.311V479.541H203.311ZM206.29 479.541H207.29V478.541H206.29V479.541ZM207.116 490.56L206.254 491.068L206.26 491.078L207.116 490.56ZM209.305 492.068L209.201 493.062L209.305 493.073L209.41 493.062L209.305 492.068ZM211.495 490.56L212.35 491.078L212.356 491.068L211.495 490.56ZM212.32 479.541V478.541H211.32V479.541H212.32ZM215.3 479.541H216.3V478.541H215.3V479.541ZM216.52 490.596L215.766 491.253L215.766 491.253L216.52 490.596ZM219.751 492.176H220.751V491.261L219.84 491.179L219.751 492.176ZM219.751 494.832L219.693 495.83L220.751 495.891V494.832H219.751ZM216.233 493.683L215.678 494.515L215.689 494.522L215.7 494.529L216.233 493.683ZM213.828 491.027L214.722 490.58L213.672 488.48L212.886 490.692L213.828 491.027ZM209.305 494.688L209.282 495.688L209.306 495.688L209.33 495.688L209.305 494.688ZM206.542 493.647L205.906 494.419L205.911 494.424L205.917 494.428L206.542 493.647ZM204.819 491.027L205.773 490.73L204.872 487.831L203.874 490.698L204.819 491.027ZM202.521 493.791L203.059 494.634L203.064 494.631L202.521 493.791ZM198.645 494.975H197.645V496.026L198.694 495.974L198.645 494.975ZM215.013 510.876L215.482 509.994L215.475 509.99L215.467 509.986L215.013 510.876ZM212.356 508.436L211.495 508.944L211.5 508.952L211.504 508.959L212.356 508.436ZM212.356 501.329L211.504 500.806L211.5 500.813L211.495 500.82L212.356 501.329ZM215.013 498.888L215.467 499.778L215.475 499.775L215.482 499.771L215.013 498.888ZM225.458 497.99H226.458V496.99H225.458V497.99ZM225.458 500.647V501.647H226.458V500.647H225.458ZM215.623 501.831L216.309 502.559L216.309 502.559L215.623 501.831ZM215.623 507.933L216.309 507.206L216.309 507.206L215.623 507.933ZM222.012 507.933L221.326 507.206L221.326 507.206L222.012 507.933ZM222.622 502.585V501.585H220.67L221.811 503.169L222.622 502.585ZM225.565 502.585L226.415 502.058L226.122 501.585H225.565V502.585ZM225.242 508.436L224.39 507.913L224.386 507.92L224.381 507.927L225.242 508.436ZM222.622 510.876L222.167 509.986L222.16 509.99L222.153 509.994L222.622 510.876ZM229.227 494.975L229.295 493.978C227.835 493.878 226.701 493.266 225.824 492.11L225.027 492.714L224.23 493.318C225.459 494.938 227.125 495.834 229.158 495.973L229.227 494.975ZM225.027 492.714L225.824 492.11C224.96 490.971 224.448 489.156 224.448 486.504H223.448H222.448C222.448 489.356 222.989 491.682 224.23 493.318L225.027 492.714ZM223.448 486.504H224.448V472.505H223.448H222.448V486.504H223.448ZM223.448 472.505V473.505H226.391V472.505V471.505H223.448V472.505ZM226.391 472.505H225.391V485.858H226.391H227.391V472.505H226.391ZM226.391 485.858H225.391C225.391 487.831 225.634 489.473 226.202 490.695L227.109 490.273L228.016 489.851C227.627 489.016 227.391 487.714 227.391 485.858H226.391ZM227.109 490.273L226.21 490.712C226.804 491.928 227.687 492.817 228.881 493.257L229.227 492.319L229.572 491.381C228.948 491.151 228.419 490.677 228.007 489.834L227.109 490.273ZM229.227 492.319H228.227V494.975H229.227H230.227V492.319H229.227ZM198.645 492.319L198.731 493.315C200.349 493.176 201.716 492.535 202.762 491.373L202.019 490.704L201.276 490.035C200.598 490.787 199.717 491.223 198.559 491.323L198.645 492.319ZM202.019 490.704L202.762 491.373C203.811 490.207 204.311 488.75 204.311 487.079H203.311H202.311C202.311 488.327 201.95 489.286 201.276 490.035L202.019 490.704ZM203.311 487.079H204.311V479.541H203.311H202.311V487.079H203.311ZM203.311 479.541V480.541H206.29V479.541V478.541H203.311V479.541ZM206.29 479.541H205.29V487.079H206.29H207.29V479.541H206.29ZM206.29 487.079H205.29C205.29 488.596 205.591 489.944 206.254 491.068L207.116 490.56L207.977 490.052C207.54 489.311 207.29 488.337 207.29 487.079H206.29ZM207.116 490.56L206.26 491.078C206.943 492.206 207.927 492.928 209.201 493.062L209.305 492.068L209.41 491.073C208.865 491.016 208.39 490.733 207.971 490.042L207.116 490.56ZM209.305 492.068L209.41 493.062C210.684 492.928 211.668 492.206 212.35 491.078L211.495 490.56L210.639 490.042C210.221 490.733 209.746 491.016 209.201 491.073L209.305 492.068ZM211.495 490.56L212.356 491.068C213.02 489.944 213.32 488.596 213.32 487.079H212.32H211.32C211.32 488.337 211.071 489.311 210.634 490.052L211.495 490.56ZM212.32 487.079H213.32V479.541H212.32H211.32V487.079H212.32ZM212.32 479.541V480.541H215.3V479.541V478.541H212.32V479.541ZM215.3 479.541H214.3V487.079H215.3H216.3V479.541H215.3ZM215.3 487.079H214.3C214.3 488.696 214.772 490.112 215.766 491.253L216.52 490.596L217.274 489.939C216.641 489.213 216.3 488.285 216.3 487.079H215.3ZM216.52 490.596L215.766 491.253C216.765 492.399 218.089 493.031 219.662 493.172L219.751 492.176L219.84 491.179C218.732 491.081 217.902 490.66 217.274 489.939L216.52 490.596ZM219.751 492.176H218.751V494.832H219.751H220.751V492.176H219.751ZM219.751 494.832L219.808 493.833C218.74 493.772 217.73 493.445 216.766 492.837L216.233 493.683L215.7 494.529C216.937 495.309 218.272 495.748 219.693 495.83L219.751 494.832ZM216.233 493.683L216.788 492.851C215.841 492.22 215.164 491.462 214.722 490.58L213.828 491.027L212.934 491.474C213.545 492.698 214.471 493.711 215.678 494.515L216.233 493.683ZM213.828 491.027L212.886 490.692C212.561 491.605 212.055 492.32 211.373 492.866L211.997 493.647L212.622 494.428C213.615 493.634 214.329 492.602 214.77 491.362L213.828 491.027ZM211.997 493.647L211.373 492.866C210.684 493.417 209.993 493.671 209.28 493.688L209.305 494.688L209.33 495.688C210.532 495.658 211.636 495.217 212.622 494.428L211.997 493.647ZM209.305 494.688L209.329 493.688C208.558 493.67 207.845 493.409 207.166 492.866L206.542 493.647L205.917 494.428C206.913 495.225 208.043 495.658 209.282 495.688L209.305 494.688ZM206.542 493.647L207.177 492.875C206.525 492.338 206.055 491.634 205.773 490.73L204.819 491.027L203.864 491.324C204.252 492.573 204.931 493.616 205.906 494.419L206.542 493.647ZM204.819 491.027L203.874 490.698C203.577 491.554 202.974 492.308 201.979 492.951L202.521 493.791L203.064 494.631C204.366 493.79 205.295 492.702 205.763 491.355L204.819 491.027ZM202.521 493.791L201.983 492.948C201.019 493.563 199.899 493.912 198.596 493.976L198.645 494.975L198.694 495.974C200.31 495.895 201.774 495.454 203.059 494.634L202.521 493.791ZM198.645 494.975H199.645V492.319H198.645H197.645V494.975H198.645ZM218.817 511.774V510.774C217.551 510.774 216.447 510.507 215.482 509.994L215.013 510.876L214.543 511.759C215.827 512.443 217.26 512.774 218.817 512.774V511.774ZM215.013 510.876L215.467 509.986C214.503 509.493 213.756 508.805 213.209 507.913L212.356 508.436L211.504 508.959C212.249 510.172 213.273 511.111 214.558 511.767L215.013 510.876ZM212.356 508.436L213.217 507.927C212.693 507.04 212.423 506.033 212.423 504.882H211.423H210.423C210.423 506.363 210.775 507.726 211.495 508.944L212.356 508.436ZM211.423 504.882H212.423C212.423 503.731 212.693 502.724 213.217 501.837L212.356 501.329L211.495 500.82C210.775 502.039 210.423 503.401 210.423 504.882H211.423ZM212.356 501.329L213.209 501.852C213.756 500.959 214.503 500.271 215.467 499.778L215.013 498.888L214.558 497.997C213.273 498.653 212.249 499.592 211.504 500.806L212.356 501.329ZM215.013 498.888L215.482 499.771C216.447 499.257 217.551 498.99 218.817 498.99V497.99V496.99C217.26 496.99 215.827 497.322 214.543 498.005L215.013 498.888ZM218.817 497.99V498.99H225.458V497.99V496.99H218.817V497.99ZM225.458 497.99H224.458V500.647H225.458H226.458V497.99H225.458ZM225.458 500.647V499.647H218.817V500.647V501.647H225.458V500.647ZM218.817 500.647V499.647C217.304 499.647 215.983 500.117 214.937 501.103L215.623 501.831L216.309 502.559C216.937 501.966 217.746 501.647 218.817 501.647V500.647ZM215.623 501.831L214.937 501.103C213.881 502.099 213.366 503.387 213.366 504.882H214.366H215.366C215.366 503.888 215.689 503.143 216.309 502.559L215.623 501.831ZM214.366 504.882H213.366C213.366 506.377 213.881 507.666 214.937 508.661L215.623 507.933L216.309 507.206C215.689 506.621 215.366 505.876 215.366 504.882H214.366ZM215.623 507.933L214.937 508.661C215.983 509.647 217.304 510.118 218.817 510.118V509.118V508.118C217.746 508.118 216.937 507.798 216.309 507.206L215.623 507.933ZM218.817 509.118V510.118C220.331 510.118 221.652 509.647 222.698 508.661L222.012 507.933L221.326 507.206C220.697 507.798 219.888 508.118 218.817 508.118V509.118ZM222.012 507.933L222.698 508.661C223.753 507.666 224.268 506.377 224.268 504.882H223.268H222.268C222.268 505.876 221.946 506.621 221.326 507.206L222.012 507.933ZM223.268 504.882H224.268C224.268 503.795 224.016 502.809 223.434 502.001L222.622 502.585L221.811 503.169C222.09 503.557 222.268 504.102 222.268 504.882H223.268ZM222.622 502.585V503.585H225.565V502.585V501.585H222.622V502.585ZM225.565 502.585L224.716 503.112C225.046 503.644 225.212 504.226 225.212 504.882H226.212H227.212C227.212 503.863 226.947 502.914 226.415 502.058L225.565 502.585ZM226.212 504.882H225.212C225.212 506.026 224.933 507.027 224.39 507.913L225.242 508.436L226.095 508.959C226.844 507.738 227.212 506.37 227.212 504.882H226.212ZM225.242 508.436L224.381 507.927C223.859 508.811 223.129 509.495 222.167 509.986L222.622 510.876L223.077 511.767C224.365 511.109 225.381 510.166 226.103 508.944L225.242 508.436ZM222.622 510.876L222.153 509.994C221.188 510.507 220.083 510.774 218.817 510.774V511.774V512.774C220.375 512.774 221.807 512.443 223.092 511.759L222.622 510.876ZM259.723 494.975L259.654 495.973L260.723 496.046V494.975H259.723ZM255.523 492.714L254.726 493.318L254.726 493.318L255.523 492.714ZM253.944 472.505V471.505H252.944V472.505H253.944ZM256.887 472.505H257.887V471.505H256.887V472.505ZM257.605 490.273L256.698 490.695L256.702 490.703L256.706 490.712L257.605 490.273ZM259.723 492.319H260.723V491.622L260.068 491.381L259.723 492.319ZM229.141 492.319L229.055 491.323L228.141 491.402V492.319H229.141ZM232.515 490.704L231.772 490.035L231.772 490.035L232.515 490.704ZM233.807 479.541V478.541H232.807V479.541H233.807ZM236.786 479.541H237.786V478.541H236.786V479.541ZM237.612 490.56L236.75 491.068L236.756 491.078L237.612 490.56ZM239.801 492.068L239.697 493.062L239.801 493.073L239.906 493.062L239.801 492.068ZM241.991 490.56L242.847 491.078L242.852 491.068L241.991 490.56ZM242.817 479.541V478.541H241.817V479.541H242.817ZM245.796 479.541H246.796V478.541H245.796V479.541ZM247.016 490.596L246.262 491.253L246.262 491.253L247.016 490.596ZM250.247 492.176H251.247V491.261L250.336 491.179L250.247 492.176ZM250.247 494.832L250.189 495.83L251.247 495.891V494.832H250.247ZM246.729 493.683L246.174 494.515L246.185 494.522L246.196 494.529L246.729 493.683ZM244.324 491.027L245.219 490.58L244.168 488.48L243.382 490.692L244.324 491.027ZM239.801 494.688L239.778 495.688L239.802 495.688L239.826 495.688L239.801 494.688ZM237.038 493.647L236.402 494.419L236.407 494.424L236.413 494.428L237.038 493.647ZM235.315 491.027L236.27 490.73L235.368 487.831L234.37 490.698L235.315 491.027ZM233.017 493.791L233.555 494.634L233.56 494.631L233.017 493.791ZM229.141 494.975H228.141V496.026L229.19 495.974L229.141 494.975ZM245.509 510.876L245.978 509.994L245.971 509.99L245.963 509.986L245.509 510.876ZM242.852 508.436L241.992 508.944L241.996 508.952L242 508.959L242.852 508.436ZM242.852 501.329L242 500.806L241.996 500.813L241.992 500.82L242.852 501.329ZM245.509 498.888L245.963 499.778L245.971 499.775L245.978 499.771L245.509 498.888ZM255.954 497.99H256.954V496.99H255.954V497.99ZM255.954 500.647V501.647H256.954V500.647H255.954ZM246.119 501.831L246.805 502.559L246.805 502.559L246.119 501.831ZM246.119 507.933L246.805 507.206L246.805 507.206L246.119 507.933ZM252.508 507.933L251.822 507.206L251.822 507.206L252.508 507.933ZM253.118 502.585V501.585H251.166L252.307 503.169L253.118 502.585ZM256.062 502.585L256.911 502.058L256.618 501.585H256.062V502.585ZM255.738 508.436L254.886 507.913L254.882 507.92L254.878 507.927L255.738 508.436ZM253.118 510.876L252.663 509.986L252.656 509.99L252.649 509.994L253.118 510.876ZM259.723 494.975L259.791 493.978C258.331 493.878 257.197 493.266 256.32 492.11L255.523 492.714L254.726 493.318C255.955 494.938 257.621 495.834 259.654 495.973L259.723 494.975ZM255.523 492.714L256.32 492.11C255.456 490.971 254.944 489.156 254.944 486.504H253.944H252.944C252.944 489.356 253.485 491.682 254.726 493.318L255.523 492.714ZM253.944 486.504H254.944V472.505H253.944H252.944V486.504H253.944ZM253.944 472.505V473.505H256.887V472.505V471.505H253.944V472.505ZM256.887 472.505H255.887V485.858H256.887H257.887V472.505H256.887ZM256.887 485.858H255.887C255.887 487.831 256.13 489.473 256.698 490.695L257.605 490.273L258.512 489.851C258.123 489.016 257.887 487.714 257.887 485.858H256.887ZM257.605 490.273L256.706 490.712C257.3 491.928 258.183 492.817 259.377 493.257L259.723 492.319L260.068 491.381C259.444 491.151 258.915 490.677 258.504 489.834L257.605 490.273ZM259.723 492.319H258.723V494.975H259.723H260.723V492.319H259.723ZM229.141 492.319L229.227 493.315C230.845 493.176 232.212 492.535 233.258 491.373L232.515 490.704L231.772 490.035C231.094 490.787 230.213 491.223 229.055 491.323L229.141 492.319ZM232.515 490.704L233.258 491.373C234.307 490.207 234.807 488.75 234.807 487.079H233.807H232.807C232.807 488.327 232.446 489.286 231.772 490.035L232.515 490.704ZM233.807 487.079H234.807V479.541H233.807H232.807V487.079H233.807ZM233.807 479.541V480.541H236.786V479.541V478.541H233.807V479.541ZM236.786 479.541H235.786V487.079H236.786H237.786V479.541H236.786ZM236.786 487.079H235.786C235.786 488.596 236.087 489.944 236.751 491.068L237.612 490.56L238.473 490.052C238.036 489.311 237.786 488.337 237.786 487.079H236.786ZM237.612 490.56L236.756 491.078C237.439 492.206 238.423 492.928 239.697 493.062L239.801 492.068L239.906 491.073C239.361 491.016 238.886 490.733 238.467 490.042L237.612 490.56ZM239.801 492.068L239.906 493.062C241.18 492.928 242.164 492.206 242.846 491.078L241.991 490.56L241.135 490.042C240.717 490.733 240.242 491.016 239.697 491.073L239.801 492.068ZM241.991 490.56L242.852 491.068C243.516 489.944 243.817 488.596 243.817 487.079H242.817H241.817C241.817 488.337 241.567 489.311 241.13 490.052L241.991 490.56ZM242.817 487.079H243.817V479.541H242.817H241.817V487.079H242.817ZM242.817 479.541V480.541H245.796V479.541V478.541H242.817V479.541ZM245.796 479.541H244.796V487.079H245.796H246.796V479.541H245.796ZM245.796 487.079H244.796C244.796 488.696 245.268 490.112 246.262 491.253L247.016 490.596L247.77 489.939C247.137 489.213 246.796 488.285 246.796 487.079H245.796ZM247.016 490.596L246.262 491.253C247.261 492.399 248.585 493.031 250.158 493.172L250.247 492.176L250.336 491.179C249.228 491.081 248.399 490.66 247.77 489.939L247.016 490.596ZM250.247 492.176H249.247V494.832H250.247H251.247V492.176H250.247ZM250.247 494.832L250.304 493.833C249.236 493.772 248.227 493.445 247.262 492.837L246.729 493.683L246.196 494.529C247.433 495.309 248.768 495.748 250.189 495.83L250.247 494.832ZM246.729 493.683L247.284 492.851C246.337 492.22 245.66 491.462 245.219 490.58L244.324 491.027L243.43 491.474C244.042 492.698 244.967 493.711 246.174 494.515L246.729 493.683ZM244.324 491.027L243.382 490.692C243.057 491.605 242.551 492.32 241.869 492.866L242.494 493.647L243.118 494.428C244.111 493.634 244.825 492.602 245.266 491.362L244.324 491.027ZM242.494 493.647L241.869 492.866C241.18 493.417 240.489 493.671 239.776 493.688L239.801 494.688L239.826 495.688C241.028 495.658 242.132 495.217 243.118 494.428L242.494 493.647ZM239.801 494.688L239.825 493.688C239.054 493.67 238.341 493.409 237.662 492.866L237.038 493.647L236.413 494.428C237.409 495.225 238.539 495.658 239.778 495.688L239.801 494.688ZM237.038 493.647L237.673 492.875C237.021 492.338 236.551 491.634 236.27 490.73L235.315 491.027L234.36 491.324C234.748 492.573 235.427 493.616 236.402 494.419L237.038 493.647ZM235.315 491.027L234.37 490.698C234.073 491.554 233.47 492.308 232.475 492.951L233.017 493.791L233.56 494.631C234.862 493.79 235.791 492.702 236.259 491.355L235.315 491.027ZM233.017 493.791L232.479 492.948C231.515 493.563 230.395 493.912 229.092 493.976L229.141 494.975L229.19 495.974C230.806 495.895 232.27 495.454 233.555 494.634L233.017 493.791ZM229.141 494.975H230.141V492.319H229.141H228.141V494.975H229.141ZM249.313 511.774V510.774C248.047 510.774 246.943 510.507 245.978 509.994L245.509 510.876L245.039 511.759C246.323 512.443 247.756 512.774 249.313 512.774V511.774ZM245.509 510.876L245.963 509.986C244.999 509.493 244.252 508.805 243.705 507.913L242.852 508.436L242 508.959C242.745 510.172 243.769 511.111 245.054 511.767L245.509 510.876ZM242.852 508.436L243.713 507.927C243.189 507.04 242.919 506.033 242.919 504.882H241.919H240.919C240.919 506.363 241.271 507.726 241.992 508.944L242.852 508.436ZM241.919 504.882H242.919C242.919 503.731 243.189 502.724 243.713 501.837L242.852 501.329L241.992 500.82C241.271 502.039 240.919 503.401 240.919 504.882H241.919ZM242.852 501.329L243.705 501.852C244.252 500.959 244.999 500.271 245.963 499.778L245.509 498.888L245.054 497.997C243.769 498.653 242.745 499.592 242 500.806L242.852 501.329ZM245.509 498.888L245.978 499.771C246.943 499.257 248.047 498.99 249.313 498.99V497.99V496.99C247.756 496.99 246.323 497.322 245.039 498.005L245.509 498.888ZM249.313 497.99V498.99H255.954V497.99V496.99H249.313V497.99ZM255.954 497.99H254.954V500.647H255.954H256.954V497.99H255.954ZM255.954 500.647V499.647H249.313V500.647V501.647H255.954V500.647ZM249.313 500.647V499.647C247.8 499.647 246.479 500.117 245.433 501.103L246.119 501.831L246.805 502.559C247.434 501.966 248.242 501.647 249.313 501.647V500.647ZM246.119 501.831L245.433 501.103C244.377 502.099 243.863 503.387 243.863 504.882H244.863H245.863C245.863 503.888 246.185 503.143 246.805 502.559L246.119 501.831ZM244.863 504.882H243.863C243.863 506.377 244.377 507.666 245.433 508.661L246.119 507.933L246.805 507.206C246.185 506.621 245.863 505.876 245.863 504.882H244.863ZM246.119 507.933L245.433 508.661C246.479 509.647 247.8 510.118 249.313 510.118V509.118V508.118C248.242 508.118 247.434 507.798 246.805 507.206L246.119 507.933ZM249.313 509.118V510.118C250.827 510.118 252.148 509.647 253.194 508.661L252.508 507.933L251.822 507.206C251.193 507.798 250.384 508.118 249.313 508.118V509.118ZM252.508 507.933L253.194 508.661C254.249 507.666 254.764 506.377 254.764 504.882H253.764H252.764C252.764 505.876 252.442 506.621 251.822 507.206L252.508 507.933ZM253.764 504.882H254.764C254.764 503.795 254.512 502.809 253.93 502.001L253.118 502.585L252.307 503.169C252.586 503.557 252.764 504.102 252.764 504.882H253.764ZM253.118 502.585V503.585H256.062V502.585V501.585H253.118V502.585ZM256.062 502.585L255.212 503.112C255.542 503.644 255.708 504.226 255.708 504.882H256.708H257.708C257.708 503.863 257.443 502.914 256.911 502.058L256.062 502.585ZM256.708 504.882H255.708C255.708 506.026 255.429 507.027 254.886 507.913L255.738 508.436L256.591 508.959C257.34 507.738 257.708 506.37 257.708 504.882H256.708ZM255.738 508.436L254.878 507.927C254.355 508.811 253.625 509.495 252.663 509.986L253.118 510.876L253.573 511.767C254.861 511.109 255.878 510.166 256.599 508.944L255.738 508.436ZM253.118 510.876L252.649 509.994C251.684 510.507 250.58 510.774 249.313 510.774V511.774V512.774C250.871 512.774 252.303 512.443 253.588 511.759L253.118 510.876ZM291.69 494.975L291.622 495.973L292.69 496.046V494.975H291.69ZM285.912 472.505V471.505H284.912V472.505H285.912ZM288.855 472.505H289.855V471.505H288.855V472.505ZM289.573 490.273L288.666 490.695L288.67 490.703L288.674 490.712L289.573 490.273ZM291.69 492.319H292.69V491.622L292.036 491.381L291.69 492.319ZM259.637 494.975H258.637V495.975H259.637V494.975ZM259.637 492.319V491.319H258.637V492.319H259.637ZM268.718 490.453L268.082 489.681L268.076 489.686L268.718 490.453ZM270.98 483.238H271.98V482.238H270.98V483.238ZM263.693 483.238H262.693V484.238H263.693V483.238ZM263.693 480.582V479.582H262.693V480.582H263.693ZM281.102 480.582H282.102V479.582H281.102V480.582ZM281.102 483.238V484.238H282.102V483.238H281.102ZM274.031 483.238V482.238H273.031V483.238H274.031ZM276.112 490.345L275.445 491.089L275.452 491.096L275.458 491.101L276.112 490.345ZM281.999 492.247H282.999V491.266L282.018 491.248L281.999 492.247ZM281.999 494.832V495.832H282.999V494.832H281.999ZM276.364 493.611L275.911 494.503L275.922 494.508L276.364 493.611ZM272.523 490.13L273.376 489.607L272.498 488.175L271.657 489.629L272.523 490.13ZM268.646 493.719L269.089 494.616L269.099 494.611L268.646 493.719ZM275.933 510.876H274.933V511.876H275.933V510.876ZM288.711 510.876H289.711V509.876H288.711V510.876ZM288.711 513.533V514.533H289.711V513.533H288.711ZM273.384 513.102L274.092 512.395L274.092 512.395L273.384 513.102ZM272.99 504.487V503.487H271.99V504.487H272.99ZM285.086 504.487V505.487H286.086V504.487H285.086ZM285.086 500.862H286.086V499.862H285.086V500.862ZM272.99 500.862H271.99V501.862H272.99V500.862ZM272.99 498.206V497.206H271.99V498.206H272.99ZM287.599 498.636L286.861 499.312L286.891 499.344L286.923 499.374L287.599 498.636ZM288.029 507.108V508.108H289.029V507.108H288.029ZM275.933 507.108V506.108H274.933V507.108H275.933ZM291.69 494.975L291.759 493.978C290.298 493.878 289.165 493.266 288.288 492.11L287.491 492.714L286.694 493.318C287.923 494.938 289.589 495.834 291.622 495.973L291.69 494.975ZM287.491 492.714L288.288 492.11C287.423 490.971 286.912 489.156 286.912 486.504H285.912H284.912C284.912 489.356 285.452 491.682 286.694 493.318L287.491 492.714ZM285.912 486.504H286.912V472.505H285.912H284.912V486.504H285.912ZM285.912 472.505V473.505H288.855V472.505V471.505H285.912V472.505ZM288.855 472.505H287.855V485.858H288.855H289.855V472.505H288.855ZM288.855 485.858H287.855C287.855 487.831 288.098 489.473 288.666 490.695L289.573 490.273L290.479 489.851C290.091 489.016 289.855 487.714 289.855 485.858H288.855ZM289.573 490.273L288.674 490.712C289.268 491.928 290.151 492.817 291.345 493.257L291.69 492.319L292.036 491.381C291.412 491.151 290.883 490.677 290.471 489.834L289.573 490.273ZM291.69 492.319H290.69V494.975H291.69H292.69V492.319H291.69ZM259.637 494.975H260.637V492.319H259.637H258.637V494.975H259.637ZM259.637 492.319V493.319H262.437V492.319V491.319H259.637V492.319ZM262.437 492.319V493.319C265.283 493.319 267.637 492.664 269.361 491.219L268.718 490.453L268.076 489.686C266.832 490.729 264.998 491.319 262.437 491.319V492.319ZM268.718 490.453L269.355 491.224C271.129 489.76 271.98 487.709 271.98 485.212H270.98H269.98C269.98 487.213 269.323 488.657 268.082 489.681L268.718 490.453ZM270.98 485.212H271.98V483.238H270.98H269.98V485.212H270.98ZM270.98 483.238V482.238H263.693V483.238V484.238H270.98V483.238ZM263.693 483.238H264.693V480.582H263.693H262.693V483.238H263.693ZM263.693 480.582V481.582H281.102V480.582V479.582H263.693V480.582ZM281.102 480.582H280.102V483.238H281.102H282.102V480.582H281.102ZM281.102 483.238V482.238H274.031V483.238V484.238H281.102V483.238ZM274.031 483.238H273.031V485.212H274.031H275.031V483.238H274.031ZM274.031 485.212H273.031C273.031 487.621 273.809 489.623 275.445 491.089L276.112 490.345L276.78 489.6C275.64 488.578 275.031 487.158 275.031 485.212H274.031ZM276.112 490.345L275.458 491.101C277.1 492.52 279.315 493.196 281.98 493.247L281.999 492.247L282.018 491.248C279.658 491.203 277.948 490.61 276.766 489.588L276.112 490.345ZM281.999 492.247H280.999V494.832H281.999H282.999V492.247H281.999ZM281.999 494.832V493.832C280.024 493.832 278.301 493.451 276.806 492.714L276.364 493.611L275.922 494.508C277.729 495.399 279.762 495.832 281.999 495.832V494.832ZM276.364 493.611L276.816 492.719C275.319 491.96 274.182 490.923 273.376 489.607L272.523 490.13L271.67 490.652C272.683 492.304 274.106 493.587 275.911 494.503L276.364 493.611ZM272.523 490.13L271.657 489.629C270.876 490.98 269.734 492.046 268.194 492.827L268.646 493.719L269.099 494.611C270.957 493.669 272.399 492.342 273.389 490.63L272.523 490.13ZM268.646 493.719L268.204 492.822C266.663 493.582 264.869 493.975 262.796 493.975V494.975V495.975C265.126 495.975 267.231 495.531 269.089 494.616L268.646 493.719ZM262.796 494.975V493.975H259.637V494.975V495.975H262.796V494.975ZM275.933 510.876V511.876H288.711V510.876V509.876H275.933V510.876ZM288.711 510.876H287.711V513.533H288.711H289.711V510.876H288.711ZM288.711 513.533V512.533H274.605V513.533V514.533H288.711V513.533ZM274.605 513.533V512.533C274.262 512.533 274.14 512.443 274.092 512.395L273.384 513.102L272.677 513.809C273.203 514.335 273.895 514.533 274.605 514.533V513.533ZM273.384 513.102L274.092 512.395C274.082 512.385 273.99 512.29 273.99 511.917H272.99H271.99C271.99 512.598 272.16 513.292 272.677 513.809L273.384 513.102ZM272.99 511.917H273.99V504.487H272.99H271.99V511.917H272.99ZM272.99 504.487V505.487H285.086V504.487V503.487H272.99V504.487ZM285.086 504.487H286.086V500.862H285.086H284.086V504.487H285.086ZM285.086 500.862V499.862H272.99V500.862V501.862H285.086V500.862ZM272.99 500.862H273.99V498.206H272.99H271.99V500.862H272.99ZM272.99 498.206V499.206H286.414V498.206V497.206H272.99V498.206ZM286.414 498.206V499.206C286.763 499.206 286.847 499.297 286.861 499.312L287.599 498.636L288.336 497.961C287.823 497.402 287.118 497.206 286.414 497.206V498.206ZM287.599 498.636L286.923 499.374C286.938 499.388 287.029 499.472 287.029 499.821H288.029H289.029C289.029 499.117 288.833 498.412 288.274 497.899L287.599 498.636ZM288.029 499.821H287.029V507.108H288.029H289.029V499.821H288.029ZM288.029 507.108V506.108H275.933V507.108V508.108H288.029V507.108ZM275.933 507.108H274.933V510.876H275.933H276.933V507.108H275.933ZM296.201 486.468L296.145 485.47L295.201 485.523V486.468H296.201ZM302.159 484.386L302.82 485.137L302.827 485.13L302.159 484.386ZM304.277 478.643H305.277V477.643H304.277V478.643ZM296.739 478.643H295.739V479.643H296.739V478.643ZM296.739 475.987V474.987H295.739V475.987H296.739ZM314.722 475.987H315.722V474.987H314.722V475.987ZM314.722 478.643V479.643H315.722V478.643H314.722ZM307.328 478.643V477.643H306.328V478.643H307.328ZM309.41 484.315L308.742 485.059L308.742 485.059L309.41 484.315ZM315.26 486.397H316.26V485.452L315.317 485.398L315.26 486.397ZM315.26 488.981L315.206 489.979L316.26 490.037V488.981H315.26ZM309.481 487.581L309.024 488.47L309.032 488.474L309.039 488.478L309.481 487.581ZM305.82 484.243L306.683 483.737L305.798 482.228L304.947 483.756L305.82 484.243ZM302.087 487.689L302.534 488.583L302.534 488.583L302.087 487.689ZM296.201 489.125H295.201V490.179L296.254 490.123L296.201 489.125ZM319.998 492.319H320.998V491.319H319.998V492.319ZM319.998 494.975V495.975H320.998V494.975H319.998ZM307.256 494.975V493.975H306.256V494.975H307.256ZM307.256 505.026V506.026H308.256V505.026H307.256ZM304.313 505.026H303.313V506.026H304.313V505.026ZM304.313 494.975H305.313V493.975H304.313V494.975ZM291.57 494.975H290.57V495.975H291.57V494.975ZM291.57 492.319V491.319H290.57V492.319H291.57ZM296.201 486.468L296.257 487.467C298.96 487.315 301.188 486.575 302.82 485.137L302.159 484.386L301.498 483.636C300.306 484.687 298.562 485.334 296.145 485.47L296.201 486.468ZM302.159 484.386L302.827 485.13C304.48 483.646 305.277 481.649 305.277 479.254H304.277H303.277C303.277 481.166 302.662 482.591 301.491 483.643L302.159 484.386ZM304.277 479.254H305.277V478.643H304.277H303.277V479.254H304.277ZM304.277 478.643V477.643H296.739V478.643V479.643H304.277V478.643ZM296.739 478.643H297.739V475.987H296.739H295.739V478.643H296.739ZM296.739 475.987V476.987H314.722V475.987V474.987H296.739V475.987ZM314.722 475.987H313.722V478.643H314.722H315.722V475.987H314.722ZM314.722 478.643V477.643H307.328V478.643V479.643H314.722V478.643ZM307.328 478.643H306.328V479.254H307.328H308.328V478.643H307.328ZM307.328 479.254H306.328C306.328 481.623 307.111 483.597 308.742 485.059L309.41 484.315L310.077 483.57C308.932 482.543 308.328 481.144 308.328 479.254H307.328ZM309.41 484.315L308.742 485.059C310.35 486.5 312.543 487.243 315.203 487.395L315.26 486.397L315.317 485.398C312.952 485.263 311.246 484.618 310.077 483.57L309.41 484.315ZM315.26 486.397H314.26V488.981H315.26H316.26V486.397H315.26ZM315.26 488.981L315.315 487.982C313.222 487.869 311.432 487.427 309.923 486.684L309.481 487.581L309.039 488.478C310.833 489.362 312.896 489.854 315.206 489.979L315.26 488.981ZM309.481 487.581L309.939 486.692C308.457 485.929 307.388 484.94 306.683 483.737L305.82 484.243L304.958 484.749C305.88 486.322 307.252 487.558 309.024 488.47L309.481 487.581ZM305.82 484.243L304.947 483.756C304.243 485.019 303.158 486.035 301.64 486.794L302.087 487.689L302.534 488.583C304.367 487.667 305.771 486.386 306.694 484.73L305.82 484.243ZM302.087 487.689L301.64 486.794C300.11 487.559 298.287 488.012 296.147 488.126L296.201 489.125L296.254 490.123C298.613 489.998 300.714 489.493 302.534 488.583L302.087 487.689ZM296.201 489.125H297.201V486.468H296.201H295.201V489.125H296.201ZM319.998 492.319H318.998V494.975H319.998H320.998V492.319H319.998ZM319.998 494.975V493.975H307.256V494.975V495.975H319.998V494.975ZM307.256 494.975H306.256V505.026H307.256H308.256V494.975H307.256ZM307.256 505.026V504.026H304.313V505.026V506.026H307.256V505.026ZM304.313 505.026H305.313V494.975H304.313H303.313V505.026H304.313ZM304.313 494.975V493.975H291.57V494.975V495.975H304.313V494.975ZM291.57 494.975H292.57V492.319H291.57H290.57V494.975H291.57ZM291.57 492.319V493.319H319.998V492.319V491.319H291.57V492.319Z" fill="#BE92B0" mask="url(#path-1-outside-1_33_557)"/>
<circle cx="188.363" cy="447.378" r="8.52173" fill="#50FFFC"/>
<circle cx="188.363" cy="447.378" r="8.02173" stroke="black" stroke-opacity="0.25"/>
<circle cx="227.617" cy="550.451" r="8.52173" fill="#50FFFC"/>
<circle cx="227.617" cy="550.451" r="8.02173" stroke="black" stroke-opacity="0.25"/>
<circle cx="61.293" cy="738.972" r="20.3291" fill="#50FFFC"/>
<circle cx="61.293" cy="738.972" r="19.8291" stroke="black" stroke-opacity="0.25"/>
<circle cx="26.4639" cy="298.85" r="20.3291" fill="#50FFFC"/>
<circle cx="26.4639" cy="298.85" r="19.8291" stroke="black" stroke-opacity="0.25"/>
<circle cx="259.681" cy="210.606" r="20.3291" fill="#50FFFC"/>
<circle cx="259.681" cy="210.606" r="19.8291" stroke="black" stroke-opacity="0.25"/>
<circle cx="15.4039" cy="875.254" r="12.2799" fill="#50FFFC"/>
<circle cx="15.4039" cy="875.254" r="11.7799" stroke="black" stroke-opacity="0.25"/>
<circle cx="178.124" cy="974.824" r="7.9519" fill="#50FFFC"/>
<circle cx="178.124" cy="974.824" r="7.4519" stroke="black" stroke-opacity="0.25"/>
<circle cx="175.949" cy="431.372" r="5.40283" fill="#50FFFC"/>
<circle cx="175.949" cy="431.372" r="4.90283" stroke="black" stroke-opacity="0.25"/>
<path d="M222.024 593.992C251.88 581.645 286.093 595.84 298.439 625.696C300.277 630.139 301.526 634.678 302.224 639.227C308.147 677.852 286.423 723.366 300.725 759.731L462.964 1172.27C464.761 1176.84 462.564 1182 458.028 1183.88L455.144 1185.07C450.494 1186.99 445.171 1184.73 443.329 1180.05L282.092 770.059C267.396 732.691 218.159 714.032 195.807 680.675C193.681 677.502 191.835 674.073 190.32 670.408C177.973 640.551 192.167 606.339 222.024 593.992Z" fill="url(#paint0_linear_33_557)"/>
<path d="M222.215 594.454C251.816 582.213 285.736 596.286 297.977 625.887C299.799 630.293 301.038 634.793 301.73 639.303C304.677 658.523 300.746 679.462 297.837 700.257C294.935 721.003 293.055 741.595 300.259 759.913L462.498 1172.45C464.195 1176.77 462.121 1181.65 457.836 1183.42L454.953 1184.61C450.561 1186.43 445.534 1184.29 443.795 1179.87L282.557 769.876C275.154 751.052 259.066 736.972 242.132 723.472C225.158 709.939 207.343 696.994 196.222 680.397C194.114 677.251 192.285 673.851 190.782 670.217L190.5 669.522C178.762 640.086 192.845 606.6 222.215 594.454Z" stroke="black" stroke-opacity="0.64"/>
<path d="M55.282 619.071C24.7797 608.419 8.68779 575.057 19.3395 544.555C20.9246 540.016 23.0125 535.796 25.519 531.936C46.8 499.164 93.3032 479.646 106.827 442.985L260.248 27.0869C261.947 22.4809 267.024 20.0863 271.659 21.7049L274.605 22.7336C279.355 24.3926 281.823 29.6243 280.081 34.3453L127.608 447.675C113.711 485.347 138.047 532.04 132.535 571.813C132.01 575.596 131.106 579.384 129.798 583.128C119.146 613.631 85.7842 629.723 55.282 619.071Z" fill="url(#paint1_linear_33_557)"/>
<path d="M55.4468 618.599C25.2053 608.038 9.25088 574.961 19.8116 544.72C21.3833 540.219 23.4533 536.035 25.9382 532.208C36.5279 515.9 53.3959 502.887 69.4055 489.3C85.3767 475.746 100.483 461.626 107.296 443.158L260.717 27.26C262.322 22.9099 267.117 20.6488 271.494 22.1775L274.44 23.2061C278.926 24.773 281.257 29.7132 279.612 34.1718L127.139 447.502C120.139 466.479 122.778 487.695 126.434 509.04C130.1 530.437 134.782 551.955 132.04 571.745C131.52 575.495 130.623 579.251 129.326 582.964L129.074 583.67C118.248 613.453 85.452 629.077 55.4468 618.599Z" stroke="black" stroke-opacity="0.64"/>
<defs>
<linearGradient id="paint0_linear_33_557" x1="222.024" y1="593.992" x2="388.118" y2="995.635" gradientUnits="userSpaceOnUse">
<stop stop-color="#D2C8FF"/>
<stop offset="1" stop-color="white"/>
</linearGradient>
<linearGradient id="paint1_linear_33_557" x1="55.282" y1="619.071" x2="198.575" y2="208.739" gradientUnits="userSpaceOnUse">
<stop stop-color="#D2C8FF"/>
<stop offset="1" stop-color="white"/>
</linearGradient>
</defs>
</svg>
