<svg width="664" height="1225" viewBox="0 0 664 1225" fill="none" xmlns="http://www.w3.org/2000/svg">
<mask id="path-1-outside-1_33_528" maskUnits="userSpaceOnUse" x="197.401" y="278.091" width="144" height="43" fill="black">
<rect fill="white" x="197.401" y="278.091" width="144" height="43"/>
<path d="M234.972 302.502C233.13 302.382 231.706 301.724 230.701 300.528C229.696 299.307 229.193 297.572 229.193 295.323V292.092H222.266V289.436H229.193V280.032H232.137V294.749C232.137 297.716 233.082 299.415 234.972 299.846V302.502ZM199.365 302.502V299.846H202.165C204.797 299.846 206.831 299.259 208.267 298.087C209.703 296.89 210.421 295.215 210.421 293.062V292.092H203.242V289.436H210.421V284.77H213.472V289.436H220.435V292.092H213.472V293.062C213.472 295.119 214.142 296.735 215.482 297.907C216.846 299.08 218.736 299.702 221.153 299.774V302.358C219.095 302.334 217.264 301.951 215.661 301.21C214.058 300.444 212.826 299.379 211.964 298.015C211.151 299.427 209.906 300.528 208.231 301.317C206.58 302.107 204.678 302.502 202.524 302.502H199.365ZM228.475 310.327H231.419V318.905H217.779C217.253 318.905 216.846 318.762 216.559 318.475C216.295 318.211 216.164 317.817 216.164 317.29V305.732H231.419V308.388H219.107V316.249H228.475V310.327ZM269.798 302.502C267.956 302.382 266.532 301.724 265.527 300.528C264.522 299.307 264.019 297.572 264.019 295.323V290.908H256.015V288.252H264.019V280.032H266.962V294.749C266.962 297.716 267.908 299.415 269.798 299.846V302.502ZM250.415 286.565H253.359V302.502H234.909V299.846H239.791C239.551 299.582 239.372 299.259 239.252 298.876C239.132 298.47 239.073 297.943 239.073 297.297V286.565H242.016V292.021H248.405V294.677H242.016V297.441C242.016 298.278 242.184 298.888 242.519 299.271C242.877 299.654 243.416 299.846 244.134 299.846H250.415V286.565ZM259.281 319.3C257.869 319.3 256.601 319.001 255.476 318.403C254.352 317.829 253.466 317.015 252.82 315.962C252.198 314.909 251.887 313.725 251.887 312.409C251.887 311.092 252.198 309.908 252.82 308.855C253.466 307.802 254.352 306.988 255.476 306.414C256.601 305.816 257.869 305.517 259.281 305.517H265.922V308.173H259.281C257.989 308.173 256.924 308.568 256.087 309.358C255.249 310.147 254.83 311.164 254.83 312.409C254.83 313.653 255.249 314.67 256.087 315.46C256.924 316.249 257.989 316.644 259.281 316.644C260.597 316.644 261.674 316.249 262.512 315.46C263.349 314.67 263.768 313.653 263.768 312.409C263.768 311.978 263.708 311.559 263.588 311.152C263.469 310.745 263.313 310.398 263.122 310.111H266.029C266.245 310.446 266.412 310.781 266.532 311.116C266.651 311.451 266.711 311.882 266.711 312.409C266.711 313.725 266.388 314.909 265.742 315.962C265.12 317.015 264.247 317.829 263.122 318.403C261.997 319.001 260.717 319.3 259.281 319.3ZM305.324 302.502C303.481 302.382 302.057 301.724 301.052 300.528C300.047 299.307 299.545 297.572 299.545 295.323V292.092H292.617V289.436H299.545V280.032H302.488V294.749C302.488 297.716 303.433 299.415 305.324 299.846V302.502ZM269.717 302.502V299.846H272.516C275.149 299.846 277.183 299.259 278.618 298.087C280.054 296.89 280.772 295.215 280.772 293.062V292.092H273.593V289.436H280.772V284.77H283.823V289.436H290.786V292.092H283.823V293.062C283.823 295.119 284.493 296.735 285.833 297.907C287.197 299.08 289.087 299.702 291.504 299.774V302.358C289.446 302.334 287.616 301.951 286.013 301.21C284.409 300.444 283.177 299.379 282.315 298.015C281.502 299.427 280.257 300.528 278.582 301.317C276.931 302.107 275.029 302.502 272.875 302.502H269.717ZM294.412 319.193C293 319.193 291.732 318.893 290.607 318.295C289.506 317.721 288.633 316.919 287.987 315.89C287.365 314.861 287.053 313.689 287.053 312.373C287.053 311.057 287.365 309.884 287.987 308.855C288.633 307.802 289.506 306.988 290.607 306.414C291.732 305.816 293 305.517 294.412 305.517H301.016V308.173H294.412C293.144 308.173 292.091 308.568 291.253 309.358C290.416 310.147 289.997 311.152 289.997 312.373C289.997 313.593 290.416 314.586 291.253 315.352C292.091 316.142 293.144 316.536 294.412 316.536C295.704 316.536 296.757 316.142 297.57 315.352C298.408 314.586 298.827 313.593 298.827 312.373C298.827 311.942 298.767 311.523 298.647 311.116C298.552 310.71 298.408 310.375 298.217 310.111H301.124C301.555 310.71 301.77 311.463 301.77 312.373C301.77 313.689 301.459 314.861 300.837 315.89C300.215 316.919 299.341 317.721 298.217 318.295C297.092 318.893 295.824 319.193 294.412 319.193ZM340.149 302.502C338.307 302.382 336.883 301.724 335.878 300.528C334.873 299.307 334.37 297.572 334.37 295.323V290.908H326.366V288.252H334.37V280.032H337.314V294.749C337.314 297.716 338.259 299.415 340.149 299.846V302.502ZM320.767 286.565H323.71V302.502H305.26V299.846H310.142C309.903 299.582 309.723 299.259 309.603 298.876C309.484 298.47 309.424 297.943 309.424 297.297V286.565H312.367V292.021H318.756V294.677H312.367V297.441C312.367 298.278 312.535 298.888 312.87 299.271C313.229 299.654 313.767 299.846 314.485 299.846H320.767V286.565ZM329.632 319.3C328.221 319.3 326.952 319.001 325.828 318.403C324.703 317.829 323.818 317.015 323.171 315.962C322.549 314.909 322.238 313.725 322.238 312.409C322.238 311.092 322.549 309.908 323.171 308.855C323.818 307.802 324.703 306.988 325.828 306.414C326.952 305.816 328.221 305.517 329.632 305.517H336.273V308.173H329.632C328.34 308.173 327.275 308.568 326.438 309.358C325.6 310.147 325.182 311.164 325.182 312.409C325.182 313.653 325.6 314.67 326.438 315.46C327.275 316.249 328.34 316.644 329.632 316.644C330.949 316.644 332.025 316.249 332.863 315.46C333.7 314.67 334.119 313.653 334.119 312.409C334.119 311.978 334.059 311.559 333.94 311.152C333.82 310.745 333.665 310.398 333.473 310.111H336.381C336.596 310.446 336.763 310.781 336.883 311.116C337.003 311.451 337.063 311.882 337.063 312.409C337.063 313.725 336.739 314.909 336.093 315.962C335.471 317.015 334.598 317.829 333.473 318.403C332.348 319.001 331.068 319.3 329.632 319.3Z"/>
</mask>
<path d="M234.972 302.502C233.13 302.382 231.706 301.724 230.701 300.528C229.696 299.307 229.193 297.572 229.193 295.323V292.092H222.266V289.436H229.193V280.032H232.137V294.749C232.137 297.716 233.082 299.415 234.972 299.846V302.502ZM199.365 302.502V299.846H202.165C204.797 299.846 206.831 299.259 208.267 298.087C209.703 296.89 210.421 295.215 210.421 293.062V292.092H203.242V289.436H210.421V284.77H213.472V289.436H220.435V292.092H213.472V293.062C213.472 295.119 214.142 296.735 215.482 297.907C216.846 299.08 218.736 299.702 221.153 299.774V302.358C219.095 302.334 217.264 301.951 215.661 301.21C214.058 300.444 212.826 299.379 211.964 298.015C211.151 299.427 209.906 300.528 208.231 301.317C206.58 302.107 204.678 302.502 202.524 302.502H199.365ZM228.475 310.327H231.419V318.905H217.779C217.253 318.905 216.846 318.762 216.559 318.475C216.295 318.211 216.164 317.817 216.164 317.29V305.732H231.419V308.388H219.107V316.249H228.475V310.327ZM269.798 302.502C267.956 302.382 266.532 301.724 265.527 300.528C264.522 299.307 264.019 297.572 264.019 295.323V290.908H256.015V288.252H264.019V280.032H266.962V294.749C266.962 297.716 267.908 299.415 269.798 299.846V302.502ZM250.415 286.565H253.359V302.502H234.909V299.846H239.791C239.551 299.582 239.372 299.259 239.252 298.876C239.132 298.47 239.073 297.943 239.073 297.297V286.565H242.016V292.021H248.405V294.677H242.016V297.441C242.016 298.278 242.184 298.888 242.519 299.271C242.877 299.654 243.416 299.846 244.134 299.846H250.415V286.565ZM259.281 319.3C257.869 319.3 256.601 319.001 255.476 318.403C254.352 317.829 253.466 317.015 252.82 315.962C252.198 314.909 251.887 313.725 251.887 312.409C251.887 311.092 252.198 309.908 252.82 308.855C253.466 307.802 254.352 306.988 255.476 306.414C256.601 305.816 257.869 305.517 259.281 305.517H265.922V308.173H259.281C257.989 308.173 256.924 308.568 256.087 309.358C255.249 310.147 254.83 311.164 254.83 312.409C254.83 313.653 255.249 314.67 256.087 315.46C256.924 316.249 257.989 316.644 259.281 316.644C260.597 316.644 261.674 316.249 262.512 315.46C263.349 314.67 263.768 313.653 263.768 312.409C263.768 311.978 263.708 311.559 263.588 311.152C263.469 310.745 263.313 310.398 263.122 310.111H266.029C266.245 310.446 266.412 310.781 266.532 311.116C266.651 311.451 266.711 311.882 266.711 312.409C266.711 313.725 266.388 314.909 265.742 315.962C265.12 317.015 264.247 317.829 263.122 318.403C261.997 319.001 260.717 319.3 259.281 319.3ZM305.324 302.502C303.481 302.382 302.057 301.724 301.052 300.528C300.047 299.307 299.545 297.572 299.545 295.323V292.092H292.617V289.436H299.545V280.032H302.488V294.749C302.488 297.716 303.433 299.415 305.324 299.846V302.502ZM269.717 302.502V299.846H272.516C275.149 299.846 277.183 299.259 278.618 298.087C280.054 296.89 280.772 295.215 280.772 293.062V292.092H273.593V289.436H280.772V284.77H283.823V289.436H290.786V292.092H283.823V293.062C283.823 295.119 284.493 296.735 285.833 297.907C287.197 299.08 289.087 299.702 291.504 299.774V302.358C289.446 302.334 287.616 301.951 286.013 301.21C284.409 300.444 283.177 299.379 282.315 298.015C281.502 299.427 280.257 300.528 278.582 301.317C276.931 302.107 275.029 302.502 272.875 302.502H269.717ZM294.412 319.193C293 319.193 291.732 318.893 290.607 318.295C289.506 317.721 288.633 316.919 287.987 315.89C287.365 314.861 287.053 313.689 287.053 312.373C287.053 311.057 287.365 309.884 287.987 308.855C288.633 307.802 289.506 306.988 290.607 306.414C291.732 305.816 293 305.517 294.412 305.517H301.016V308.173H294.412C293.144 308.173 292.091 308.568 291.253 309.358C290.416 310.147 289.997 311.152 289.997 312.373C289.997 313.593 290.416 314.586 291.253 315.352C292.091 316.142 293.144 316.536 294.412 316.536C295.704 316.536 296.757 316.142 297.57 315.352C298.408 314.586 298.827 313.593 298.827 312.373C298.827 311.942 298.767 311.523 298.647 311.116C298.552 310.71 298.408 310.375 298.217 310.111H301.124C301.555 310.71 301.77 311.463 301.77 312.373C301.77 313.689 301.459 314.861 300.837 315.89C300.215 316.919 299.341 317.721 298.217 318.295C297.092 318.893 295.824 319.193 294.412 319.193ZM340.149 302.502C338.307 302.382 336.883 301.724 335.878 300.528C334.873 299.307 334.37 297.572 334.37 295.323V290.908H326.366V288.252H334.37V280.032H337.314V294.749C337.314 297.716 338.259 299.415 340.149 299.846V302.502ZM320.767 286.565H323.71V302.502H305.26V299.846H310.142C309.903 299.582 309.723 299.259 309.603 298.876C309.484 298.47 309.424 297.943 309.424 297.297V286.565H312.367V292.021H318.756V294.677H312.367V297.441C312.367 298.278 312.535 298.888 312.87 299.271C313.229 299.654 313.767 299.846 314.485 299.846H320.767V286.565ZM329.632 319.3C328.221 319.3 326.952 319.001 325.828 318.403C324.703 317.829 323.818 317.015 323.171 315.962C322.549 314.909 322.238 313.725 322.238 312.409C322.238 311.092 322.549 309.908 323.171 308.855C323.818 307.802 324.703 306.988 325.828 306.414C326.952 305.816 328.221 305.517 329.632 305.517H336.273V308.173H329.632C328.34 308.173 327.275 308.568 326.438 309.358C325.6 310.147 325.182 311.164 325.182 312.409C325.182 313.653 325.6 314.67 326.438 315.46C327.275 316.249 328.34 316.644 329.632 316.644C330.949 316.644 332.025 316.249 332.863 315.46C333.7 314.67 334.119 313.653 334.119 312.409C334.119 311.978 334.059 311.559 333.94 311.152C333.82 310.745 333.665 310.398 333.473 310.111H336.381C336.596 310.446 336.763 310.781 336.883 311.116C337.003 311.451 337.063 311.882 337.063 312.409C337.063 313.725 336.739 314.909 336.093 315.962C335.471 317.015 334.598 317.829 333.473 318.403C332.348 319.001 331.068 319.3 329.632 319.3Z" fill="#3AA3FF"/>
<path d="M234.972 302.502L234.908 303.5L235.972 303.569V302.502H234.972ZM230.701 300.528L229.929 301.163L229.935 301.171L230.701 300.528ZM229.193 292.092H230.193V291.092H229.193V292.092ZM222.266 292.092H221.266V293.092H222.266V292.092ZM222.266 289.436V288.436H221.266V289.436H222.266ZM229.193 289.436V290.436H230.193V289.436H229.193ZM229.193 280.032V279.032H228.193V280.032H229.193ZM232.137 280.032H233.137V279.032H232.137V280.032ZM234.972 299.846H235.972V299.048L235.194 298.871L234.972 299.846ZM199.365 302.502H198.365V303.502H199.365V302.502ZM199.365 299.846V298.846H198.365V299.846H199.365ZM208.267 298.087L208.9 298.861L208.907 298.855L208.267 298.087ZM210.421 292.092H211.421V291.092H210.421V292.092ZM203.242 292.092H202.242V293.092H203.242V292.092ZM203.242 289.436V288.436H202.242V289.436H203.242ZM210.421 289.436V290.436H211.421V289.436H210.421ZM210.421 284.77V283.77H209.421V284.77H210.421ZM213.472 284.77H214.472V283.77H213.472V284.77ZM213.472 289.436H212.472V290.436H213.472V289.436ZM220.435 289.436H221.435V288.436H220.435V289.436ZM220.435 292.092V293.092H221.435V292.092H220.435ZM213.472 292.092V291.092H212.472V292.092H213.472ZM215.482 297.907L214.823 298.66L214.83 298.666L215.482 297.907ZM221.153 299.774H222.153V298.803L221.183 298.774L221.153 299.774ZM221.153 302.358L221.141 303.358L222.153 303.37V302.358H221.153ZM215.661 301.21L215.23 302.112L215.241 302.117L215.661 301.21ZM211.964 298.015L212.81 297.481L211.925 296.08L211.098 297.516L211.964 298.015ZM208.231 301.317L207.805 300.413L207.8 300.415L208.231 301.317ZM228.475 310.327V309.327H227.475V310.327H228.475ZM231.419 310.327H232.419V309.327H231.419V310.327ZM231.419 318.905V319.905H232.419V318.905H231.419ZM216.559 318.475L217.266 317.768L217.266 317.768L216.559 318.475ZM216.164 305.732V304.732H215.164V305.732H216.164ZM231.419 305.732H232.419V304.732H231.419V305.732ZM231.419 308.388V309.388H232.419V308.388H231.419ZM219.107 308.388V307.388H218.107V308.388H219.107ZM219.107 316.249H218.107V317.249H219.107V316.249ZM228.475 316.249V317.249H229.475V316.249H228.475ZM234.972 302.502L235.037 301.504C233.413 301.398 232.264 300.834 231.467 299.884L230.701 300.528L229.935 301.171C231.147 302.614 232.846 303.366 234.908 303.5L234.972 302.502ZM230.701 300.528L231.473 299.892C230.667 298.913 230.193 297.437 230.193 295.323H229.193H228.193C228.193 297.708 228.725 299.701 229.929 301.163L230.701 300.528ZM229.193 295.323H230.193V292.092H229.193H228.193V295.323H229.193ZM229.193 292.092V291.092H222.266V292.092V293.092H229.193V292.092ZM222.266 292.092H223.266V289.436H222.266H221.266V292.092H222.266ZM222.266 289.436V290.436H229.193V289.436V288.436H222.266V289.436ZM229.193 289.436H230.193V280.032H229.193H228.193V289.436H229.193ZM229.193 280.032V281.032H232.137V280.032V279.032H229.193V280.032ZM232.137 280.032H231.137V294.749H232.137H233.137V280.032H232.137ZM232.137 294.749H231.137C231.137 296.32 231.384 297.678 231.972 298.734C232.582 299.831 233.527 300.542 234.75 300.821L234.972 299.846L235.194 298.871C234.527 298.718 234.054 298.364 233.719 297.762C233.362 297.119 233.137 296.144 233.137 294.749H232.137ZM234.972 299.846H233.972V302.502H234.972H235.972V299.846H234.972ZM199.365 302.502H200.365V299.846H199.365H198.365V302.502H199.365ZM199.365 299.846V300.846H202.165V299.846V298.846H199.365V299.846ZM202.165 299.846V300.846C204.933 300.846 207.223 300.23 208.9 298.861L208.267 298.087L207.634 297.312C206.439 298.288 204.662 298.846 202.165 298.846V299.846ZM208.267 298.087L208.907 298.855C210.607 297.438 211.421 295.461 211.421 293.062H210.421H209.421C209.421 294.969 208.798 296.342 207.627 297.319L208.267 298.087ZM210.421 293.062H211.421V292.092H210.421H209.421V293.062H210.421ZM210.421 292.092V291.092H203.242V292.092V293.092H210.421V292.092ZM203.242 292.092H204.242V289.436H203.242H202.242V292.092H203.242ZM203.242 289.436V290.436H210.421V289.436V288.436H203.242V289.436ZM210.421 289.436H211.421V284.77H210.421H209.421V289.436H210.421ZM210.421 284.77V285.77H213.472V284.77V283.77H210.421V284.77ZM213.472 284.77H212.472V289.436H213.472H214.472V284.77H213.472ZM213.472 289.436V290.436H220.435V289.436V288.436H213.472V289.436ZM220.435 289.436H219.435V292.092H220.435H221.435V289.436H220.435ZM220.435 292.092V291.092H213.472V292.092V293.092H220.435V292.092ZM213.472 292.092H212.472V293.062H213.472H214.472V292.092H213.472ZM213.472 293.062H212.472C212.472 295.358 213.231 297.267 214.823 298.66L215.482 297.907L216.14 297.155C215.052 296.202 214.472 294.881 214.472 293.062H213.472ZM215.482 297.907L214.83 298.666C216.419 300.032 218.556 300.697 221.123 300.773L221.153 299.774L221.183 298.774C218.916 298.707 217.272 298.128 216.134 297.149L215.482 297.907ZM221.153 299.774H220.153V302.358H221.153H222.153V299.774H221.153ZM221.153 302.358L221.165 301.358C219.225 301.336 217.537 300.976 216.081 300.302L215.661 301.21L215.241 302.117C216.992 302.927 218.965 303.333 221.141 303.358L221.153 302.358ZM215.661 301.21L216.092 300.307C214.641 299.614 213.56 298.67 212.81 297.481L211.964 298.015L211.119 298.549C212.091 300.088 213.475 301.273 215.23 302.112L215.661 301.21ZM211.964 298.015L211.098 297.516C210.399 298.727 209.321 299.698 207.805 300.413L208.231 301.317L208.658 302.222C210.491 301.357 211.902 300.126 212.831 298.514L211.964 298.015ZM208.231 301.317L207.8 300.415C206.305 301.13 204.554 301.502 202.524 301.502V302.502V303.502C204.801 303.502 206.855 303.084 208.663 302.219L208.231 301.317ZM202.524 302.502V301.502H199.365V302.502V303.502H202.524V302.502ZM228.475 310.327V311.327H231.419V310.327V309.327H228.475V310.327ZM231.419 310.327H230.419V318.905H231.419H232.419V310.327H231.419ZM231.419 318.905V317.905H217.779V318.905V319.905H231.419V318.905ZM217.779 318.905V317.905C217.436 317.905 217.314 317.816 217.266 317.768L216.559 318.475L215.851 319.182C216.377 319.707 217.069 319.905 217.779 319.905V318.905ZM216.559 318.475L217.266 317.768C217.256 317.758 217.164 317.662 217.164 317.29H216.164H215.164C215.164 317.971 215.335 318.665 215.851 319.182L216.559 318.475ZM216.164 317.29H217.164V305.732H216.164H215.164V317.29H216.164ZM216.164 305.732V306.732H231.419V305.732V304.732H216.164V305.732ZM231.419 305.732H230.419V308.388H231.419H232.419V305.732H231.419ZM231.419 308.388V307.388H219.107V308.388V309.388H231.419V308.388ZM219.107 308.388H218.107V316.249H219.107H220.107V308.388H219.107ZM219.107 316.249V317.249H228.475V316.249V315.249H219.107V316.249ZM228.475 316.249H229.475V310.327H228.475H227.475V316.249H228.475ZM269.798 302.502L269.733 303.5L270.798 303.569V302.502H269.798ZM265.527 300.528L264.755 301.163L264.761 301.171L265.527 300.528ZM264.019 290.908H265.019V289.908H264.019V290.908ZM256.015 290.908H255.015V291.908H256.015V290.908ZM256.015 288.252V287.252H255.015V288.252H256.015ZM264.019 288.252V289.252H265.019V288.252H264.019ZM264.019 280.032V279.032H263.019V280.032H264.019ZM266.962 280.032H267.962V279.032H266.962V280.032ZM269.798 299.846H270.798V299.048L270.02 298.871L269.798 299.846ZM250.415 286.565V285.565H249.415V286.565H250.415ZM253.359 286.565H254.359V285.565H253.359V286.565ZM253.359 302.502V303.502H254.359V302.502H253.359ZM234.909 302.502H233.909V303.502H234.909V302.502ZM234.909 299.846V298.846H233.909V299.846H234.909ZM239.791 299.846V300.846H242.051L240.53 299.173L239.791 299.846ZM239.252 298.876L238.293 299.159L238.295 299.167L238.298 299.175L239.252 298.876ZM239.073 286.565V285.565H238.073V286.565H239.073ZM242.016 286.565H243.016V285.565H242.016V286.565ZM242.016 292.021H241.016V293.021H242.016V292.021ZM248.405 292.021H249.405V291.021H248.405V292.021ZM248.405 294.677V295.677H249.405V294.677H248.405ZM242.016 294.677V293.677H241.016V294.677H242.016ZM242.519 299.271L241.766 299.93L241.777 299.943L241.789 299.955L242.519 299.271ZM250.415 299.846V300.846H251.415V299.846H250.415ZM255.476 318.403L255.946 317.52L255.939 317.516L255.931 317.512L255.476 318.403ZM252.82 315.962L251.959 316.471L251.963 316.478L251.968 316.485L252.82 315.962ZM252.82 308.855L251.968 308.332L251.963 308.339L251.959 308.346L252.82 308.855ZM255.476 306.414L255.931 307.305L255.939 307.301L255.946 307.297L255.476 306.414ZM265.922 305.517H266.922V304.517H265.922V305.517ZM265.922 308.173V309.173H266.922V308.173H265.922ZM256.087 309.358L256.773 310.085L256.773 310.085L256.087 309.358ZM256.087 315.46L256.773 314.732L256.773 314.732L256.087 315.46ZM262.512 315.46L261.826 314.732L261.826 314.732L262.512 315.46ZM263.588 311.152L262.629 311.434L263.588 311.152ZM263.122 310.111V309.111H261.253L262.29 310.666L263.122 310.111ZM266.029 310.111L266.87 309.571L266.575 309.111H266.029V310.111ZM265.742 315.962L264.89 315.439L264.885 315.446L264.881 315.453L265.742 315.962ZM263.122 318.403L262.667 317.512L262.66 317.516L262.652 317.52L263.122 318.403ZM269.798 302.502L269.863 301.504C268.239 301.398 267.09 300.834 266.292 299.884L265.527 300.528L264.761 301.171C265.973 302.614 267.672 303.366 269.733 303.5L269.798 302.502ZM265.527 300.528L266.299 299.892C265.492 298.913 265.019 297.437 265.019 295.323H264.019H263.019C263.019 297.708 263.551 299.701 264.755 301.163L265.527 300.528ZM264.019 295.323H265.019V290.908H264.019H263.019V295.323H264.019ZM264.019 290.908V289.908H256.015V290.908V291.908H264.019V290.908ZM256.015 290.908H257.015V288.252H256.015H255.015V290.908H256.015ZM256.015 288.252V289.252H264.019V288.252V287.252H256.015V288.252ZM264.019 288.252H265.019V280.032H264.019H263.019V288.252H264.019ZM264.019 280.032V281.032H266.962V280.032V279.032H264.019V280.032ZM266.962 280.032H265.962V294.749H266.962H267.962V280.032H266.962ZM266.962 294.749H265.962C265.962 296.32 266.21 297.678 266.798 298.734C267.408 299.831 268.353 300.542 269.576 300.821L269.798 299.846L270.02 298.871C269.353 298.718 268.88 298.364 268.545 297.762C268.188 297.119 267.962 296.144 267.962 294.749H266.962ZM269.798 299.846H268.798V302.502H269.798H270.798V299.846H269.798ZM250.415 286.565V287.565H253.359V286.565V285.565H250.415V286.565ZM253.359 286.565H252.359V302.502H253.359H254.359V286.565H253.359ZM253.359 302.502V301.502H234.909V302.502V303.502H253.359V302.502ZM234.909 302.502H235.909V299.846H234.909H233.909V302.502H234.909ZM234.909 299.846V300.846H239.791V299.846V298.846H234.909V299.846ZM239.791 299.846L240.53 299.173C240.401 299.03 240.288 298.84 240.207 298.578L239.252 298.876L238.298 299.175C238.455 299.679 238.702 300.134 239.051 300.518L239.791 299.846ZM239.252 298.876L240.212 298.594C240.129 298.314 240.073 297.892 240.073 297.297H239.073H238.073C238.073 297.994 238.136 298.626 238.293 299.159L239.252 298.876ZM239.073 297.297H240.073V286.565H239.073H238.073V297.297H239.073ZM239.073 286.565V287.565H242.016V286.565V285.565H239.073V286.565ZM242.016 286.565H241.016V292.021H242.016H243.016V286.565H242.016ZM242.016 292.021V293.021H248.405V292.021V291.021H242.016V292.021ZM248.405 292.021H247.405V294.677H248.405H249.405V292.021H248.405ZM248.405 294.677V293.677H242.016V294.677V295.677H248.405V294.677ZM242.016 294.677H241.016V297.441H242.016H243.016V294.677H242.016ZM242.016 297.441H241.016C241.016 298.374 241.196 299.279 241.766 299.93L242.519 299.271L243.271 298.613C243.171 298.498 243.016 298.182 243.016 297.441H242.016ZM242.519 299.271L241.789 299.955C242.399 300.605 243.245 300.846 244.134 300.846V299.846V298.846C243.587 298.846 243.356 298.703 243.248 298.587L242.519 299.271ZM244.134 299.846V300.846H250.415V299.846V298.846H244.134V299.846ZM250.415 299.846H251.415V286.565H250.415H249.415V299.846H250.415ZM259.281 319.3V318.3C258.015 318.3 256.911 318.033 255.946 317.52L255.476 318.403L255.007 319.286C256.291 319.969 257.724 320.3 259.281 320.3V319.3ZM255.476 318.403L255.931 317.512C254.966 317.02 254.22 316.332 253.672 315.439L252.82 315.962L251.968 316.485C252.712 317.698 253.737 318.637 255.022 319.293L255.476 318.403ZM252.82 315.962L253.681 315.453C253.157 314.566 252.887 313.56 252.887 312.409H251.887H250.887C250.887 313.889 251.239 315.252 251.959 316.471L252.82 315.962ZM251.887 312.409H252.887C252.887 311.257 253.157 310.251 253.681 309.364L252.82 308.855L251.959 308.346C251.239 309.565 250.887 310.928 250.887 312.409H251.887ZM252.82 308.855L253.672 309.378C254.22 308.486 254.966 307.797 255.931 307.305L255.476 306.414L255.022 305.524C253.737 306.18 252.712 307.119 251.968 308.332L252.82 308.855ZM255.476 306.414L255.946 307.297C256.911 306.784 258.015 306.517 259.281 306.517V305.517V304.517C257.724 304.517 256.291 304.848 255.007 305.531L255.476 306.414ZM259.281 305.517V306.517H265.922V305.517V304.517H259.281V305.517ZM265.922 305.517H264.922V308.173H265.922H266.922V305.517H265.922ZM265.922 308.173V307.173H259.281V308.173V309.173H265.922V308.173ZM259.281 308.173V307.173C257.768 307.173 256.447 307.643 255.401 308.63L256.087 309.358L256.773 310.085C257.401 309.492 258.21 309.173 259.281 309.173V308.173ZM256.087 309.358L255.401 308.63C254.345 309.625 253.83 310.914 253.83 312.409H254.83H255.83C255.83 311.415 256.153 310.669 256.773 310.085L256.087 309.358ZM254.83 312.409H253.83C253.83 313.903 254.345 315.192 255.401 316.187L256.087 315.46L256.773 314.732C256.153 314.148 255.83 313.402 255.83 312.409H254.83ZM256.087 315.46L255.401 316.187C256.447 317.174 257.768 317.644 259.281 317.644V316.644V315.644C258.21 315.644 257.401 315.325 256.773 314.732L256.087 315.46ZM259.281 316.644V317.644C260.813 317.644 262.148 317.177 263.198 316.187L262.512 315.46L261.826 314.732C261.2 315.321 260.382 315.644 259.281 315.644V316.644ZM262.512 315.46L263.198 316.187C264.253 315.192 264.768 313.903 264.768 312.409H263.768H262.768C262.768 313.402 262.445 314.148 261.826 314.732L262.512 315.46ZM263.768 312.409H264.768C264.768 311.884 264.695 311.37 264.548 310.87L263.588 311.152L262.629 311.434C262.721 311.748 262.768 312.072 262.768 312.409H263.768ZM263.588 311.152L264.548 310.87C264.406 310.388 264.212 309.944 263.954 309.557L263.122 310.111L262.29 310.666C262.414 310.853 262.532 311.103 262.629 311.434L263.588 311.152ZM263.122 310.111V311.111H266.029V310.111V309.111H263.122V310.111ZM266.029 310.111L265.188 310.652C265.367 310.93 265.499 311.197 265.59 311.453L266.532 311.116L267.474 310.78C267.325 310.365 267.122 309.962 266.87 309.571L266.029 310.111ZM266.532 311.116L265.59 311.453C265.657 311.641 265.711 311.947 265.711 312.409H266.711H267.711C267.711 311.817 267.645 311.262 267.474 310.78L266.532 311.116ZM266.711 312.409H265.711C265.711 313.553 265.433 314.554 264.89 315.439L265.742 315.962L266.594 316.485C267.343 315.264 267.711 313.897 267.711 312.409H266.711ZM265.742 315.962L264.881 315.453C264.359 316.337 263.629 317.021 262.667 317.512L263.122 318.403L263.577 319.293C264.864 318.636 265.881 317.692 266.603 316.471L265.742 315.962ZM263.122 318.403L262.652 317.52C261.69 318.032 260.574 318.3 259.281 318.3V319.3V320.3C260.86 320.3 262.305 319.97 263.591 319.286L263.122 318.403ZM305.324 302.502L305.259 303.5L306.324 303.569V302.502H305.324ZM301.052 300.528L300.28 301.163L300.287 301.171L301.052 300.528ZM299.545 292.092H300.545V291.092H299.545V292.092ZM292.617 292.092H291.617V293.092H292.617V292.092ZM292.617 289.436V288.436H291.617V289.436H292.617ZM299.545 289.436V290.436H300.545V289.436H299.545ZM299.545 280.032V279.032H298.545V280.032H299.545ZM302.488 280.032H303.488V279.032H302.488V280.032ZM305.324 299.846H306.324V299.048L305.546 298.871L305.324 299.846ZM269.717 302.502H268.717V303.502H269.717V302.502ZM269.717 299.846V298.846H268.717V299.846H269.717ZM278.618 298.087L279.251 298.861L279.258 298.855L278.618 298.087ZM280.772 292.092H281.772V291.092H280.772V292.092ZM273.593 292.092H272.593V293.092H273.593V292.092ZM273.593 289.436V288.436H272.593V289.436H273.593ZM280.772 289.436V290.436H281.772V289.436H280.772ZM280.772 284.77V283.77H279.772V284.77H280.772ZM283.823 284.77H284.823V283.77H283.823V284.77ZM283.823 289.436H282.823V290.436H283.823V289.436ZM290.786 289.436H291.786V288.436H290.786V289.436ZM290.786 292.092V293.092H291.786V292.092H290.786ZM283.823 292.092V291.092H282.823V292.092H283.823ZM285.833 297.907L285.175 298.66L285.181 298.666L285.833 297.907ZM291.504 299.774H292.504V298.803L291.534 298.774L291.504 299.774ZM291.504 302.358L291.493 303.358L292.504 303.37V302.358H291.504ZM286.013 301.21L285.582 302.112L285.593 302.117L286.013 301.21ZM282.315 298.015L283.161 297.481L282.276 296.08L281.449 297.516L282.315 298.015ZM278.582 301.317L278.156 300.413L278.151 300.415L278.582 301.317ZM290.607 318.295L291.077 317.412L291.07 317.409L290.607 318.295ZM287.987 315.89L287.131 316.408L287.135 316.415L287.14 316.422L287.987 315.89ZM287.987 308.855L287.134 308.332L287.131 308.338L287.987 308.855ZM290.607 306.414L291.07 307.301L291.077 307.297L290.607 306.414ZM301.016 305.517H302.016V304.517H301.016V305.517ZM301.016 308.173V309.173H302.016V308.173H301.016ZM291.253 309.358L291.939 310.085L291.939 310.085L291.253 309.358ZM291.253 315.352L291.939 314.624L291.934 314.619L291.928 314.614L291.253 315.352ZM297.57 315.352L296.896 314.614L296.885 314.624L296.874 314.634L297.57 315.352ZM298.647 311.116L297.674 311.345L297.68 311.372L297.688 311.398L298.647 311.116ZM298.217 310.111V309.111H296.253L297.408 310.699L298.217 310.111ZM301.124 310.111L301.936 309.527L301.636 309.111H301.124V310.111ZM300.837 315.89L301.693 316.408L301.693 316.408L300.837 315.89ZM298.217 318.295L297.762 317.405L297.754 317.408L297.747 317.412L298.217 318.295ZM305.324 302.502L305.388 301.504C303.765 301.398 302.616 300.834 301.818 299.884L301.052 300.528L300.287 301.171C301.499 302.614 303.198 303.366 305.259 303.5L305.324 302.502ZM301.052 300.528L301.824 299.892C301.018 298.913 300.545 297.437 300.545 295.323H299.545H298.545C298.545 297.708 299.076 299.701 300.28 301.163L301.052 300.528ZM299.545 295.323H300.545V292.092H299.545H298.545V295.323H299.545ZM299.545 292.092V291.092H292.617V292.092V293.092H299.545V292.092ZM292.617 292.092H293.617V289.436H292.617H291.617V292.092H292.617ZM292.617 289.436V290.436H299.545V289.436V288.436H292.617V289.436ZM299.545 289.436H300.545V280.032H299.545H298.545V289.436H299.545ZM299.545 280.032V281.032H302.488V280.032V279.032H299.545V280.032ZM302.488 280.032H301.488V294.749H302.488H303.488V280.032H302.488ZM302.488 294.749H301.488C301.488 296.32 301.735 297.678 302.323 298.734C302.933 299.831 303.879 300.542 305.101 300.821L305.324 299.846L305.546 298.871C304.878 298.718 304.406 298.364 304.071 297.762C303.713 297.119 303.488 296.144 303.488 294.749H302.488ZM305.324 299.846H304.324V302.502H305.324H306.324V299.846H305.324ZM269.717 302.502H270.717V299.846H269.717H268.717V302.502H269.717ZM269.717 299.846V300.846H272.516V299.846V298.846H269.717V299.846ZM272.516 299.846V300.846C275.284 300.846 277.575 300.23 279.251 298.861L278.618 298.087L277.986 297.312C276.79 298.288 275.013 298.846 272.516 298.846V299.846ZM278.618 298.087L279.258 298.855C280.958 297.438 281.772 295.461 281.772 293.062H280.772H279.772C279.772 294.969 279.15 296.342 277.978 297.319L278.618 298.087ZM280.772 293.062H281.772V292.092H280.772H279.772V293.062H280.772ZM280.772 292.092V291.092H273.593V292.092V293.092H280.772V292.092ZM273.593 292.092H274.593V289.436H273.593H272.593V292.092H273.593ZM273.593 289.436V290.436H280.772V289.436V288.436H273.593V289.436ZM280.772 289.436H281.772V284.77H280.772H279.772V289.436H280.772ZM280.772 284.77V285.77H283.823V284.77V283.77H280.772V284.77ZM283.823 284.77H282.823V289.436H283.823H284.823V284.77H283.823ZM283.823 289.436V290.436H290.786V289.436V288.436H283.823V289.436ZM290.786 289.436H289.786V292.092H290.786H291.786V289.436H290.786ZM290.786 292.092V291.092H283.823V292.092V293.092H290.786V292.092ZM283.823 292.092H282.823V293.062H283.823H284.823V292.092H283.823ZM283.823 293.062H282.823C282.823 295.358 283.583 297.267 285.175 298.66L285.833 297.907L286.492 297.155C285.403 296.202 284.823 294.881 284.823 293.062H283.823ZM285.833 297.907L285.181 298.666C286.77 300.032 288.908 300.697 291.475 300.773L291.504 299.774L291.534 298.774C289.267 298.707 287.624 298.128 286.485 297.149L285.833 297.907ZM291.504 299.774H290.504V302.358H291.504H292.504V299.774H291.504ZM291.504 302.358L291.516 301.358C289.576 301.336 287.888 300.976 286.432 300.302L286.013 301.21L285.593 302.117C287.343 302.927 289.317 303.333 291.493 303.358L291.504 302.358ZM286.013 301.21L286.444 300.307C284.993 299.614 283.912 298.67 283.161 297.481L282.315 298.015L281.47 298.549C282.442 300.088 283.826 301.273 285.582 302.112L286.013 301.21ZM282.315 298.015L281.449 297.516C280.751 298.727 279.673 299.698 278.156 300.413L278.582 301.317L279.009 302.222C280.842 301.357 282.253 300.126 283.182 298.514L282.315 298.015ZM278.582 301.317L278.151 300.415C276.656 301.13 274.906 301.502 272.875 301.502V302.502V303.502C275.152 303.502 277.206 303.084 279.014 302.219L278.582 301.317ZM272.875 302.502V301.502H269.717V302.502V303.502H272.875V302.502ZM294.412 319.193V318.193C293.146 318.193 292.042 317.926 291.077 317.412L290.607 318.295L290.137 319.178C291.422 319.861 292.854 320.193 294.412 320.193V319.193ZM290.607 318.295L291.07 317.409C290.123 316.914 289.383 316.234 288.834 315.358L287.987 315.89L287.14 316.422C287.882 317.605 288.89 318.527 290.144 319.182L290.607 318.295ZM287.987 315.89L288.842 315.373C288.323 314.515 288.053 313.524 288.053 312.373H287.053H286.053C286.053 313.853 286.406 315.208 287.131 316.408L287.987 315.89ZM287.053 312.373H288.053C288.053 311.221 288.323 310.231 288.842 309.372L287.987 308.855L287.131 308.338C286.406 309.537 286.053 310.892 286.053 312.373H287.053ZM287.987 308.855L288.839 309.378C289.39 308.48 290.128 307.792 291.07 307.301L290.607 306.414L290.144 305.528C288.884 306.185 287.876 307.124 287.134 308.332L287.987 308.855ZM290.607 306.414L291.077 307.297C292.042 306.784 293.146 306.517 294.412 306.517V305.517V304.517C292.854 304.517 291.422 304.848 290.137 305.531L290.607 306.414ZM294.412 305.517V306.517H301.016V305.517V304.517H294.412V305.517ZM301.016 305.517H300.016V308.173H301.016H302.016V305.517H301.016ZM301.016 308.173V307.173H294.412V308.173V309.173H301.016V308.173ZM294.412 308.173V307.173C292.917 307.173 291.61 307.647 290.567 308.63L291.253 309.358L291.939 310.085C292.571 309.489 293.37 309.173 294.412 309.173V308.173ZM291.253 309.358L290.567 308.63C289.516 309.621 288.997 310.895 288.997 312.373H289.997H290.997C290.997 311.409 291.315 310.673 291.939 310.085L291.253 309.358ZM289.997 312.373H288.997C288.997 313.85 289.517 315.119 290.578 316.09L291.253 315.352L291.928 314.614C291.314 314.053 290.997 313.336 290.997 312.373H289.997ZM291.253 315.352L290.567 316.079C291.61 317.063 292.917 317.536 294.412 317.536V316.536V315.536C293.37 315.536 292.571 315.221 291.939 314.624L291.253 315.352ZM294.412 316.536V317.536C295.925 317.536 297.24 317.066 298.267 316.069L297.57 315.352L296.874 314.634C296.273 315.217 295.483 315.536 294.412 315.536V316.536ZM297.57 315.352L298.245 316.09C299.307 315.119 299.827 313.85 299.827 312.373H298.827H297.827C297.827 313.336 297.509 314.053 296.896 314.614L297.57 315.352ZM298.827 312.373H299.827C299.827 311.848 299.754 311.334 299.607 310.834L298.647 311.116L297.688 311.398C297.78 311.712 297.827 312.036 297.827 312.373H298.827ZM298.647 311.116L299.621 310.887C299.503 310.386 299.314 309.92 299.025 309.523L298.217 310.111L297.408 310.699C297.502 310.829 297.6 311.033 297.674 311.345L298.647 311.116ZM298.217 310.111V311.111H301.124V310.111V309.111H298.217V310.111ZM301.124 310.111L300.312 310.696C300.595 311.087 300.77 311.623 300.77 312.373H301.77H302.77C302.77 311.303 302.515 310.332 301.936 309.527L301.124 310.111ZM301.77 312.373H300.77C300.77 313.524 300.5 314.515 299.981 315.373L300.837 315.89L301.693 316.408C302.418 315.208 302.77 313.853 302.77 312.373H301.77ZM300.837 315.89L299.981 315.373C299.46 316.234 298.729 316.91 297.762 317.405L298.217 318.295L298.671 319.186C299.953 318.531 300.969 317.604 301.693 316.408L300.837 315.89ZM298.217 318.295L297.747 317.412C296.782 317.926 295.678 318.193 294.412 318.193V319.193V320.193C295.969 320.193 297.402 319.861 298.686 319.178L298.217 318.295ZM340.149 302.502L340.085 303.5L341.149 303.569V302.502H340.149ZM335.878 300.528L335.106 301.163L335.112 301.171L335.878 300.528ZM334.37 290.908H335.37V289.908H334.37V290.908ZM326.366 290.908H325.366V291.908H326.366V290.908ZM326.366 288.252V287.252H325.366V288.252H326.366ZM334.37 288.252V289.252H335.37V288.252H334.37ZM334.37 280.032V279.032H333.37V280.032H334.37ZM337.314 280.032H338.314V279.032H337.314V280.032ZM340.149 299.846H341.149V299.048L340.372 298.871L340.149 299.846ZM320.767 286.565V285.565H319.767V286.565H320.767ZM323.71 286.565H324.71V285.565H323.71V286.565ZM323.71 302.502V303.502H324.71V302.502H323.71ZM305.26 302.502H304.26V303.502H305.26V302.502ZM305.26 299.846V298.846H304.26V299.846H305.26ZM310.142 299.846V300.846H312.402L310.882 299.173L310.142 299.846ZM309.603 298.876L308.644 299.159L308.646 299.167L308.649 299.175L309.603 298.876ZM309.424 286.565V285.565H308.424V286.565H309.424ZM312.367 286.565H313.367V285.565H312.367V286.565ZM312.367 292.021H311.367V293.021H312.367V292.021ZM318.756 292.021H319.756V291.021H318.756V292.021ZM318.756 294.677V295.677H319.756V294.677H318.756ZM312.367 294.677V293.677H311.367V294.677H312.367ZM312.87 299.271L312.117 299.93L312.129 299.943L312.14 299.955L312.87 299.271ZM320.767 299.846V300.846H321.767V299.846H320.767ZM325.828 318.403L326.297 317.52L326.29 317.516L326.282 317.512L325.828 318.403ZM323.171 315.962L322.311 316.471L322.315 316.478L322.319 316.485L323.171 315.962ZM323.171 308.855L322.319 308.332L322.315 308.339L322.311 308.346L323.171 308.855ZM325.828 306.414L326.282 307.305L326.29 307.301L326.297 307.297L325.828 306.414ZM336.273 305.517H337.273V304.517H336.273V305.517ZM336.273 308.173V309.173H337.273V308.173H336.273ZM326.438 309.358L327.124 310.085L327.124 310.085L326.438 309.358ZM326.438 315.46L327.124 314.732L327.124 314.732L326.438 315.46ZM332.863 315.46L332.177 314.732L332.177 314.732L332.863 315.46ZM333.94 311.152L332.98 311.434L333.94 311.152ZM333.473 310.111V309.111H331.605L332.641 310.666L333.473 310.111ZM336.381 310.111L337.222 309.571L336.927 309.111H336.381V310.111ZM336.093 315.962L335.241 315.439L335.237 315.446L335.232 315.453L336.093 315.962ZM333.473 318.403L333.018 317.512L333.011 317.516L333.004 317.52L333.473 318.403ZM340.149 302.502L340.214 301.504C338.59 301.398 337.442 300.834 336.644 299.884L335.878 300.528L335.112 301.171C336.325 302.614 338.023 303.366 340.085 303.5L340.149 302.502ZM335.878 300.528L336.65 299.892C335.844 298.913 335.37 297.437 335.37 295.323H334.37H333.37C333.37 297.708 333.902 299.701 335.106 301.163L335.878 300.528ZM334.37 295.323H335.37V290.908H334.37H333.37V295.323H334.37ZM334.37 290.908V289.908H326.366V290.908V291.908H334.37V290.908ZM326.366 290.908H327.366V288.252H326.366H325.366V290.908H326.366ZM326.366 288.252V289.252H334.37V288.252V287.252H326.366V288.252ZM334.37 288.252H335.37V280.032H334.37H333.37V288.252H334.37ZM334.37 280.032V281.032H337.314V280.032V279.032H334.37V280.032ZM337.314 280.032H336.314V294.749H337.314H338.314V280.032H337.314ZM337.314 294.749H336.314C336.314 296.32 336.561 297.678 337.149 298.734C337.759 299.831 338.704 300.542 339.927 300.821L340.149 299.846L340.372 298.871C339.704 298.718 339.232 298.364 338.897 297.762C338.539 297.119 338.314 296.144 338.314 294.749H337.314ZM340.149 299.846H339.149V302.502H340.149H341.149V299.846H340.149ZM320.767 286.565V287.565H323.71V286.565V285.565H320.767V286.565ZM323.71 286.565H322.71V302.502H323.71H324.71V286.565H323.71ZM323.71 302.502V301.502H305.26V302.502V303.502H323.71V302.502ZM305.26 302.502H306.26V299.846H305.26H304.26V302.502H305.26ZM305.26 299.846V300.846H310.142V299.846V298.846H305.26V299.846ZM310.142 299.846L310.882 299.173C310.752 299.03 310.64 298.84 310.558 298.578L309.603 298.876L308.649 299.175C308.806 299.679 309.053 300.134 309.402 300.518L310.142 299.846ZM309.603 298.876L310.563 298.594C310.48 298.314 310.424 297.892 310.424 297.297H309.424H308.424C308.424 297.994 308.487 298.626 308.644 299.159L309.603 298.876ZM309.424 297.297H310.424V286.565H309.424H308.424V297.297H309.424ZM309.424 286.565V287.565H312.367V286.565V285.565H309.424V286.565ZM312.367 286.565H311.367V292.021H312.367H313.367V286.565H312.367ZM312.367 292.021V293.021H318.756V292.021V291.021H312.367V292.021ZM318.756 292.021H317.756V294.677H318.756H319.756V292.021H318.756ZM318.756 294.677V293.677H312.367V294.677V295.677H318.756V294.677ZM312.367 294.677H311.367V297.441H312.367H313.367V294.677H312.367ZM312.367 297.441H311.367C311.367 298.374 311.547 299.279 312.117 299.93L312.87 299.271L313.622 298.613C313.522 298.498 313.367 298.182 313.367 297.441H312.367ZM312.87 299.271L312.14 299.955C312.75 300.605 313.596 300.846 314.485 300.846V299.846V298.846C313.938 298.846 313.708 298.703 313.599 298.587L312.87 299.271ZM314.485 299.846V300.846H320.767V299.846V298.846H314.485V299.846ZM320.767 299.846H321.767V286.565H320.767H319.767V299.846H320.767ZM329.632 319.3V318.3C328.366 318.3 327.262 318.033 326.297 317.52L325.828 318.403L325.358 319.286C326.642 319.969 328.075 320.3 329.632 320.3V319.3ZM325.828 318.403L326.282 317.512C325.318 317.02 324.571 316.332 324.024 315.439L323.171 315.962L322.319 316.485C323.064 317.698 324.088 318.637 325.373 319.293L325.828 318.403ZM323.171 315.962L324.032 315.453C323.508 314.566 323.238 313.56 323.238 312.409H322.238H321.238C321.238 313.889 321.59 315.252 322.311 316.471L323.171 315.962ZM322.238 312.409H323.238C323.238 311.257 323.508 310.251 324.032 309.364L323.171 308.855L322.311 308.346C321.59 309.565 321.238 310.928 321.238 312.409H322.238ZM323.171 308.855L324.024 309.378C324.571 308.486 325.318 307.797 326.282 307.305L325.828 306.414L325.373 305.524C324.088 306.18 323.064 307.119 322.319 308.332L323.171 308.855ZM325.828 306.414L326.297 307.297C327.262 306.784 328.366 306.517 329.632 306.517V305.517V304.517C328.075 304.517 326.642 304.848 325.358 305.531L325.828 306.414ZM329.632 305.517V306.517H336.273V305.517V304.517H329.632V305.517ZM336.273 305.517H335.273V308.173H336.273H337.273V305.517H336.273ZM336.273 308.173V307.173H329.632V308.173V309.173H336.273V308.173ZM329.632 308.173V307.173C328.119 307.173 326.798 307.643 325.752 308.63L326.438 309.358L327.124 310.085C327.753 309.492 328.561 309.173 329.632 309.173V308.173ZM326.438 309.358L325.752 308.63C324.697 309.625 324.182 310.914 324.182 312.409H325.182H326.182C326.182 311.415 326.504 310.669 327.124 310.085L326.438 309.358ZM325.182 312.409H324.182C324.182 313.903 324.697 315.192 325.752 316.187L326.438 315.46L327.124 314.732C326.504 314.148 326.182 313.402 326.182 312.409H325.182ZM326.438 315.46L325.752 316.187C326.798 317.174 328.119 317.644 329.632 317.644V316.644V315.644C328.561 315.644 327.753 315.325 327.124 314.732L326.438 315.46ZM329.632 316.644V317.644C331.164 317.644 332.499 317.177 333.549 316.187L332.863 315.46L332.177 314.732C331.552 315.321 330.733 315.644 329.632 315.644V316.644ZM332.863 315.46L333.549 316.187C334.604 315.192 335.119 313.903 335.119 312.409H334.119H333.119C333.119 313.402 332.797 314.148 332.177 314.732L332.863 315.46ZM334.119 312.409H335.119C335.119 311.884 335.046 311.37 334.899 310.87L333.94 311.152L332.98 311.434C333.073 311.748 333.119 312.072 333.119 312.409H334.119ZM333.94 311.152L334.899 310.87C334.757 310.388 334.564 309.944 334.305 309.557L333.473 310.111L332.641 310.666C332.765 310.853 332.883 311.103 332.98 311.434L333.94 311.152ZM333.473 310.111V311.111H336.381V310.111V309.111H333.473V310.111ZM336.381 310.111L335.539 310.652C335.718 310.93 335.85 311.197 335.941 311.453L336.883 311.116L337.825 310.78C337.677 310.365 337.473 309.962 337.222 309.571L336.381 310.111ZM336.883 311.116L335.941 311.453C336.009 311.641 336.063 311.947 336.063 312.409H337.063H338.063C338.063 311.817 337.997 311.262 337.825 310.78L336.883 311.116ZM337.063 312.409H336.063C336.063 313.553 335.784 314.554 335.241 315.439L336.093 315.962L336.946 316.485C337.695 315.264 338.063 313.897 338.063 312.409H337.063ZM336.093 315.962L335.232 315.453C334.71 316.337 333.98 317.021 333.018 317.512L333.473 318.403L333.928 319.293C335.216 318.636 336.232 317.692 336.954 316.471L336.093 315.962ZM333.473 318.403L333.004 317.52C332.041 318.032 330.926 318.3 329.632 318.3V319.3V320.3C331.211 320.3 332.656 319.97 333.943 319.286L333.473 318.403Z" fill="black" fill-opacity="0.47" mask="url(#path-1-outside-1_33_528)"/>
<circle cx="375.8" cy="254.905" r="8.52173" fill="#B0FFFB"/>
<circle cx="375.8" cy="254.905" r="8.02173" stroke="black" stroke-opacity="0.25"/>
<circle cx="415.055" cy="357.977" r="8.52173" fill="#B0FFFB"/>
<circle cx="415.055" cy="357.977" r="8.02173" stroke="black" stroke-opacity="0.25"/>
<circle cx="306.268" cy="572.445" r="20.3291" fill="#B0FFFB"/>
<circle cx="306.268" cy="572.445" r="19.8291" stroke="black" stroke-opacity="0.25"/>
<circle cx="213.901" cy="106.376" r="20.3291" fill="#B0FFFB"/>
<circle cx="213.901" cy="106.376" r="19.8291" stroke="black" stroke-opacity="0.25"/>
<circle cx="394.726" cy="21.1328" r="20.3291" fill="#B0FFFB"/>
<circle cx="394.726" cy="21.1328" r="19.8291" stroke="black" stroke-opacity="0.25"/>
<circle cx="388.079" cy="691.41" r="12.2799" fill="#B0FFFB"/>
<circle cx="388.079" cy="691.41" r="11.7799" stroke="black" stroke-opacity="0.25"/>
<circle cx="407.103" cy="726.998" r="7.9519" fill="#B0FFFB"/>
<circle cx="407.103" cy="726.998" r="7.4519" stroke="black" stroke-opacity="0.25"/>
<circle cx="363.386" cy="238.898" r="5.40283" fill="#B0FFFB"/>
<circle cx="363.386" cy="238.898" r="4.90283" stroke="black" stroke-opacity="0.25"/>
<path d="M398.675 637.543C368.173 626.891 352.081 593.529 362.733 563.027C364.318 558.488 366.406 554.268 368.912 550.408C390.193 517.635 436.696 498.118 450.22 461.457L603.641 45.5586C605.34 40.9526 610.417 38.558 615.052 40.1766L617.998 41.2053C622.748 42.8643 625.216 48.096 623.474 52.817L471.001 466.147C457.104 503.819 481.44 550.511 475.928 590.285C475.403 594.068 474.499 597.856 473.191 601.6C462.539 632.102 429.177 648.194 398.675 637.543Z" fill="url(#paint0_linear_33_528)"/>
<path d="M398.84 637.071C368.598 626.51 352.644 593.433 363.205 563.191C364.776 558.691 366.846 554.506 369.331 550.68C379.921 534.372 396.789 521.358 412.799 507.772C428.77 494.217 443.876 480.098 450.689 461.63L604.11 45.7318C605.715 41.3817 610.51 39.1205 614.887 40.6492L617.833 41.6779C622.32 43.2447 624.65 48.185 623.005 52.6435L470.532 465.974C463.532 484.95 466.171 506.167 469.827 527.512C473.493 548.909 478.176 570.427 475.433 590.216C474.913 593.967 474.016 597.722 472.719 601.435L472.467 602.142C461.641 631.925 428.845 647.549 398.84 637.071Z" stroke="black" stroke-opacity="0.64"/>
<path d="M247.398 615.13C277.254 602.783 311.467 616.978 323.814 646.834C325.651 651.277 326.9 655.816 327.598 660.366C333.522 698.99 311.798 744.504 326.099 780.869L488.338 1193.41C490.135 1197.98 487.939 1203.14 483.402 1205.02L480.518 1206.21C475.868 1208.13 470.545 1205.87 468.703 1201.19L307.466 791.197C292.77 753.829 243.534 735.17 221.181 701.813C219.055 698.64 217.21 695.211 215.694 691.546C203.347 661.689 217.542 627.477 247.398 615.13Z" fill="url(#paint1_linear_33_528)"/>
<path d="M247.589 615.592C277.19 603.351 311.11 617.424 323.352 647.025C325.173 651.431 326.413 655.932 327.104 660.442C330.052 679.661 326.121 700.6 323.212 721.395C320.31 742.141 318.43 762.733 325.634 781.051L487.873 1193.59C489.57 1197.9 487.495 1202.78 483.21 1204.56L480.327 1205.75C475.935 1207.56 470.909 1205.43 469.169 1201L307.931 791.014C300.528 772.191 284.44 758.11 267.507 744.61C250.532 731.077 232.718 718.132 221.596 701.535C219.488 698.389 217.659 694.989 216.156 691.355L215.874 690.66C204.136 661.225 218.219 627.738 247.589 615.592Z" stroke="black" stroke-opacity="0.64"/>
<path d="M341.934 506.917C318.524 529.184 281.495 528.257 259.228 504.847C256.203 501.667 253.607 498.236 251.436 494.624C231.03 460.67 234.462 409.253 207.16 380.549L40.9377 205.794C37.5121 202.192 37.6546 196.496 41.2562 193.07L43.5191 190.918C47.1206 187.492 52.8173 187.634 56.243 191.236L222.466 365.992C249.767 394.695 301.292 393.839 334.183 415.917C337.681 418.266 340.979 421.031 344.004 424.211C366.27 447.621 365.344 484.65 341.934 506.917Z" fill="url(#paint2_linear_33_528)"/>
<path d="M341.589 506.555C318.379 528.631 281.667 527.713 259.591 504.503C256.591 501.349 254.017 497.947 251.865 494.367C241.711 477.472 237.485 456.227 232.369 435.498C227.266 414.819 221.276 394.664 207.523 380.205L41.2998 205.449C38.0647 202.048 38.1992 196.667 41.6006 193.432L43.8634 191.28C47.2648 188.044 52.6451 188.179 55.8805 191.58L222.103 366.336C235.856 380.795 255.687 387.786 276.085 393.917C296.532 400.064 317.539 405.347 333.904 416.333C337.373 418.661 340.642 421.402 343.641 424.556L344.155 425.103C365.702 448.339 364.618 484.651 341.589 506.555Z" stroke="black" stroke-opacity="0.64"/>
<defs>
<linearGradient id="paint0_linear_33_528" x1="398.675" y1="637.543" x2="541.968" y2="227.211" gradientUnits="userSpaceOnUse">
<stop stop-color="#A3FFD6"/>
<stop offset="1" stop-color="white"/>
</linearGradient>
<linearGradient id="paint1_linear_33_528" x1="247.398" y1="615.13" x2="413.493" y2="1016.77" gradientUnits="userSpaceOnUse">
<stop stop-color="#A3FFD6"/>
<stop offset="1" stop-color="white"/>
</linearGradient>
<linearGradient id="paint2_linear_33_528" x1="341.934" y1="506.917" x2="42.3876" y2="191.994" gradientUnits="userSpaceOnUse">
<stop stop-color="#AAFFD9"/>
<stop offset="1" stop-color="white"/>
</linearGradient>
</defs>
</svg>
