<svg width="546" height="1333" viewBox="0 0 546 1333" fill="none" xmlns="http://www.w3.org/2000/svg">
<mask id="path-1-outside-1_33_572" maskUnits="userSpaceOnUse" x="254.503" y="580.645" width="126" height="45" fill="black">
<rect fill="white" x="254.503" y="580.645" width="126" height="45"/>
<path d="M261.061 594.18C263.646 594.012 265.644 593.33 267.056 592.134C268.492 590.913 269.209 589.298 269.209 587.288V584.273H272.189V587.288C272.189 589.274 272.883 590.866 274.271 592.062C275.682 593.258 277.657 593.94 280.193 594.108V596.692C277.968 596.573 276.029 596.094 274.378 595.257C272.727 594.395 271.507 593.258 270.717 591.847C269.927 593.306 268.683 594.479 266.984 595.364C265.309 596.226 263.335 596.716 261.061 596.836V594.18ZM272.225 596.549V602.4H284.895V605.056H256.467V602.4H269.281V596.549H272.225ZM265.046 621.89H279.655V624.546H263.718C263.191 624.546 262.784 624.403 262.497 624.116C262.234 623.852 262.102 623.458 262.102 622.931V615.429H276.173V611.732H262.102V609.076H277.501C278.028 609.076 278.422 609.219 278.686 609.507C278.973 609.77 279.116 610.165 279.116 610.691V618.049H265.046V621.89ZM289.419 594.18C292.004 594.012 294.002 593.33 295.414 592.134C296.849 590.913 297.567 589.298 297.567 587.288V584.273H300.547V587.288C300.547 589.274 301.241 590.866 302.628 592.062C304.04 593.258 306.014 593.94 308.551 594.108V596.692C306.326 596.573 304.387 596.094 302.736 595.257C301.085 594.395 299.865 593.258 299.075 591.847C298.285 593.306 297.041 594.479 295.342 595.364C293.667 596.226 291.693 596.716 289.419 596.836V594.18ZM300.582 596.549V602.4H313.253V605.056H284.825V602.4H297.639V596.549H300.582ZM293.404 621.89H308.013V624.546H292.076C291.549 624.546 291.142 624.403 290.855 624.116C290.592 623.852 290.46 623.458 290.46 622.931V615.429H304.531V611.732H290.46V609.076H305.859C306.385 609.076 306.78 609.219 307.043 609.507C307.331 609.77 307.474 610.165 307.474 610.691V618.049H293.404V621.89ZM335.473 582.586H338.416V590.662H343.442V593.318H338.416V597.41C338.416 599.061 338.692 600.306 339.242 601.143C339.816 601.981 340.785 602.4 342.149 602.4H343.047V605.056H342.114C339.936 605.056 338.285 604.422 337.16 603.153C336.035 601.885 335.473 600.007 335.473 597.518V582.586ZM313.183 602.4C315.743 602.328 317.753 601.574 319.213 600.138C320.673 598.679 321.403 596.728 321.403 594.287V589.083H324.382V594.287C324.382 596.704 325.088 598.631 326.5 600.066C327.935 601.502 329.897 602.256 332.386 602.328V604.912C330.256 604.888 328.342 604.41 326.643 603.476C324.968 602.519 323.724 601.215 322.91 599.564C322.12 601.263 320.864 602.603 319.141 603.584C317.418 604.541 315.432 605.032 313.183 605.056V602.4ZM326.428 617.726H338.309V620.383H325.1C324.573 620.383 324.166 620.239 323.879 619.952C323.616 619.689 323.484 619.294 323.484 618.767V609.004H326.428V617.726ZM373.596 593.641H368.534V605.056H365.663V582.801H368.534V590.985H373.596V582.586H376.467V597.303C376.467 598.906 376.694 600.102 377.149 600.892C377.604 601.682 378.322 602.184 379.303 602.4V605.056C377.484 604.936 376.072 604.278 375.067 603.082C374.086 601.885 373.596 600.15 373.596 597.877V593.641ZM342.978 605.056V602.4H345.419C347.979 602.4 349.965 601.837 351.377 600.713C352.789 599.588 353.495 597.997 353.495 595.939V594.826H346.495V592.17H353.495V587.503H356.546V592.17H363.33V594.826H356.546V595.939C356.546 597.901 357.204 599.444 358.52 600.569C359.836 601.67 361.679 602.256 364.048 602.328V604.912C362.014 604.888 360.207 604.505 358.628 603.764C357.048 603.022 355.852 601.993 355.038 600.677C354.225 602.065 353.016 603.141 351.413 603.907C349.81 604.673 347.931 605.056 345.778 605.056H342.978ZM375.821 620.849H372.878V610.942H361.033V608.286H374.206C374.732 608.286 375.127 608.43 375.39 608.717C375.677 608.98 375.821 609.375 375.821 609.901V620.849Z"/>
</mask>
<path d="M261.061 594.18C263.646 594.012 265.644 593.33 267.056 592.134C268.492 590.913 269.209 589.298 269.209 587.288V584.273H272.189V587.288C272.189 589.274 272.883 590.866 274.271 592.062C275.682 593.258 277.657 593.94 280.193 594.108V596.692C277.968 596.573 276.029 596.094 274.378 595.257C272.727 594.395 271.507 593.258 270.717 591.847C269.927 593.306 268.683 594.479 266.984 595.364C265.309 596.226 263.335 596.716 261.061 596.836V594.18ZM272.225 596.549V602.4H284.895V605.056H256.467V602.4H269.281V596.549H272.225ZM265.046 621.89H279.655V624.546H263.718C263.191 624.546 262.784 624.403 262.497 624.116C262.234 623.852 262.102 623.458 262.102 622.931V615.429H276.173V611.732H262.102V609.076H277.501C278.028 609.076 278.422 609.219 278.686 609.507C278.973 609.77 279.116 610.165 279.116 610.691V618.049H265.046V621.89ZM289.419 594.18C292.004 594.012 294.002 593.33 295.414 592.134C296.849 590.913 297.567 589.298 297.567 587.288V584.273H300.547V587.288C300.547 589.274 301.241 590.866 302.628 592.062C304.04 593.258 306.014 593.94 308.551 594.108V596.692C306.326 596.573 304.387 596.094 302.736 595.257C301.085 594.395 299.865 593.258 299.075 591.847C298.285 593.306 297.041 594.479 295.342 595.364C293.667 596.226 291.693 596.716 289.419 596.836V594.18ZM300.582 596.549V602.4H313.253V605.056H284.825V602.4H297.639V596.549H300.582ZM293.404 621.89H308.013V624.546H292.076C291.549 624.546 291.142 624.403 290.855 624.116C290.592 623.852 290.46 623.458 290.46 622.931V615.429H304.531V611.732H290.46V609.076H305.859C306.385 609.076 306.78 609.219 307.043 609.507C307.331 609.77 307.474 610.165 307.474 610.691V618.049H293.404V621.89ZM335.473 582.586H338.416V590.662H343.442V593.318H338.416V597.41C338.416 599.061 338.692 600.306 339.242 601.143C339.816 601.981 340.785 602.4 342.149 602.4H343.047V605.056H342.114C339.936 605.056 338.285 604.422 337.16 603.153C336.035 601.885 335.473 600.007 335.473 597.518V582.586ZM313.183 602.4C315.743 602.328 317.753 601.574 319.213 600.138C320.673 598.679 321.403 596.728 321.403 594.287V589.083H324.382V594.287C324.382 596.704 325.088 598.631 326.5 600.066C327.935 601.502 329.897 602.256 332.386 602.328V604.912C330.256 604.888 328.342 604.41 326.643 603.476C324.968 602.519 323.724 601.215 322.91 599.564C322.12 601.263 320.864 602.603 319.141 603.584C317.418 604.541 315.432 605.032 313.183 605.056V602.4ZM326.428 617.726H338.309V620.383H325.1C324.573 620.383 324.166 620.239 323.879 619.952C323.616 619.689 323.484 619.294 323.484 618.767V609.004H326.428V617.726ZM373.596 593.641H368.534V605.056H365.663V582.801H368.534V590.985H373.596V582.586H376.467V597.303C376.467 598.906 376.694 600.102 377.149 600.892C377.604 601.682 378.322 602.184 379.303 602.4V605.056C377.484 604.936 376.072 604.278 375.067 603.082C374.086 601.885 373.596 600.15 373.596 597.877V593.641ZM342.978 605.056V602.4H345.419C347.979 602.4 349.965 601.837 351.377 600.713C352.789 599.588 353.495 597.997 353.495 595.939V594.826H346.495V592.17H353.495V587.503H356.546V592.17H363.33V594.826H356.546V595.939C356.546 597.901 357.204 599.444 358.52 600.569C359.836 601.67 361.679 602.256 364.048 602.328V604.912C362.014 604.888 360.207 604.505 358.628 603.764C357.048 603.022 355.852 601.993 355.038 600.677C354.225 602.065 353.016 603.141 351.413 603.907C349.81 604.673 347.931 605.056 345.778 605.056H342.978ZM375.821 620.849H372.878V610.942H361.033V608.286H374.206C374.732 608.286 375.127 608.43 375.39 608.717C375.677 608.98 375.821 609.375 375.821 609.901V620.849Z" fill="#3CE078"/>
<path d="M261.061 594.18L260.997 593.182L260.061 593.242V594.18H261.061ZM267.056 592.134L267.702 592.897L267.703 592.896L267.056 592.134ZM269.209 584.273V583.273H268.209V584.273H269.209ZM272.189 584.273H273.189V583.273H272.189V584.273ZM274.271 592.062L273.618 592.819L273.624 592.825L274.271 592.062ZM280.193 594.108H281.193V593.172L280.259 593.11L280.193 594.108ZM280.193 596.692L280.139 597.691L281.193 597.748V596.692H280.193ZM274.378 595.257L273.916 596.143L273.926 596.148L274.378 595.257ZM270.717 591.847L271.59 591.358L270.702 589.772L269.838 591.371L270.717 591.847ZM266.984 595.364L267.441 596.254L267.446 596.251L266.984 595.364ZM261.061 596.836H260.061V597.89L261.114 597.835L261.061 596.836ZM272.225 596.549H273.225V595.549H272.225V596.549ZM272.225 602.4H271.225V603.4H272.225V602.4ZM284.895 602.4H285.895V601.4H284.895V602.4ZM284.895 605.056V606.056H285.895V605.056H284.895ZM256.467 605.056H255.467V606.056H256.467V605.056ZM256.467 602.4V601.4H255.467V602.4H256.467ZM269.281 602.4V603.4H270.281V602.4H269.281ZM269.281 596.549V595.549H268.281V596.549H269.281ZM265.046 621.89H264.046V622.89H265.046V621.89ZM279.655 621.89H280.655V620.89H279.655V621.89ZM279.655 624.546V625.546H280.655V624.546H279.655ZM262.497 624.116L261.79 624.823L262.497 624.116ZM262.102 615.429V614.429H261.102V615.429H262.102ZM276.173 615.429V616.429H277.173V615.429H276.173ZM276.173 611.732H277.173V610.732H276.173V611.732ZM262.102 611.732H261.102V612.732H262.102V611.732ZM262.102 609.076V608.076H261.102V609.076H262.102ZM278.686 609.507L277.948 610.182L277.978 610.214L278.01 610.244L278.686 609.507ZM279.116 618.049V619.049H280.116V618.049H279.116ZM265.046 618.049V617.049H264.046V618.049H265.046ZM261.061 594.18L261.126 595.178C263.841 595.002 266.073 594.278 267.702 592.897L267.056 592.134L266.409 591.371C265.215 592.383 263.45 593.023 260.997 593.182L261.061 594.18ZM267.056 592.134L267.703 592.896C269.379 591.471 270.209 589.569 270.209 587.288H269.209H268.209C268.209 589.027 267.604 590.355 266.408 591.372L267.056 592.134ZM269.209 587.288H270.209V584.273H269.209H268.209V587.288H269.209ZM269.209 584.273V585.273H272.189V584.273V583.273H269.209V584.273ZM272.189 584.273H271.189V587.288H272.189H273.189V584.273H272.189ZM272.189 587.288H271.189C271.189 589.538 271.989 591.416 273.618 592.819L274.271 592.062L274.924 591.305C273.776 590.315 273.189 589.011 273.189 587.288H272.189ZM274.271 592.062L273.624 592.825C275.25 594.203 277.455 594.929 280.127 595.106L280.193 594.108L280.259 593.11C277.858 592.952 276.114 592.314 274.917 591.299L274.271 592.062ZM280.193 594.108H279.193V596.692H280.193H281.193V594.108H280.193ZM280.193 596.692L280.247 595.694C278.132 595.58 276.335 595.128 274.831 594.365L274.378 595.257L273.926 596.148C275.724 597.06 277.803 597.565 280.139 597.691L280.193 596.692ZM274.378 595.257L274.841 594.37C273.336 593.585 272.271 592.576 271.59 591.358L270.717 591.847L269.844 592.335C270.743 593.941 272.119 595.206 273.916 596.143L274.378 595.257ZM270.717 591.847L269.838 591.371C269.157 592.629 268.072 593.67 266.522 594.477L266.984 595.364L267.446 596.251C269.294 595.288 270.698 593.984 271.597 592.322L270.717 591.847ZM266.984 595.364L266.527 594.475C265.001 595.26 263.17 595.724 261.009 595.837L261.061 596.836L261.114 597.835C263.5 597.709 265.617 597.192 267.441 596.254L266.984 595.364ZM261.061 596.836H262.061V594.18H261.061H260.061V596.836H261.061ZM272.225 596.549H271.225V602.4H272.225H273.225V596.549H272.225ZM272.225 602.4V603.4H284.895V602.4V601.4H272.225V602.4ZM284.895 602.4H283.895V605.056H284.895H285.895V602.4H284.895ZM284.895 605.056V604.056H256.467V605.056V606.056H284.895V605.056ZM256.467 605.056H257.467V602.4H256.467H255.467V605.056H256.467ZM256.467 602.4V603.4H269.281V602.4V601.4H256.467V602.4ZM269.281 602.4H270.281V596.549H269.281H268.281V602.4H269.281ZM269.281 596.549V597.549H272.225V596.549V595.549H269.281V596.549ZM265.046 621.89V622.89H279.655V621.89V620.89H265.046V621.89ZM279.655 621.89H278.655V624.546H279.655H280.655V621.89H279.655ZM279.655 624.546V623.546H263.718V624.546V625.546H279.655V624.546ZM263.718 624.546V623.546C263.374 623.546 263.253 623.457 263.204 623.408L262.497 624.116L261.79 624.823C262.316 625.348 263.008 625.546 263.718 625.546V624.546ZM262.497 624.116L263.204 623.408C263.195 623.399 263.102 623.303 263.102 622.931H262.102H261.102C261.102 623.612 261.273 624.306 261.79 624.823L262.497 624.116ZM262.102 622.931H263.102V615.429H262.102H261.102V622.931H262.102ZM262.102 615.429V616.429H276.173V615.429V614.429H262.102V615.429ZM276.173 615.429H277.173V611.732H276.173H275.173V615.429H276.173ZM276.173 611.732V610.732H262.102V611.732V612.732H276.173V611.732ZM262.102 611.732H263.102V609.076H262.102H261.102V611.732H262.102ZM262.102 609.076V610.076H277.501V609.076V608.076H262.102V609.076ZM277.501 609.076V610.076C277.85 610.076 277.934 610.167 277.948 610.182L278.686 609.507L279.423 608.831C278.91 608.272 278.205 608.076 277.501 608.076V609.076ZM278.686 609.507L278.01 610.244C278.025 610.258 278.116 610.342 278.116 610.691H279.116H280.116C280.116 609.987 279.92 609.282 279.361 608.769L278.686 609.507ZM279.116 610.691H278.116V618.049H279.116H280.116V610.691H279.116ZM279.116 618.049V617.049H265.046V618.049V619.049H279.116V618.049ZM265.046 618.049H264.046V621.89H265.046H266.046V618.049H265.046ZM289.419 594.18L289.355 593.182L288.419 593.242V594.18H289.419ZM295.414 592.134L296.06 592.897L296.061 592.896L295.414 592.134ZM297.567 584.273V583.273H296.567V584.273H297.567ZM300.547 584.273H301.547V583.273H300.547V584.273ZM302.628 592.062L301.975 592.819L301.982 592.825L302.628 592.062ZM308.551 594.108H309.551V593.172L308.617 593.11L308.551 594.108ZM308.551 596.692L308.497 597.691L309.551 597.748V596.692H308.551ZM302.736 595.257L302.274 596.143L302.284 596.148L302.736 595.257ZM299.075 591.847L299.948 591.358L299.06 589.772L298.195 591.371L299.075 591.847ZM295.342 595.364L295.799 596.254L295.804 596.251L295.342 595.364ZM289.419 596.836H288.419V597.89L289.472 597.835L289.419 596.836ZM300.582 596.549H301.582V595.549H300.582V596.549ZM300.582 602.4H299.582V603.4H300.582V602.4ZM313.253 602.4H314.253V601.4H313.253V602.4ZM313.253 605.056V606.056H314.253V605.056H313.253ZM284.825 605.056H283.825V606.056H284.825V605.056ZM284.825 602.4V601.4H283.825V602.4H284.825ZM297.639 602.4V603.4H298.639V602.4H297.639ZM297.639 596.549V595.549H296.639V596.549H297.639ZM293.404 621.89H292.404V622.89H293.404V621.89ZM308.013 621.89H309.013V620.89H308.013V621.89ZM308.013 624.546V625.546H309.013V624.546H308.013ZM290.855 624.116L290.148 624.823L290.855 624.116ZM290.46 615.429V614.429H289.46V615.429H290.46ZM304.531 615.429V616.429H305.531V615.429H304.531ZM304.531 611.732H305.531V610.732H304.531V611.732ZM290.46 611.732H289.46V612.732H290.46V611.732ZM290.46 609.076V608.076H289.46V609.076H290.46ZM307.043 609.507L306.306 610.182L306.336 610.214L306.368 610.244L307.043 609.507ZM307.474 618.049V619.049H308.474V618.049H307.474ZM293.404 618.049V617.049H292.404V618.049H293.404ZM289.419 594.18L289.484 595.178C292.199 595.002 294.431 594.278 296.06 592.897L295.414 592.134L294.767 591.371C293.573 592.383 291.808 593.023 289.355 593.182L289.419 594.18ZM295.414 592.134L296.061 592.896C297.737 591.471 298.567 589.569 298.567 587.288H297.567H296.567C296.567 589.027 295.962 590.355 294.766 591.372L295.414 592.134ZM297.567 587.288H298.567V584.273H297.567H296.567V587.288H297.567ZM297.567 584.273V585.273H300.547V584.273V583.273H297.567V584.273ZM300.547 584.273H299.547V587.288H300.547H301.547V584.273H300.547ZM300.547 587.288H299.547C299.547 589.538 300.347 591.416 301.975 592.819L302.628 592.062L303.281 591.305C302.134 590.315 301.547 589.011 301.547 587.288H300.547ZM302.628 592.062L301.982 592.825C303.608 594.203 305.813 594.929 308.485 595.106L308.551 594.108L308.617 593.11C306.216 592.952 304.472 592.314 303.275 591.299L302.628 592.062ZM308.551 594.108H307.551V596.692H308.551H309.551V594.108H308.551ZM308.551 596.692L308.605 595.694C306.49 595.58 304.693 595.128 303.188 594.365L302.736 595.257L302.284 596.148C304.082 597.06 306.161 597.565 308.497 597.691L308.551 596.692ZM302.736 595.257L303.199 594.37C301.693 593.585 300.629 592.576 299.948 591.358L299.075 591.847L298.202 592.335C299.101 593.941 300.477 595.206 302.274 596.143L302.736 595.257ZM299.075 591.847L298.195 591.371C297.515 592.629 296.43 593.67 294.88 594.477L295.342 595.364L295.804 596.251C297.652 595.288 299.056 593.984 299.954 592.322L299.075 591.847ZM295.342 595.364L294.885 594.475C293.359 595.26 291.528 595.724 289.367 595.837L289.419 596.836L289.472 597.835C291.857 597.709 293.975 597.192 295.799 596.254L295.342 595.364ZM289.419 596.836H290.419V594.18H289.419H288.419V596.836H289.419ZM300.582 596.549H299.582V602.4H300.582H301.582V596.549H300.582ZM300.582 602.4V603.4H313.253V602.4V601.4H300.582V602.4ZM313.253 602.4H312.253V605.056H313.253H314.253V602.4H313.253ZM313.253 605.056V604.056H284.825V605.056V606.056H313.253V605.056ZM284.825 605.056H285.825V602.4H284.825H283.825V605.056H284.825ZM284.825 602.4V603.4H297.639V602.4V601.4H284.825V602.4ZM297.639 602.4H298.639V596.549H297.639H296.639V602.4H297.639ZM297.639 596.549V597.549H300.582V596.549V595.549H297.639V596.549ZM293.404 621.89V622.89H308.013V621.89V620.89H293.404V621.89ZM308.013 621.89H307.013V624.546H308.013H309.013V621.89H308.013ZM308.013 624.546V623.546H292.076V624.546V625.546H308.013V624.546ZM292.076 624.546V623.546C291.732 623.546 291.611 623.457 291.562 623.408L290.855 624.116L290.148 624.823C290.674 625.348 291.366 625.546 292.076 625.546V624.546ZM290.855 624.116L291.562 623.408C291.553 623.399 291.46 623.303 291.46 622.931H290.46H289.46C289.46 623.612 289.631 624.306 290.148 624.823L290.855 624.116ZM290.46 622.931H291.46V615.429H290.46H289.46V622.931H290.46ZM290.46 615.429V616.429H304.531V615.429V614.429H290.46V615.429ZM304.531 615.429H305.531V611.732H304.531H303.531V615.429H304.531ZM304.531 611.732V610.732H290.46V611.732V612.732H304.531V611.732ZM290.46 611.732H291.46V609.076H290.46H289.46V611.732H290.46ZM290.46 609.076V610.076H305.859V609.076V608.076H290.46V609.076ZM305.859 609.076V610.076C306.208 610.076 306.292 610.167 306.306 610.182L307.043 609.507L307.781 608.831C307.268 608.272 306.563 608.076 305.859 608.076V609.076ZM307.043 609.507L306.368 610.244C306.383 610.258 306.474 610.342 306.474 610.691H307.474H308.474C308.474 609.987 308.278 609.282 307.719 608.769L307.043 609.507ZM307.474 610.691H306.474V618.049H307.474H308.474V610.691H307.474ZM307.474 618.049V617.049H293.404V618.049V619.049H307.474V618.049ZM293.404 618.049H292.404V621.89H293.404H294.404V618.049H293.404ZM335.473 582.586V581.586H334.473V582.586H335.473ZM338.416 582.586H339.416V581.586H338.416V582.586ZM338.416 590.662H337.416V591.662H338.416V590.662ZM343.442 590.662H344.442V589.662H343.442V590.662ZM343.442 593.318V594.318H344.442V593.318H343.442ZM338.416 593.318V592.318H337.416V593.318H338.416ZM339.242 601.143L338.406 601.692L338.412 601.701L338.417 601.709L339.242 601.143ZM343.047 602.4H344.047V601.4H343.047V602.4ZM343.047 605.056V606.056H344.047V605.056H343.047ZM337.16 603.153L337.908 602.49L337.908 602.49L337.16 603.153ZM313.183 602.4L313.155 601.4L312.183 601.427V602.4H313.183ZM319.213 600.138L319.914 600.851L319.92 600.845L319.213 600.138ZM321.403 589.083V588.083H320.403V589.083H321.403ZM324.382 589.083H325.382V588.083H324.382V589.083ZM326.5 600.066L325.786 600.768L325.792 600.774L326.5 600.066ZM332.386 602.328H333.386V601.356L332.415 601.328L332.386 602.328ZM332.386 604.912L332.375 605.912L333.386 605.923V604.912H332.386ZM326.643 603.476L326.147 604.345L326.154 604.349L326.162 604.353L326.643 603.476ZM322.91 599.564L323.807 599.122L322.884 597.248L322.003 599.142L322.91 599.564ZM319.141 603.584L319.627 604.458L319.636 604.453L319.141 603.584ZM313.183 605.056H312.183V606.066L313.193 606.056L313.183 605.056ZM326.428 617.726H325.428V618.726H326.428V617.726ZM338.309 617.726H339.309V616.726H338.309V617.726ZM338.309 620.383V621.383H339.309V620.383H338.309ZM323.879 619.952L324.586 619.245L324.586 619.245L323.879 619.952ZM323.484 609.004V608.004H322.484V609.004H323.484ZM326.428 609.004H327.428V608.004H326.428V609.004ZM335.473 582.586V583.586H338.416V582.586V581.586H335.473V582.586ZM338.416 582.586H337.416V590.662H338.416H339.416V582.586H338.416ZM338.416 590.662V591.662H343.442V590.662V589.662H338.416V590.662ZM343.442 590.662H342.442V593.318H343.442H344.442V590.662H343.442ZM343.442 593.318V592.318H338.416V593.318V594.318H343.442V593.318ZM338.416 593.318H337.416V597.41H338.416H339.416V593.318H338.416ZM338.416 597.41H337.416C337.416 599.143 337.7 600.617 338.406 601.692L339.242 601.143L340.078 600.594C339.683 599.994 339.416 598.98 339.416 597.41H338.416ZM339.242 601.143L338.417 601.709C339.239 602.907 340.58 603.4 342.149 603.4V602.4V601.4C340.991 601.4 340.394 601.055 340.067 600.578L339.242 601.143ZM342.149 602.4V603.4H343.047V602.4V601.4H342.149V602.4ZM343.047 602.4H342.047V605.056H343.047H344.047V602.4H343.047ZM343.047 605.056V604.056H342.114V605.056V606.056H343.047V605.056ZM342.114 605.056V604.056C340.135 604.056 338.792 603.487 337.908 602.49L337.16 603.153L336.412 603.817C337.777 605.356 339.737 606.056 342.114 606.056V605.056ZM337.16 603.153L337.908 602.49C337.007 601.474 336.473 599.874 336.473 597.518H335.473H334.473C334.473 600.139 335.063 602.296 336.412 603.817L337.16 603.153ZM335.473 597.518H336.473V582.586H335.473H334.473V597.518H335.473ZM313.183 602.4L313.211 603.399C315.958 603.322 318.232 602.506 319.914 600.851L319.213 600.138L318.512 599.425C317.274 600.642 315.529 601.333 313.155 601.4L313.183 602.4ZM319.213 600.138L319.92 600.845C321.601 599.164 322.403 596.941 322.403 594.287H321.403H320.403C320.403 596.515 319.744 598.193 318.506 599.431L319.213 600.138ZM321.403 594.287H322.403V589.083H321.403H320.403V594.287H321.403ZM321.403 589.083V590.083H324.382V589.083V588.083H321.403V589.083ZM324.382 589.083H323.382V594.287H324.382H325.382V589.083H324.382ZM324.382 594.287H323.382C323.382 596.911 324.155 599.108 325.786 600.768L326.5 600.066L327.213 599.365C326.02 598.153 325.382 596.498 325.382 594.287H324.382ZM326.5 600.066L325.792 600.774C327.447 602.429 329.674 603.25 332.357 603.327L332.386 602.328L332.415 601.328C330.121 601.262 328.423 600.576 327.207 599.359L326.5 600.066ZM332.386 602.328H331.386V604.912H332.386H333.386V602.328H332.386ZM332.386 604.912L332.397 603.912C330.416 603.89 328.665 603.446 327.125 602.6L326.643 603.476L326.162 604.353C328.019 605.373 330.097 605.886 332.375 605.912L332.386 604.912ZM326.643 603.476L327.139 602.608C325.628 601.745 324.528 600.585 323.807 599.122L322.91 599.564L322.013 600.006C322.919 601.845 324.308 603.294 326.147 604.345L326.643 603.476ZM322.91 599.564L322.003 599.142C321.306 600.642 320.2 601.83 318.646 602.715L319.141 603.584L319.636 604.453C321.528 603.376 322.934 601.884 323.817 599.985L322.91 599.564ZM319.141 603.584L318.656 602.71C317.097 603.576 315.279 604.033 313.172 604.056L313.183 605.056L313.193 606.056C315.585 606.03 317.739 605.507 319.627 604.458L319.141 603.584ZM313.183 605.056H314.183V602.4H313.183H312.183V605.056H313.183ZM326.428 617.726V618.726H338.309V617.726V616.726H326.428V617.726ZM338.309 617.726H337.309V620.383H338.309H339.309V617.726H338.309ZM338.309 620.383V619.383H325.1V620.383V621.383H338.309V620.383ZM325.1 620.383V619.383C324.756 619.383 324.635 619.293 324.586 619.245L323.879 619.952L323.172 620.659C323.698 621.185 324.39 621.383 325.1 621.383V620.383ZM323.879 619.952L324.586 619.245C324.577 619.235 324.484 619.14 324.484 618.767H323.484H322.484C322.484 619.448 322.655 620.142 323.172 620.659L323.879 619.952ZM323.484 618.767H324.484V609.004H323.484H322.484V618.767H323.484ZM323.484 609.004V610.004H326.428V609.004V608.004H323.484V609.004ZM326.428 609.004H325.428V617.726H326.428H327.428V609.004H326.428ZM373.596 593.641H374.596V592.641H373.596V593.641ZM368.534 593.641V592.641H367.534V593.641H368.534ZM368.534 605.056V606.056H369.534V605.056H368.534ZM365.663 605.056H364.663V606.056H365.663V605.056ZM365.663 582.801V581.801H364.663V582.801H365.663ZM368.534 582.801H369.534V581.801H368.534V582.801ZM368.534 590.985H367.534V591.985H368.534V590.985ZM373.596 590.985V591.985H374.596V590.985H373.596ZM373.596 582.586V581.586H372.596V582.586H373.596ZM376.467 582.586H377.467V581.586H376.467V582.586ZM377.149 600.892L376.282 601.391L376.282 601.391L377.149 600.892ZM379.303 602.4H380.303V601.595L379.517 601.423L379.303 602.4ZM379.303 605.056L379.237 606.054L380.303 606.124V605.056H379.303ZM375.067 603.082L374.294 603.716L374.302 603.725L375.067 603.082ZM342.978 605.056H341.978V606.056H342.978V605.056ZM342.978 602.4V601.4H341.978V602.4H342.978ZM351.377 600.713L352 601.495L352 601.495L351.377 600.713ZM353.495 594.826H354.495V593.826H353.495V594.826ZM346.495 594.826H345.495V595.826H346.495V594.826ZM346.495 592.17V591.17H345.495V592.17H346.495ZM353.495 592.17V593.17H354.495V592.17H353.495ZM353.495 587.503V586.503H352.495V587.503H353.495ZM356.546 587.503H357.546V586.503H356.546V587.503ZM356.546 592.17H355.546V593.17H356.546V592.17ZM363.33 592.17H364.33V591.17H363.33V592.17ZM363.33 594.826V595.826H364.33V594.826H363.33ZM356.546 594.826V593.826H355.546V594.826H356.546ZM358.52 600.569L357.87 601.329L357.878 601.336L358.52 600.569ZM364.048 602.328H365.048V601.358L364.078 601.328L364.048 602.328ZM364.048 604.912L364.036 605.912L365.048 605.924V604.912H364.048ZM358.628 603.764L359.053 602.858L359.053 602.858L358.628 603.764ZM355.038 600.677L355.889 600.151L355.015 598.738L354.176 600.171L355.038 600.677ZM351.413 603.907L350.982 603.005L350.982 603.005L351.413 603.907ZM375.821 620.849V621.849H376.821V620.849H375.821ZM372.878 620.849H371.878V621.849H372.878V620.849ZM372.878 610.942H373.878V609.942H372.878V610.942ZM361.033 610.942H360.033V611.942H361.033V610.942ZM361.033 608.286V607.286H360.033V608.286H361.033ZM375.39 608.717L374.653 609.393L374.682 609.425L374.715 609.454L375.39 608.717ZM373.596 593.641V592.641H368.534V593.641V594.641H373.596V593.641ZM368.534 593.641H367.534V605.056H368.534H369.534V593.641H368.534ZM368.534 605.056V604.056H365.663V605.056V606.056H368.534V605.056ZM365.663 605.056H366.663V582.801H365.663H364.663V605.056H365.663ZM365.663 582.801V583.801H368.534V582.801V581.801H365.663V582.801ZM368.534 582.801H367.534V590.985H368.534H369.534V582.801H368.534ZM368.534 590.985V591.985H373.596V590.985V589.985H368.534V590.985ZM373.596 590.985H374.596V582.586H373.596H372.596V590.985H373.596ZM373.596 582.586V583.586H376.467V582.586V581.586H373.596V582.586ZM376.467 582.586H375.467V597.303H376.467H377.467V582.586H376.467ZM376.467 597.303H375.467C375.467 598.966 375.697 600.374 376.282 601.391L377.149 600.892L378.016 600.393C377.692 599.831 377.467 598.846 377.467 597.303H376.467ZM377.149 600.892L376.282 601.391C376.893 602.451 377.864 603.107 379.088 603.376L379.303 602.4L379.517 601.423C378.78 601.261 378.315 600.912 378.016 600.393L377.149 600.892ZM379.303 602.4H378.303V605.056H379.303H380.303V602.4H379.303ZM379.303 605.056L379.368 604.058C377.772 603.953 376.633 603.391 375.833 602.438L375.067 603.082L374.302 603.725C375.511 605.165 377.196 605.919 379.237 606.054L379.303 605.056ZM375.067 603.082L375.84 602.447C375.061 601.497 374.596 600.024 374.596 597.877H373.596H372.596C372.596 600.276 373.111 602.273 374.294 603.716L375.067 603.082ZM373.596 597.877H374.596V593.641H373.596H372.596V597.877H373.596ZM342.978 605.056H343.978V602.4H342.978H341.978V605.056H342.978ZM342.978 602.4V603.4H345.419V602.4V601.4H342.978V602.4ZM345.419 602.4V603.4C348.113 603.4 350.35 602.809 352 601.495L351.377 600.713L350.754 599.93C349.58 600.865 347.845 601.4 345.419 601.4V602.4ZM351.377 600.713L352 601.495C353.685 600.152 354.495 598.253 354.495 595.939H353.495H352.495C352.495 597.74 351.892 599.024 350.754 599.93L351.377 600.713ZM353.495 595.939H354.495V594.826H353.495H352.495V595.939H353.495ZM353.495 594.826V593.826H346.495V594.826V595.826H353.495V594.826ZM346.495 594.826H347.495V592.17H346.495H345.495V594.826H346.495ZM346.495 592.17V593.17H353.495V592.17V591.17H346.495V592.17ZM353.495 592.17H354.495V587.503H353.495H352.495V592.17H353.495ZM353.495 587.503V588.503H356.546V587.503V586.503H353.495V587.503ZM356.546 587.503H355.546V592.17H356.546H357.546V587.503H356.546ZM356.546 592.17V593.17H363.33V592.17V591.17H356.546V592.17ZM363.33 592.17H362.33V594.826H363.33H364.33V592.17H363.33ZM363.33 594.826V593.826H356.546V594.826V595.826H363.33V594.826ZM356.546 594.826H355.546V595.939H356.546H357.546V594.826H356.546ZM356.546 595.939H355.546C355.546 598.15 356.301 599.988 357.87 601.329L358.52 600.569L359.17 599.809C358.107 598.901 357.546 597.652 357.546 595.939H356.546ZM358.52 600.569L357.878 601.336C359.422 602.627 361.509 603.251 364.017 603.327L364.048 602.328L364.078 601.328C361.849 601.261 360.251 600.713 359.162 599.802L358.52 600.569ZM364.048 602.328H363.048V604.912H364.048H365.048V602.328H364.048ZM364.048 604.912L364.059 603.912C362.145 603.89 360.483 603.53 359.053 602.858L358.628 603.764L358.203 604.669C359.931 605.481 361.882 605.887 364.036 605.912L364.048 604.912ZM358.628 603.764L359.053 602.858C357.626 602.188 356.588 601.281 355.889 600.151L355.038 600.677L354.188 601.202C355.116 602.704 356.471 603.855 358.203 604.669L358.628 603.764ZM355.038 600.677L354.176 600.171C353.473 601.369 352.425 602.316 350.982 603.005L351.413 603.907L351.844 604.809C353.608 603.967 354.976 602.76 355.901 601.182L355.038 600.677ZM351.413 603.907L350.982 603.005C349.539 603.694 347.813 604.056 345.778 604.056V605.056V606.056C348.049 606.056 350.081 605.652 351.844 604.809L351.413 603.907ZM345.778 605.056V604.056H342.978V605.056V606.056H345.778V605.056ZM375.821 620.849V619.849H372.878V620.849V621.849H375.821V620.849ZM372.878 620.849H373.878V610.942H372.878H371.878V620.849H372.878ZM372.878 610.942V609.942H361.033V610.942V611.942H372.878V610.942ZM361.033 610.942H362.033V608.286H361.033H360.033V610.942H361.033ZM361.033 608.286V609.286H374.206V608.286V607.286H361.033V608.286ZM374.206 608.286V609.286C374.555 609.286 374.639 609.377 374.653 609.393L375.39 608.717L376.127 608.041C375.615 607.482 374.91 607.286 374.206 607.286V608.286ZM375.39 608.717L374.715 609.454C374.73 609.468 374.821 609.553 374.821 609.901H375.821H376.821C376.821 609.197 376.625 608.492 376.066 607.98L375.39 608.717ZM375.821 609.901H374.821V620.849H375.821H376.821V609.901H375.821Z" fill="black" fill-opacity="0.25" mask="url(#path-1-outside-1_33_572)"/>
<circle cx="242.363" cy="560.412" r="8.52173" fill="#FFFDB0"/>
<circle cx="242.363" cy="560.412" r="8.02173" stroke="black" stroke-opacity="0.25"/>
<circle cx="281.617" cy="476.307" r="8.52173" fill="#FFFDB0"/>
<circle cx="281.617" cy="476.307" r="8.02173" stroke="black" stroke-opacity="0.25"/>
<circle cx="281.617" cy="663.484" r="8.52173" fill="#FFFDB0"/>
<circle cx="281.617" cy="663.484" r="8.02173" stroke="black" stroke-opacity="0.25"/>
<circle cx="139.375" cy="877.953" r="20.3291" fill="#FFFDB0"/>
<circle cx="139.375" cy="877.953" r="19.8291" stroke="black" stroke-opacity="0.25"/>
<circle cx="254.642" cy="996.918" r="12.2799" fill="#FFFDB0"/>
<circle cx="254.642" cy="996.918" r="11.7799" stroke="black" stroke-opacity="0.25"/>
<circle cx="273.665" cy="1032.51" r="7.9519" fill="#FFFDB0"/>
<circle cx="273.665" cy="1032.51" r="7.4519" stroke="black" stroke-opacity="0.25"/>
<circle cx="229.949" cy="544.405" r="5.40283" fill="#FFFDB0"/>
<circle cx="229.949" cy="544.405" r="4.90283" stroke="black" stroke-opacity="0.25"/>
<path d="M248.573 723.198C278.429 710.851 312.641 725.046 324.988 754.902C326.825 759.345 328.075 763.884 328.773 768.433C334.696 807.057 312.972 852.572 327.273 888.937L489.513 1301.47C491.309 1306.04 489.113 1311.21 484.576 1313.09L481.693 1314.28C477.043 1316.2 471.72 1313.94 469.878 1309.25L308.641 899.264C293.945 861.897 244.708 843.238 222.356 809.881C220.229 806.708 218.384 803.279 216.868 799.614C204.522 769.757 218.716 735.545 248.573 723.198Z" fill="url(#paint0_linear_33_572)"/>
<path d="M248.764 723.66C278.365 711.419 312.285 725.492 324.526 755.093C326.348 759.499 327.587 763.999 328.279 768.509C331.226 787.729 327.295 808.668 324.386 829.463C321.484 850.209 319.604 870.801 326.808 889.119L489.047 1301.66C490.744 1305.97 488.67 1310.85 484.385 1312.62L481.502 1313.82C477.11 1315.63 472.083 1313.49 470.344 1309.07L309.106 899.082C301.703 880.258 285.614 866.178 268.681 852.678C251.707 839.145 233.892 826.2 222.77 809.603C220.663 806.457 218.834 803.057 217.331 799.422L217.048 798.728C205.31 769.292 219.394 735.806 248.764 723.66Z" stroke="black" stroke-opacity="0.64"/>
<path d="M57.1606 628.798C25.9528 620.435 7.43282 588.358 15.7948 557.15C17.0392 552.506 18.8086 548.143 21.0222 544.108C39.816 509.849 84.745 486.938 95.5148 449.376L217.693 23.252C219.046 18.5328 223.932 15.7686 228.674 17.0392L231.688 17.8468C236.549 19.1492 239.397 24.1836 238.01 29.0207L116.586 452.513C105.519 491.112 133.248 535.872 130.699 575.945C130.456 579.757 129.835 583.601 128.808 587.432C120.446 618.64 88.3683 637.16 57.1606 628.798Z" fill="url(#paint1_linear_33_572)"/>
<path d="M57.29 628.315C26.349 620.024 7.98725 588.22 16.2778 557.279C17.5117 552.674 19.266 548.348 21.4604 544.348C30.8125 527.3 46.6697 513.073 61.6284 498.337C76.5513 483.636 90.5699 468.436 95.9952 449.514L218.174 23.39C219.452 18.9329 224.066 16.3226 228.545 17.5227L231.559 18.3302C236.149 19.5603 238.839 24.3143 237.529 28.8825L116.106 452.375C110.531 471.819 114.735 492.781 119.963 513.797C125.204 534.863 131.469 555.975 130.2 575.913C129.96 579.692 129.343 583.504 128.325 587.302L128.126 588.026C119.537 618.529 87.9891 636.54 57.29 628.315Z" stroke="black" stroke-opacity="0.64"/>
<defs>
<linearGradient id="paint0_linear_33_572" x1="248.573" y1="723.198" x2="414.667" y2="1124.84" gradientUnits="userSpaceOnUse">
<stop stop-color="#E8FFA3"/>
<stop offset="1" stop-color="white"/>
</linearGradient>
<linearGradient id="paint1_linear_33_572" x1="57.1606" y1="628.798" x2="169.652" y2="208.976" gradientUnits="userSpaceOnUse">
<stop stop-color="#E8FFA3"/>
<stop offset="1" stop-color="white"/>
</linearGradient>
</defs>
</svg>
