<svg width="822" height="853" viewBox="0 0 822 853" fill="none" xmlns="http://www.w3.org/2000/svg">
<mask id="path-1-outside-1_33_621" maskUnits="userSpaceOnUse" x="145.01" y="379.137" width="117" height="40" fill="black">
<rect fill="white" x="145.01" y="379.137" width="117" height="40"/>
<path d="M151.569 391.457C154.153 391.29 156.151 390.512 157.563 389.124C158.999 387.736 159.717 385.87 159.717 383.524V380.617H162.696V383.524C162.696 385.822 163.39 387.664 164.778 389.052C166.19 390.44 168.164 391.218 170.7 391.385V393.97C168.523 393.826 166.609 393.3 164.957 392.39C163.306 391.457 162.062 390.225 161.224 388.693C160.387 390.273 159.119 391.541 157.42 392.498C155.745 393.431 153.794 393.97 151.569 394.113V391.457ZM162.732 394.041V399.892H175.403V402.548H146.974V399.892H159.789V394.041H162.732ZM197.515 395.872H194.572V387.186H181.327V384.529H195.9C196.426 384.529 196.821 384.673 197.084 384.96C197.371 385.223 197.515 385.618 197.515 386.145V395.872ZM189.726 391.888V399.892H203.76V402.548H175.332V399.892H186.782V391.888H189.726ZM183.983 414.681H198.197V417.337H182.655C182.128 417.337 181.721 417.193 181.434 416.906C181.171 416.643 181.039 416.248 181.039 415.722V406.533H183.983V414.681ZM208.285 391.457C210.869 391.29 212.867 390.512 214.279 389.124C215.715 387.736 216.433 385.87 216.433 383.524V380.617H219.412V383.524C219.412 385.822 220.106 387.664 221.494 389.052C222.905 390.44 224.88 391.218 227.416 391.385V393.97C225.239 393.826 223.324 393.3 221.673 392.39C220.022 391.457 218.778 390.225 217.94 388.693C217.103 390.273 215.834 391.541 214.135 392.498C212.46 393.431 210.51 393.97 208.285 394.113V391.457ZM219.448 394.041V399.892H232.118V402.548H203.69V399.892H216.504V394.041H219.448ZM254.231 395.872H251.287V387.186H238.042V384.529H252.615C253.142 384.529 253.537 384.673 253.8 384.96C254.087 385.223 254.231 385.618 254.231 386.145V395.872ZM246.442 391.888V399.892H260.476V402.548H232.048V399.892H243.498V391.888H246.442ZM240.698 414.681H254.913V417.337H239.37C238.844 417.337 238.437 417.193 238.15 416.906C237.887 416.643 237.755 416.248 237.755 415.722V406.533H240.698V414.681Z"/>
</mask>
<path d="M151.569 391.457C154.153 391.29 156.151 390.512 157.563 389.124C158.999 387.736 159.717 385.87 159.717 383.524V380.617H162.696V383.524C162.696 385.822 163.39 387.664 164.778 389.052C166.19 390.44 168.164 391.218 170.7 391.385V393.97C168.523 393.826 166.609 393.3 164.957 392.39C163.306 391.457 162.062 390.225 161.224 388.693C160.387 390.273 159.119 391.541 157.42 392.498C155.745 393.431 153.794 393.97 151.569 394.113V391.457ZM162.732 394.041V399.892H175.403V402.548H146.974V399.892H159.789V394.041H162.732ZM197.515 395.872H194.572V387.186H181.327V384.529H195.9C196.426 384.529 196.821 384.673 197.084 384.96C197.371 385.223 197.515 385.618 197.515 386.145V395.872ZM189.726 391.888V399.892H203.76V402.548H175.332V399.892H186.782V391.888H189.726ZM183.983 414.681H198.197V417.337H182.655C182.128 417.337 181.721 417.193 181.434 416.906C181.171 416.643 181.039 416.248 181.039 415.722V406.533H183.983V414.681ZM208.285 391.457C210.869 391.29 212.867 390.512 214.279 389.124C215.715 387.736 216.433 385.87 216.433 383.524V380.617H219.412V383.524C219.412 385.822 220.106 387.664 221.494 389.052C222.905 390.44 224.88 391.218 227.416 391.385V393.97C225.239 393.826 223.324 393.3 221.673 392.39C220.022 391.457 218.778 390.225 217.94 388.693C217.103 390.273 215.834 391.541 214.135 392.498C212.46 393.431 210.51 393.97 208.285 394.113V391.457ZM219.448 394.041V399.892H232.118V402.548H203.69V399.892H216.504V394.041H219.448ZM254.231 395.872H251.287V387.186H238.042V384.529H252.615C253.142 384.529 253.537 384.673 253.8 384.96C254.087 385.223 254.231 385.618 254.231 386.145V395.872ZM246.442 391.888V399.892H260.476V402.548H232.048V399.892H243.498V391.888H246.442ZM240.698 414.681H254.913V417.337H239.37C238.844 417.337 238.437 417.193 238.15 416.906C237.887 416.643 237.755 416.248 237.755 415.722V406.533H240.698V414.681Z" fill="#98FFC4"/>
<path d="M151.569 391.457L151.504 390.459L150.569 390.52V391.457H151.569ZM157.563 389.124L156.868 388.405L156.862 388.411L157.563 389.124ZM159.717 380.617V379.617H158.717V380.617H159.717ZM162.696 380.617H163.696V379.617H162.696V380.617ZM164.778 389.052L164.071 389.759L164.077 389.765L164.778 389.052ZM170.7 391.385H171.7V390.449L170.766 390.387L170.7 391.385ZM170.7 393.97L170.635 394.968L171.7 395.038V393.97H170.7ZM164.957 392.39L164.465 393.261L164.475 393.266L164.957 392.39ZM161.224 388.693L162.102 388.213L161.211 386.584L160.341 388.225L161.224 388.693ZM157.42 392.498L157.906 393.372L157.91 393.369L157.42 392.498ZM151.569 394.113H150.569V395.18L151.633 395.111L151.569 394.113ZM162.732 394.041H163.732V393.041H162.732V394.041ZM162.732 399.892H161.732V400.892H162.732V399.892ZM175.403 399.892H176.403V398.892H175.403V399.892ZM175.403 402.548V403.548H176.403V402.548H175.403ZM146.974 402.548H145.974V403.548H146.974V402.548ZM146.974 399.892V398.892H145.974V399.892H146.974ZM159.789 399.892V400.892H160.789V399.892H159.789ZM159.789 394.041V393.041H158.789V394.041H159.789ZM151.569 391.457L151.634 392.455C154.382 392.277 156.634 391.439 158.264 389.837L157.563 389.124L156.862 388.411C155.668 389.584 153.924 390.302 151.504 390.459L151.569 391.457ZM157.563 389.124L158.258 389.843C159.923 388.234 160.717 386.089 160.717 383.524H159.717H158.717C158.717 385.65 158.075 387.238 156.868 388.405L157.563 389.124ZM159.717 383.524H160.717V380.617H159.717H158.717V383.524H159.717ZM159.717 380.617V381.617H162.696V380.617V379.617H159.717V380.617ZM162.696 380.617H161.696V383.524H162.696H163.696V380.617H162.696ZM162.696 383.524H161.696C161.696 386.038 162.463 388.152 164.071 389.759L164.778 389.052L165.485 388.345C164.317 387.177 163.696 385.605 163.696 383.524H162.696ZM164.778 389.052L164.077 389.765C165.703 391.364 167.929 392.204 170.635 392.383L170.7 391.385L170.766 390.387C168.399 390.231 166.676 389.516 165.479 388.339L164.778 389.052ZM170.7 391.385H169.7V393.97H170.7H171.7V391.385H170.7ZM170.7 393.97L170.766 392.972C168.712 392.836 166.944 392.343 165.44 391.514L164.957 392.39L164.475 393.266C166.273 394.257 168.334 394.816 170.635 394.968L170.7 393.97ZM164.957 392.39L165.449 391.52C163.946 390.67 162.842 389.567 162.102 388.213L161.224 388.693L160.347 389.173C161.282 390.882 162.666 392.244 164.465 393.261L164.957 392.39ZM161.224 388.693L160.341 388.225C159.601 389.62 158.477 390.755 156.929 391.627L157.42 392.498L157.91 393.369C159.76 392.327 161.173 390.925 162.108 389.162L161.224 388.693ZM157.42 392.498L156.933 391.624C155.407 392.475 153.606 392.98 151.504 393.115L151.569 394.113L151.633 395.111C153.983 394.96 156.082 394.388 157.906 393.372L157.42 392.498ZM151.569 394.113H152.569V391.457H151.569H150.569V394.113H151.569ZM162.732 394.041H161.732V399.892H162.732H163.732V394.041H162.732ZM162.732 399.892V400.892H175.403V399.892V398.892H162.732V399.892ZM175.403 399.892H174.403V402.548H175.403H176.403V399.892H175.403ZM175.403 402.548V401.548H146.974V402.548V403.548H175.403V402.548ZM146.974 402.548H147.974V399.892H146.974H145.974V402.548H146.974ZM146.974 399.892V400.892H159.789V399.892V398.892H146.974V399.892ZM159.789 399.892H160.789V394.041H159.789H158.789V399.892H159.789ZM159.789 394.041V395.041H162.732V394.041V393.041H159.789V394.041ZM197.515 395.872V396.872H198.515V395.872H197.515ZM194.572 395.872H193.572V396.872H194.572V395.872ZM194.572 387.186H195.572V386.186H194.572V387.186ZM181.327 387.186H180.327V388.186H181.327V387.186ZM181.327 384.529V383.529H180.327V384.529H181.327ZM197.084 384.96L196.347 385.636L196.376 385.668L196.408 385.697L197.084 384.96ZM189.726 391.888H190.726V390.888H189.726V391.888ZM189.726 399.892H188.726V400.892H189.726V399.892ZM203.76 399.892H204.76V398.892H203.76V399.892ZM203.76 402.548V403.548H204.76V402.548H203.76ZM175.332 402.548H174.332V403.548H175.332V402.548ZM175.332 399.892V398.892H174.332V399.892H175.332ZM186.782 399.892V400.892H187.782V399.892H186.782ZM186.782 391.888V390.888H185.782V391.888H186.782ZM183.983 414.681H182.983V415.681H183.983V414.681ZM198.197 414.681H199.197V413.681H198.197V414.681ZM198.197 417.337V418.337H199.197V417.337H198.197ZM181.434 416.906L182.141 416.199L182.141 416.199L181.434 416.906ZM181.039 406.533V405.533H180.039V406.533H181.039ZM183.983 406.533H184.983V405.533H183.983V406.533ZM197.515 395.872V394.872H194.572V395.872V396.872H197.515V395.872ZM194.572 395.872H195.572V387.186H194.572H193.572V395.872H194.572ZM194.572 387.186V386.186H181.327V387.186V388.186H194.572V387.186ZM181.327 387.186H182.327V384.529H181.327H180.327V387.186H181.327ZM181.327 384.529V385.529H195.9V384.529V383.529H181.327V384.529ZM195.9 384.529V385.529C196.248 385.529 196.333 385.621 196.347 385.636L197.084 384.96L197.821 384.285C197.309 383.726 196.604 383.529 195.9 383.529V384.529ZM197.084 384.96L196.408 385.697C196.424 385.711 196.515 385.796 196.515 386.145H197.515H198.515C198.515 385.441 198.319 384.735 197.76 384.223L197.084 384.96ZM197.515 386.145H196.515V395.872H197.515H198.515V386.145H197.515ZM189.726 391.888H188.726V399.892H189.726H190.726V391.888H189.726ZM189.726 399.892V400.892H203.76V399.892V398.892H189.726V399.892ZM203.76 399.892H202.76V402.548H203.76H204.76V399.892H203.76ZM203.76 402.548V401.548H175.332V402.548V403.548H203.76V402.548ZM175.332 402.548H176.332V399.892H175.332H174.332V402.548H175.332ZM175.332 399.892V400.892H186.782V399.892V398.892H175.332V399.892ZM186.782 399.892H187.782V391.888H186.782H185.782V399.892H186.782ZM186.782 391.888V392.888H189.726V391.888V390.888H186.782V391.888ZM183.983 414.681V415.681H198.197V414.681V413.681H183.983V414.681ZM198.197 414.681H197.197V417.337H198.197H199.197V414.681H198.197ZM198.197 417.337V416.337H182.655V417.337V418.337H198.197V417.337ZM182.655 417.337V416.337C182.311 416.337 182.19 416.248 182.141 416.199L181.434 416.906L180.727 417.613C181.253 418.139 181.945 418.337 182.655 418.337V417.337ZM181.434 416.906L182.141 416.199C182.132 416.189 182.039 416.094 182.039 415.722H181.039H180.039C180.039 416.402 180.21 417.096 180.727 417.613L181.434 416.906ZM181.039 415.722H182.039V406.533H181.039H180.039V415.722H181.039ZM181.039 406.533V407.533H183.983V406.533V405.533H181.039V406.533ZM183.983 406.533H182.983V414.681H183.983H184.983V406.533H183.983ZM208.285 391.457L208.22 390.459L207.285 390.52V391.457H208.285ZM214.279 389.124L213.584 388.405L213.578 388.411L214.279 389.124ZM216.433 380.617V379.617H215.433V380.617H216.433ZM219.412 380.617H220.412V379.617H219.412V380.617ZM221.494 389.052L220.786 389.759L220.793 389.765L221.494 389.052ZM227.416 391.385H228.416V390.449L227.482 390.387L227.416 391.385ZM227.416 393.97L227.35 394.968L228.416 395.038V393.97H227.416ZM221.673 392.39L221.181 393.261L221.191 393.266L221.673 392.39ZM217.94 388.693L218.817 388.213L217.927 386.584L217.057 388.225L217.94 388.693ZM214.135 392.498L214.622 393.372L214.626 393.369L214.135 392.498ZM208.285 394.113H207.285V395.18L208.349 395.111L208.285 394.113ZM219.448 394.041H220.448V393.041H219.448V394.041ZM219.448 399.892H218.448V400.892H219.448V399.892ZM232.118 399.892H233.118V398.892H232.118V399.892ZM232.118 402.548V403.548H233.118V402.548H232.118ZM203.69 402.548H202.69V403.548H203.69V402.548ZM203.69 399.892V398.892H202.69V399.892H203.69ZM216.504 399.892V400.892H217.504V399.892H216.504ZM216.504 394.041V393.041H215.504V394.041H216.504ZM208.285 391.457L208.349 392.455C211.098 392.277 213.35 391.439 214.98 389.837L214.279 389.124L213.578 388.411C212.384 389.584 210.64 390.302 208.22 390.459L208.285 391.457ZM214.279 389.124L214.974 389.843C216.639 388.234 217.433 386.089 217.433 383.524H216.433H215.433C215.433 385.65 214.791 387.238 213.584 388.405L214.279 389.124ZM216.433 383.524H217.433V380.617H216.433H215.433V383.524H216.433ZM216.433 380.617V381.617H219.412V380.617V379.617H216.433V380.617ZM219.412 380.617H218.412V383.524H219.412H220.412V380.617H219.412ZM219.412 383.524H218.412C218.412 386.038 219.179 388.152 220.787 389.759L221.494 389.052L222.201 388.345C221.032 387.177 220.412 385.605 220.412 383.524H219.412ZM221.494 389.052L220.793 389.765C222.419 391.364 224.644 392.204 227.35 392.383L227.416 391.385L227.482 390.387C225.115 390.231 223.392 389.516 222.195 388.339L221.494 389.052ZM227.416 391.385H226.416V393.97H227.416H228.416V391.385H227.416ZM227.416 393.97L227.482 392.972C225.428 392.836 223.66 392.343 222.155 391.514L221.673 392.39L221.191 393.266C222.989 394.257 225.05 394.816 227.35 394.968L227.416 393.97ZM221.673 392.39L222.165 391.52C220.662 390.67 219.558 389.567 218.817 388.213L217.94 388.693L217.063 389.173C217.997 390.882 219.382 392.244 221.181 393.261L221.673 392.39ZM217.94 388.693L217.057 388.225C216.317 389.62 215.192 390.755 213.644 391.627L214.135 392.498L214.626 393.369C216.476 392.327 217.888 390.925 218.824 389.162L217.94 388.693ZM214.135 392.498L213.649 391.624C212.123 392.475 210.321 392.98 208.22 393.115L208.285 394.113L208.349 395.111C210.699 394.96 212.798 394.388 214.622 393.372L214.135 392.498ZM208.285 394.113H209.285V391.457H208.285H207.285V394.113H208.285ZM219.448 394.041H218.448V399.892H219.448H220.448V394.041H219.448ZM219.448 399.892V400.892H232.118V399.892V398.892H219.448V399.892ZM232.118 399.892H231.118V402.548H232.118H233.118V399.892H232.118ZM232.118 402.548V401.548H203.69V402.548V403.548H232.118V402.548ZM203.69 402.548H204.69V399.892H203.69H202.69V402.548H203.69ZM203.69 399.892V400.892H216.504V399.892V398.892H203.69V399.892ZM216.504 399.892H217.504V394.041H216.504H215.504V399.892H216.504ZM216.504 394.041V395.041H219.448V394.041V393.041H216.504V394.041ZM254.231 395.872V396.872H255.231V395.872H254.231ZM251.287 395.872H250.287V396.872H251.287V395.872ZM251.287 387.186H252.287V386.186H251.287V387.186ZM238.042 387.186H237.042V388.186H238.042V387.186ZM238.042 384.529V383.529H237.042V384.529H238.042ZM253.8 384.96L253.063 385.636L253.092 385.668L253.124 385.697L253.8 384.96ZM246.442 391.888H247.442V390.888H246.442V391.888ZM246.442 399.892H245.442V400.892H246.442V399.892ZM260.476 399.892H261.476V398.892H260.476V399.892ZM260.476 402.548V403.548H261.476V402.548H260.476ZM232.048 402.548H231.048V403.548H232.048V402.548ZM232.048 399.892V398.892H231.048V399.892H232.048ZM243.498 399.892V400.892H244.498V399.892H243.498ZM243.498 391.888V390.888H242.498V391.888H243.498ZM240.698 414.681H239.698V415.681H240.698V414.681ZM254.913 414.681H255.913V413.681H254.913V414.681ZM254.913 417.337V418.337H255.913V417.337H254.913ZM238.15 416.906L238.857 416.199L238.857 416.199L238.15 416.906ZM237.755 406.533V405.533H236.755V406.533H237.755ZM240.698 406.533H241.698V405.533H240.698V406.533ZM254.231 395.872V394.872H251.287V395.872V396.872H254.231V395.872ZM251.287 395.872H252.287V387.186H251.287H250.287V395.872H251.287ZM251.287 387.186V386.186H238.042V387.186V388.186H251.287V387.186ZM238.042 387.186H239.042V384.529H238.042H237.042V387.186H238.042ZM238.042 384.529V385.529H252.615V384.529V383.529H238.042V384.529ZM252.615 384.529V385.529C252.964 385.529 253.049 385.621 253.063 385.636L253.8 384.96L254.537 384.285C254.025 383.726 253.319 383.529 252.615 383.529V384.529ZM253.8 384.96L253.124 385.697C253.139 385.711 253.231 385.796 253.231 386.145H254.231H255.231C255.231 385.441 255.035 384.735 254.476 384.223L253.8 384.96ZM254.231 386.145H253.231V395.872H254.231H255.231V386.145H254.231ZM246.442 391.888H245.442V399.892H246.442H247.442V391.888H246.442ZM246.442 399.892V400.892H260.476V399.892V398.892H246.442V399.892ZM260.476 399.892H259.476V402.548H260.476H261.476V399.892H260.476ZM260.476 402.548V401.548H232.048V402.548V403.548H260.476V402.548ZM232.048 402.548H233.048V399.892H232.048H231.048V402.548H232.048ZM232.048 399.892V400.892H243.498V399.892V398.892H232.048V399.892ZM243.498 399.892H244.498V391.888H243.498H242.498V399.892H243.498ZM243.498 391.888V392.888H246.442V391.888V390.888H243.498V391.888ZM240.698 414.681V415.681H254.913V414.681V413.681H240.698V414.681ZM254.913 414.681H253.913V417.337H254.913H255.913V414.681H254.913ZM254.913 417.337V416.337H239.37V417.337V418.337H254.913V417.337ZM239.37 417.337V416.337C239.027 416.337 238.906 416.248 238.857 416.199L238.15 416.906L237.443 417.613C237.968 418.139 238.661 418.337 239.37 418.337V417.337ZM238.15 416.906L238.857 416.199C238.848 416.189 238.755 416.094 238.755 415.722H237.755H236.755C236.755 416.402 236.926 417.096 237.443 417.613L238.15 416.906ZM237.755 415.722H238.755V406.533H237.755H236.755V415.722H237.755ZM237.755 406.533V407.533H240.698V406.533V405.533H237.755V406.533ZM240.698 406.533H239.698V414.681H240.698H241.698V406.533H240.698Z" fill="black" fill-opacity="0.25" mask="url(#path-1-outside-1_33_621)"/>
<circle cx="323.409" cy="357.905" r="8.52173" fill="#FFFEA3"/>
<circle cx="323.409" cy="357.905" r="8.02173" stroke="black" stroke-opacity="0.25"/>
<circle cx="211.9" cy="165.484" r="8.52173" fill="#FFFEA3"/>
<circle cx="211.9" cy="165.484" r="8.02173" stroke="black" stroke-opacity="0.25"/>
<circle cx="324.92" cy="119.462" r="8.52173" fill="#FFFEA3"/>
<circle cx="324.92" cy="119.462" r="8.02173" stroke="black" stroke-opacity="0.25"/>
<circle cx="362.664" cy="460.977" r="8.52173" fill="#FFFEA3"/>
<circle cx="362.664" cy="460.977" r="8.02173" stroke="black" stroke-opacity="0.25"/>
<circle cx="220.421" cy="675.445" r="20.3291" fill="#FFFEA3"/>
<circle cx="220.421" cy="675.445" r="19.8291" stroke="black" stroke-opacity="0.25"/>
<circle cx="173.79" cy="784.069" r="12.2799" fill="#FFFEA3"/>
<circle cx="173.79" cy="784.069" r="11.7799" stroke="black" stroke-opacity="0.25"/>
<circle cx="246.669" cy="844.217" r="7.9519" fill="#FFFEA3"/>
<circle cx="246.669" cy="844.217" r="7.4519" stroke="black" stroke-opacity="0.25"/>
<circle cx="310.996" cy="341.898" r="5.40283" fill="#FFFEA3"/>
<circle cx="310.996" cy="341.898" r="4.90283" stroke="black" stroke-opacity="0.25"/>
<path d="M521.011 457.614C500.024 482.177 463.097 485.076 438.534 464.089C434.879 460.966 431.703 457.49 429.015 453.754C406.19 422.038 404.863 371.622 375.602 345.725L43.6436 51.9339C39.9673 48.6802 39.5767 43.0805 42.7658 39.3479L44.7927 36.9756C48.0614 33.1499 53.8318 32.7475 57.6 36.0823L387.508 328.059C417.577 354.671 469.916 348.923 504.983 368.483C508.319 370.343 511.521 372.56 514.536 375.136C539.1 396.123 541.999 433.05 521.011 457.614Z" fill="url(#paint0_linear_33_621)"/>
<path d="M520.631 457.289C499.823 481.643 463.212 484.517 438.859 463.709C435.234 460.612 432.085 457.166 429.42 453.462C418.062 437.68 412.051 417.241 405.194 397.394C398.354 377.595 390.673 358.397 375.933 345.351L43.9751 51.5595C40.503 48.4865 40.1346 43.1979 43.1465 39.6727L45.1733 37.3005C48.2604 33.6876 53.7093 33.3076 57.2681 36.457L387.177 328.433C402.323 341.838 423.053 347.072 444.271 351.405C465.541 355.748 487.292 359.187 504.74 368.919C508.047 370.763 511.221 372.961 514.211 375.516L514.778 376.007C538.608 396.896 541.277 433.126 520.631 457.289Z" stroke="black" stroke-opacity="0.64"/>
<path d="M267.064 777.285C248.554 750.804 255.015 714.332 281.496 695.822C285.436 693.068 289.598 690.866 293.889 689.201C330.319 675.067 379.454 686.436 411.866 664.611L779.568 417.014C783.64 414.271 789.159 415.299 791.972 419.323L793.759 421.88C796.642 426.004 795.583 431.691 791.41 434.502L425.978 680.57C392.672 702.997 385.1 755.104 357.365 784.14C354.726 786.902 351.777 789.445 348.527 791.717C322.046 810.227 285.574 803.766 267.064 777.285Z" fill="url(#paint1_linear_33_621)"/>
<path d="M267.474 776.998C249.122 750.744 255.528 714.584 281.782 696.232C285.69 693.5 289.816 691.317 294.07 689.667C312.198 682.634 333.491 681.945 354.423 680.289C375.306 678.637 395.817 676.02 412.145 665.026L779.847 417.428C783.693 414.839 788.905 415.809 791.562 419.61L793.349 422.167C796.072 426.062 795.072 431.432 791.13 434.086L425.699 680.155C408.922 691.453 398.653 710.205 389.133 729.657C379.591 749.156 370.803 769.348 357.003 783.795C354.388 786.533 351.464 789.054 348.24 791.307L347.623 791.733C321.422 809.558 285.682 803.048 267.474 776.998Z" stroke="black" stroke-opacity="0.64"/>
<defs>
<linearGradient id="paint0_linear_33_621" x1="521.011" y1="457.614" x2="190.569" y2="175.28" gradientUnits="userSpaceOnUse">
<stop stop-color="#E8FFA3"/>
<stop offset="1" stop-color="white"/>
</linearGradient>
<linearGradient id="paint1_linear_33_621" x1="267.064" y1="777.285" x2="623.295" y2="528.279" gradientUnits="userSpaceOnUse">
<stop stop-color="#E8FFA3"/>
<stop offset="1" stop-color="white"/>
</linearGradient>
</defs>
</svg>
