<svg width="717" height="1298" viewBox="0 0 717 1298" fill="none" xmlns="http://www.w3.org/2000/svg">
<mask id="path-1-outside-1_33_586" maskUnits="userSpaceOnUse" x="240.755" y="644.321" width="132" height="44" fill="black">
<rect fill="white" x="240.755" y="644.321" width="132" height="44"/>
<path d="M268.276 646.262H271.219V654.338H276.244V656.995H271.219V661.087C271.219 662.738 271.494 663.982 272.045 664.82C272.619 665.657 273.588 666.076 274.952 666.076H275.849V668.732H274.916C272.739 668.732 271.087 668.098 269.963 666.83C268.838 665.561 268.276 663.683 268.276 661.194V646.262ZM242.719 668.732V666.076H245.519C248.223 666.076 250.317 665.49 251.8 664.317C253.308 663.121 254.062 661.445 254.062 659.292V658.323H246.596V655.666H254.062V651H257.113V655.666H264.363V658.323H257.113V659.292C257.113 661.35 257.807 662.965 259.194 664.138C260.606 665.31 262.569 665.932 265.081 666.004V668.588C262.951 668.564 261.061 668.182 259.41 667.44C257.759 666.674 256.49 665.609 255.605 664.245C254.767 665.657 253.487 666.758 251.764 667.547C250.065 668.337 248.103 668.732 245.878 668.732H242.719ZM258.441 684.633H271.075V687.289H257.113C256.586 687.289 256.179 687.146 255.892 686.859C255.629 686.595 255.497 686.201 255.497 685.674V678.244H267.45V674.619H255.497V671.962H268.778C269.305 671.962 269.699 672.106 269.963 672.393C270.25 672.656 270.393 673.051 270.393 673.578V680.864H258.441V684.633ZM299.106 646.262H302.049V654.338H307.075V656.995H302.049V661.087C302.049 662.738 302.325 663.982 302.875 664.82C303.449 665.657 304.418 666.076 305.782 666.076H306.68V668.732H305.746C303.569 668.732 301.918 668.098 300.793 666.83C299.668 665.561 299.106 663.683 299.106 661.194V646.262ZM294.763 666.076V668.732H275.739V666.076H280.549C280.166 665.573 279.974 664.82 279.974 663.814V658.682H289.953V654.374H279.974V651.718H291.281C291.808 651.718 292.202 651.862 292.466 652.149C292.753 652.412 292.896 652.807 292.896 653.333V661.302H282.918V663.922C282.918 664.688 283.061 665.238 283.348 665.573C283.66 665.908 284.138 666.076 284.784 666.076H294.763ZM294.835 685.423C293.447 685.423 292.19 685.124 291.066 684.525C289.965 683.951 289.104 683.138 288.481 682.085C287.859 681.056 287.548 679.883 287.548 678.567C287.548 677.251 287.859 676.078 288.481 675.049C289.104 674.02 289.965 673.219 291.066 672.644C292.19 672.046 293.447 671.747 294.835 671.747H301.331V674.403H294.835C293.566 674.403 292.525 674.798 291.712 675.588C290.898 676.354 290.491 677.347 290.491 678.567C290.491 679.787 290.898 680.792 291.712 681.582C292.525 682.372 293.566 682.767 294.835 682.767C296.079 682.767 297.108 682.372 297.922 681.582C298.735 680.792 299.142 679.787 299.142 678.567C299.142 677.729 298.95 676.988 298.568 676.342H301.475C301.882 676.988 302.085 677.729 302.085 678.567C302.085 679.883 301.774 681.056 301.152 682.085C300.53 683.138 299.668 683.951 298.568 684.525C297.467 685.124 296.223 685.423 294.835 685.423ZM332.177 646.262H335.121V654.338H340.146V656.995H335.121V661.087C335.121 662.738 335.396 663.982 335.946 664.82C336.52 665.657 337.49 666.076 338.854 666.076H339.751V668.732H338.818C336.64 668.732 334.989 668.098 333.864 666.83C332.74 665.561 332.177 663.683 332.177 661.194V646.262ZM306.621 668.732V666.076H309.42C312.124 666.076 314.218 665.49 315.702 664.317C317.209 663.121 317.963 661.445 317.963 659.292V658.323H310.497V655.666H317.963V651H321.014V655.666H328.265V658.323H321.014V659.292C321.014 661.35 321.708 662.965 323.096 664.138C324.508 665.31 326.47 665.932 328.983 666.004V668.588C326.853 668.564 324.963 668.182 323.311 667.44C321.66 666.674 320.392 665.609 319.507 664.245C318.669 665.657 317.389 666.758 315.666 667.547C313.967 668.337 312.005 668.732 309.779 668.732H306.621ZM322.342 684.633H334.977V687.289H321.014C320.488 687.289 320.081 687.146 319.794 686.859C319.531 686.595 319.399 686.201 319.399 685.674V678.244H331.352V674.619H319.399V671.962H332.68C333.206 671.962 333.601 672.106 333.864 672.393C334.151 672.656 334.295 673.051 334.295 673.578V680.864H322.342V684.633ZM363.008 646.262H365.951V654.338H370.976V656.995H365.951V661.087C365.951 662.738 366.226 663.982 366.776 664.82C367.351 665.657 368.32 666.076 369.684 666.076H370.581V668.732H369.648C367.47 668.732 365.819 668.098 364.695 666.83C363.57 665.561 363.008 663.683 363.008 661.194V646.262ZM358.664 666.076V668.732H339.64V666.076H344.45C344.067 665.573 343.876 664.82 343.876 663.814V658.682H353.855V654.374H343.876V651.718H355.183C355.709 651.718 356.104 651.862 356.367 652.149C356.654 652.412 356.798 652.807 356.798 653.333V661.302H346.819V663.922C346.819 664.688 346.963 665.238 347.25 665.573C347.561 665.908 348.04 666.076 348.686 666.076H358.664ZM358.736 685.423C357.348 685.423 356.092 685.124 354.967 684.525C353.867 683.951 353.005 683.138 352.383 682.085C351.761 681.056 351.45 679.883 351.45 678.567C351.45 677.251 351.761 676.078 352.383 675.049C353.005 674.02 353.867 673.219 354.967 672.644C356.092 672.046 357.348 671.747 358.736 671.747H365.233V674.403H358.736C357.468 674.403 356.427 674.798 355.613 675.588C354.8 676.354 354.393 677.347 354.393 678.567C354.393 679.787 354.8 680.792 355.613 681.582C356.427 682.372 357.468 682.767 358.736 682.767C359.981 682.767 361.009 682.372 361.823 681.582C362.637 680.792 363.043 679.787 363.043 678.567C363.043 677.729 362.852 676.988 362.469 676.342H365.377C365.783 676.988 365.987 677.729 365.987 678.567C365.987 679.883 365.676 681.056 365.054 682.085C364.431 683.138 363.57 683.951 362.469 684.525C361.368 685.124 360.124 685.423 358.736 685.423Z"/>
</mask>
<path d="M268.276 646.262H271.219V654.338H276.244V656.995H271.219V661.087C271.219 662.738 271.494 663.982 272.045 664.82C272.619 665.657 273.588 666.076 274.952 666.076H275.849V668.732H274.916C272.739 668.732 271.087 668.098 269.963 666.83C268.838 665.561 268.276 663.683 268.276 661.194V646.262ZM242.719 668.732V666.076H245.519C248.223 666.076 250.317 665.49 251.8 664.317C253.308 663.121 254.062 661.445 254.062 659.292V658.323H246.596V655.666H254.062V651H257.113V655.666H264.363V658.323H257.113V659.292C257.113 661.35 257.807 662.965 259.194 664.138C260.606 665.31 262.569 665.932 265.081 666.004V668.588C262.951 668.564 261.061 668.182 259.41 667.44C257.759 666.674 256.49 665.609 255.605 664.245C254.767 665.657 253.487 666.758 251.764 667.547C250.065 668.337 248.103 668.732 245.878 668.732H242.719ZM258.441 684.633H271.075V687.289H257.113C256.586 687.289 256.179 687.146 255.892 686.859C255.629 686.595 255.497 686.201 255.497 685.674V678.244H267.45V674.619H255.497V671.962H268.778C269.305 671.962 269.699 672.106 269.963 672.393C270.25 672.656 270.393 673.051 270.393 673.578V680.864H258.441V684.633ZM299.106 646.262H302.049V654.338H307.075V656.995H302.049V661.087C302.049 662.738 302.325 663.982 302.875 664.82C303.449 665.657 304.418 666.076 305.782 666.076H306.68V668.732H305.746C303.569 668.732 301.918 668.098 300.793 666.83C299.668 665.561 299.106 663.683 299.106 661.194V646.262ZM294.763 666.076V668.732H275.739V666.076H280.549C280.166 665.573 279.974 664.82 279.974 663.814V658.682H289.953V654.374H279.974V651.718H291.281C291.808 651.718 292.202 651.862 292.466 652.149C292.753 652.412 292.896 652.807 292.896 653.333V661.302H282.918V663.922C282.918 664.688 283.061 665.238 283.348 665.573C283.66 665.908 284.138 666.076 284.784 666.076H294.763ZM294.835 685.423C293.447 685.423 292.19 685.124 291.066 684.525C289.965 683.951 289.104 683.138 288.481 682.085C287.859 681.056 287.548 679.883 287.548 678.567C287.548 677.251 287.859 676.078 288.481 675.049C289.104 674.02 289.965 673.219 291.066 672.644C292.19 672.046 293.447 671.747 294.835 671.747H301.331V674.403H294.835C293.566 674.403 292.525 674.798 291.712 675.588C290.898 676.354 290.491 677.347 290.491 678.567C290.491 679.787 290.898 680.792 291.712 681.582C292.525 682.372 293.566 682.767 294.835 682.767C296.079 682.767 297.108 682.372 297.922 681.582C298.735 680.792 299.142 679.787 299.142 678.567C299.142 677.729 298.95 676.988 298.568 676.342H301.475C301.882 676.988 302.085 677.729 302.085 678.567C302.085 679.883 301.774 681.056 301.152 682.085C300.53 683.138 299.668 683.951 298.568 684.525C297.467 685.124 296.223 685.423 294.835 685.423ZM332.177 646.262H335.121V654.338H340.146V656.995H335.121V661.087C335.121 662.738 335.396 663.982 335.946 664.82C336.52 665.657 337.49 666.076 338.854 666.076H339.751V668.732H338.818C336.64 668.732 334.989 668.098 333.864 666.83C332.74 665.561 332.177 663.683 332.177 661.194V646.262ZM306.621 668.732V666.076H309.42C312.124 666.076 314.218 665.49 315.702 664.317C317.209 663.121 317.963 661.445 317.963 659.292V658.323H310.497V655.666H317.963V651H321.014V655.666H328.265V658.323H321.014V659.292C321.014 661.35 321.708 662.965 323.096 664.138C324.508 665.31 326.47 665.932 328.983 666.004V668.588C326.853 668.564 324.963 668.182 323.311 667.44C321.66 666.674 320.392 665.609 319.507 664.245C318.669 665.657 317.389 666.758 315.666 667.547C313.967 668.337 312.005 668.732 309.779 668.732H306.621ZM322.342 684.633H334.977V687.289H321.014C320.488 687.289 320.081 687.146 319.794 686.859C319.531 686.595 319.399 686.201 319.399 685.674V678.244H331.352V674.619H319.399V671.962H332.68C333.206 671.962 333.601 672.106 333.864 672.393C334.151 672.656 334.295 673.051 334.295 673.578V680.864H322.342V684.633ZM363.008 646.262H365.951V654.338H370.976V656.995H365.951V661.087C365.951 662.738 366.226 663.982 366.776 664.82C367.351 665.657 368.32 666.076 369.684 666.076H370.581V668.732H369.648C367.47 668.732 365.819 668.098 364.695 666.83C363.57 665.561 363.008 663.683 363.008 661.194V646.262ZM358.664 666.076V668.732H339.64V666.076H344.45C344.067 665.573 343.876 664.82 343.876 663.814V658.682H353.855V654.374H343.876V651.718H355.183C355.709 651.718 356.104 651.862 356.367 652.149C356.654 652.412 356.798 652.807 356.798 653.333V661.302H346.819V663.922C346.819 664.688 346.963 665.238 347.25 665.573C347.561 665.908 348.04 666.076 348.686 666.076H358.664ZM358.736 685.423C357.348 685.423 356.092 685.124 354.967 684.525C353.867 683.951 353.005 683.138 352.383 682.085C351.761 681.056 351.45 679.883 351.45 678.567C351.45 677.251 351.761 676.078 352.383 675.049C353.005 674.02 353.867 673.219 354.967 672.644C356.092 672.046 357.348 671.747 358.736 671.747H365.233V674.403H358.736C357.468 674.403 356.427 674.798 355.613 675.588C354.8 676.354 354.393 677.347 354.393 678.567C354.393 679.787 354.8 680.792 355.613 681.582C356.427 682.372 357.468 682.767 358.736 682.767C359.981 682.767 361.009 682.372 361.823 681.582C362.637 680.792 363.043 679.787 363.043 678.567C363.043 677.729 362.852 676.988 362.469 676.342H365.377C365.783 676.988 365.987 677.729 365.987 678.567C365.987 679.883 365.676 681.056 365.054 682.085C364.431 683.138 363.57 683.951 362.469 684.525C361.368 685.124 360.124 685.423 358.736 685.423Z" fill="#E1FEFF"/>
<path d="M268.276 646.262V645.262H267.276V646.262H268.276ZM271.219 646.262H272.219V645.262H271.219V646.262ZM271.219 654.338H270.219V655.338H271.219V654.338ZM276.244 654.338H277.244V653.338H276.244V654.338ZM276.244 656.995V657.995H277.244V656.995H276.244ZM271.219 656.995V655.995H270.219V656.995H271.219ZM272.045 664.82L271.209 665.369L271.214 665.377L271.22 665.385L272.045 664.82ZM275.849 666.076H276.849V665.076H275.849V666.076ZM275.849 668.732V669.732H276.849V668.732H275.849ZM269.963 666.83L269.215 667.493L269.215 667.493L269.963 666.83ZM242.719 668.732H241.719V669.732H242.719V668.732ZM242.719 666.076V665.076H241.719V666.076H242.719ZM251.8 664.317L252.42 665.102L252.422 665.1L251.8 664.317ZM254.062 658.323H255.062V657.323H254.062V658.323ZM246.596 658.323H245.596V659.323H246.596V658.323ZM246.596 655.666V654.666H245.596V655.666H246.596ZM254.062 655.666V656.666H255.062V655.666H254.062ZM254.062 651V650H253.062V651H254.062ZM257.113 651H258.113V650H257.113V651ZM257.113 655.666H256.113V656.666H257.113V655.666ZM264.363 655.666H265.363V654.666H264.363V655.666ZM264.363 658.323V659.323H265.363V658.323H264.363ZM257.113 658.323V657.323H256.113V658.323H257.113ZM259.194 664.138L258.549 664.901L258.556 664.907L259.194 664.138ZM265.081 666.004H266.081V665.032L265.11 665.004L265.081 666.004ZM265.081 668.588L265.07 669.588L266.081 669.6V668.588H265.081ZM259.41 667.44L258.989 668.347L259 668.352L259.41 667.44ZM255.605 664.245L256.444 663.701L255.567 662.35L254.745 663.735L255.605 664.245ZM251.764 667.547L251.348 666.638L251.343 666.641L251.764 667.547ZM258.441 684.633H257.441V685.633H258.441V684.633ZM271.075 684.633H272.075V683.633H271.075V684.633ZM271.075 687.289V688.289H272.075V687.289H271.075ZM255.892 686.859L256.599 686.151L256.599 686.151L255.892 686.859ZM255.497 678.244V677.244H254.497V678.244H255.497ZM267.45 678.244V679.244H268.45V678.244H267.45ZM267.45 674.619H268.45V673.619H267.45V674.619ZM255.497 674.619H254.497V675.619H255.497V674.619ZM255.497 671.962V670.962H254.497V671.962H255.497ZM269.963 672.393L269.226 673.069L269.255 673.101L269.287 673.13L269.963 672.393ZM270.393 680.864V681.864H271.393V680.864H270.393ZM258.441 680.864V679.864H257.441V680.864H258.441ZM268.276 646.262V647.262H271.219V646.262V645.262H268.276V646.262ZM271.219 646.262H270.219V654.338H271.219H272.219V646.262H271.219ZM271.219 654.338V655.338H276.244V654.338V653.338H271.219V654.338ZM276.244 654.338H275.244V656.995H276.244H277.244V654.338H276.244ZM276.244 656.995V655.995H271.219V656.995V657.995H276.244V656.995ZM271.219 656.995H270.219V661.087H271.219H272.219V656.995H271.219ZM271.219 661.087H270.219C270.219 662.819 270.502 664.294 271.209 665.369L272.045 664.82L272.88 664.27C272.486 663.67 272.219 662.656 272.219 661.087H271.219ZM272.045 664.82L271.22 665.385C272.041 666.583 273.383 667.076 274.952 667.076V666.076V665.076C273.793 665.076 273.196 664.731 272.869 664.254L272.045 664.82ZM274.952 666.076V667.076H275.849V666.076V665.076H274.952V666.076ZM275.849 666.076H274.849V668.732H275.849H276.849V666.076H275.849ZM275.849 668.732V667.732H274.916V668.732V669.732H275.849V668.732ZM274.916 668.732V667.732C272.938 667.732 271.595 667.163 270.711 666.166L269.963 666.83L269.215 667.493C270.58 669.033 272.539 669.732 274.916 669.732V668.732ZM269.963 666.83L270.711 666.166C269.81 665.15 269.276 663.55 269.276 661.194H268.276H267.276C267.276 663.815 267.866 665.973 269.215 667.493L269.963 666.83ZM268.276 661.194H269.276V646.262H268.276H267.276V661.194H268.276ZM242.719 668.732H243.719V666.076H242.719H241.719V668.732H242.719ZM242.719 666.076V667.076H245.519V666.076V665.076H242.719V666.076ZM245.519 666.076V667.076C248.354 667.076 250.698 666.463 252.42 665.102L251.8 664.317L251.18 663.532C249.935 664.517 248.092 665.076 245.519 665.076V666.076ZM251.8 664.317L252.422 665.1C254.199 663.69 255.062 661.709 255.062 659.292H254.062H253.062C253.062 661.182 252.417 662.551 251.179 663.534L251.8 664.317ZM254.062 659.292H255.062V658.323H254.062H253.062V659.292H254.062ZM254.062 658.323V657.323H246.596V658.323V659.323H254.062V658.323ZM246.596 658.323H247.596V655.666H246.596H245.596V658.323H246.596ZM246.596 655.666V656.666H254.062V655.666V654.666H246.596V655.666ZM254.062 655.666H255.062V651H254.062H253.062V655.666H254.062ZM254.062 651V652H257.113V651V650H254.062V651ZM257.113 651H256.113V655.666H257.113H258.113V651H257.113ZM257.113 655.666V656.666H264.363V655.666V654.666H257.113V655.666ZM264.363 655.666H263.363V658.323H264.363H265.363V655.666H264.363ZM264.363 658.323V657.323H257.113V658.323V659.323H264.363V658.323ZM257.113 658.323H256.113V659.292H257.113H258.113V658.323H257.113ZM257.113 659.292H256.113C256.113 661.6 256.905 663.512 258.549 664.901L259.194 664.138L259.84 663.374C258.708 662.418 258.113 661.099 258.113 659.292H257.113ZM259.194 664.138L258.556 664.907C260.193 666.267 262.398 666.928 265.053 667.004L265.081 666.004L265.11 665.004C262.739 664.937 261.019 664.353 259.833 663.368L259.194 664.138ZM265.081 666.004H264.081V668.588H265.081H266.081V666.004H265.081ZM265.081 668.588L265.092 667.588C263.076 667.566 261.325 667.204 259.82 666.528L259.41 667.44L259 668.352C260.797 669.159 262.827 669.563 265.07 669.588L265.081 668.588ZM259.41 667.44L259.831 666.533C258.329 665.836 257.215 664.889 256.444 663.701L255.605 664.245L254.766 664.79C255.766 666.33 257.188 667.512 258.989 668.347L259.41 667.44ZM255.605 664.245L254.745 663.735C254.027 664.946 252.915 665.92 251.348 666.638L251.764 667.547L252.181 668.457C254.059 667.596 255.508 666.368 256.465 664.755L255.605 664.245ZM251.764 667.547L251.343 666.641C249.798 667.359 247.985 667.732 245.878 667.732V668.732V669.732C248.222 669.732 250.332 669.316 252.186 668.454L251.764 667.547ZM245.878 668.732V667.732H242.719V668.732V669.732H245.878V668.732ZM258.441 684.633V685.633H271.075V684.633V683.633H258.441V684.633ZM271.075 684.633H270.075V687.289H271.075H272.075V684.633H271.075ZM271.075 687.289V686.289H257.113V687.289V688.289H271.075V687.289ZM257.113 687.289V686.289C256.769 686.289 256.648 686.2 256.599 686.151L255.892 686.859L255.185 687.566C255.711 688.091 256.403 688.289 257.113 688.289V687.289ZM255.892 686.859L256.599 686.151C256.59 686.142 256.497 686.046 256.497 685.674H255.497H254.497C254.497 686.355 254.668 687.049 255.185 687.566L255.892 686.859ZM255.497 685.674H256.497V678.244H255.497H254.497V685.674H255.497ZM255.497 678.244V679.244H267.45V678.244V677.244H255.497V678.244ZM267.45 678.244H268.45V674.619H267.45H266.45V678.244H267.45ZM267.45 674.619V673.619H255.497V674.619V675.619H267.45V674.619ZM255.497 674.619H256.497V671.962H255.497H254.497V674.619H255.497ZM255.497 671.962V672.962H268.778V671.962V670.962H255.497V671.962ZM268.778 671.962V672.962C269.127 672.962 269.212 673.054 269.226 673.069L269.963 672.393L270.7 671.717C270.187 671.159 269.482 670.962 268.778 670.962V671.962ZM269.963 672.393L269.287 673.13C269.302 673.144 269.393 673.229 269.393 673.578H270.393H271.393C271.393 672.874 271.197 672.168 270.638 671.656L269.963 672.393ZM270.393 673.578H269.393V680.864H270.393H271.393V673.578H270.393ZM270.393 680.864V679.864H258.441V680.864V681.864H270.393V680.864ZM258.441 680.864H257.441V684.633H258.441H259.441V680.864H258.441ZM299.106 646.262V645.262H298.106V646.262H299.106ZM302.049 646.262H303.049V645.262H302.049V646.262ZM302.049 654.338H301.049V655.338H302.049V654.338ZM307.075 654.338H308.075V653.338H307.075V654.338ZM307.075 656.995V657.995H308.075V656.995H307.075ZM302.049 656.995V655.995H301.049V656.995H302.049ZM302.875 664.82L302.039 665.369L302.045 665.377L302.05 665.385L302.875 664.82ZM306.68 666.076H307.68V665.076H306.68V666.076ZM306.68 668.732V669.732H307.68V668.732H306.68ZM294.763 666.076H295.763V665.076H294.763V666.076ZM294.763 668.732V669.732H295.763V668.732H294.763ZM275.739 668.732H274.739V669.732H275.739V668.732ZM275.739 666.076V665.076H274.739V666.076H275.739ZM280.549 666.076V667.076H282.568L281.344 665.47L280.549 666.076ZM279.974 658.682V657.682H278.974V658.682H279.974ZM289.953 658.682V659.682H290.953V658.682H289.953ZM289.953 654.374H290.953V653.374H289.953V654.374ZM279.974 654.374H278.974V655.374H279.974V654.374ZM279.974 651.718V650.718H278.974V651.718H279.974ZM292.466 652.149L291.728 652.825L291.758 652.857L291.79 652.886L292.466 652.149ZM292.896 661.302V662.302H293.896V661.302H292.896ZM282.918 661.302V660.302H281.918V661.302H282.918ZM283.348 665.573L282.589 666.224L282.602 666.239L282.616 666.254L283.348 665.573ZM291.066 684.525L291.535 683.643L291.528 683.639L291.066 684.525ZM288.481 682.085L289.342 681.576L289.337 681.567L288.481 682.085ZM288.481 675.049L287.626 674.532L287.626 674.532L288.481 675.049ZM291.066 672.644L291.528 673.531L291.535 673.527L291.066 672.644ZM301.331 671.747H302.331V670.747H301.331V671.747ZM301.331 674.403V675.403H302.331V674.403H301.331ZM291.712 675.588L292.397 676.316L292.403 676.311L292.408 676.305L291.712 675.588ZM291.712 681.582L292.408 680.865L292.408 680.865L291.712 681.582ZM297.922 681.582L298.618 682.3L298.618 682.3L297.922 681.582ZM298.568 676.342V675.342H296.813L297.707 676.851L298.568 676.342ZM301.475 676.342L302.321 675.809L302.027 675.342H301.475V676.342ZM301.152 682.085L300.296 681.567L300.291 681.576L301.152 682.085ZM298.568 684.525L298.105 683.639L298.098 683.643L298.09 683.647L298.568 684.525ZM299.106 646.262V647.262H302.049V646.262V645.262H299.106V646.262ZM302.049 646.262H301.049V654.338H302.049H303.049V646.262H302.049ZM302.049 654.338V655.338H307.075V654.338V653.338H302.049V654.338ZM307.075 654.338H306.075V656.995H307.075H308.075V654.338H307.075ZM307.075 656.995V655.995H302.049V656.995V657.995H307.075V656.995ZM302.049 656.995H301.049V661.087H302.049H303.049V656.995H302.049ZM302.049 661.087H301.049C301.049 662.819 301.333 664.294 302.039 665.369L302.875 664.82L303.711 664.27C303.316 663.67 303.049 662.656 303.049 661.087H302.049ZM302.875 664.82L302.05 665.385C302.872 666.583 304.213 667.076 305.782 667.076V666.076V665.076C304.624 665.076 304.027 664.731 303.7 664.254L302.875 664.82ZM305.782 666.076V667.076H306.68V666.076V665.076H305.782V666.076ZM306.68 666.076H305.68V668.732H306.68H307.68V666.076H306.68ZM306.68 668.732V667.732H305.746V668.732V669.732H306.68V668.732ZM305.746 668.732V667.732C303.768 667.732 302.425 667.163 301.541 666.166L300.793 666.83L300.045 667.493C301.41 669.033 303.37 669.732 305.746 669.732V668.732ZM300.793 666.83L301.541 666.166C300.64 665.15 300.106 663.55 300.106 661.194H299.106H298.106C298.106 663.815 298.696 665.973 300.045 667.493L300.793 666.83ZM299.106 661.194H300.106V646.262H299.106H298.106V661.194H299.106ZM294.763 666.076H293.763V668.732H294.763H295.763V666.076H294.763ZM294.763 668.732V667.732H275.739V668.732V669.732H294.763V668.732ZM275.739 668.732H276.739V666.076H275.739H274.739V668.732H275.739ZM275.739 666.076V667.076H280.549V666.076V665.076H275.739V666.076ZM280.549 666.076L281.344 665.47C281.152 665.218 280.974 664.721 280.974 663.814H279.974H278.974C278.974 664.918 279.18 665.929 279.753 666.682L280.549 666.076ZM279.974 663.814H280.974V658.682H279.974H278.974V663.814H279.974ZM279.974 658.682V659.682H289.953V658.682V657.682H279.974V658.682ZM289.953 658.682H290.953V654.374H289.953H288.953V658.682H289.953ZM289.953 654.374V653.374H279.974V654.374V655.374H289.953V654.374ZM279.974 654.374H280.974V651.718H279.974H278.974V654.374H279.974ZM279.974 651.718V652.718H291.281V651.718V650.718H279.974V651.718ZM291.281 651.718V652.718C291.63 652.718 291.714 652.809 291.728 652.825L292.466 652.149L293.203 651.473C292.69 650.914 291.985 650.718 291.281 650.718V651.718ZM292.466 652.149L291.79 652.886C291.805 652.9 291.896 652.985 291.896 653.333H292.896H293.896C293.896 652.629 293.7 651.924 293.141 651.412L292.466 652.149ZM292.896 653.333H291.896V661.302H292.896H293.896V653.333H292.896ZM292.896 661.302V660.302H282.918V661.302V662.302H292.896V661.302ZM282.918 661.302H281.918V663.922H282.918H283.918V661.302H282.918ZM282.918 663.922H281.918C281.918 664.767 282.067 665.615 282.589 666.224L283.348 665.573L284.108 664.923C284.055 664.861 283.918 664.609 283.918 663.922H282.918ZM283.348 665.573L282.616 666.254C283.183 666.865 283.978 667.076 284.784 667.076V666.076V665.076C284.299 665.076 284.136 664.952 284.081 664.893L283.348 665.573ZM284.784 666.076V667.076H294.763V666.076V665.076H284.784V666.076ZM294.835 685.423V684.423C293.595 684.423 292.503 684.157 291.535 683.643L291.066 684.525L290.596 685.408C291.878 686.09 293.298 686.423 294.835 686.423V685.423ZM291.066 684.525L291.528 683.639C290.59 683.15 289.868 682.466 289.342 681.576L288.481 682.085L287.62 682.593C288.339 683.809 289.34 684.753 290.603 685.412L291.066 684.525ZM288.481 682.085L289.337 681.567C288.818 680.709 288.548 679.719 288.548 678.567H287.548H286.548C286.548 680.048 286.9 681.402 287.626 682.602L288.481 682.085ZM287.548 678.567H288.548C288.548 677.415 288.818 676.425 289.337 675.567L288.481 675.049L287.626 674.532C286.9 675.732 286.548 677.086 286.548 678.567H287.548ZM288.481 675.049L289.337 675.567C289.861 674.7 290.584 674.024 291.528 673.531L291.066 672.644L290.603 671.758C289.346 672.414 288.346 673.341 287.626 674.532L288.481 675.049ZM291.066 672.644L291.535 673.527C292.503 673.013 293.595 672.747 294.835 672.747V671.747V670.747C293.298 670.747 291.878 671.08 290.596 671.762L291.066 672.644ZM294.835 671.747V672.747H301.331V671.747V670.747H294.835V671.747ZM301.331 671.747H300.331V674.403H301.331H302.331V671.747H301.331ZM301.331 674.403V673.403H294.835V674.403V675.403H301.331V674.403ZM294.835 674.403V673.403C293.34 673.403 292.038 673.877 291.015 674.87L291.712 675.588L292.408 676.305C293.013 675.719 293.793 675.403 294.835 675.403V674.403ZM291.712 675.588L291.026 674.86C289.992 675.833 289.491 677.099 289.491 678.567H290.491H291.491C291.491 677.594 291.804 676.874 292.397 676.316L291.712 675.588ZM290.491 678.567H289.491C289.491 680.035 289.992 681.306 291.015 682.3L291.712 681.582L292.408 680.865C291.805 680.279 291.491 679.54 291.491 678.567H290.491ZM291.712 681.582L291.015 682.3C292.038 683.293 293.34 683.767 294.835 683.767V682.767V681.767C293.793 681.767 293.013 681.451 292.408 680.865L291.712 681.582ZM294.835 682.767V683.767C296.311 683.767 297.599 683.289 298.618 682.3L297.922 681.582L297.225 680.865C296.617 681.455 295.847 681.767 294.835 681.767V682.767ZM297.922 681.582L298.618 682.3C299.641 681.306 300.142 680.035 300.142 678.567H299.142H298.142C298.142 679.54 297.829 680.279 297.225 680.865L297.922 681.582ZM299.142 678.567H300.142C300.142 677.571 299.912 676.649 299.428 675.832L298.568 676.342L297.707 676.851C297.989 677.326 298.142 677.888 298.142 678.567H299.142ZM298.568 676.342V677.342H301.475V676.342V675.342H298.568V676.342ZM301.475 676.342L300.629 676.874C300.926 677.346 301.085 677.899 301.085 678.567H302.085H303.085C303.085 677.56 302.838 676.63 302.321 675.809L301.475 676.342ZM302.085 678.567H301.085C301.085 679.719 300.815 680.709 300.296 681.567L301.152 682.085L302.008 682.602C302.733 681.402 303.085 680.048 303.085 678.567H302.085ZM301.152 682.085L300.291 681.576C299.765 682.466 299.043 683.15 298.105 683.639L298.568 684.525L299.03 685.412C300.294 684.753 301.294 683.809 302.013 682.593L301.152 682.085ZM298.568 684.525L298.09 683.647C297.151 684.157 296.074 684.423 294.835 684.423V685.423V686.423C296.371 686.423 297.783 686.09 299.045 685.404L298.568 684.525ZM332.177 646.262V645.262H331.177V646.262H332.177ZM335.121 646.262H336.121V645.262H335.121V646.262ZM335.121 654.338H334.121V655.338H335.121V654.338ZM340.146 654.338H341.146V653.338H340.146V654.338ZM340.146 656.995V657.995H341.146V656.995H340.146ZM335.121 656.995V655.995H334.121V656.995H335.121ZM335.946 664.82L335.11 665.369L335.116 665.377L335.121 665.385L335.946 664.82ZM339.751 666.076H340.751V665.076H339.751V666.076ZM339.751 668.732V669.732H340.751V668.732H339.751ZM333.864 666.83L333.116 667.493L333.116 667.493L333.864 666.83ZM306.621 668.732H305.621V669.732H306.621V668.732ZM306.621 666.076V665.076H305.621V666.076H306.621ZM315.702 664.317L316.322 665.102L316.323 665.1L315.702 664.317ZM317.963 658.323H318.963V657.323H317.963V658.323ZM310.497 658.323H309.497V659.323H310.497V658.323ZM310.497 655.666V654.666H309.497V655.666H310.497ZM317.963 655.666V656.666H318.963V655.666H317.963ZM317.963 651V650H316.963V651H317.963ZM321.014 651H322.014V650H321.014V651ZM321.014 655.666H320.014V656.666H321.014V655.666ZM328.265 655.666H329.265V654.666H328.265V655.666ZM328.265 658.323V659.323H329.265V658.323H328.265ZM321.014 658.323V657.323H320.014V658.323H321.014ZM323.096 664.138L322.451 664.901L322.457 664.907L323.096 664.138ZM328.983 666.004H329.983V665.032L329.011 665.004L328.983 666.004ZM328.983 668.588L328.971 669.588L329.983 669.6V668.588H328.983ZM323.311 667.44L322.891 668.347L322.902 668.352L323.311 667.44ZM319.507 664.245L320.345 663.701L319.468 662.35L318.647 663.735L319.507 664.245ZM315.666 667.547L315.249 666.638L315.244 666.641L315.666 667.547ZM322.342 684.633H321.342V685.633H322.342V684.633ZM334.977 684.633H335.977V683.633H334.977V684.633ZM334.977 687.289V688.289H335.977V687.289H334.977ZM319.794 686.859L320.501 686.151L320.501 686.151L319.794 686.859ZM319.399 678.244V677.244H318.399V678.244H319.399ZM331.352 678.244V679.244H332.352V678.244H331.352ZM331.352 674.619H332.352V673.619H331.352V674.619ZM319.399 674.619H318.399V675.619H319.399V674.619ZM319.399 671.962V670.962H318.399V671.962H319.399ZM333.864 672.393L333.127 673.069L333.157 673.101L333.189 673.13L333.864 672.393ZM334.295 680.864V681.864H335.295V680.864H334.295ZM322.342 680.864V679.864H321.342V680.864H322.342ZM332.177 646.262V647.262H335.121V646.262V645.262H332.177V646.262ZM335.121 646.262H334.121V654.338H335.121H336.121V646.262H335.121ZM335.121 654.338V655.338H340.146V654.338V653.338H335.121V654.338ZM340.146 654.338H339.146V656.995H340.146H341.146V654.338H340.146ZM340.146 656.995V655.995H335.121V656.995V657.995H340.146V656.995ZM335.121 656.995H334.121V661.087H335.121H336.121V656.995H335.121ZM335.121 661.087H334.121C334.121 662.819 334.404 664.294 335.11 665.369L335.946 664.82L336.782 664.27C336.388 663.67 336.121 662.656 336.121 661.087H335.121ZM335.946 664.82L335.121 665.385C335.943 666.583 337.284 667.076 338.854 667.076V666.076V665.076C337.695 665.076 337.098 664.731 336.771 664.254L335.946 664.82ZM338.854 666.076V667.076H339.751V666.076V665.076H338.854V666.076ZM339.751 666.076H338.751V668.732H339.751H340.751V666.076H339.751ZM339.751 668.732V667.732H338.818V668.732V669.732H339.751V668.732ZM338.818 668.732V667.732C336.839 667.732 335.496 667.163 334.612 666.166L333.864 666.83L333.116 667.493C334.481 669.033 336.441 669.732 338.818 669.732V668.732ZM333.864 666.83L334.612 666.166C333.712 665.15 333.177 663.55 333.177 661.194H332.177H331.177C331.177 663.815 331.768 665.973 333.116 667.493L333.864 666.83ZM332.177 661.194H333.177V646.262H332.177H331.177V661.194H332.177ZM306.621 668.732H307.621V666.076H306.621H305.621V668.732H306.621ZM306.621 666.076V667.076H309.42V666.076V665.076H306.621V666.076ZM309.42 666.076V667.076C312.255 667.076 314.6 666.463 316.322 665.102L315.702 664.317L315.082 663.532C313.837 664.517 311.994 665.076 309.42 665.076V666.076ZM315.702 664.317L316.323 665.1C318.101 663.69 318.963 661.709 318.963 659.292H317.963H316.963C316.963 661.182 316.318 662.551 315.08 663.534L315.702 664.317ZM317.963 659.292H318.963V658.323H317.963H316.963V659.292H317.963ZM317.963 658.323V657.323H310.497V658.323V659.323H317.963V658.323ZM310.497 658.323H311.497V655.666H310.497H309.497V658.323H310.497ZM310.497 655.666V656.666H317.963V655.666V654.666H310.497V655.666ZM317.963 655.666H318.963V651H317.963H316.963V655.666H317.963ZM317.963 651V652H321.014V651V650H317.963V651ZM321.014 651H320.014V655.666H321.014H322.014V651H321.014ZM321.014 655.666V656.666H328.265V655.666V654.666H321.014V655.666ZM328.265 655.666H327.265V658.323H328.265H329.265V655.666H328.265ZM328.265 658.323V657.323H321.014V658.323V659.323H328.265V658.323ZM321.014 658.323H320.014V659.292H321.014H322.014V658.323H321.014ZM321.014 659.292H320.014C320.014 661.6 320.806 663.512 322.451 664.901L323.096 664.138L323.741 663.374C322.61 662.418 322.014 661.099 322.014 659.292H321.014ZM323.096 664.138L322.457 664.907C324.095 666.267 326.3 666.928 328.954 667.004L328.983 666.004L329.011 665.004C326.64 664.937 324.921 664.353 323.735 663.368L323.096 664.138ZM328.983 666.004H327.983V668.588H328.983H329.983V666.004H328.983ZM328.983 668.588L328.994 667.588C326.978 667.566 325.227 667.204 323.721 666.528L323.311 667.44L322.902 668.352C324.698 669.159 326.728 669.563 328.971 669.588L328.983 668.588ZM323.311 667.44L323.732 666.533C322.231 665.836 321.116 664.889 320.345 663.701L319.507 664.245L318.668 664.79C319.668 666.33 321.09 667.512 322.891 668.347L323.311 667.44ZM319.507 664.245L318.647 663.735C317.928 664.946 316.817 665.92 315.249 666.638L315.666 667.547L316.083 668.457C317.961 667.596 319.41 666.368 320.367 664.755L319.507 664.245ZM315.666 667.547L315.244 666.641C313.7 667.359 311.886 667.732 309.779 667.732V668.732V669.732C312.123 669.732 314.234 669.316 316.087 668.454L315.666 667.547ZM309.779 668.732V667.732H306.621V668.732V669.732H309.779V668.732ZM322.342 684.633V685.633H334.977V684.633V683.633H322.342V684.633ZM334.977 684.633H333.977V687.289H334.977H335.977V684.633H334.977ZM334.977 687.289V686.289H321.014V687.289V688.289H334.977V687.289ZM321.014 687.289V686.289C320.671 686.289 320.55 686.2 320.501 686.151L319.794 686.859L319.087 687.566C319.612 688.091 320.304 688.289 321.014 688.289V687.289ZM319.794 686.859L320.501 686.151C320.491 686.142 320.399 686.046 320.399 685.674H319.399H318.399C318.399 686.355 318.57 687.049 319.087 687.566L319.794 686.859ZM319.399 685.674H320.399V678.244H319.399H318.399V685.674H319.399ZM319.399 678.244V679.244H331.352V678.244V677.244H319.399V678.244ZM331.352 678.244H332.352V674.619H331.352H330.352V678.244H331.352ZM331.352 674.619V673.619H319.399V674.619V675.619H331.352V674.619ZM319.399 674.619H320.399V671.962H319.399H318.399V674.619H319.399ZM319.399 671.962V672.962H332.68V671.962V670.962H319.399V671.962ZM332.68 671.962V672.962C333.029 672.962 333.113 673.054 333.127 673.069L333.864 672.393L334.601 671.717C334.089 671.159 333.384 670.962 332.68 670.962V671.962ZM333.864 672.393L333.189 673.13C333.204 673.144 333.295 673.229 333.295 673.578H334.295H335.295C335.295 672.874 335.099 672.168 334.54 671.656L333.864 672.393ZM334.295 673.578H333.295V680.864H334.295H335.295V673.578H334.295ZM334.295 680.864V679.864H322.342V680.864V681.864H334.295V680.864ZM322.342 680.864H321.342V684.633H322.342H323.342V680.864H322.342ZM363.008 646.262V645.262H362.008V646.262H363.008ZM365.951 646.262H366.951V645.262H365.951V646.262ZM365.951 654.338H364.951V655.338H365.951V654.338ZM370.976 654.338H371.976V653.338H370.976V654.338ZM370.976 656.995V657.995H371.976V656.995H370.976ZM365.951 656.995V655.995H364.951V656.995H365.951ZM366.776 664.82L365.941 665.369L365.946 665.377L365.952 665.385L366.776 664.82ZM370.581 666.076H371.581V665.076H370.581V666.076ZM370.581 668.732V669.732H371.581V668.732H370.581ZM358.664 666.076H359.664V665.076H358.664V666.076ZM358.664 668.732V669.732H359.664V668.732H358.664ZM339.64 668.732H338.64V669.732H339.64V668.732ZM339.64 666.076V665.076H338.64V666.076H339.64ZM344.45 666.076V667.076H346.469L345.246 665.47L344.45 666.076ZM343.876 658.682V657.682H342.876V658.682H343.876ZM353.855 658.682V659.682H354.855V658.682H353.855ZM353.855 654.374H354.855V653.374H353.855V654.374ZM343.876 654.374H342.876V655.374H343.876V654.374ZM343.876 651.718V650.718H342.876V651.718H343.876ZM356.367 652.149L355.63 652.825L355.659 652.857L355.691 652.886L356.367 652.149ZM356.798 661.302V662.302H357.798V661.302H356.798ZM346.819 661.302V660.302H345.819V661.302H346.819ZM347.25 665.573L346.491 666.224L346.504 666.239L346.517 666.254L347.25 665.573ZM354.967 684.525L355.437 683.643L355.43 683.639L354.967 684.525ZM352.383 682.085L353.244 681.576L353.239 681.567L352.383 682.085ZM352.383 675.049L351.527 674.532L351.527 674.532L352.383 675.049ZM354.967 672.644L355.43 673.531L355.437 673.527L354.967 672.644ZM365.233 671.747H366.233V670.747H365.233V671.747ZM365.233 674.403V675.403H366.233V674.403H365.233ZM355.613 675.588L356.299 676.316L356.304 676.311L356.31 676.305L355.613 675.588ZM355.613 681.582L356.31 680.865L356.31 680.865L355.613 681.582ZM361.823 681.582L362.52 682.3L362.52 682.3L361.823 681.582ZM362.469 676.342V675.342H360.714L361.609 676.851L362.469 676.342ZM365.377 676.342L366.223 675.809L365.929 675.342H365.377V676.342ZM365.054 682.085L364.198 681.567L364.193 681.576L365.054 682.085ZM362.469 684.525L362.007 683.639L361.999 683.643L361.992 683.647L362.469 684.525ZM363.008 646.262V647.262H365.951V646.262V645.262H363.008V646.262ZM365.951 646.262H364.951V654.338H365.951H366.951V646.262H365.951ZM365.951 654.338V655.338H370.976V654.338V653.338H365.951V654.338ZM370.976 654.338H369.976V656.995H370.976H371.976V654.338H370.976ZM370.976 656.995V655.995H365.951V656.995V657.995H370.976V656.995ZM365.951 656.995H364.951V661.087H365.951H366.951V656.995H365.951ZM365.951 661.087H364.951C364.951 662.819 365.234 664.294 365.941 665.369L366.776 664.82L367.612 664.27C367.218 663.67 366.951 662.656 366.951 661.087H365.951ZM366.776 664.82L365.952 665.385C366.773 666.583 368.115 667.076 369.684 667.076V666.076V665.076C368.525 665.076 367.928 664.731 367.601 664.254L366.776 664.82ZM369.684 666.076V667.076H370.581V666.076V665.076H369.684V666.076ZM370.581 666.076H369.581V668.732H370.581H371.581V666.076H370.581ZM370.581 668.732V667.732H369.648V668.732V669.732H370.581V668.732ZM369.648 668.732V667.732C367.67 667.732 366.327 667.163 365.443 666.166L364.695 666.83L363.946 667.493C365.312 669.033 367.271 669.732 369.648 669.732V668.732ZM364.695 666.83L365.443 666.166C364.542 665.15 364.008 663.55 364.008 661.194H363.008H362.008C362.008 663.815 362.598 665.973 363.946 667.493L364.695 666.83ZM363.008 661.194H364.008V646.262H363.008H362.008V661.194H363.008ZM358.664 666.076H357.664V668.732H358.664H359.664V666.076H358.664ZM358.664 668.732V667.732H339.64V668.732V669.732H358.664V668.732ZM339.64 668.732H340.64V666.076H339.64H338.64V668.732H339.64ZM339.64 666.076V667.076H344.45V666.076V665.076H339.64V666.076ZM344.45 666.076L345.246 665.47C345.054 665.218 344.876 664.721 344.876 663.814H343.876H342.876C342.876 664.918 343.081 665.929 343.655 666.682L344.45 666.076ZM343.876 663.814H344.876V658.682H343.876H342.876V663.814H343.876ZM343.876 658.682V659.682H353.855V658.682V657.682H343.876V658.682ZM353.855 658.682H354.855V654.374H353.855H352.855V658.682H353.855ZM353.855 654.374V653.374H343.876V654.374V655.374H353.855V654.374ZM343.876 654.374H344.876V651.718H343.876H342.876V654.374H343.876ZM343.876 651.718V652.718H355.183V651.718V650.718H343.876V651.718ZM355.183 651.718V652.718C355.531 652.718 355.616 652.809 355.63 652.825L356.367 652.149L357.104 651.473C356.592 650.914 355.887 650.718 355.183 650.718V651.718ZM356.367 652.149L355.691 652.886C355.707 652.9 355.798 652.985 355.798 653.333H356.798H357.798C357.798 652.629 357.602 651.924 357.043 651.412L356.367 652.149ZM356.798 653.333H355.798V661.302H356.798H357.798V653.333H356.798ZM356.798 661.302V660.302H346.819V661.302V662.302H356.798V661.302ZM346.819 661.302H345.819V663.922H346.819H347.819V661.302H346.819ZM346.819 663.922H345.819C345.819 664.767 345.969 665.615 346.491 666.224L347.25 665.573L348.009 664.923C347.957 664.861 347.819 664.609 347.819 663.922H346.819ZM347.25 665.573L346.517 666.254C347.085 666.865 347.879 667.076 348.686 667.076V666.076V665.076C348.2 665.076 348.037 664.952 347.983 664.893L347.25 665.573ZM348.686 666.076V667.076H358.664V666.076V665.076H348.686V666.076ZM358.736 685.423V684.423C357.497 684.423 356.404 684.157 355.437 683.643L354.967 684.525L354.498 685.408C355.78 686.09 357.2 686.423 358.736 686.423V685.423ZM354.967 684.525L355.43 683.639C354.492 683.15 353.77 682.466 353.244 681.576L352.383 682.085L351.522 682.593C352.241 683.809 353.241 684.753 354.505 685.412L354.967 684.525ZM352.383 682.085L353.239 681.567C352.72 680.709 352.45 679.719 352.45 678.567H351.45H350.45C350.45 680.048 350.802 681.402 351.527 682.602L352.383 682.085ZM351.45 678.567H352.45C352.45 677.415 352.72 676.425 353.239 675.567L352.383 675.049L351.527 674.532C350.802 675.732 350.45 677.086 350.45 678.567H351.45ZM352.383 675.049L353.239 675.567C353.763 674.7 354.486 674.024 355.43 673.531L354.967 672.644L354.505 671.758C353.247 672.414 352.247 673.341 351.527 674.532L352.383 675.049ZM354.967 672.644L355.437 673.527C356.404 673.013 357.497 672.747 358.736 672.747V671.747V670.747C357.2 670.747 355.78 671.08 354.498 671.762L354.967 672.644ZM358.736 671.747V672.747H365.233V671.747V670.747H358.736V671.747ZM365.233 671.747H364.233V674.403H365.233H366.233V671.747H365.233ZM365.233 674.403V673.403H358.736V674.403V675.403H365.233V674.403ZM358.736 674.403V673.403C357.241 673.403 355.94 673.877 354.917 674.87L355.613 675.588L356.31 676.305C356.914 675.719 357.694 675.403 358.736 675.403V674.403ZM355.613 675.588L354.928 674.86C353.894 675.833 353.393 677.099 353.393 678.567H354.393H355.393C355.393 677.594 355.706 676.874 356.299 676.316L355.613 675.588ZM354.393 678.567H353.393C353.393 680.035 353.893 681.306 354.917 682.3L355.613 681.582L356.31 680.865C355.706 680.279 355.393 679.54 355.393 678.567H354.393ZM355.613 681.582L354.917 682.3C355.94 683.293 357.241 683.767 358.736 683.767V682.767V681.767C357.694 681.767 356.914 681.451 356.31 680.865L355.613 681.582ZM358.736 682.767V683.767C360.213 683.767 361.5 683.289 362.52 682.3L361.823 681.582L361.127 680.865C360.519 681.455 359.748 681.767 358.736 681.767V682.767ZM361.823 681.582L362.52 682.3C363.543 681.306 364.043 680.035 364.043 678.567H363.043H362.043C362.043 679.54 361.73 680.279 361.127 680.865L361.823 681.582ZM363.043 678.567H364.043C364.043 677.571 363.814 676.649 363.329 675.832L362.469 676.342L361.609 676.851C361.89 677.326 362.043 677.888 362.043 678.567H363.043ZM362.469 676.342V677.342H365.377V676.342V675.342H362.469V676.342ZM365.377 676.342L364.53 676.874C364.827 677.346 364.987 677.899 364.987 678.567H365.987H366.987C366.987 677.56 366.74 676.63 366.223 675.809L365.377 676.342ZM365.987 678.567H364.987C364.987 679.719 364.717 680.709 364.198 681.567L365.054 682.085L365.909 682.602C366.635 681.402 366.987 680.048 366.987 678.567H365.987ZM365.054 682.085L364.193 681.576C363.667 682.466 362.945 683.15 362.007 683.639L362.469 684.525L362.932 685.412C364.195 684.753 365.196 683.809 365.915 682.593L365.054 682.085ZM362.469 684.525L361.992 683.647C361.053 684.157 359.976 684.423 358.736 684.423V685.423V686.423C360.273 686.423 361.684 686.09 362.947 685.404L362.469 684.525Z" fill="black" fill-opacity="0.25" mask="url(#path-1-outside-1_33_586)"/>
<circle cx="419.154" cy="624.088" r="8.52173" fill="#B3FFB0"/>
<circle cx="419.154" cy="624.088" r="8.02173" stroke="black" stroke-opacity="0.25"/>
<circle cx="307.645" cy="431.667" r="8.52173" fill="#B3FFB0"/>
<circle cx="307.645" cy="431.667" r="8.02173" stroke="black" stroke-opacity="0.25"/>
<circle cx="420.664" cy="385.645" r="8.52173" fill="#B3FFB0"/>
<circle cx="420.664" cy="385.645" r="8.02173" stroke="black" stroke-opacity="0.25"/>
<circle cx="458.408" cy="727.161" r="8.52173" fill="#B3FFB0"/>
<circle cx="458.408" cy="727.161" r="8.02173" stroke="black" stroke-opacity="0.25"/>
<circle cx="316.166" cy="941.629" r="20.3291" fill="#B3FFB0"/>
<circle cx="316.166" cy="941.629" r="19.8291" stroke="black" stroke-opacity="0.25"/>
<circle cx="269.535" cy="1050.25" r="12.2799" fill="#B3FFB0"/>
<circle cx="269.535" cy="1050.25" r="11.7799" stroke="black" stroke-opacity="0.25"/>
<circle cx="342.413" cy="1110.4" r="7.9519" fill="#B3FFB0"/>
<circle cx="342.413" cy="1110.4" r="7.4519" stroke="black" stroke-opacity="0.25"/>
<circle cx="406.74" cy="608.082" r="5.40283" fill="#B3FFB0"/>
<circle cx="406.74" cy="608.082" r="4.90283" stroke="black" stroke-opacity="0.25"/>
<path d="M483.832 871.936C452.624 863.574 434.104 831.496 442.466 800.288C443.711 795.644 445.48 791.281 447.694 787.246C466.488 752.987 511.417 730.077 522.186 692.514L644.365 266.39C645.718 261.671 650.604 258.907 655.346 260.177L658.36 260.985C663.22 262.287 666.069 267.322 664.682 272.159L543.258 695.651C532.191 734.25 559.92 779.01 557.37 819.083C557.128 822.895 556.506 826.739 555.48 830.57C547.118 861.778 515.04 880.298 483.832 871.936Z" fill="url(#paint0_linear_33_586)"/>
<path d="M483.962 871.453C453.021 863.162 434.659 831.359 442.949 800.418C444.183 795.813 445.938 791.487 448.132 787.486C457.484 770.438 473.341 756.211 488.3 741.475C503.223 726.774 517.241 711.574 522.667 692.652L644.846 266.528C646.124 262.071 650.738 259.461 655.217 260.661L658.23 261.468C662.821 262.698 665.51 267.453 664.201 272.021L542.778 695.513C537.203 714.957 541.407 735.919 546.635 756.935C551.876 778.002 558.14 799.113 556.872 819.051C556.631 822.83 556.015 826.642 554.997 830.441L554.798 831.164C546.209 861.667 514.661 879.679 483.962 871.453Z" stroke="black" stroke-opacity="0.64"/>
<path d="M289.663 753.594C315.569 734.289 352.221 739.64 371.526 765.547C374.399 769.402 376.726 773.495 378.52 777.733C393.754 813.717 383.882 863.175 406.681 894.909L665.327 1254.93C668.191 1258.91 667.332 1264.46 663.396 1267.39L660.894 1269.26C656.859 1272.26 651.142 1271.38 648.206 1267.29L391.158 909.5C367.729 876.889 315.417 870.903 285.552 844.062C282.712 841.509 280.08 838.638 277.71 835.458C258.405 809.551 263.756 772.9 289.663 753.594Z" fill="url(#paint1_linear_33_586)"/>
<path d="M289.962 753.995C315.647 734.855 351.985 740.161 371.125 765.846C373.974 769.668 376.281 773.727 378.06 777.928C385.641 795.834 386.976 817.097 389.267 837.969C391.552 858.792 394.79 879.215 406.275 895.201L664.921 1255.22C667.626 1258.98 666.814 1264.22 663.096 1266.99L660.594 1268.86C656.784 1271.7 651.386 1270.86 648.613 1267L391.564 909.208C379.762 892.781 360.706 883.086 340.975 874.162C321.195 865.216 300.746 857.045 285.886 843.69C283.07 841.159 280.461 838.313 278.111 835.159L277.667 834.555C259.055 808.907 264.477 772.986 289.962 753.995Z" stroke="black" stroke-opacity="0.64"/>
<path d="M350.733 588.023C322.229 603.235 286.791 592.46 271.579 563.957C269.315 559.715 267.627 555.32 266.487 550.861C256.809 513.003 273.97 465.58 256.175 430.791L54.3054 36.1289C52.0697 31.7581 53.7493 26.402 58.0805 24.0904L60.8333 22.6213C65.2726 20.2521 70.792 21.9829 73.0835 26.4628L273.707 418.687C291.992 454.436 342.82 468.182 368.333 499.189C370.759 502.138 372.932 505.37 374.799 508.869C390.011 537.372 379.236 572.811 350.733 588.023Z" fill="url(#paint2_linear_33_586)"/>
<path d="M350.497 587.582C322.238 602.664 287.102 591.981 272.02 563.721C269.776 559.515 268.101 555.158 266.971 550.737C262.155 531.899 264.016 510.676 264.874 489.695C265.73 468.765 265.584 448.088 256.62 430.563L54.7506 35.9013C52.6392 31.7733 54.2259 26.7149 58.3165 24.5318L61.0691 23.0627C65.2616 20.8253 70.4736 22.4597 72.6378 26.6905L273.262 418.915C282.473 436.922 299.863 449.359 318.037 461.135C336.256 472.94 355.253 484.079 367.947 499.506C370.353 502.43 372.506 505.635 374.358 509.105L374.707 509.768C389.272 537.912 378.536 572.618 350.497 587.582Z" stroke="black" stroke-opacity="0.64"/>
<defs>
<linearGradient id="paint0_linear_33_586" x1="483.832" y1="871.936" x2="596.323" y2="452.114" gradientUnits="userSpaceOnUse">
<stop stop-color="#A3FDFF"/>
<stop offset="1" stop-color="white"/>
</linearGradient>
<linearGradient id="paint1_linear_33_586" x1="289.663" y1="753.594" x2="549.369" y2="1102.1" gradientUnits="userSpaceOnUse">
<stop stop-color="#A3FDFF"/>
<stop offset="1" stop-color="white"/>
</linearGradient>
<linearGradient id="paint2_linear_33_586" x1="350.733" y1="588.023" x2="146.093" y2="204.581" gradientUnits="userSpaceOnUse">
<stop stop-color="#A3FDFF"/>
<stop offset="1" stop-color="white"/>
</linearGradient>
</defs>
</svg>
