<svg width="783" height="1346" viewBox="0 0 783 1346" fill="none" xmlns="http://www.w3.org/2000/svg">
<mask id="path-1-outside-1_33_602" maskUnits="userSpaceOnUse" x="182.01" y="468.913" width="120" height="41" fill="black">
<rect fill="white" x="182.01" y="468.913" width="120" height="41"/>
<path d="M206.265 470.855H209.208V478.931H214.233V481.587H209.208V485.679C209.208 487.33 209.483 488.574 210.034 489.412C210.608 490.249 211.577 490.668 212.941 490.668H213.838V493.324H212.905C210.728 493.324 209.076 492.69 207.952 491.422C206.827 490.154 206.265 488.275 206.265 485.787V470.855ZM183.974 490.668C186.535 490.596 188.545 489.843 190.005 488.407C191.464 486.947 192.194 484.997 192.194 482.556V477.351H195.173V482.556C195.173 484.973 195.879 486.899 197.291 488.335C198.727 489.771 200.689 490.525 203.178 490.596V493.181C201.048 493.157 199.134 492.678 197.435 491.745C195.76 490.788 194.515 489.484 193.702 487.833C192.912 489.532 191.656 490.872 189.933 491.853C188.21 492.81 186.224 493.3 183.974 493.324V490.668ZM234.193 473.403H237.137V486.863H220.446C219.919 486.863 219.512 486.732 219.225 486.469C218.962 486.181 218.83 485.775 218.83 485.248V473.403H221.774V477.675H225.291V480.331H221.774V484.207H226.548V473.403H229.419V477.675H232.937V480.331H229.419V484.207H234.193V473.403ZM242.198 490.668V493.324H230.065V501.006H227.122V493.324H213.769V490.668H242.198ZM222.061 505.672H236.706V508.328H220.733C220.206 508.328 219.8 508.185 219.512 507.897C219.249 507.634 219.118 507.239 219.118 506.713V497.452H222.061V505.672ZM264.418 470.855H267.361V478.931H272.386V481.587H267.361V485.679C267.361 487.33 267.636 488.574 268.186 489.412C268.761 490.249 269.73 490.668 271.094 490.668H271.991V493.324H271.058C268.88 493.324 267.229 492.69 266.105 491.422C264.98 490.154 264.418 488.275 264.418 485.787V470.855ZM242.127 490.668C244.688 490.596 246.698 489.843 248.157 488.407C249.617 486.947 250.347 484.997 250.347 482.556V477.351H253.326V482.556C253.326 484.973 254.032 486.899 255.444 488.335C256.88 489.771 258.842 490.525 261.331 490.596V493.181C259.201 493.157 257.287 492.678 255.588 491.745C253.913 490.788 252.668 489.484 251.855 487.833C251.065 489.532 249.809 490.872 248.086 491.853C246.363 492.81 244.377 493.3 242.127 493.324V490.668ZM292.346 473.403H295.289V486.863H278.599C278.072 486.863 277.665 486.732 277.378 486.469C277.115 486.181 276.983 485.775 276.983 485.248V473.403H279.927V477.675H283.444V480.331H279.927V484.207H284.701V473.403H287.572V477.675H291.09V480.331H287.572V484.207H292.346V473.403ZM300.351 490.668V493.324H288.218V501.006H285.275V493.324H271.922V490.668H300.351ZM280.214 505.672H294.859V508.328H278.886C278.359 508.328 277.952 508.185 277.665 507.897C277.402 507.634 277.271 507.239 277.271 506.713V497.452H280.214V505.672Z"/>
</mask>
<path d="M206.265 470.855H209.208V478.931H214.233V481.587H209.208V485.679C209.208 487.33 209.483 488.574 210.034 489.412C210.608 490.249 211.577 490.668 212.941 490.668H213.838V493.324H212.905C210.728 493.324 209.076 492.69 207.952 491.422C206.827 490.154 206.265 488.275 206.265 485.787V470.855ZM183.974 490.668C186.535 490.596 188.545 489.843 190.005 488.407C191.464 486.947 192.194 484.997 192.194 482.556V477.351H195.173V482.556C195.173 484.973 195.879 486.899 197.291 488.335C198.727 489.771 200.689 490.525 203.178 490.596V493.181C201.048 493.157 199.134 492.678 197.435 491.745C195.76 490.788 194.515 489.484 193.702 487.833C192.912 489.532 191.656 490.872 189.933 491.853C188.21 492.81 186.224 493.3 183.974 493.324V490.668ZM234.193 473.403H237.137V486.863H220.446C219.919 486.863 219.512 486.732 219.225 486.469C218.962 486.181 218.83 485.775 218.83 485.248V473.403H221.774V477.675H225.291V480.331H221.774V484.207H226.548V473.403H229.419V477.675H232.937V480.331H229.419V484.207H234.193V473.403ZM242.198 490.668V493.324H230.065V501.006H227.122V493.324H213.769V490.668H242.198ZM222.061 505.672H236.706V508.328H220.733C220.206 508.328 219.8 508.185 219.512 507.897C219.249 507.634 219.118 507.239 219.118 506.713V497.452H222.061V505.672ZM264.418 470.855H267.361V478.931H272.386V481.587H267.361V485.679C267.361 487.33 267.636 488.574 268.186 489.412C268.761 490.249 269.73 490.668 271.094 490.668H271.991V493.324H271.058C268.88 493.324 267.229 492.69 266.105 491.422C264.98 490.154 264.418 488.275 264.418 485.787V470.855ZM242.127 490.668C244.688 490.596 246.698 489.843 248.157 488.407C249.617 486.947 250.347 484.997 250.347 482.556V477.351H253.326V482.556C253.326 484.973 254.032 486.899 255.444 488.335C256.88 489.771 258.842 490.525 261.331 490.596V493.181C259.201 493.157 257.287 492.678 255.588 491.745C253.913 490.788 252.668 489.484 251.855 487.833C251.065 489.532 249.809 490.872 248.086 491.853C246.363 492.81 244.377 493.3 242.127 493.324V490.668ZM292.346 473.403H295.289V486.863H278.599C278.072 486.863 277.665 486.732 277.378 486.469C277.115 486.181 276.983 485.775 276.983 485.248V473.403H279.927V477.675H283.444V480.331H279.927V484.207H284.701V473.403H287.572V477.675H291.09V480.331H287.572V484.207H292.346V473.403ZM300.351 490.668V493.324H288.218V501.006H285.275V493.324H271.922V490.668H300.351ZM280.214 505.672H294.859V508.328H278.886C278.359 508.328 277.952 508.185 277.665 507.897C277.402 507.634 277.271 507.239 277.271 506.713V497.452H280.214V505.672Z" fill="#FFE8E1"/>
<path d="M206.265 470.855V469.855H205.265V470.855H206.265ZM209.208 470.855H210.208V469.855H209.208V470.855ZM209.208 478.931H208.208V479.931H209.208V478.931ZM214.233 478.931H215.233V477.931H214.233V478.931ZM214.233 481.587V482.587H215.233V481.587H214.233ZM209.208 481.587V480.587H208.208V481.587H209.208ZM210.034 489.412L209.198 489.961L209.203 489.969L209.209 489.977L210.034 489.412ZM213.838 490.668H214.838V489.668H213.838V490.668ZM213.838 493.324V494.324H214.838V493.324H213.838ZM207.952 491.422L208.7 490.759L208.7 490.759L207.952 491.422ZM183.974 490.668L183.946 489.669L182.974 489.696V490.668H183.974ZM190.005 488.407L190.706 489.12L190.712 489.114L190.005 488.407ZM192.194 477.351V476.351H191.194V477.351H192.194ZM195.173 477.351H196.173V476.351H195.173V477.351ZM197.291 488.335L196.578 489.036L196.584 489.042L197.291 488.335ZM203.178 490.596H204.178V489.625L203.207 489.597L203.178 490.596ZM203.178 493.181L203.167 494.181L204.178 494.192V493.181H203.178ZM197.435 491.745L196.939 492.613L196.946 492.617L196.953 492.622L197.435 491.745ZM193.702 487.833L194.599 487.391L193.675 485.517L192.795 487.411L193.702 487.833ZM189.933 491.853L190.418 492.727L190.428 492.722L189.933 491.853ZM183.974 493.324H182.974V494.335L183.985 494.324L183.974 493.324ZM206.265 470.855V471.855H209.208V470.855V469.855H206.265V470.855ZM209.208 470.855H208.208V478.931H209.208H210.208V470.855H209.208ZM209.208 478.931V479.931H214.233V478.931V477.931H209.208V478.931ZM214.233 478.931H213.233V481.587H214.233H215.233V478.931H214.233ZM214.233 481.587V480.587H209.208V481.587V482.587H214.233V481.587ZM209.208 481.587H208.208V485.679H209.208H210.208V481.587H209.208ZM209.208 485.679H208.208C208.208 487.411 208.491 488.886 209.198 489.961L210.034 489.412L210.869 488.863C210.475 488.263 210.208 487.249 210.208 485.679H209.208ZM210.034 489.412L209.209 489.977C210.03 491.176 211.372 491.668 212.941 491.668V490.668V489.668C211.782 489.668 211.185 489.323 210.858 488.846L210.034 489.412ZM212.941 490.668V491.668H213.838V490.668V489.668H212.941V490.668ZM213.838 490.668H212.838V493.324H213.838H214.838V490.668H213.838ZM213.838 493.324V492.324H212.905V493.324V494.324H213.838V493.324ZM212.905 493.324V492.324C210.927 492.324 209.584 491.755 208.7 490.759L207.952 491.422L207.204 492.085C208.569 493.625 210.528 494.324 212.905 494.324V493.324ZM207.952 491.422L208.7 490.759C207.799 489.743 207.265 488.143 207.265 485.787H206.265H205.265C205.265 488.408 205.855 490.565 207.204 492.085L207.952 491.422ZM206.265 485.787H207.265V470.855H206.265H205.265V485.787H206.265ZM183.974 490.668L184.002 491.668C186.749 491.591 189.024 490.774 190.706 489.12L190.005 488.407L189.303 487.694C188.066 488.911 186.32 489.602 183.946 489.669L183.974 490.668ZM190.005 488.407L190.712 489.114C192.393 487.433 193.194 485.21 193.194 482.556H192.194H191.194C191.194 484.784 190.536 486.461 189.297 487.7L190.005 488.407ZM192.194 482.556H193.194V477.351H192.194H191.194V482.556H192.194ZM192.194 477.351V478.351H195.173V477.351V476.351H192.194V477.351ZM195.173 477.351H194.173V482.556H195.173H196.173V477.351H195.173ZM195.173 482.556H194.173C194.173 485.179 194.946 487.377 196.578 489.036L197.291 488.335L198.004 487.634C196.812 486.422 196.173 484.767 196.173 482.556H195.173ZM197.291 488.335L196.584 489.042C198.239 490.697 200.466 491.519 203.149 491.596L203.178 490.596L203.207 489.597C200.912 489.531 199.215 488.844 197.998 487.628L197.291 488.335ZM203.178 490.596H202.178V493.181H203.178H204.178V490.596H203.178ZM203.178 493.181L203.189 492.181C201.207 492.159 199.457 491.715 197.916 490.869L197.435 491.745L196.953 492.622C198.81 493.642 200.889 494.155 203.167 494.181L203.178 493.181ZM197.435 491.745L197.931 490.877C196.42 490.014 195.32 488.854 194.599 487.391L193.702 487.833L192.805 488.275C193.711 490.113 195.099 491.562 196.939 492.613L197.435 491.745ZM193.702 487.833L192.795 487.411C192.098 488.91 190.992 490.099 189.438 490.984L189.933 491.853L190.428 492.722C192.32 491.644 193.726 490.153 194.609 488.254L193.702 487.833ZM189.933 491.853L189.447 490.979C187.889 491.844 186.071 492.302 183.964 492.324L183.974 493.324L183.985 494.324C186.377 494.299 188.531 493.776 190.418 492.727L189.933 491.853ZM183.974 493.324H184.974V490.668H183.974H182.974V493.324H183.974ZM234.193 473.403V472.403H233.193V473.403H234.193ZM237.137 473.403H238.137V472.403H237.137V473.403ZM237.137 486.863V487.863H238.137V486.863H237.137ZM219.225 486.469L218.488 487.144L218.518 487.176L218.55 487.206L219.225 486.469ZM218.83 473.403V472.403H217.83V473.403H218.83ZM221.774 473.403H222.774V472.403H221.774V473.403ZM221.774 477.675H220.774V478.675H221.774V477.675ZM225.291 477.675H226.291V476.675H225.291V477.675ZM225.291 480.331V481.331H226.291V480.331H225.291ZM221.774 480.331V479.331H220.774V480.331H221.774ZM221.774 484.207H220.774V485.207H221.774V484.207ZM226.548 484.207V485.207H227.548V484.207H226.548ZM226.548 473.403V472.403H225.548V473.403H226.548ZM229.419 473.403H230.419V472.403H229.419V473.403ZM229.419 477.675H228.419V478.675H229.419V477.675ZM232.937 477.675H233.937V476.675H232.937V477.675ZM232.937 480.331V481.331H233.937V480.331H232.937ZM229.419 480.331V479.331H228.419V480.331H229.419ZM229.419 484.207H228.419V485.207H229.419V484.207ZM234.193 484.207V485.207H235.193V484.207H234.193ZM242.198 490.668H243.198V489.668H242.198V490.668ZM242.198 493.324V494.324H243.198V493.324H242.198ZM230.065 493.324V492.324H229.065V493.324H230.065ZM230.065 501.006V502.006H231.065V501.006H230.065ZM227.122 501.006H226.122V502.006H227.122V501.006ZM227.122 493.324H228.122V492.324H227.122V493.324ZM213.769 493.324H212.769V494.324H213.769V493.324ZM213.769 490.668V489.668H212.769V490.668H213.769ZM222.061 505.672H221.061V506.672H222.061V505.672ZM236.706 505.672H237.706V504.672H236.706V505.672ZM236.706 508.328V509.328H237.706V508.328H236.706ZM219.512 507.897L220.22 507.19L219.512 507.897ZM219.118 497.452V496.452H218.118V497.452H219.118ZM222.061 497.452H223.061V496.452H222.061V497.452ZM234.193 473.403V474.403H237.137V473.403V472.403H234.193V473.403ZM237.137 473.403H236.137V486.863H237.137H238.137V473.403H237.137ZM237.137 486.863V485.863H220.446V486.863V487.863H237.137V486.863ZM220.446 486.863V485.863C220.08 485.863 219.947 485.774 219.901 485.731L219.225 486.469L218.55 487.206C219.078 487.69 219.758 487.863 220.446 487.863V486.863ZM219.225 486.469L219.962 485.793C219.92 485.747 219.83 485.614 219.83 485.248H218.83H217.83C217.83 485.936 218.004 486.616 218.488 487.144L219.225 486.469ZM218.83 485.248H219.83V473.403H218.83H217.83V485.248H218.83ZM218.83 473.403V474.403H221.774V473.403V472.403H218.83V473.403ZM221.774 473.403H220.774V477.675H221.774H222.774V473.403H221.774ZM221.774 477.675V478.675H225.291V477.675V476.675H221.774V477.675ZM225.291 477.675H224.291V480.331H225.291H226.291V477.675H225.291ZM225.291 480.331V479.331H221.774V480.331V481.331H225.291V480.331ZM221.774 480.331H220.774V484.207H221.774H222.774V480.331H221.774ZM221.774 484.207V485.207H226.548V484.207V483.207H221.774V484.207ZM226.548 484.207H227.548V473.403H226.548H225.548V484.207H226.548ZM226.548 473.403V474.403H229.419V473.403V472.403H226.548V473.403ZM229.419 473.403H228.419V477.675H229.419H230.419V473.403H229.419ZM229.419 477.675V478.675H232.937V477.675V476.675H229.419V477.675ZM232.937 477.675H231.937V480.331H232.937H233.937V477.675H232.937ZM232.937 480.331V479.331H229.419V480.331V481.331H232.937V480.331ZM229.419 480.331H228.419V484.207H229.419H230.419V480.331H229.419ZM229.419 484.207V485.207H234.193V484.207V483.207H229.419V484.207ZM234.193 484.207H235.193V473.403H234.193H233.193V484.207H234.193ZM242.198 490.668H241.198V493.324H242.198H243.198V490.668H242.198ZM242.198 493.324V492.324H230.065V493.324V494.324H242.198V493.324ZM230.065 493.324H229.065V501.006H230.065H231.065V493.324H230.065ZM230.065 501.006V500.006H227.122V501.006V502.006H230.065V501.006ZM227.122 501.006H228.122V493.324H227.122H226.122V501.006H227.122ZM227.122 493.324V492.324H213.769V493.324V494.324H227.122V493.324ZM213.769 493.324H214.769V490.668H213.769H212.769V493.324H213.769ZM213.769 490.668V491.668H242.198V490.668V489.668H213.769V490.668ZM222.061 505.672V506.672H236.706V505.672V504.672H222.061V505.672ZM236.706 505.672H235.706V508.328H236.706H237.706V505.672H236.706ZM236.706 508.328V507.328H220.733V508.328V509.328H236.706V508.328ZM220.733 508.328V507.328C220.39 507.328 220.268 507.239 220.22 507.19L219.512 507.897L218.805 508.605C219.331 509.13 220.023 509.328 220.733 509.328V508.328ZM219.512 507.897L220.22 507.19C220.21 507.181 220.118 507.085 220.118 506.713H219.118H218.118C218.118 507.394 218.288 508.088 218.805 508.605L219.512 507.897ZM219.118 506.713H220.118V497.452H219.118H218.118V506.713H219.118ZM219.118 497.452V498.452H222.061V497.452V496.452H219.118V497.452ZM222.061 497.452H221.061V505.672H222.061H223.061V497.452H222.061ZM264.418 470.855V469.855H263.418V470.855H264.418ZM267.361 470.855H268.361V469.855H267.361V470.855ZM267.361 478.931H266.361V479.931H267.361V478.931ZM272.386 478.931H273.386V477.931H272.386V478.931ZM272.386 481.587V482.587H273.386V481.587H272.386ZM267.361 481.587V480.587H266.361V481.587H267.361ZM268.186 489.412L267.351 489.961L267.356 489.969L267.362 489.977L268.186 489.412ZM271.991 490.668H272.991V489.668H271.991V490.668ZM271.991 493.324V494.324H272.991V493.324H271.991ZM266.105 491.422L266.853 490.759L266.853 490.759L266.105 491.422ZM242.127 490.668L242.099 489.669L241.127 489.696V490.668H242.127ZM248.157 488.407L248.859 489.12L248.865 489.114L248.157 488.407ZM250.347 477.351V476.351H249.347V477.351H250.347ZM253.326 477.351H254.326V476.351H253.326V477.351ZM255.444 488.335L254.731 489.036L254.737 489.042L255.444 488.335ZM261.331 490.596H262.331V489.625L261.359 489.597L261.331 490.596ZM261.331 493.181L261.319 494.181L262.331 494.192V493.181H261.331ZM255.588 491.745L255.091 492.613L255.099 492.617L255.106 492.622L255.588 491.745ZM251.855 487.833L252.752 487.391L251.828 485.517L250.948 487.411L251.855 487.833ZM248.086 491.853L248.571 492.727L248.581 492.722L248.086 491.853ZM242.127 493.324H241.127V494.335L242.138 494.324L242.127 493.324ZM264.418 470.855V471.855H267.361V470.855V469.855H264.418V470.855ZM267.361 470.855H266.361V478.931H267.361H268.361V470.855H267.361ZM267.361 478.931V479.931H272.386V478.931V477.931H267.361V478.931ZM272.386 478.931H271.386V481.587H272.386H273.386V478.931H272.386ZM272.386 481.587V480.587H267.361V481.587V482.587H272.386V481.587ZM267.361 481.587H266.361V485.679H267.361H268.361V481.587H267.361ZM267.361 485.679H266.361C266.361 487.411 266.644 488.886 267.351 489.961L268.186 489.412L269.022 488.863C268.628 488.263 268.361 487.249 268.361 485.679H267.361ZM268.186 489.412L267.362 489.977C268.183 491.176 269.525 491.668 271.094 491.668V490.668V489.668C269.935 489.668 269.338 489.323 269.011 488.846L268.186 489.412ZM271.094 490.668V491.668H271.991V490.668V489.668H271.094V490.668ZM271.991 490.668H270.991V493.324H271.991H272.991V490.668H271.991ZM271.991 493.324V492.324H271.058V493.324V494.324H271.991V493.324ZM271.058 493.324V492.324C269.08 492.324 267.737 491.755 266.853 490.759L266.105 491.422L265.356 492.085C266.722 493.625 268.681 494.324 271.058 494.324V493.324ZM266.105 491.422L266.853 490.759C265.952 489.743 265.418 488.143 265.418 485.787H264.418H263.418C263.418 488.408 264.008 490.565 265.356 492.085L266.105 491.422ZM264.418 485.787H265.418V470.855H264.418H263.418V485.787H264.418ZM242.127 490.668L242.155 491.668C244.902 491.591 247.177 490.774 248.859 489.12L248.157 488.407L247.456 487.694C246.219 488.911 244.473 489.602 242.099 489.669L242.127 490.668ZM248.157 488.407L248.865 489.114C250.546 487.433 251.347 485.21 251.347 482.556H250.347H249.347C249.347 484.784 248.689 486.461 247.45 487.7L248.157 488.407ZM250.347 482.556H251.347V477.351H250.347H249.347V482.556H250.347ZM250.347 477.351V478.351H253.326V477.351V476.351H250.347V477.351ZM253.326 477.351H252.326V482.556H253.326H254.326V477.351H253.326ZM253.326 482.556H252.326C252.326 485.179 253.099 487.377 254.731 489.036L255.444 488.335L256.157 487.634C254.965 486.422 254.326 484.767 254.326 482.556H253.326ZM255.444 488.335L254.737 489.042C256.392 490.697 258.619 491.519 261.302 491.596L261.331 490.596L261.359 489.597C259.065 489.531 257.368 488.844 256.151 487.628L255.444 488.335ZM261.331 490.596H260.331V493.181H261.331H262.331V490.596H261.331ZM261.331 493.181L261.342 492.181C259.36 492.159 257.61 491.715 256.069 490.869L255.588 491.745L255.106 492.622C256.963 493.642 259.042 494.155 261.319 494.181L261.331 493.181ZM255.588 491.745L256.084 490.877C254.573 490.014 253.473 488.854 252.752 487.391L251.855 487.833L250.958 488.275C251.864 490.113 253.252 491.562 255.091 492.613L255.588 491.745ZM251.855 487.833L250.948 487.411C250.251 488.91 249.144 490.099 247.591 490.984L248.086 491.853L248.581 492.722C250.473 491.644 251.879 490.153 252.761 488.254L251.855 487.833ZM248.086 491.853L247.6 490.979C246.042 491.844 244.223 492.302 242.117 492.324L242.127 493.324L242.138 494.324C244.53 494.299 246.684 493.776 248.571 492.727L248.086 491.853ZM242.127 493.324H243.127V490.668H242.127H241.127V493.324H242.127ZM292.346 473.403V472.403H291.346V473.403H292.346ZM295.289 473.403H296.289V472.403H295.289V473.403ZM295.289 486.863V487.863H296.289V486.863H295.289ZM277.378 486.469L276.641 487.144L276.67 487.176L276.702 487.206L277.378 486.469ZM276.983 473.403V472.403H275.983V473.403H276.983ZM279.927 473.403H280.927V472.403H279.927V473.403ZM279.927 477.675H278.927V478.675H279.927V477.675ZM283.444 477.675H284.444V476.675H283.444V477.675ZM283.444 480.331V481.331H284.444V480.331H283.444ZM279.927 480.331V479.331H278.927V480.331H279.927ZM279.927 484.207H278.927V485.207H279.927V484.207ZM284.701 484.207V485.207H285.701V484.207H284.701ZM284.701 473.403V472.403H283.701V473.403H284.701ZM287.572 473.403H288.572V472.403H287.572V473.403ZM287.572 477.675H286.572V478.675H287.572V477.675ZM291.09 477.675H292.09V476.675H291.09V477.675ZM291.09 480.331V481.331H292.09V480.331H291.09ZM287.572 480.331V479.331H286.572V480.331H287.572ZM287.572 484.207H286.572V485.207H287.572V484.207ZM292.346 484.207V485.207H293.346V484.207H292.346ZM300.351 490.668H301.351V489.668H300.351V490.668ZM300.351 493.324V494.324H301.351V493.324H300.351ZM288.218 493.324V492.324H287.218V493.324H288.218ZM288.218 501.006V502.006H289.218V501.006H288.218ZM285.275 501.006H284.275V502.006H285.275V501.006ZM285.275 493.324H286.275V492.324H285.275V493.324ZM271.922 493.324H270.922V494.324H271.922V493.324ZM271.922 490.668V489.668H270.922V490.668H271.922ZM280.214 505.672H279.214V506.672H280.214V505.672ZM294.859 505.672H295.859V504.672H294.859V505.672ZM294.859 508.328V509.328H295.859V508.328H294.859ZM277.665 507.897L278.372 507.19L277.665 507.897ZM277.271 497.452V496.452H276.271V497.452H277.271ZM280.214 497.452H281.214V496.452H280.214V497.452ZM292.346 473.403V474.403H295.289V473.403V472.403H292.346V473.403ZM295.289 473.403H294.289V486.863H295.289H296.289V473.403H295.289ZM295.289 486.863V485.863H278.599V486.863V487.863H295.289V486.863ZM278.599 486.863V485.863C278.233 485.863 278.1 485.774 278.054 485.731L277.378 486.469L276.702 487.206C277.231 487.69 277.911 487.863 278.599 487.863V486.863ZM277.378 486.469L278.115 485.793C278.073 485.747 277.983 485.614 277.983 485.248H276.983H275.983C275.983 485.936 276.157 486.616 276.641 487.144L277.378 486.469ZM276.983 485.248H277.983V473.403H276.983H275.983V485.248H276.983ZM276.983 473.403V474.403H279.927V473.403V472.403H276.983V473.403ZM279.927 473.403H278.927V477.675H279.927H280.927V473.403H279.927ZM279.927 477.675V478.675H283.444V477.675V476.675H279.927V477.675ZM283.444 477.675H282.444V480.331H283.444H284.444V477.675H283.444ZM283.444 480.331V479.331H279.927V480.331V481.331H283.444V480.331ZM279.927 480.331H278.927V484.207H279.927H280.927V480.331H279.927ZM279.927 484.207V485.207H284.701V484.207V483.207H279.927V484.207ZM284.701 484.207H285.701V473.403H284.701H283.701V484.207H284.701ZM284.701 473.403V474.403H287.572V473.403V472.403H284.701V473.403ZM287.572 473.403H286.572V477.675H287.572H288.572V473.403H287.572ZM287.572 477.675V478.675H291.09V477.675V476.675H287.572V477.675ZM291.09 477.675H290.09V480.331H291.09H292.09V477.675H291.09ZM291.09 480.331V479.331H287.572V480.331V481.331H291.09V480.331ZM287.572 480.331H286.572V484.207H287.572H288.572V480.331H287.572ZM287.572 484.207V485.207H292.346V484.207V483.207H287.572V484.207ZM292.346 484.207H293.346V473.403H292.346H291.346V484.207H292.346ZM300.351 490.668H299.351V493.324H300.351H301.351V490.668H300.351ZM300.351 493.324V492.324H288.218V493.324V494.324H300.351V493.324ZM288.218 493.324H287.218V501.006H288.218H289.218V493.324H288.218ZM288.218 501.006V500.006H285.275V501.006V502.006H288.218V501.006ZM285.275 501.006H286.275V493.324H285.275H284.275V501.006H285.275ZM285.275 493.324V492.324H271.922V493.324V494.324H285.275V493.324ZM271.922 493.324H272.922V490.668H271.922H270.922V493.324H271.922ZM271.922 490.668V491.668H300.351V490.668V489.668H271.922V490.668ZM280.214 505.672V506.672H294.859V505.672V504.672H280.214V505.672ZM294.859 505.672H293.859V508.328H294.859H295.859V505.672H294.859ZM294.859 508.328V507.328H278.886V508.328V509.328H294.859V508.328ZM278.886 508.328V507.328C278.543 507.328 278.421 507.239 278.372 507.19L277.665 507.897L276.958 508.605C277.484 509.13 278.176 509.328 278.886 509.328V508.328ZM277.665 507.897L278.372 507.19C278.363 507.181 278.271 507.085 278.271 506.713H277.271H276.271C276.271 507.394 276.441 508.088 276.958 508.605L277.665 507.897ZM277.271 506.713H278.271V497.452H277.271H276.271V506.713H277.271ZM277.271 497.452V498.452H280.214V497.452V496.452H277.271V497.452ZM280.214 497.452H279.214V505.672H280.214H281.214V497.452H280.214Z" fill="black" fill-opacity="0.25" mask="url(#path-1-outside-1_33_602)"/>
<circle cx="360.409" cy="448.681" r="8.52173" fill="#FFFEA3"/>
<circle cx="360.409" cy="448.681" r="8.02173" stroke="black" stroke-opacity="0.25"/>
<circle cx="248.9" cy="256.26" r="8.52173" fill="#FFFEA3"/>
<circle cx="248.9" cy="256.26" r="8.02173" stroke="black" stroke-opacity="0.25"/>
<circle cx="361.92" cy="210.238" r="8.52173" fill="#FFFEA3"/>
<circle cx="361.92" cy="210.238" r="8.02173" stroke="black" stroke-opacity="0.25"/>
<circle cx="399.664" cy="551.753" r="8.52173" fill="#FFFEA3"/>
<circle cx="399.664" cy="551.753" r="8.02173" stroke="black" stroke-opacity="0.25"/>
<circle cx="257.421" cy="766.221" r="20.3291" fill="#FFFEA3"/>
<circle cx="257.421" cy="766.221" r="19.8291" stroke="black" stroke-opacity="0.25"/>
<circle cx="210.79" cy="874.845" r="12.2799" fill="#FFFEA3"/>
<circle cx="210.79" cy="874.845" r="11.7799" stroke="black" stroke-opacity="0.25"/>
<circle cx="283.669" cy="934.993" r="7.9519" fill="#FFFEA3"/>
<circle cx="283.669" cy="934.993" r="7.4519" stroke="black" stroke-opacity="0.25"/>
<circle cx="347.996" cy="432.674" r="5.40283" fill="#FFFEA3"/>
<circle cx="347.996" cy="432.674" r="4.90283" stroke="black" stroke-opacity="0.25"/>
<path d="M344.234 801.177C370.14 781.871 406.792 787.223 426.097 813.129C428.97 816.984 431.297 821.077 433.091 825.315C448.325 861.299 438.452 910.757 461.252 942.492L719.898 1302.51C722.762 1306.49 721.903 1312.04 717.966 1314.98L715.464 1316.84C711.429 1319.85 705.713 1318.96 702.777 1314.87L445.728 957.082C422.3 924.472 369.988 918.485 340.123 891.644C337.282 889.091 334.651 886.221 332.281 883.04C312.976 857.134 318.327 820.482 344.234 801.177Z" fill="url(#paint0_linear_33_602)"/>
<path d="M344.532 801.578C370.218 782.437 406.556 787.743 425.696 813.428C428.545 817.251 430.852 821.309 432.631 825.511C440.211 843.417 441.547 864.679 443.837 885.552C446.123 906.374 449.361 926.797 460.846 942.783L719.492 1302.8C722.197 1306.56 721.385 1311.8 717.667 1314.57L715.165 1316.44C711.355 1319.28 705.957 1318.44 703.184 1314.58L446.134 956.79C434.333 940.364 415.277 930.669 395.546 921.744C375.766 912.798 355.316 904.627 340.457 891.273C337.641 888.741 335.032 885.895 332.682 882.742L332.238 882.137C313.626 856.489 319.048 820.568 344.532 801.578Z" stroke="black" stroke-opacity="0.64"/>
<path d="M290.109 733.284C267.35 710.352 267.49 673.312 290.422 650.553C293.835 647.167 297.559 644.287 301.503 641.914C334.985 621.768 385.34 624.582 413.55 597.544L733.585 290.808C737.13 287.411 742.742 287.481 746.201 290.966L748.399 293.181C751.943 296.752 751.871 302.536 748.238 306.018L430.18 610.859C401.191 638.644 402.626 691.278 380.255 724.623C378.127 727.794 375.655 730.803 372.84 733.597C349.908 756.356 312.868 756.216 290.109 733.284Z" fill="url(#paint1_linear_33_602)"/>
<path d="M290.464 732.932C267.899 710.196 268.038 673.473 290.774 650.908C294.158 647.55 297.851 644.694 301.761 642.342C318.422 632.317 339.285 628.003 359.627 622.798C379.921 617.605 399.685 611.525 413.896 597.905L733.931 291.169C737.279 287.961 742.58 288.028 745.846 291.319L748.044 293.533C751.391 296.906 751.323 302.368 747.892 305.656L429.834 610.499C415.231 624.494 408.314 644.725 402.256 665.516C396.182 686.358 390.97 707.754 379.84 724.344C377.73 727.489 375.279 730.472 372.488 733.242L371.952 733.767C349.178 755.803 312.852 755.49 290.464 732.932Z" stroke="black" stroke-opacity="0.64"/>
<path d="M521.011 457.166C500.024 481.73 463.097 484.629 438.534 463.641C434.879 460.518 431.703 457.042 429.015 453.307C406.19 421.59 404.863 371.175 375.602 345.277L43.6436 51.4861C39.9673 48.2324 39.5767 42.6327 42.7658 38.9002L44.7927 36.5278C48.0614 32.7022 53.8318 32.2997 57.6 35.6346L387.508 327.611C417.577 354.223 469.916 348.475 504.983 368.035C508.319 369.895 511.521 372.112 514.536 374.688C539.1 395.676 541.999 432.602 521.011 457.166Z" fill="url(#paint2_linear_33_602)"/>
<path d="M520.631 456.841C499.823 481.195 463.212 484.069 438.859 463.261C435.234 460.164 432.085 456.718 429.42 453.014C418.062 437.232 412.051 416.793 405.194 396.946C398.354 377.147 390.673 357.949 375.933 344.903L43.9751 51.1117C40.503 48.0388 40.1346 42.7501 43.1465 39.225L45.1733 36.8528C48.2604 33.2398 53.7093 32.8598 57.2681 36.0092L387.177 327.985C402.323 341.391 423.053 346.625 444.271 350.957C465.541 355.3 487.292 358.739 504.74 368.471C508.047 370.316 511.221 372.514 514.211 375.068L514.778 375.559C538.608 396.448 541.277 432.678 520.631 456.841Z" stroke="black" stroke-opacity="0.64"/>
<defs>
<linearGradient id="paint0_linear_33_602" x1="344.234" y1="801.177" x2="603.94" y2="1149.68" gradientUnits="userSpaceOnUse">
<stop stop-color="#FFD9BC"/>
<stop offset="1" stop-color="white"/>
</linearGradient>
<linearGradient id="paint1_linear_33_602" x1="290.109" y1="733.284" x2="598.601" y2="427.119" gradientUnits="userSpaceOnUse">
<stop stop-color="#FFD9BC"/>
<stop offset="1" stop-color="white"/>
</linearGradient>
<linearGradient id="paint2_linear_33_602" x1="521.011" y1="457.166" x2="190.569" y2="174.832" gradientUnits="userSpaceOnUse">
<stop stop-color="#FFD9BC"/>
<stop offset="1" stop-color="white"/>
</linearGradient>
</defs>
</svg>
