<svg width="35" height="35" viewBox="0 0 35 35" fill="none" xmlns="http://www.w3.org/2000/svg">
<path d="M16.9346 11.4875C17.435 11.4875 17.8387 11.5649 18.29 11.8459C18.7168 12.1118 19.1763 12.5541 19.8193 13.2366L21.1328 14.6292L21.9814 13.8098C22.3373 13.466 22.6821 13.1976 22.9902 13.0286C23.1444 12.9441 23.2996 12.8783 23.4502 12.845C23.5993 12.812 23.7666 12.8056 23.9258 12.8665L24.0273 12.9094C24.2585 13.0178 24.4492 13.1834 24.5469 13.425C24.6559 13.6952 24.6193 13.9906 24.5137 14.2727C24.3063 14.8257 23.7694 15.5013 22.9697 16.2864L21.4062 17.8215L21.1748 18.0491L20.9375 17.8274L20.1465 17.0862L19.9248 16.8782V17.5403C19.9248 18.2524 19.8103 19.1698 19.6475 19.7405L19.5752 19.9622C19.5001 20.159 19.4686 20.2752 19.4658 20.3723C19.4635 20.4558 19.4825 20.5504 19.5664 20.6965C19.6553 20.8513 19.8083 21.0492 20.0645 21.3313C20.3187 21.6112 20.6602 21.9596 21.1133 22.4153C21.9855 23.2925 22.4618 23.7388 22.7959 23.9446C22.9524 24.041 23.0538 24.068 23.1318 24.0725C23.213 24.0772 23.3066 24.0602 23.457 24.0032C23.922 23.827 24.4955 23.859 24.9443 23.9944C25.1716 24.063 25.392 24.1652 25.5625 24.303C25.7292 24.4377 25.8916 24.6443 25.8916 24.9163C25.8916 24.985 25.872 25.0407 25.8613 25.0686C25.8487 25.1015 25.8334 25.1322 25.8193 25.1575C25.791 25.2081 25.7544 25.2624 25.7148 25.3167C25.6346 25.4268 25.5229 25.5627 25.3916 25.7131C25.1278 26.0152 24.7674 26.3948 24.373 26.7805L22.9561 28.1663L22.7178 28.3997L22.4814 28.1643L19.5723 25.2776L16.9053 22.6301L15.0615 24.5022C14.1292 25.4485 13.6481 25.9693 13.4229 26.3293C13.3158 26.5004 13.2845 26.609 13.2783 26.6897C13.2721 26.7706 13.2886 26.8605 13.3447 27.0051C13.5388 27.5054 13.5661 28.0539 13.46 28.4915C13.4069 28.7101 13.3154 28.9218 13.1738 29.0852C13.0279 29.2536 12.8211 29.3771 12.5654 29.3772C12.4682 29.3772 12.3805 29.3445 12.3252 29.3206C12.2617 29.293 12.1948 29.2566 12.1289 29.2161C11.9963 29.1345 11.8411 29.0212 11.6748 28.8889C11.3408 28.6232 10.9398 28.2607 10.5498 27.8645L9.15918 26.4534L8.92383 26.2141L9.16113 25.9758L11.9473 23.1858L14.498 20.6301L12.8193 18.8879L10.9102 16.9055L10.6826 16.6702L10.9102 16.4358L13.2559 14.0129C14.2704 12.9653 14.9152 12.3341 15.4316 11.97C15.6961 11.7835 15.9374 11.6597 16.1875 11.5842C16.4372 11.5089 16.6786 11.4876 16.9346 11.4875ZM16.918 5.57544C17.5545 5.576 18.1607 5.85722 18.7422 6.35571C19.3948 6.91526 19.7402 7.63924 19.7402 8.38306C19.7402 9.1269 19.3949 9.85182 18.7422 10.4114C18.165 10.9061 17.5602 11.1859 16.9287 11.1917C16.2957 11.1974 15.6936 10.9271 15.125 10.4397C13.8113 9.31324 13.789 7.4725 15.0947 6.35278C15.6753 5.85508 16.2814 5.57494 16.918 5.57544Z" fill="#404040" stroke="#404040" stroke-width="0.677188"/>
</svg>
