<svg width="154" height="119" viewBox="0 0 154 119" fill="none" xmlns="http://www.w3.org/2000/svg">
<rect x="0.668652" y="0.960522" width="152.38" height="117.147" rx="4.7" fill="#FFFEA3" stroke="#404040" stroke-width="0.6"/>
<path d="M19.5258 85.5145C18.6828 85.5145 17.9295 85.3417 17.2661 84.9962C16.6165 84.6507 16.1052 84.1738 15.732 83.5657C15.3726 82.9438 15.193 82.2458 15.193 81.4718C15.193 80.6979 15.3726 80.0068 15.732 79.3987C16.1052 78.7767 16.6165 78.293 17.2661 77.9475C17.9295 77.6019 18.6828 77.4292 19.5258 77.4292H23.3612V78.9633H19.5258C18.7519 78.9633 18.1161 79.1983 17.6186 79.6682C17.1348 80.1381 16.893 80.7393 16.893 81.4718C16.893 82.2043 17.1348 82.8056 17.6186 83.2755C18.1161 83.7454 18.7519 83.9803 19.5258 83.9803C20.2998 83.9803 20.9287 83.7454 21.4124 83.2755C21.91 82.8056 22.1587 82.2043 22.1587 81.4718C22.1587 80.8913 22.0067 80.3869 21.7027 79.9584H23.4441C23.5685 80.1381 23.6652 80.3661 23.7343 80.6426C23.8173 80.919 23.8587 81.1954 23.8587 81.4718C23.8587 82.2458 23.6721 82.9438 23.299 83.5657C22.9396 84.1738 22.4283 84.6507 21.7648 84.9962C21.1153 85.3417 20.3689 85.5145 19.5258 85.5145ZM11.3162 88.9766V87.4425H27.7355V88.9766H11.3162ZM22.6978 93.8692H24.3977V98.4509H15.421C15.117 98.4509 14.882 98.368 14.7161 98.2021C14.5641 98.0501 14.4881 97.8221 14.4881 97.518V91.2156H24.3977V92.7498H16.1881V96.9375H22.6978V93.8692ZM43.9069 88.9766C42.8979 88.9075 42.0894 88.4722 41.4813 87.6705C40.8732 86.8689 40.5691 85.6734 40.5691 84.084V75.9987H42.2691V83.7108C42.2691 84.8165 42.4073 85.6665 42.6837 86.2608C42.974 86.8551 43.3817 87.249 43.9069 87.4425V88.9766ZM27.2802 87.4425C28.7591 87.401 29.92 86.9657 30.7631 86.1364C31.6062 85.2933 32.0277 84.1669 32.0277 82.7572V79.7511H33.7485V82.7572C33.7485 84.1531 34.1562 85.2657 34.9716 86.0949C35.8009 86.9242 36.9342 87.3596 38.3716 87.401V88.8937C37.1415 88.8799 36.0358 88.6035 35.0545 88.0644C34.0871 87.5116 33.3684 86.7584 32.8985 85.8047C32.4424 86.786 31.7168 87.56 30.7217 88.1266C29.7265 88.6795 28.5794 88.9628 27.2802 88.9766V87.4425ZM42.1032 98.1607H40.4033V92.4388H33.6655V90.9046H41.1703C41.4744 90.9046 41.7024 90.9876 41.8545 91.1534C42.0203 91.3055 42.1032 91.5335 42.1032 91.8376V98.1607ZM64.0124 88.9766C62.9481 88.9075 62.1258 88.5274 61.5453 87.8364C60.9648 87.1315 60.6746 86.1295 60.6746 84.8303V82.1974H56.632V80.6633H60.6746V75.9987H62.3746V84.4986C62.3746 86.2124 62.9205 87.1937 64.0124 87.4425V88.9766ZM43.4467 88.9766V87.4425H45.0638C46.5841 87.4425 47.7589 87.0831 48.5881 86.3645C49.4174 85.6458 49.832 84.6368 49.832 83.3377V82.1974H45.7894V80.6633H55.5125V82.1974H51.5942V83.3377C51.5942 84.5954 51.9812 85.5836 52.7552 86.3023C53.543 87.0071 54.6348 87.3734 56.0307 87.401V88.8937C54.8421 88.8937 53.7848 88.6587 52.8588 88.1888C51.9328 87.7051 51.221 87.0348 50.7235 86.1779C50.2397 87.0624 49.5211 87.7535 48.5674 88.251C47.6138 88.7348 46.515 88.9766 45.2711 88.9766H43.4467ZM60.26 93.4961H61.9599V98.4509H54.082C53.7779 98.4509 53.543 98.368 53.3771 98.2021C53.2251 98.0501 53.1491 97.8221 53.1491 97.518V90.8425H61.9599V92.3766H54.849V96.9168H60.26V93.4961Z" fill="#404040"/>
<ellipse cx="105.558" cy="110.72" rx="24.7944" ry="4.14861" fill="#CCD9A4"/>
<path d="M145.104 77.439L141.872 87.2156L141.827 87.2778C140.177 89.5693 138.03 92.896 135.463 96.1384C132.89 99.389 129.847 102.621 126.338 104.77C119.267 109.101 110.466 109.083 102.238 106.471L102.237 106.475L101.287 106.161L101.289 106.157C93.1248 103.351 86.0469 98.1201 82.9496 90.429C81.4126 86.6123 80.8954 82.2031 80.7662 78.0593C80.6373 73.9259 80.8957 69.9749 80.9363 67.1514L80.9371 67.0745L84.1686 57.2979L145.104 77.439Z" fill="#E8FFA3"/>
<path d="M145.104 77.439L145.389 77.5331L145.483 77.2483L145.198 77.1541L145.104 77.439ZM141.872 87.2156L142.115 87.3921L142.143 87.3542L142.157 87.3098L141.872 87.2156ZM141.827 87.2778L141.585 87.1013L141.584 87.1025L141.827 87.2778ZM135.463 96.1384L135.698 96.3246L135.698 96.3246L135.463 96.1384ZM126.338 104.77L126.495 105.026L126.495 105.026L126.338 104.77ZM102.238 106.471L102.329 106.185L102.047 106.095L101.953 106.376L102.238 106.471ZM102.237 106.475L102.143 106.76L102.427 106.854L102.522 106.569L102.237 106.475ZM101.287 106.161L101.002 106.067L100.908 106.352L101.193 106.446L101.287 106.161ZM101.289 106.157L101.574 106.251L101.667 105.969L101.386 105.873L101.289 106.157ZM82.9496 90.429L82.6713 90.541L82.6713 90.541L82.9496 90.429ZM80.7662 78.0593L80.4664 78.0686L80.4664 78.0686L80.7662 78.0593ZM80.9363 67.1514L81.2363 67.1557L81.2363 67.1543L80.9363 67.1514ZM80.9371 67.0745L80.6522 66.9804L80.6375 67.0248L80.6371 67.0717L80.9371 67.0745ZM84.1686 57.2979L84.2627 57.013L83.9779 56.9189L83.8837 57.2037L84.1686 57.2979ZM145.104 77.439L144.819 77.3448L141.588 87.1215L141.872 87.2156L142.157 87.3098L145.389 77.5331L145.104 77.439ZM141.872 87.2156L141.63 87.0391L141.585 87.1013L141.827 87.2778L142.07 87.4543L142.115 87.3921L141.872 87.2156ZM141.827 87.2778L141.584 87.1025C139.921 89.4123 137.79 92.7155 135.228 95.9522L135.463 96.1384L135.698 96.3246C138.27 93.0765 140.434 89.7264 142.071 87.4531L141.827 87.2778ZM135.463 96.1384L135.228 95.9522C132.663 99.1922 129.646 102.393 126.181 104.514L126.338 104.77L126.495 105.026C130.048 102.85 133.117 99.5857 135.698 96.3246L135.463 96.1384ZM126.338 104.77L126.181 104.514C119.209 108.784 110.506 108.781 102.329 106.185L102.238 106.471L102.148 106.757C110.427 109.385 119.326 109.417 126.495 105.026L126.338 104.77ZM102.238 106.471L101.953 106.376L101.952 106.381L102.237 106.475L102.522 106.569L102.523 106.565L102.238 106.471ZM102.237 106.475L102.331 106.19L101.381 105.877L101.287 106.161L101.193 106.446L102.143 106.76L102.237 106.475ZM101.287 106.161L101.572 106.256L101.574 106.251L101.289 106.157L101.004 106.063L101.002 106.067L101.287 106.161ZM101.289 106.157L101.386 105.873C93.2733 103.085 86.2821 97.901 83.2279 90.3169L82.9496 90.429L82.6713 90.541C85.8118 98.3393 92.9763 103.617 101.191 106.44L101.289 106.157ZM82.9496 90.429L83.2279 90.3169C81.7103 86.5484 81.1949 82.1804 81.0661 78.0499L80.7662 78.0593L80.4664 78.0686C80.596 82.2259 81.1149 86.6762 82.6713 90.541L82.9496 90.429ZM80.7662 78.0593L81.0661 78.0499C80.9374 73.9239 81.1954 70.0017 81.2363 67.1557L80.9363 67.1514L80.6364 67.1471C80.5961 69.9481 80.3373 73.928 80.4664 78.0686L80.7662 78.0593ZM80.9363 67.1514L81.2363 67.1543L81.2371 67.0774L80.9371 67.0745L80.6371 67.0717L80.6364 67.1485L80.9363 67.1514ZM80.9371 67.0745L81.2219 67.1687L84.4534 57.392L84.1686 57.2979L83.8837 57.2037L80.6522 66.9804L80.9371 67.0745ZM84.1686 57.2979L84.0744 57.5827L145.01 77.7238L145.104 77.439L145.198 77.1541L84.2627 57.013L84.1686 57.2979Z" fill="#404040"/>
<path d="M138.112 46.837C138.982 46.8365 139.684 46.1233 139.67 45.2532C139.656 44.3832 138.932 43.6924 138.063 43.7193L94.6766 45.0715C94.1878 45.0868 93.8015 45.4912 93.8093 45.9802C93.8172 46.4691 94.2165 46.8616 94.7055 46.8613L138.112 46.837Z" fill="#717171" stroke="black" stroke-width="0.6"/>
<path d="M140.464 57.3225C141.316 57.4981 142.147 56.9416 142.31 56.0867C142.472 55.2319 141.904 54.409 141.047 54.2593L98.285 46.8004C97.8032 46.7164 97.3431 47.0342 97.2517 47.5146C97.1604 47.995 97.472 48.4603 97.9509 48.559L140.464 57.3225Z" fill="#717171" stroke="black" stroke-width="0.6"/>
<path d="M113.649 70.3568C121.987 73.1129 129.643 75.2681 135.28 76.5255C138.1 77.1546 140.406 77.5568 142.035 77.6987C142.851 77.7698 143.482 77.7742 143.917 77.7149C144.134 77.6852 144.285 77.6413 144.381 77.5939C144.477 77.5468 144.488 77.5118 144.488 77.5109C144.49 77.505 144.507 77.4166 144.326 77.196C144.157 76.9899 143.869 76.7362 143.454 76.4398C142.627 75.8493 141.356 75.1292 139.708 74.3119C136.414 72.6792 131.65 70.6793 125.999 68.5731C122.741 67.3592 119.191 66.1111 115.46 64.8779C107.121 62.1218 99.4646 59.9654 93.8277 58.7079C91.0076 58.0789 88.7024 57.6767 87.0733 57.5348C86.2563 57.4636 85.6256 57.4601 85.1911 57.5195C84.9734 57.5492 84.8225 57.5922 84.7266 57.6395C84.6337 57.6854 84.6208 57.72 84.62 57.7226C84.6197 57.7235 84.6076 57.7581 84.6561 57.8528C84.7049 57.948 84.7999 58.0732 84.9572 58.2269C85.2708 58.5335 85.7797 58.9057 86.4782 59.3355C87.8708 60.1923 89.9617 61.2432 92.6011 62.4187C97.8771 64.7683 105.311 67.6007 113.649 70.3568Z" fill="#FFFEA3" stroke="#404040" stroke-width="0.6"/>
<path d="M145.171 76.981C145.587 75.7232 137.751 71.9431 126.381 67.7222C123.104 66.5054 119.532 65.2519 115.78 64.0117C99.0121 58.4694 84.9849 55.29 84.4493 56.9104C83.9137 58.5309 97.0725 64.3374 113.84 69.8798C130.608 75.4221 144.636 78.6014 145.171 76.981Z" fill="#FFFEA3"/>
<path d="M100.777 42.5191C101.255 42.4139 101.667 42.5485 101.972 42.8307C102.253 43.0902 102.419 43.4496 102.52 43.7781C102.616 44.0901 102.664 44.4195 102.682 44.709C103.19 44.2838 103.661 44.0259 104.1 43.9569C104.584 43.8813 104.986 44.0411 105.273 44.3415C105.537 44.6177 105.681 44.9866 105.762 45.3208C105.842 45.6537 105.871 46.0023 105.869 46.3022C105.877 46.4352 105.887 46.5787 105.899 46.732C106.202 46.544 106.492 46.4266 106.771 46.3876C107.229 46.3239 107.611 46.4775 107.886 46.7582C108.14 47.0176 108.283 47.3615 108.364 47.672C108.443 47.9785 108.474 48.2983 108.476 48.5741C108.642 50.7737 109.495 56.1366 111.599 61.6452C113.055 62.1026 114.543 62.5823 116.053 63.0814C119.31 64.1581 122.428 65.2476 125.328 66.3139C127.012 66.4593 130.483 66.2536 134.537 64.43C136.078 63.737 137.351 63.555 138.369 63.7536C139.4 63.9549 140.122 64.5394 140.547 65.2728C140.965 65.9942 141.09 66.8463 140.973 67.6054C140.917 67.968 140.801 68.3254 140.626 68.6445C141.404 68.7504 142.263 68.9826 142.948 69.4255C143.467 69.7616 143.913 70.2352 144.118 70.8839C144.323 71.5332 144.265 72.2874 143.915 73.1413C143.739 73.5685 143.536 73.9377 143.312 74.2554C144.372 74.9592 144.894 75.5136 144.776 75.8727C144.233 77.5147 130.493 74.4504 114.087 69.0277C97.6814 63.605 84.822 57.8775 85.3648 56.2355C85.7206 55.1638 91.703 56.0985 100.38 58.3865C99.4311 56.5251 98.4557 54.4859 97.6538 52.5598C96.9281 50.8164 96.3339 49.1458 96.0294 47.7782C95.8775 47.0955 95.7924 46.4653 95.8077 45.9286C95.8227 45.4036 95.9357 44.89 96.2596 44.5208C96.7083 44.0097 97.1435 43.6761 97.5761 43.5407C98.0432 43.3946 98.4645 43.4937 98.7931 43.7485C98.8703 43.8085 98.9407 43.8761 99.0048 43.9481C99.0945 43.7337 99.2162 43.5397 99.3813 43.3814C99.8723 42.9111 100.335 42.6167 100.777 42.5191Z" fill="#E8FFA3"/>
<path d="M100.777 42.5191L100.713 42.2261L100.713 42.2261L100.777 42.5191ZM101.972 42.8307L102.176 42.6106L102.176 42.6104L101.972 42.8307ZM102.52 43.7781L102.807 43.69L102.807 43.6899L102.52 43.7781ZM102.682 44.709L102.383 44.7276L102.419 45.3201L102.875 44.9391L102.682 44.709ZM104.1 43.9569L104.054 43.6605L104.054 43.6605L104.1 43.9569ZM105.273 44.3415L105.49 44.1342L105.49 44.1341L105.273 44.3415ZM105.762 45.3208L106.054 45.2504L106.054 45.2504L105.762 45.3208ZM105.869 46.3022L105.569 46.2994L105.569 46.3097L105.569 46.32L105.869 46.3022ZM105.899 46.732L105.6 46.7558L105.639 47.2468L106.058 46.9868L105.899 46.732ZM106.771 46.3876L106.73 46.0905L106.73 46.0905L106.771 46.3876ZM107.886 46.7582L108.101 46.5485L108.1 46.5483L107.886 46.7582ZM108.364 47.672L108.654 47.5964L108.654 47.5964L108.364 47.672ZM108.476 48.5741L108.176 48.5762L108.176 48.5864L108.177 48.5966L108.476 48.5741ZM111.599 61.6452L111.319 61.7522L111.37 61.8879L111.509 61.9315L111.599 61.6452ZM116.053 63.0814L116.147 62.7966L116.147 62.7966L116.053 63.0814ZM125.328 66.3139L125.225 66.5955L125.262 66.6093L125.302 66.6128L125.328 66.3139ZM134.537 64.43L134.66 64.7036L134.66 64.7036L134.537 64.43ZM138.369 63.7536L138.426 63.4592L138.426 63.4592L138.369 63.7536ZM140.547 65.2728L140.807 65.1223L140.806 65.1223L140.547 65.2728ZM140.973 67.6054L141.27 67.651L141.27 67.6509L140.973 67.6054ZM140.626 68.6445L140.363 68.4998L140.152 68.8829L140.585 68.9418L140.626 68.6445ZM142.948 69.4255L143.111 69.1737L143.111 69.1736L142.948 69.4255ZM144.118 70.8839L144.404 70.7936L144.404 70.7935L144.118 70.8839ZM143.915 73.1413L144.192 73.2551L144.192 73.2551L143.915 73.1413ZM143.312 74.2554L143.067 74.0826L142.889 74.3347L143.146 74.5054L143.312 74.2554ZM144.776 75.8727L145.061 75.9669L145.061 75.9665L144.776 75.8727ZM114.087 69.0277L113.993 69.3126L113.993 69.3126L114.087 69.0277ZM85.3648 56.2355L85.08 56.1409L85.0799 56.1413L85.3648 56.2355ZM100.38 58.3865L100.303 58.6766L100.952 58.8475L100.647 58.2502L100.38 58.3865ZM97.6538 52.5598L97.3769 52.6751L97.3769 52.6751L97.6538 52.5598ZM96.0294 47.7782L95.7366 47.8433L95.7366 47.8434L96.0294 47.7782ZM95.8077 45.9286L95.5078 45.92L95.5078 45.9201L95.8077 45.9286ZM96.2596 44.5208L96.0342 44.3229L96.0341 44.323L96.2596 44.5208ZM97.5761 43.5407L97.4866 43.2544L97.4865 43.2544L97.5761 43.5407ZM98.7931 43.7485L98.977 43.5116L98.9769 43.5115L98.7931 43.7485ZM99.0048 43.9481L98.7808 44.1477L99.0977 44.5034L99.2815 44.0639L99.0048 43.9481ZM99.3813 43.3814L99.1738 43.1648L99.1738 43.1648L99.3813 43.3814ZM100.777 42.5191L100.842 42.8121C101.221 42.7286 101.533 42.8335 101.769 43.051L101.972 42.8307L102.176 42.6104C101.8 42.2635 101.289 42.0992 100.713 42.2261L100.777 42.5191ZM101.972 42.8307L101.768 43.0509C101.994 43.2593 102.14 43.5614 102.233 43.8662L102.52 43.7781L102.807 43.6899C102.698 43.3377 102.512 42.9212 102.176 42.6106L101.972 42.8307ZM102.52 43.7781L102.233 43.8661C102.32 44.1505 102.366 44.4557 102.383 44.7276L102.682 44.709L102.982 44.6905C102.963 44.3834 102.911 44.0297 102.807 43.69L102.52 43.7781ZM102.682 44.709L102.875 44.9391C103.364 44.5295 103.784 44.3101 104.147 44.2533L104.1 43.9569L104.054 43.6605C103.537 43.7417 103.017 44.0381 102.49 44.479L102.682 44.709ZM104.1 43.9569L104.147 44.2533C104.53 44.1933 104.835 44.3173 105.056 44.5489L105.273 44.3415L105.49 44.1341C105.137 43.765 104.637 43.5693 104.054 43.6605L104.1 43.9569ZM105.273 44.3415L105.056 44.5488C105.268 44.7706 105.396 45.0812 105.47 45.3911L105.762 45.3208L106.054 45.2504C105.967 44.8921 105.806 44.4648 105.49 44.1342L105.273 44.3415ZM105.762 45.3208L105.47 45.3911C105.544 45.6956 105.571 46.0191 105.569 46.2994L105.869 46.3022L106.169 46.305C106.172 45.9855 106.141 45.6118 106.054 45.2504L105.762 45.3208ZM105.869 46.3022L105.569 46.32C105.577 46.4559 105.588 46.6017 105.6 46.7558L105.899 46.732L106.198 46.7082C106.186 46.5557 106.176 46.4144 106.168 46.2844L105.869 46.3022ZM105.899 46.732L106.058 46.9868C106.336 46.8137 106.587 46.7163 106.813 46.6848L106.771 46.3876L106.73 46.0905C106.397 46.1369 106.068 46.2742 105.741 46.4772L105.899 46.732ZM106.771 46.3876L106.813 46.6848C107.173 46.6346 107.461 46.7528 107.672 46.9681L107.886 46.7582L108.1 46.5483C107.761 46.2023 107.286 46.0132 106.73 46.0905L106.771 46.3876ZM107.886 46.7582L107.672 46.9679C107.874 47.1751 107.999 47.4629 108.073 47.7476L108.364 47.672L108.654 47.5964C108.566 47.2601 108.405 46.86 108.101 46.5485L107.886 46.7582ZM108.364 47.672L108.073 47.7476C108.145 48.0247 108.174 48.319 108.176 48.5762L108.476 48.5741L108.776 48.572C108.774 48.2777 108.741 47.9322 108.654 47.5964L108.364 47.672ZM108.476 48.5741L108.177 48.5966C108.344 50.8221 109.204 56.2137 111.319 61.7522L111.599 61.6452L111.879 61.5382C109.787 56.0594 108.939 50.7253 108.775 48.5515L108.476 48.5741ZM111.599 61.6452L111.509 61.9315C112.964 62.3883 114.45 62.8676 115.959 63.3663L116.053 63.0814L116.147 62.7966C114.636 62.297 113.147 61.8168 111.689 61.359L111.599 61.6452ZM116.053 63.0814L115.959 63.3663C119.213 64.4419 122.327 65.5303 125.225 66.5955L125.328 66.3139L125.432 66.0323C122.528 64.9648 119.407 63.8743 116.147 62.7966L116.053 63.0814ZM125.328 66.3139L125.302 66.6128C127.035 66.7624 130.558 66.549 134.66 64.7036L134.537 64.43L134.414 64.1564C130.409 65.9582 126.989 66.1562 125.354 66.015L125.328 66.3139ZM134.537 64.43L134.66 64.7036C136.166 64.0264 137.374 63.8651 138.311 64.0481L138.369 63.7536L138.426 63.4592C137.328 63.2449 135.99 63.4475 134.414 64.1564L134.537 64.43ZM138.369 63.7536L138.311 64.0481C139.254 64.2321 139.904 64.7615 140.287 65.4232L140.547 65.2728L140.806 65.1223C140.34 64.3172 139.546 63.6778 138.426 63.4592L138.369 63.7536ZM140.547 65.2728L140.287 65.4232C140.668 66.08 140.784 66.8619 140.677 67.5599L140.973 67.6054L141.27 67.6509C141.396 66.8306 141.262 65.9085 140.807 65.1223L140.547 65.2728ZM140.973 67.6054L140.677 67.5599C140.626 67.8907 140.52 68.2141 140.363 68.4998L140.626 68.6445L140.888 68.7893C141.082 68.4368 141.209 68.0453 141.27 67.651L140.973 67.6054ZM140.626 68.6445L140.585 68.9418C141.341 69.0445 142.152 69.2676 142.785 69.6774L142.948 69.4255L143.111 69.1736C142.375 68.6975 141.468 68.4562 140.666 68.3473L140.626 68.6445ZM142.948 69.4255L142.785 69.6774C143.263 69.9866 143.653 70.4093 143.832 70.9743L144.118 70.8839L144.404 70.7935C144.172 70.0612 143.672 69.5365 143.111 69.1737L142.948 69.4255ZM144.118 70.8839L143.832 70.9743C144.01 71.5396 143.968 72.2198 143.637 73.0274L143.915 73.1413L144.192 73.2551C144.561 72.355 144.635 71.5269 144.404 70.7936L144.118 70.8839ZM143.915 73.1413L143.637 73.0274C143.47 73.4353 143.277 73.7845 143.067 74.0826L143.312 74.2554L143.557 74.4283C143.795 74.0909 144.009 73.7017 144.192 73.2551L143.915 73.1413ZM143.312 74.2554L143.146 74.5054C143.669 74.8525 144.041 75.1511 144.264 75.3958C144.376 75.5182 144.44 75.615 144.47 75.6862C144.485 75.7206 144.49 75.7442 144.492 75.7585C144.493 75.7718 144.491 75.7774 144.491 75.779L144.776 75.8727L145.061 75.9665C145.12 75.7867 145.09 75.6068 145.021 75.4488C144.954 75.293 144.843 75.1399 144.707 74.9909C144.434 74.6926 144.015 74.3621 143.478 74.0055L143.312 74.2554ZM144.776 75.8727L144.491 75.7786C144.49 75.78 144.488 75.7873 144.475 75.8003C144.461 75.8144 144.435 75.8346 144.389 75.8571C144.295 75.9033 144.148 75.946 143.934 75.9752C143.507 76.0335 142.888 76.0295 142.085 75.9596C140.484 75.8202 138.218 75.425 135.446 74.8067C129.905 73.5708 122.378 71.4521 114.182 68.7429L114.087 69.0277L113.993 69.3126C122.203 72.026 129.749 74.1508 135.315 75.3923C138.096 76.0126 140.392 76.4145 142.033 76.5574C142.851 76.6286 143.522 76.637 144.015 76.5697C144.26 76.5362 144.48 76.4816 144.655 76.395C144.831 76.3081 144.992 76.173 145.061 75.9669L144.776 75.8727ZM114.087 69.0277L114.182 68.7429C105.985 66.0336 98.6784 63.2496 93.4924 60.9398C90.8977 59.7842 88.8426 58.7511 87.4738 57.9089C86.7873 57.4865 86.2878 57.1207 85.9799 56.8197C85.8254 56.6686 85.7323 56.5463 85.6846 56.4534C85.6615 56.4082 85.6525 56.3763 85.6495 56.3565C85.6467 56.3383 85.6491 56.3311 85.6496 56.3296L85.3648 56.2355L85.0799 56.1413C85.0118 56.3474 85.0612 56.5523 85.1506 56.7269C85.2398 56.901 85.3832 57.0754 85.5605 57.2487C85.9161 57.5964 86.4603 57.9897 87.1594 58.4199C88.5618 59.2829 90.6452 60.3285 93.2483 61.4879C98.4577 63.808 105.784 66.5991 113.993 69.3126L114.087 69.0277ZM85.3648 56.2355L85.6495 56.33C85.6498 56.3291 85.6535 56.3162 85.6821 56.2938C85.7127 56.2697 85.7659 56.2398 85.8523 56.2106C86.0269 56.1515 86.2905 56.1107 86.6518 56.0975C87.3707 56.0712 88.4017 56.1559 89.7083 56.3479C92.317 56.7313 95.9695 57.5338 100.303 58.6766L100.38 58.3865L100.456 58.0964C96.1135 56.9512 92.4363 56.1424 89.7956 55.7543C88.4775 55.5606 87.4038 55.4696 86.6298 55.4979C86.2447 55.512 85.9147 55.5561 85.6602 55.6422C85.4143 55.7253 85.1692 55.8724 85.08 56.1409L85.3648 56.2355ZM100.38 58.3865L100.647 58.2502C99.7005 56.393 98.7287 54.3612 97.9308 52.4445L97.6538 52.5598L97.3769 52.6751C98.1826 54.6107 99.1617 56.6572 100.113 58.5227L100.38 58.3865ZM97.6538 52.5598L97.9308 52.4445C97.2075 50.707 96.6211 49.0552 96.3223 47.713L96.0294 47.7782L95.7366 47.8434C96.0467 49.2364 96.6487 50.9258 97.3769 52.6751L97.6538 52.5598ZM96.0294 47.7782L96.3223 47.713C96.173 47.0423 96.0932 46.4391 96.1075 45.9371L95.8077 45.9286L95.5078 45.9201C95.4915 46.4915 95.582 47.1487 95.7366 47.8433L96.0294 47.7782ZM95.8077 45.9286L96.1075 45.9372C96.1218 45.4399 96.229 45.0106 96.4851 44.7187L96.2596 44.5208L96.0341 44.323C95.6424 44.7694 95.5236 45.3673 95.5078 45.92L95.8077 45.9286ZM96.2596 44.5208L96.4851 44.7187C96.9178 44.2257 97.3089 43.9387 97.6657 43.827L97.5761 43.5407L97.4865 43.2544C96.9781 43.4136 96.4988 43.7936 96.0342 44.3229L96.2596 44.5208ZM97.5761 43.5407L97.6656 43.827C98.0361 43.7112 98.3557 43.789 98.6092 43.9856L98.7931 43.7485L98.9769 43.5115C98.5732 43.1984 98.0503 43.0781 97.4866 43.2544L97.5761 43.5407ZM98.7931 43.7485L98.6091 43.9855C98.6698 44.0327 98.727 44.0873 98.7808 44.1477L99.0048 43.9481L99.2288 43.7486C99.1543 43.665 99.0708 43.5843 98.977 43.5116L98.7931 43.7485ZM99.0048 43.9481L99.2815 44.0639C99.3589 43.879 99.4595 43.7221 99.5889 43.598L99.3813 43.3814L99.1738 43.1648C98.9728 43.3574 98.8301 43.5885 98.728 43.8323L99.0048 43.9481ZM99.3813 43.3814L99.5889 43.5981C100.062 43.1445 100.477 42.8926 100.842 42.812L100.777 42.5191L100.713 42.2261C100.193 42.3408 99.6823 42.6777 99.1738 43.1648L99.3813 43.3814Z" fill="#404040"/>
<path d="M99.2548 45.7497C98.9724 47.302 101.595 55.5438 104.17 59.3272M102.276 46.6073C102.499 48.2924 103.261 52.2298 104.529 54.4986M105.68 51.0166C105.875 52.3336 106.606 55.6531 107.97 58.3951M105.574 47.8384C105.481 48.2775 105.346 48.5226 105.543 49.1343" stroke="#404040" stroke-width="0.6" stroke-linecap="round"/>
<path d="M143.669 62.1902C144.345 62.1032 144.966 62.2057 145.422 62.4262C145.881 62.6482 146.138 62.9692 146.182 63.31C146.226 63.6508 146.058 64.0256 145.671 64.3565C145.286 64.6854 144.71 64.942 144.034 65.0291C143.358 65.1162 142.737 65.0137 142.281 64.7931C141.822 64.5712 141.565 64.2511 141.521 63.9103C141.477 63.5694 141.645 63.1938 142.032 62.8628C142.417 62.534 142.993 62.2773 143.669 62.1902Z" fill="#E8FFA3" stroke="#404040" stroke-width="0.6"/>
<path d="M48.786 26.5088C50.2869 27.1184 51.4564 28.1044 52.1393 29.1914C52.8224 30.2787 53.0076 31.4446 52.5991 32.4506C52.1905 33.4566 51.2449 34.1631 49.997 34.4663C48.7497 34.7694 47.2238 34.6608 45.7229 34.0512C44.2222 33.4417 43.0534 32.4559 42.3705 31.3691C41.6873 30.2817 41.5012 29.1156 41.9098 28.1095C42.3184 27.1035 43.2648 26.3973 44.5127 26.0941C45.76 25.7912 47.2853 25.8994 48.786 26.5088Z" fill="#E8FFA3" stroke="#404040" stroke-width="0.6"/>
<circle cx="57.2241" cy="39.3152" r="2.40264" fill="#E8FFA3" stroke="#404040" stroke-width="0.6"/>
<circle cx="72.3862" cy="69.2908" r="1.37383" fill="#E8FFA3" stroke="#404040" stroke-width="0.6"/>
<circle cx="132.422" cy="10.3604" r="5.15687" fill="#E8FFA3" stroke="#404040" stroke-width="0.6"/>
<circle cx="145.773" cy="20.4054" r="3.24226" fill="#E8FFA3" stroke="#404040" stroke-width="0.6"/>
<circle cx="126.02" cy="32.1248" r="2.29668" fill="#E8FFA3" stroke="#404040" stroke-width="0.6"/>
</svg>
