<svg width="246" height="183" viewBox="0 0 246 183" fill="none" xmlns="http://www.w3.org/2000/svg">
<rect x="33.133" y="0.335278" width="96.7618" height="36.6422" rx="4.7" fill="#FFFEA3" stroke="#404040" stroke-width="0.6"/>
<path d="M57.1642 25.4892C53.702 25.4892 51.4008 22.5039 51.4008 17.8807C51.4008 13.3613 53.6398 10.3552 57.1642 10.3552C60.6056 10.3552 62.9068 13.2991 62.9068 17.8807C62.9068 22.4209 60.6678 25.4892 57.1642 25.4892ZM57.1642 23.188C59.1337 23.188 60.3983 21.1149 60.3983 17.8807C60.3983 14.6881 59.1337 12.6357 57.1642 12.6357C55.1739 12.6357 53.9093 14.6881 53.9093 17.8807C53.9093 21.1149 55.1739 23.188 57.1642 23.188ZM69.9497 25.4892C66.4875 25.4892 64.1863 22.5039 64.1863 17.8807C64.1863 13.3613 66.4253 10.3552 69.9497 10.3552C73.3911 10.3552 75.6923 13.2991 75.6923 17.8807C75.6923 22.4209 73.4533 25.4892 69.9497 25.4892ZM69.9497 23.188C71.9191 23.188 73.1838 21.1149 73.1838 17.8807C73.1838 14.6881 71.9191 12.6357 69.9497 12.6357C67.9594 12.6357 66.6948 14.6881 66.6948 17.8807C66.6948 21.1149 67.9594 23.188 69.9497 23.188ZM82.5853 17.0308C81.6939 17.0308 81.0097 16.3466 81.0097 15.4344C81.0097 14.543 81.6939 13.8588 82.5853 13.8588C83.4975 13.8588 84.1816 14.543 84.1816 15.4344C84.1816 16.3466 83.4975 17.0308 82.5853 17.0308ZM82.5853 25.4477C81.6939 25.4477 81.0097 24.7636 81.0097 23.8514C81.0097 22.96 81.6939 22.2758 82.5853 22.2758C83.4975 22.2758 84.1816 22.96 84.1816 23.8514C84.1816 24.7636 83.4975 25.4477 82.5853 25.4477ZM95.1961 25.5099C91.7754 25.5099 89.4327 23.6234 89.2669 20.5551H91.8168C91.9619 22.2344 93.268 23.2502 95.1961 23.2502C96.979 23.2502 98.0985 22.3587 98.0985 20.9905C98.0985 19.6429 96.9997 18.8137 95.1753 18.8137H92.9156V16.7612H95.1753C96.6473 16.7612 97.5387 15.8283 97.5387 14.6881C97.5387 13.4857 96.5643 12.5942 95.1131 12.5942C93.6412 12.5942 92.5217 13.5271 92.3351 14.9576H89.7644C90.0547 12.1796 92.2107 10.3552 95.1961 10.3552C98.0155 10.3552 100.026 11.9723 100.026 14.232C100.026 15.9527 98.8448 17.2795 97.1034 17.6527C99.2387 18.0466 100.524 19.4149 100.524 21.3429C100.524 23.8099 98.4094 25.5099 95.1961 25.5099ZM107.333 25.5099C104.306 25.5099 102.067 23.6856 101.694 20.7417H104.327C104.555 22.2551 105.778 23.2295 107.353 23.2295C109.116 23.2295 110.173 21.9856 110.173 20.41C110.173 18.8759 109.136 17.6112 107.395 17.6112C106.441 17.6112 105.633 17.9844 104.886 18.7722H102.108L103.394 10.6662H112.018V12.9259H105.446L104.803 17.0515C105.591 16.1808 106.732 15.5795 108.162 15.5795C110.816 15.5795 112.681 17.5698 112.681 20.3893C112.681 23.416 110.505 25.5099 107.333 25.5099Z" fill="#404040"/>
<rect x="33.133" y="47.9426" width="202.291" height="35.1227" rx="4.7" fill="#FFFED7" stroke="#404040" stroke-width="0.6"/>
<rect x="33.133" y="105.802" width="202.291" height="35.1227" rx="4.7" fill="#FFFED7" stroke="#404040" stroke-width="0.6"/>
<rect x="33.133" y="147.544" width="202.291" height="35.1227" rx="4.7" fill="#FFFED7" stroke="#404040" stroke-width="0.6"/>
<path d="M55.9437 59.5723V60.8027C55.9291 62.3994 55.9437 64.2158 55.3871 66.9404L54.0248 66.7939C54.2665 65.6733 54.4056 64.6846 54.4789 63.791L46.5834 64.2598L46.3783 63.0586L54.5521 62.7363C54.5814 62.0332 54.5814 61.396 54.5814 60.8027V60.7148H46.7738V59.5723H55.9437ZM57.3207 68.625V69.7822H45.3529V68.625H49.9085V65.2998H51.2855V68.625H57.3207ZM64.6818 60.2168C64.6818 62.3555 66.9669 64.377 69.4865 64.8311L68.8419 65.9883C66.7472 65.5342 64.8136 64.1572 63.964 62.3115C63.0998 64.1426 61.1735 65.5195 59.0714 65.9883L58.4562 64.8311C60.9464 64.3623 63.2169 62.3555 63.2169 60.2168V59.2207H64.6818V60.2168ZM70.0285 68.5957V69.7529H58.0167V68.5957H70.0285ZM86.0105 64.4355V65.5635H80.7078V66.8232C83.1174 66.9551 84.5457 67.7681 84.5457 69.1377C84.5457 70.6318 82.8464 71.4668 80.0193 71.4521C77.1628 71.4668 75.4636 70.6318 75.4636 69.1377C75.4636 67.7681 76.8918 66.9551 79.3308 66.8232V65.5635H74.0427V64.4355H86.0105ZM80.0193 67.8779C78.0125 67.8779 76.8699 68.332 76.8699 69.1377C76.8699 69.9287 78.0125 70.3975 80.0193 70.3828C81.9968 70.3975 83.1541 69.9287 83.1541 69.1377C83.1541 68.332 81.9968 67.8779 80.0193 67.8779ZM84.9412 58.957V60.0703H80.9568C81.1545 61.3374 83.0002 62.4141 85.3953 62.6484L84.8972 63.7471C82.6267 63.4834 80.7444 62.5239 80.0339 61.125C79.3015 62.5239 77.4265 63.4834 75.156 63.7471L74.6726 62.6484C77.031 62.4141 78.884 61.3374 79.0818 60.0703H75.1414V58.957H84.9412ZM140.057 64.377V65.4463H128.046V64.377H140.057ZM138.578 66.3691V69.2549H130.873V70.3389H138.988V71.3203H129.481V68.332H137.201V67.3652H129.467V66.3691H138.578ZM138.549 58.6934V61.5352H130.961V62.5312H138.768V63.5127H129.584V60.6123H137.157V59.6748H129.554V58.6934H138.549ZM154.413 58.3711V62.2676H156.288V63.4102H154.413V67.2041H153.022V58.3711H154.413ZM143.998 65.7393C145.016 65.7393 146.196 65.7393 147.426 65.6953V64.8164C145.932 64.6626 144.98 63.9595 144.994 62.8975C144.98 61.6963 146.225 60.9492 148.115 60.9639C149.99 60.9492 151.235 61.6963 151.235 62.8975C151.235 63.9521 150.297 64.6553 148.818 64.8164V65.6514C149.99 65.5928 151.176 65.4976 152.275 65.3438L152.392 66.3398C149.565 66.8379 146.459 66.8525 144.145 66.8525L143.998 65.7393ZM154.413 67.8193V71.4814H153.022V68.9033H145.639V67.8193H154.413ZM151.909 59.4844V60.5244H144.335V59.4844H147.426V58.2539H148.818V59.4844H151.909ZM148.115 61.916C146.987 61.9014 146.313 62.2676 146.313 62.8975C146.313 63.5127 146.987 63.9082 148.115 63.9082C149.228 63.9082 149.902 63.5127 149.902 62.8975C149.902 62.2676 149.228 61.9014 148.115 61.916ZM167.634 58.3711V67.9072H166.242V58.3711H167.634ZM168.029 70.0752V71.2031H159.05V66.9404H160.456V70.0752H168.029ZM160.515 59.25C162.492 59.25 164.001 60.5977 164.001 62.502C164.001 64.4355 162.492 65.7686 160.515 65.7686C158.537 65.7686 157.014 64.4355 157.014 62.502C157.014 60.5977 158.537 59.25 160.515 59.25ZM160.515 60.4658C159.284 60.4658 158.376 61.3008 158.376 62.502C158.376 63.7324 159.284 64.5527 160.515 64.5527C161.716 64.5527 162.639 63.7324 162.639 62.502C162.639 61.3008 161.716 60.4658 160.515 60.4658ZM175.903 60.5244V61.6523H169.385V60.5244H171.963V58.7373H173.34V60.5244H175.903ZM172.651 62.4434C174.321 62.4434 175.493 63.6885 175.508 65.4609C175.493 67.248 174.321 68.5078 172.651 68.5078C171.011 68.5078 169.795 67.248 169.81 65.4609C169.795 63.6885 171.011 62.4434 172.651 62.4434ZM172.651 63.6006C171.699 63.6006 171.04 64.377 171.04 65.4609C171.04 66.5742 171.699 67.3213 172.651 67.3213C173.589 67.3213 174.277 66.5742 174.277 65.4609C174.277 64.377 173.589 63.6006 172.651 63.6006ZM180.649 58.3564V71.4814H179.331V64.9629H177.822V70.8662H176.504V58.6494H177.822V63.8203H179.331V58.3564H180.649ZM194.09 68.6982V69.8555H182.078V68.6982H187.366V66.0029H183.455V59.25H184.846V61.5059H191.292V59.25H192.669V66.0029H188.743V68.6982H194.09ZM184.846 64.875H191.292V62.6338H184.846V64.875ZM198.741 61.9453C198.741 64.04 199.62 66.2812 201.378 67.3506L200.601 68.4199C199.371 67.6802 198.536 66.3691 198.096 64.8457C197.606 66.5156 196.705 67.9365 195.43 68.7129L194.566 67.6729C196.426 66.5596 197.393 64.2451 197.393 62.0039V59.5576H198.741V61.9453ZM206.036 58.3564V71.4814H204.703V58.3564H206.036ZM203.311 58.6055V70.8369H201.993V64.1279H199.957V62.9707H201.993V58.6055H203.311ZM219.417 68.6836V69.8408H207.406V68.6836H210.277V65.2559C209.2 64.6626 208.548 63.7178 208.548 62.5459C208.548 60.4805 210.57 59.1182 213.382 59.1182C216.209 59.1182 218.231 60.4805 218.231 62.5459C218.231 63.7031 217.601 64.6333 216.546 65.2266V68.6836H219.417ZM213.382 60.2314C211.317 60.2314 209.896 61.125 209.896 62.5459C209.896 63.9521 211.317 64.875 213.382 64.875C215.433 64.875 216.883 63.9521 216.883 62.5459C216.883 61.125 215.433 60.2314 213.382 60.2314ZM211.654 68.6836H215.14V65.7539C214.605 65.8931 214.012 65.959 213.382 65.959C212.767 65.959 212.181 65.8931 211.654 65.7686V68.6836ZM222.486 59.6309L222.355 67.1748H220.904L220.773 59.6309H222.486ZM221.637 70.3389C221.066 70.3389 220.582 69.8701 220.597 69.2988C220.582 68.7275 221.066 68.2588 221.637 68.2588C222.194 68.2588 222.677 68.7275 222.677 69.2988C222.677 69.8701 222.194 70.3389 221.637 70.3389Z" fill="#717171"/>
<path d="M96.8216 59.4404V60.7734H92.222V63.1318H96.5873V64.4209H92.222V67.1455C94.2582 67.1309 95.8475 67.0576 97.7005 66.75L97.847 68.0684C95.8109 68.3906 94.0384 68.4639 91.6654 68.4639H90.5667V59.4404H96.8216ZM100.396 58.2979V63.4248H102.432V64.7871H100.396V71.54H98.7699V58.2979H100.396ZM113.704 58.2979V71.5547H112.064V58.2979H113.704ZM106.57 59.2646C108.563 59.2646 110.013 61.0811 110.027 63.9375C110.013 66.8232 108.563 68.625 106.57 68.625C104.564 68.625 103.113 66.8232 103.113 63.9375C103.113 61.0811 104.564 59.2646 106.57 59.2646ZM106.57 60.7295C105.443 60.7295 104.681 61.916 104.681 63.9375C104.681 65.9736 105.443 67.1602 106.57 67.1602C107.684 67.1602 108.445 65.9736 108.445 63.9375C108.445 61.916 107.684 60.7295 106.57 60.7295ZM122.091 59.5283V62.9707H124.845V58.2979H126.456V71.5547H124.845V64.2891H122.091V68.2734H115.851V59.5283H122.091ZM117.477 60.8027V66.9844H120.494V60.8027H117.477Z" fill="#404040"/>
<path d="M55.5745 116.23V120.449H57.4788V121.606H55.5745V126.045H54.1829V116.23H55.5745ZM53.0989 117.754V118.882H45.2766V117.754H48.4993V116.216H49.8909V117.754H53.0989ZM49.1877 119.512C51.0774 119.512 52.3665 120.493 52.3665 121.987C52.3665 123.481 51.0774 124.448 49.1877 124.448C47.2834 124.448 45.9944 123.481 45.9944 121.987C45.9944 120.493 47.2834 119.512 49.1877 119.512ZM49.1877 120.581C48.0745 120.581 47.3274 121.123 47.342 121.987C47.3274 122.837 48.0745 123.364 49.1877 123.364C50.301 123.364 51.0481 122.837 51.0627 121.987C51.0481 121.123 50.301 120.581 49.1877 120.581ZM56.1311 127.935V129.062H47.2542V125.269H48.6458V127.935H56.1311ZM68.8682 116.23V125.928H67.4766V120.977H64.6055V123.745H58.5557V117.095H59.9473V119.321H63.2286V117.095H64.6055V119.849H67.4766V116.23H68.8682ZM69.1612 127.935V129.062H60.2989V124.976H61.7051V127.935H69.1612ZM59.9473 122.617H63.2286V120.391H59.9473V122.617ZM84.8942 116.216V129.37H83.5172V122.207H80.9098V121.064H83.5172V116.216H84.8942ZM80.6901 117.388V118.516H75.9586V121.064H80.1334V122.178H75.9586V125.107C78.1559 125.1 79.6793 125.049 81.4225 124.741L81.569 125.869C79.6647 126.177 78.0094 126.25 75.5778 126.265H74.5524V117.388H80.6901ZM97.4848 116.216V129.341H96.0932V116.216H97.4848ZM91.5522 120.435C91.5522 122.529 92.9438 124.668 94.9799 125.532L94.2182 126.602C92.7094 125.942 91.5009 124.58 90.893 122.925C90.2998 124.675 89.1132 126.133 87.5825 126.821L86.8061 125.752C88.8422 124.844 90.1899 122.632 90.1899 120.435V119.57H87.2016V118.457H90.1752V116.479H91.5522V118.457H94.4965V119.57H91.5522V120.435ZM109.504 116.216V121.533H111.614V122.69H109.504V129.341H108.127V116.216H109.504ZM106.985 118.267V119.409H99.2063V118.267H102.444V116.392H103.835V118.267H106.985ZM103.147 120.376C105.022 120.376 106.399 121.636 106.413 123.423C106.399 125.225 105.022 126.47 103.147 126.484C101.257 126.47 99.8801 125.225 99.8801 123.423C99.8801 121.636 101.257 120.376 103.147 120.376ZM103.147 121.519C102.033 121.519 101.198 122.295 101.213 123.423C101.198 124.565 102.033 125.327 103.147 125.312C104.26 125.327 105.08 124.565 105.08 123.423C105.08 122.295 104.26 121.519 103.147 121.519ZM118.638 117.329V118.442H121.494V116.23H122.886V125.796H121.494V122.397H118.638V123.54H112.544V117.329H118.638ZM113.921 118.457V122.441H117.275V118.457H113.921ZM123.179 127.935V129.062H114.316V124.917H115.723V127.935H123.179ZM118.638 121.255H121.494V119.585H118.638V121.255ZM153.136 125.43C153.942 125.422 154.952 125.415 156.007 125.386V122.896H153.795V117.505H159.406V118.633H155.157V121.768H159.523V122.896H157.34V125.327C158.248 125.291 159.149 125.232 159.933 125.137L160.006 126.147C157.853 126.514 155.084 126.572 153.326 126.587L153.136 125.43ZM164.576 116.216V129.341H163.243V122.734H161.808V128.667H160.519V116.479H161.808V121.606H163.243V116.216H164.576ZM177.973 126.543V127.7H165.961V126.543H168.832V123.115C167.755 122.522 167.104 121.577 167.104 120.405C167.104 118.34 169.125 116.978 171.938 116.978C174.765 116.978 176.786 118.34 176.786 120.405C176.786 121.562 176.156 122.493 175.102 123.086V126.543H177.973ZM171.938 118.091C169.872 118.091 168.451 118.984 168.451 120.405C168.451 121.812 169.872 122.734 171.938 122.734C173.988 122.734 175.439 121.812 175.439 120.405C175.439 118.984 173.988 118.091 171.938 118.091ZM170.209 126.543H173.695V123.613C173.161 123.752 172.567 123.818 171.938 123.818C171.322 123.818 170.736 123.752 170.209 123.628V126.543ZM184.404 117.49L184.272 125.034H182.822L182.69 117.49H184.404ZM183.554 128.198C182.983 128.198 182.5 127.729 182.514 127.158C182.5 126.587 182.983 126.118 183.554 126.118C184.111 126.118 184.594 126.587 184.594 127.158C184.594 127.729 184.111 128.198 183.554 128.198Z" fill="#717171"/>
<path d="M138.926 116.157V122.91H137.315V116.157H138.926ZM138.956 123.525V126.968H131.793V127.993H139.351V129.282H130.196V125.752H137.33V124.785H130.167V123.525H138.956ZM132.862 117.505C132.862 119.189 133.975 120.771 136.07 121.401L135.279 122.661C133.741 122.192 132.642 121.204 132.042 119.937C131.441 121.313 130.313 122.39 128.731 122.896L127.911 121.621C130.049 120.933 131.177 119.233 131.177 117.505V116.479H132.862V117.505ZM151.913 116.157V124.478H150.36V120.874H149.071V124.038H147.547V116.421H149.071V119.556H150.36V116.157H151.913ZM147.108 117.593V118.867H140.516V117.593H143.021V116.274H144.632V117.593H147.108ZM143.827 119.409C145.511 119.409 146.698 120.317 146.712 121.694C146.698 123.071 145.511 123.979 143.827 123.979C142.171 123.979 140.97 123.071 140.985 121.694C140.97 120.317 142.171 119.409 143.827 119.409ZM143.827 120.581C143.006 120.581 142.435 121.006 142.435 121.694C142.435 122.383 142.992 122.808 143.827 122.808C144.662 122.808 145.233 122.383 145.233 121.694C145.233 121.006 144.662 120.581 143.827 120.581ZM147.445 124.639C150.272 124.639 151.971 125.503 151.986 127.026C151.971 128.521 150.272 129.385 147.445 129.385C144.618 129.385 142.904 128.521 142.904 127.026C142.904 125.503 144.618 124.639 147.445 124.639ZM147.445 125.884C145.555 125.869 144.53 126.25 144.53 127.026C144.53 127.759 145.555 128.14 147.445 128.14C149.32 128.14 150.345 127.759 150.345 127.026C150.345 126.25 149.32 125.869 147.445 125.884Z" fill="#404040"/>
<path d="M55.4866 157.958V163.041H57.5959V164.183H55.4866V171.112H54.095V157.958H55.4866ZM51.9563 159.217V160.345H47.2102V166.688C49.4148 166.681 51.0701 166.586 52.9377 166.249L53.1135 167.421C51.0627 167.787 49.3196 167.86 46.8733 167.845H45.8186V159.217H51.9563ZM62.7452 161.297C62.7305 163.7 64.1807 166.102 66.2168 167.01L65.3819 168.109C63.8731 167.391 62.6792 165.919 62.0713 164.125C61.4561 166.044 60.2476 167.633 58.6729 168.402L57.8233 167.23C59.8887 166.307 61.3389 163.802 61.3389 161.297V159.056H62.7452V161.297ZM68.795 157.958V171.112H67.4034V157.958H68.795ZM84.2643 157.972V162.191H86.1686V163.348H84.2643V167.787H82.8727V157.972H84.2643ZM81.7887 159.496V160.624H73.9665V159.496H77.1891V157.958H78.5807V159.496H81.7887ZM77.8776 161.254C79.7672 161.254 81.0563 162.235 81.0563 163.729C81.0563 165.223 79.7672 166.19 77.8776 166.19C75.9733 166.19 74.6842 165.223 74.6842 163.729C74.6842 162.235 75.9733 161.254 77.8776 161.254ZM77.8776 162.323C76.7643 162.323 76.0172 162.865 76.0319 163.729C76.0172 164.579 76.7643 165.106 77.8776 165.106C78.9909 165.106 79.7379 164.579 79.7526 163.729C79.7379 162.865 78.9909 162.323 77.8776 162.323ZM84.8209 169.676V170.804H75.944V167.01H77.3356V169.676H84.8209ZM97.5581 157.972V167.67H96.1665V162.718H93.2954V165.487H87.2456V158.837H88.6372V161.063H91.9184V158.837H93.2954V161.59H96.1665V157.972H97.5581ZM97.851 169.676V170.804H88.9887V166.717H90.395V169.676H97.851ZM88.6372 164.359H91.9184V162.132H88.6372V164.359ZM113.584 157.958V171.112H112.207V163.949H109.6V162.806H112.207V157.958H113.584ZM109.38 159.13V160.257H104.648V162.806H108.823V163.92H104.648V166.849C106.846 166.842 108.369 166.791 110.112 166.483L110.259 167.611C108.355 167.919 106.699 167.992 104.268 168.006H103.242V159.13H109.38ZM126.175 157.958V171.083H124.783V157.958H126.175ZM120.242 162.176C120.242 164.271 121.634 166.41 123.67 167.274L122.908 168.343C121.399 167.684 120.191 166.322 119.583 164.667C118.99 166.417 117.803 167.875 116.272 168.563L115.496 167.494C117.532 166.586 118.88 164.374 118.88 162.176V161.312H115.891V160.199H118.865V158.221H120.242V160.199H123.186V161.312H120.242V162.176ZM138.194 157.958V163.275H140.303V164.432H138.194V171.083H136.817V157.958H138.194ZM135.674 160.008V161.151H127.896V160.008H131.133V158.133H132.525V160.008H135.674ZM131.837 162.118C133.712 162.118 135.089 163.378 135.103 165.165C135.089 166.966 133.712 168.212 131.837 168.226C129.947 168.212 128.57 166.966 128.57 165.165C128.57 163.378 129.947 162.118 131.837 162.118ZM131.837 163.26C130.723 163.26 129.888 164.037 129.903 165.165C129.888 166.307 130.723 167.069 131.837 167.054C132.95 167.069 133.77 166.307 133.77 165.165C133.77 164.037 132.95 163.26 131.837 163.26ZM147.328 159.071V160.184H150.184V157.972H151.576V167.538H150.184V164.139H147.328V165.282H141.234V159.071H147.328ZM142.611 160.199V164.183H145.965V160.199H142.611ZM151.869 169.676V170.804H143.006V166.659H144.413V169.676H151.869ZM147.328 162.997H150.184V161.327H147.328V162.997ZM181.826 167.172C182.632 167.164 183.642 167.157 184.697 167.128V164.637H182.485V159.247H188.095V160.375H183.847V163.509H188.213V164.637H186.03V167.069C186.938 167.032 187.839 166.974 188.623 166.879L188.696 167.889C186.543 168.255 183.774 168.314 182.016 168.329L181.826 167.172ZM193.266 157.958V171.083H191.933V164.476H190.498V170.409H189.209V158.221H190.498V163.348H191.933V157.958H193.266ZM206.663 168.285V169.442H194.651V168.285H197.522V164.857C196.445 164.264 195.793 163.319 195.793 162.147C195.793 160.082 197.815 158.719 200.627 158.719C203.455 158.719 205.476 160.082 205.476 162.147C205.476 163.304 204.846 164.234 203.791 164.828V168.285H206.663ZM200.627 159.833C198.562 159.833 197.141 160.726 197.141 162.147C197.141 163.553 198.562 164.476 200.627 164.476C202.678 164.476 204.128 163.553 204.128 162.147C204.128 160.726 202.678 159.833 200.627 159.833ZM198.899 168.285H202.385V165.355C201.851 165.494 201.257 165.56 200.627 165.56C200.012 165.56 199.426 165.494 198.899 165.37V168.285ZM213.094 159.232L212.962 166.776H211.512L211.38 159.232H213.094ZM212.244 169.94C211.673 169.94 211.189 169.471 211.204 168.9C211.189 168.329 211.673 167.86 212.244 167.86C212.801 167.86 213.284 168.329 213.284 168.9C213.284 169.471 212.801 169.94 212.244 169.94Z" fill="#717171"/>
<path d="M167.704 157.899V165.765H166.078V162.528H163.822V161.195H166.078V157.899H167.704ZM163.222 166.102C166.034 166.102 167.748 167.025 167.748 168.622C167.748 170.218 166.034 171.141 163.222 171.141C160.424 171.141 158.71 170.218 158.725 168.622C158.71 167.025 160.424 166.102 163.222 166.102ZM163.222 167.347C161.376 167.347 160.336 167.787 160.336 168.622C160.336 169.442 161.376 169.881 163.222 169.881C165.067 169.881 166.122 169.442 166.122 168.622C166.122 167.787 165.067 167.347 163.222 167.347ZM161.479 160.17C161.479 161.781 162.548 163.407 164.599 164.095L163.778 165.384C162.306 164.886 161.259 163.876 160.688 162.63C160.102 164.044 158.996 165.172 157.421 165.736L156.571 164.447C158.695 163.714 159.823 161.927 159.823 160.184V160.082H157.069V158.763H164.218V160.082H161.479V160.17ZM174.274 161.664C174.274 163.832 175.549 166.117 177.687 167.01L176.794 168.299C175.226 167.626 174.084 166.234 173.483 164.549C172.868 166.366 171.711 167.889 170.158 168.622L169.221 167.347C171.315 166.38 172.619 163.92 172.619 161.664V160.55H169.704V159.203H177.175V160.55H174.274V161.664ZM180.295 157.899V171.141H178.654V157.899H180.295Z" fill="#404040"/>
<path d="M26.4901 15.5856C26.7639 15.5495 27.0151 15.7422 27.0512 16.016C27.0872 16.2898 26.8945 16.5409 26.6208 16.577L26.4901 15.5856ZM28.3213 59.817L23.0452 62.1614L23.6529 56.42L28.3213 59.817ZM27.2062 60.2017C26.9321 60.1685 26.7368 59.9194 26.77 59.6452C26.8032 59.3711 27.0523 59.1758 27.3265 59.209L27.2062 60.2017ZM23.2956 58.4619C23.5632 58.5299 23.725 58.802 23.657 59.0696C23.589 59.3373 23.3169 59.4991 23.0493 59.4311L23.2956 58.4619ZM21.0031 58.8336C20.7409 58.7467 20.5989 58.4638 20.6857 58.2017C20.7726 57.9396 21.0555 57.7975 21.3176 57.8844L21.0031 58.8336ZM17.5339 56.3026C17.7795 56.4288 17.8763 56.7303 17.75 56.9759C17.6238 57.2215 17.3224 57.3182 17.0768 57.192L17.5339 56.3026ZM15.2239 56.1408C14.9896 55.9946 14.9182 55.6862 15.0645 55.4519C15.2107 55.2176 15.5191 55.1463 15.7534 55.2925L15.2239 56.1408ZM12.4896 52.836C12.6945 53.0211 12.7107 53.3373 12.5256 53.5422C12.3405 53.7472 12.0244 53.7633 11.8194 53.5783L12.4896 52.836ZM10.3023 52.0763C10.1153 51.8732 10.1283 51.5568 10.3315 51.3698C10.5346 51.1828 10.851 51.1958 11.038 51.399L10.3023 52.0763ZM8.57126 48.1515C8.71655 48.3864 8.64395 48.6945 8.40912 48.8398C8.17428 48.9851 7.86614 48.9125 7.72085 48.6777L8.57126 48.1515ZM6.68567 46.8077C6.56383 46.5599 6.66595 46.2602 6.91376 46.1384C7.16157 46.0165 7.46123 46.1186 7.58307 46.3665L6.68567 46.8077ZM6.15287 42.5515C6.22379 42.8184 6.06493 43.0922 5.79805 43.1632C5.53117 43.2341 5.25733 43.0752 5.18641 42.8084L6.15287 42.5515ZM4.741 40.7163C4.6971 40.4437 4.88253 40.1871 5.15516 40.1432C5.42779 40.0993 5.68438 40.2847 5.72828 40.5573L4.741 40.7163ZM5.4913 36.4929C5.47916 36.7688 5.24567 36.9826 4.9698 36.9704C4.69392 36.9583 4.48012 36.7248 4.49226 36.4489L5.4913 36.4929ZM4.69684 34.3177C4.73746 34.0446 4.99181 33.8561 5.26495 33.8967C5.53809 33.9373 5.72658 34.1917 5.68597 34.4648L4.69684 34.3177ZM6.70196 30.527C6.60521 30.7857 6.31711 30.9169 6.05847 30.8202C5.79983 30.7234 5.6686 30.4353 5.76535 30.1767L6.70196 30.527ZM6.62073 28.2136C6.74427 27.9666 7.04463 27.8666 7.2916 27.9901C7.53856 28.1137 7.63861 28.414 7.51506 28.661L6.62073 28.2136ZM9.7063 25.2353C9.53411 25.4512 9.21951 25.4866 9.00363 25.3144C8.78775 25.1422 8.75233 24.8276 8.92453 24.6117L9.7063 25.2353ZM10.3419 23.0096C10.5351 22.8123 10.8516 22.809 11.0489 23.0021C11.2463 23.1953 11.2496 23.5119 11.0564 23.7092L10.3419 23.0096ZM14.177 21.0872C13.9498 21.2442 13.6384 21.1873 13.4814 20.9601C13.3244 20.7329 13.3813 20.4215 13.6085 20.2645L14.177 21.0872ZM15.4149 19.1319C15.6551 18.9955 15.9603 19.0797 16.0966 19.3198C16.2329 19.5599 16.1488 19.8651 15.9086 20.0015L15.4149 19.1319ZM19.625 18.2765C19.3662 18.373 19.0783 18.2414 18.9819 17.9826C18.8855 17.7238 19.0171 17.4359 19.2758 17.3395L19.625 18.2765ZM21.2995 16.6677C21.5644 16.5899 21.8423 16.7417 21.92 17.0067C21.9977 17.2717 21.8459 17.5495 21.5809 17.6272L21.2995 16.6677ZM25.5826 16.729C25.31 16.7729 25.0534 16.5875 25.0094 16.3149C24.9655 16.0423 25.1509 15.7857 25.4235 15.7417L25.5826 16.729ZM23.1724 58.9465L23.0493 59.4311C22.3482 59.2529 21.6661 59.0533 21.0031 58.8336L21.1603 58.359L21.3176 57.8844C21.9579 58.0965 22.6172 58.2895 23.2956 58.4619L23.1724 58.9465ZM17.3053 56.7473L17.0768 57.192C16.4354 56.8624 15.8177 56.5115 15.2239 56.1408L15.4886 55.7166L15.7534 55.2925C16.3235 55.6483 16.9171 55.9856 17.5339 56.3026L17.3053 56.7473ZM12.1545 53.2072L11.8194 53.5783C11.2852 53.0959 10.7794 52.5945 10.3023 52.0763L10.6702 51.7377L11.038 51.399C11.4942 51.8945 11.9781 52.3742 12.4896 52.836L12.1545 53.2072ZM8.14606 48.4146L7.72085 48.6777C7.34323 48.0673 6.9981 47.4431 6.68567 46.8077L7.13437 46.5871L7.58307 46.3665C7.88123 46.9729 8.21069 47.5687 8.57126 48.1515L8.14606 48.4146ZM5.66964 42.6799L5.18641 42.8084C5.00259 42.1166 4.85404 41.4184 4.741 40.7163L5.23464 40.6368L5.72828 40.5573C5.83601 41.2264 5.9776 41.892 6.15287 42.5515L5.66964 42.6799ZM4.99178 36.4709L4.49226 36.4489C4.52364 35.7358 4.59175 35.0245 4.69684 34.3177L5.19141 34.3912L5.68597 34.4648C5.58599 35.1371 5.52117 35.8141 5.4913 36.4929L4.99178 36.4709ZM6.23366 30.3519L5.76535 30.1767C6.01423 29.5114 6.29928 28.8561 6.62073 28.2136L7.06789 28.4373L7.51506 28.661C7.20949 29.2718 6.93853 29.8946 6.70196 30.527L6.23366 30.3519ZM9.31541 24.9235L8.92453 24.6117C9.36409 24.0607 9.83649 23.5259 10.3419 23.0096L10.6992 23.3594L11.0564 23.7092C10.5747 24.2013 10.1247 24.7107 9.7063 25.2353L9.31541 24.9235ZM13.8928 20.6759L13.6085 20.2645C14.1833 19.8674 14.7854 19.4893 15.4149 19.1319L15.6618 19.5667L15.9086 20.0015C15.3044 20.3445 14.7273 20.707 14.177 21.0872L13.8928 20.6759ZM19.4504 17.808L19.2758 17.3395C19.9286 17.0962 20.6031 16.8719 21.2995 16.6677L21.4402 17.1474L21.5809 17.6272C20.907 17.8249 20.2551 18.0418 19.625 18.2765L19.4504 17.808ZM25.5031 16.2353L25.4235 15.7417C25.7746 15.6851 26.1301 15.633 26.4901 15.5856L26.5554 16.0813L26.6208 16.577C26.2702 16.6232 25.9241 16.6739 25.5826 16.729L25.5031 16.2353Z" fill="#FFFEA3"/>
<path d="M235.724 37.4148C241.125 37.415 245.527 41.6403 245.527 46.8806C245.527 52.1208 241.125 56.3453 235.724 56.3455C230.323 56.3455 225.921 52.1209 225.921 46.8806C225.921 41.6402 230.323 37.4148 235.724 37.4148Z" fill="white" stroke="#717171" stroke-width="0.751353"/>
<path d="M235.724 96.1802C241.125 96.1804 245.527 100.406 245.527 105.646C245.527 110.886 241.125 115.111 235.724 115.111C230.323 115.111 225.921 110.886 225.921 105.646C225.921 100.406 230.323 96.1802 235.724 96.1802Z" fill="white" stroke="#717171" stroke-width="0.751353"/>
<path d="M237.21 41.421V52.2363H235.851V42.8252H235.791L233.162 44.573V43.2136L235.851 41.421H237.21Z" fill="#404040"/>
<path d="M232.251 111.002L232.236 110.016L235.926 106.132C237.21 104.772 237.823 104.04 237.823 103.04C237.823 101.934 236.882 101.202 235.672 101.202C234.387 101.202 233.566 102.024 233.566 103.234H232.296C232.281 101.322 233.76 100.037 235.717 100.037C237.674 100.037 239.078 101.352 239.078 103.04C239.078 104.25 238.51 105.191 236.598 107.163L234.118 109.717V109.807H239.272V111.002H232.251Z" fill="#404040"/>
</svg>
