<svg width="309" height="480" viewBox="0 0 309 480" fill="none" xmlns="http://www.w3.org/2000/svg">
<rect x="268.968" y="15.3353" width="39.732" height="36.6422" rx="4.7" fill="#FFFEA3" stroke="#404040" stroke-width="0.6"/>
<rect x="276.676" y="23.8273" width="24.3157" height="3.27572" rx="1.01138" fill="#717171"/>
<rect x="276.676" y="31.103" width="24.3157" height="3.27572" rx="1.01138" fill="#717171"/>
<rect x="276.676" y="38.3787" width="24.3157" height="3.27572" rx="1.01138" fill="#717171"/>
<rect x="123.018" y="65.5712" width="185.682" height="413.289" rx="4.7" fill="white" stroke="#404040" stroke-width="0.6"/>
<path d="M119.572 103.73C119.848 103.73 120.072 103.506 120.072 103.23C120.072 102.954 119.848 102.73 119.572 102.73V103.73ZM46 103.23H45.5V103.73H46V103.23ZM46 45.2245L43.1132 50.2245H48.8868L46 45.2245ZM45.5 46.1913C45.5 46.4674 45.7239 46.6913 46 46.6913C46.2761 46.6913 46.5 46.4674 46.5 46.1913H45.5ZM46.5 50.0583C46.5 49.7822 46.2761 49.5583 46 49.5583C45.7239 49.5583 45.5 49.7822 45.5 50.0583H46.5ZM45.5 51.9918C45.5 52.268 45.7239 52.4918 46 52.4918C46.2761 52.4918 46.5 52.268 46.5 51.9918H45.5ZM46.5 55.8589C46.5 55.5827 46.2761 55.3589 46 55.3589C45.7239 55.3589 45.5 55.5827 45.5 55.8589H46.5ZM45.5 57.7924C45.5 58.0686 45.7239 58.2924 46 58.2924C46.2761 58.2924 46.5 58.0686 46.5 57.7924H45.5ZM46.5 61.6595C46.5 61.3833 46.2761 61.1595 46 61.1595C45.7239 61.1595 45.5 61.3833 45.5 61.6595H46.5ZM45.5 63.593C45.5 63.8691 45.7239 64.093 46 64.093C46.2761 64.093 46.5 63.8691 46.5 63.593H45.5ZM46.5 67.46C46.5 67.1839 46.2761 66.96 46 66.96C45.7239 66.96 45.5 67.1839 45.5 67.46H46.5ZM45.5 69.3936C45.5 69.6697 45.7239 69.8936 46 69.8936C46.2761 69.8936 46.5 69.6697 46.5 69.3936H45.5ZM46.5 73.2606C46.5 72.9845 46.2761 72.7606 46 72.7606C45.7239 72.7606 45.5 72.9845 45.5 73.2606H46.5ZM45.5 75.1942C45.5 75.4703 45.7239 75.6942 46 75.6942C46.2761 75.6942 46.5 75.4703 46.5 75.1942H45.5ZM46.5 79.0612C46.5 78.7851 46.2761 78.5612 46 78.5612C45.7239 78.5612 45.5 78.7851 45.5 79.0612H46.5ZM45.5 80.9947C45.5 81.2709 45.7239 81.4947 46 81.4947C46.2761 81.4947 46.5 81.2709 46.5 80.9947H45.5ZM46.5 84.8618C46.5 84.5856 46.2761 84.3618 46 84.3618C45.7239 84.3618 45.5 84.5856 45.5 84.8618H46.5ZM45.5 86.7953C45.5 87.0715 45.7239 87.2953 46 87.2953C46.2761 87.2953 46.5 87.0715 46.5 86.7953H45.5ZM46.5 90.6624C46.5 90.3862 46.2761 90.1624 46 90.1624C45.7239 90.1624 45.5 90.3862 45.5 90.6624H46.5ZM45.5 92.5959C45.5 92.872 45.7239 93.0959 46 93.0959C46.2761 93.0959 46.5 92.872 46.5 92.5959H45.5ZM46.5 96.4629C46.5 96.1868 46.2761 95.9629 46 95.9629C45.7239 95.9629 45.5 96.1868 45.5 96.4629H46.5ZM45.5 98.3965C45.5 98.6726 45.7239 98.8965 46 98.8965C46.2761 98.8965 46.5 98.6726 46.5 98.3965H45.5ZM46.5 102.264C46.5 101.987 46.2761 101.764 46 101.764C45.7239 101.764 45.5 101.987 45.5 102.264H46.5ZM47.0218 103.73C47.298 103.73 47.5218 103.506 47.5218 103.23C47.5218 102.954 47.298 102.73 47.0218 102.73V103.73ZM51.1092 102.73C50.833 102.73 50.6092 102.954 50.6092 103.23C50.6092 103.506 50.833 103.73 51.1092 103.73V102.73ZM53.1528 103.73C53.429 103.73 53.6528 103.506 53.6528 103.23C53.6528 102.954 53.429 102.73 53.1528 102.73V103.73ZM57.2402 102.73C56.964 102.73 56.7402 102.954 56.7402 103.23C56.7402 103.506 56.964 103.73 57.2402 103.73V102.73ZM59.2838 103.73C59.56 103.73 59.7838 103.506 59.7838 103.23C59.7838 102.954 59.56 102.73 59.2838 102.73V103.73ZM63.3712 102.73C63.095 102.73 62.8712 102.954 62.8712 103.23C62.8712 103.506 63.095 103.73 63.3712 103.73V102.73ZM65.4149 103.73C65.691 103.73 65.9149 103.506 65.9149 103.23C65.9149 102.954 65.691 102.73 65.4149 102.73V103.73ZM69.5022 102.73C69.226 102.73 69.0022 102.954 69.0022 103.23C69.0022 103.506 69.226 103.73 69.5022 103.73V102.73ZM71.5459 103.73C71.822 103.73 72.0459 103.506 72.0459 103.23C72.0459 102.954 71.822 102.73 71.5459 102.73V103.73ZM75.6332 102.73C75.3571 102.73 75.1332 102.954 75.1332 103.23C75.1332 103.506 75.3571 103.73 75.6332 103.73V102.73ZM77.6769 103.73C77.953 103.73 78.1769 103.506 78.1769 103.23C78.1769 102.954 77.953 102.73 77.6769 102.73V103.73ZM81.7642 102.73C81.4881 102.73 81.2642 102.954 81.2642 103.23C81.2642 103.506 81.4881 103.73 81.7642 103.73V102.73ZM83.8079 103.73C84.084 103.73 84.3079 103.506 84.3079 103.23C84.3079 102.954 84.084 102.73 83.8079 102.73V103.73ZM87.8952 102.73C87.6191 102.73 87.3952 102.954 87.3952 103.23C87.3952 103.506 87.6191 103.73 87.8952 103.73V102.73ZM89.9389 103.73C90.215 103.73 90.4389 103.506 90.4389 103.23C90.4389 102.954 90.215 102.73 89.9389 102.73V103.73ZM94.0262 102.73C93.7501 102.73 93.5262 102.954 93.5262 103.23C93.5262 103.506 93.7501 103.73 94.0262 103.73V102.73ZM96.0699 103.73C96.346 103.73 96.5699 103.506 96.5699 103.23C96.5699 102.954 96.346 102.73 96.0699 102.73V103.73ZM100.157 102.73C99.8811 102.73 99.6572 102.954 99.6572 103.23C99.6572 103.506 99.8811 103.73 100.157 103.73V102.73ZM102.201 103.73C102.477 103.73 102.701 103.506 102.701 103.23C102.701 102.954 102.477 102.73 102.201 102.73V103.73ZM106.288 102.73C106.012 102.73 105.788 102.954 105.788 103.23C105.788 103.506 106.012 103.73 106.288 103.73V102.73ZM108.332 103.73C108.608 103.73 108.832 103.506 108.832 103.23C108.832 102.954 108.608 102.73 108.332 102.73V103.73ZM112.419 102.73C112.143 102.73 111.919 102.954 111.919 103.23C111.919 103.506 112.143 103.73 112.419 103.73V102.73ZM114.463 103.73C114.739 103.73 114.963 103.506 114.963 103.23C114.963 102.954 114.739 102.73 114.463 102.73V103.73ZM118.55 102.73C118.274 102.73 118.05 102.954 118.05 103.23C118.05 103.506 118.274 103.73 118.55 103.73V102.73ZM46 50.0583H45.5V51.9918H46H46.5V50.0583H46ZM46 55.8589H45.5V57.7924H46H46.5V55.8589H46ZM46 61.6595H45.5V63.593H46H46.5V61.6595H46ZM46 67.46H45.5V69.3936H46H46.5V67.46H46ZM46 73.2606H45.5V75.1942H46H46.5V73.2606H46ZM46 79.0612H45.5V80.9947H46H46.5V79.0612H46ZM46 84.8618H45.5V86.7953H46H46.5V84.8618H46ZM46 90.6624H45.5V92.5959H46H46.5V90.6624H46ZM46 96.4629H45.5V98.3965H46H46.5V96.4629H46ZM46 102.264H45.5V103.23H46H46.5V102.264H46ZM46 103.23V103.73H47.0218V103.23V102.73H46V103.23ZM51.1092 103.23V103.73H53.1528V103.23V102.73H51.1092V103.23ZM57.2402 103.23V103.73H59.2838V103.23V102.73H57.2402V103.23ZM63.3712 103.23V103.73H65.4149V103.23V102.73H63.3712V103.23ZM69.5022 103.23V103.73H71.5459V103.23V102.73H69.5022V103.23ZM75.6332 103.23V103.73H77.6769V103.23V102.73H75.6332V103.23ZM81.7642 103.23V103.73H83.8079V103.23V102.73H81.7642V103.23ZM87.8952 103.23V103.73H89.9389V103.23V102.73H87.8952V103.23ZM94.0262 103.23V103.73H96.0699V103.23V102.73H94.0262V103.23ZM100.157 103.23V103.73H102.201V103.23V102.73H100.157V103.23ZM106.288 103.23V103.73H108.332V103.23V102.73H106.288V103.23ZM112.419 103.23V103.73H114.463V103.23V102.73H112.419V103.23ZM118.55 103.23V103.73H119.572V103.23V102.73H118.55V103.23Z" fill="#FFFEA3"/>
<rect x="0.985547" y="0.3" width="217.91" height="35.1227" rx="4.7" fill="#FFFED7" stroke="#404040" stroke-width="0.6"/>
<path d="M25.0961 10.7286V20.6749H23.7045V19.4152H21.0678V18.4337H23.7045V10.7286H25.0961ZM25.4184 22.4327V23.5607H15.9409V19.7081H17.3178V22.4327H25.4184ZM14.1245 16.7198C16.5561 16.7052 19.8227 16.6759 22.6206 16.3243L22.7085 17.3204C21.5878 17.5035 20.4086 17.6281 19.2514 17.7013V20.2648H17.8598V17.7745C16.5854 17.8331 15.3623 17.8405 14.3002 17.8331L14.1245 16.7198ZM18.4165 11.2267C20.3354 11.2267 21.6684 12.1495 21.6684 13.5411C21.6684 14.9327 20.3354 15.8263 18.4165 15.8263C16.4682 15.8263 15.1499 14.9327 15.1499 13.5411C15.1499 12.1495 16.4682 11.2267 18.4165 11.2267ZM18.4165 12.2667C17.2446 12.2521 16.4536 12.7501 16.4682 13.5411C16.4536 14.3175 17.2446 14.8009 18.4165 14.8009C19.5444 14.8009 20.3354 14.3175 20.3501 13.5411C20.3354 12.7501 19.5444 12.2521 18.4165 12.2667ZM37.0715 10.714V16.0314H39.1809V17.1886H37.0715V23.839H35.6946V10.714H37.0715ZM34.552 12.7648V13.9073H26.7737V12.7648H30.011V10.8898H31.4026V12.7648H34.552ZM30.7141 14.8741C32.5891 14.8741 33.9661 16.1339 33.9807 17.921C33.9661 19.7228 32.5891 20.9679 30.7141 20.9825C28.8245 20.9679 27.4475 19.7228 27.4475 17.921C27.4475 16.1339 28.8245 14.8741 30.7141 14.8741ZM30.7141 16.0167C29.6008 16.0167 28.7659 16.7931 28.7805 17.921C28.7659 19.0636 29.6008 19.8253 30.7141 19.8107C31.8274 19.8253 32.6477 19.0636 32.6477 17.921C32.6477 16.7931 31.8274 16.0167 30.7141 16.0167ZM50.1309 14.5519V15.6652H41.0928V11.1827H42.4698V14.5519H50.1309ZM51.5079 17.3204V18.4337H39.4961V17.3204H51.5079ZM50.2188 22.3888V23.5314H40.9903V19.6788H42.3819V22.3888H50.2188ZM118.189 16.7345V17.8038H106.178V16.7345H118.189ZM116.71 18.7267V21.6124H109.005V22.6964H117.12V23.6779H107.613V20.6896H115.333V19.7228H107.598V18.7267H116.71ZM116.681 11.0509V13.8927H109.093V14.8888H116.9V15.8702H107.716V12.9698H115.289V12.0323H107.686V11.0509H116.681ZM126.847 13.1163C126.847 14.8888 128.034 16.6173 130.011 17.3058L129.249 18.3898C127.814 17.8405 126.745 16.7565 126.188 15.3868C125.617 16.9103 124.496 18.1115 122.951 18.6974L122.204 17.5988C124.24 16.8663 125.456 15.0499 125.47 13.0724V11.5197H126.847V13.1163ZM133.161 10.7286V20.5138H131.769V14.8595H129V13.7169H131.769V10.7286H133.161ZM133.454 22.4327V23.5607H124.591V19.4152H125.998V22.4327H133.454ZM140.551 11.6515V12.7794H136.757V14.2443H140.405V15.3136H136.757V16.9103C138.515 16.8956 139.672 16.8297 141.02 16.5734L141.152 17.7159C139.614 18.0089 138.368 18.0675 136.274 18.0529H135.424V11.6515H140.551ZM146.073 10.7286V18.6974H144.755V15.1964H143.144V18.5948H141.84V10.963H143.144V14.0685H144.755V10.7286H146.073ZM146.073 19.3273V23.839H144.697V20.4552H137.153V19.3273H146.073ZM154.035 12.882V14.0099H147.517V12.882H150.095V11.0948H151.472V12.882H154.035ZM150.783 14.8009C152.453 14.8009 153.625 16.046 153.64 17.8185C153.625 19.6056 152.453 20.8654 150.783 20.8654C149.143 20.8654 147.927 19.6056 147.941 17.8185C147.927 16.046 149.143 14.8009 150.783 14.8009ZM150.783 15.9581C149.831 15.9581 149.172 16.7345 149.172 17.8185C149.172 18.9318 149.831 19.6788 150.783 19.6788C151.721 19.6788 152.409 18.9318 152.409 17.8185C152.409 16.7345 151.721 15.9581 150.783 15.9581ZM158.781 10.714V23.839H157.463V17.3204H155.954V23.2238H154.636V11.007H155.954V16.1779H157.463V10.714H158.781ZM172.222 21.0558V22.213H160.21V21.0558H165.498V18.3605H161.587V11.6075H162.978V13.8634H169.424V11.6075H170.801V18.3605H166.875V21.0558H172.222ZM162.978 17.2325H169.424V14.9913H162.978V17.2325ZM176.873 14.3029C176.873 16.3976 177.752 18.6388 179.509 19.7081L178.733 20.7775C177.503 20.0377 176.668 18.7267 176.228 17.2032C175.737 18.8732 174.837 20.2941 173.562 21.0704L172.698 20.0304C174.558 18.9171 175.525 16.6027 175.525 14.3615V11.9152H176.873V14.3029ZM184.168 10.714V23.839H182.835V10.714H184.168ZM181.443 10.963V23.1945H180.125V16.4855H178.089V15.3282H180.125V10.963H181.443ZM197.549 21.0411V22.1984H185.538V21.0411H188.409V17.6134C187.332 17.0201 186.68 16.0753 186.68 14.9034C186.68 12.838 188.702 11.4757 191.514 11.4757C194.341 11.4757 196.363 12.838 196.363 14.9034C196.363 16.0607 195.733 16.9908 194.678 17.5841V21.0411H197.549ZM191.514 12.589C189.449 12.589 188.028 13.4825 188.028 14.9034C188.028 16.3097 189.449 17.2325 191.514 17.2325C193.565 17.2325 195.015 16.3097 195.015 14.9034C195.015 13.4825 193.565 12.589 191.514 12.589ZM189.786 21.0411H193.272V18.1115C192.737 18.2506 192.144 18.3165 191.514 18.3165C190.899 18.3165 190.313 18.2506 189.786 18.1261V21.0411ZM203.981 11.9884L203.849 19.5323H202.398L202.267 11.9884H203.981ZM203.131 22.6964C202.56 22.6964 202.076 22.2277 202.091 21.6564C202.076 21.0851 202.56 20.6163 203.131 20.6163C203.688 20.6163 204.171 21.0851 204.171 21.6564C204.171 22.2277 203.688 22.6964 203.131 22.6964Z" fill="#717171"/>
<path d="M62.3776 11.9591C62.3776 15.9581 61.279 19.3859 56.401 21.8175L55.5075 20.587C57.8 19.4518 59.1623 18.1334 59.9313 16.5587L55.8151 16.9542L55.61 15.548L60.4293 15.2404C60.5978 14.6251 60.7003 13.9733 60.7516 13.2775H56.2985V11.9591H62.3776ZM65.8639 10.6554V15.8409H67.8268V17.174H65.8639V23.8683H64.2379V10.6554H65.8639ZM73.5473 12.1788V13.4679H70.1489V15.7384H72.9907V16.9982H70.1489V19.5616C71.7236 19.547 72.8076 19.4738 74.104 19.254L74.2504 20.5577C72.727 20.8507 71.4672 20.88 69.4604 20.88H68.5961V12.1788H73.5473ZM79.5825 10.6554V23.8976H78.0004V10.6554H79.5825ZM76.7993 10.9191V23.2531H75.2758V16.8663H73.6352V15.548H75.2758V10.9191H76.7993ZM91.6311 11.8712V13.1456C91.6165 14.7863 91.6165 16.632 91.1038 19.4005L89.4631 19.2247C89.9758 16.6466 89.9758 14.7643 89.9905 13.1749H82.0803V11.8712H91.6311ZM92.8909 20.8507V22.1837H80.8206V20.8507H85.2737V16.2511H86.885V20.8507H92.8909ZM104.515 10.6554V23.9122H102.903V10.6554H104.515ZM100.442 11.8126V16.7784H95.8868V19.4445C97.9742 19.4298 99.7759 19.3273 101.834 18.9757L101.981 20.3087C99.7247 20.7042 97.7471 20.7775 95.3741 20.7775H94.2169V15.4894H98.7872V13.131H94.2022V11.8126H100.442Z" fill="#404040"/>
<path d="M122.718 55.9497C128.119 55.9499 132.521 60.1753 132.521 65.4155C132.521 70.6557 128.119 74.8802 122.718 74.8804C117.317 74.8804 112.915 70.6558 112.915 65.4155C112.915 60.1751 117.317 55.9497 122.718 55.9497Z" fill="white" stroke="#717171" stroke-width="0.751353"/>
<path d="M270.573 2.23975C275.974 2.23993 280.376 6.4653 280.376 11.7056C280.376 16.9458 275.974 21.1702 270.573 21.1704C265.172 21.1704 260.769 16.9459 260.769 11.7056C260.769 6.46518 265.172 2.23975 270.573 2.23975Z" fill="white" stroke="#717171" stroke-width="0.751353"/>
<path d="M119.245 70.7712L119.23 69.7853L122.919 65.9014C124.204 64.542 124.817 63.81 124.817 62.8091C124.817 61.7037 123.875 60.9717 122.665 60.9717C121.381 60.9717 120.559 61.7933 120.559 63.0033H119.289C119.275 61.0912 120.753 59.8065 122.71 59.8065C124.667 59.8065 126.071 61.1211 126.071 62.8091C126.071 64.0191 125.504 64.9603 123.592 66.9321L121.112 69.4865V69.5762H126.266V70.7712H119.245Z" fill="#404040"/>
<path d="M272.059 6.24597V17.0613H270.699V7.65017H270.64L268.011 9.39794V8.03856L270.699 6.24597H272.059Z" fill="#404040"/>
<rect x="140.3" y="80.3" width="152.38" height="117.147" rx="4.7" fill="#FFFEA3" stroke="#404040" stroke-width="0.6"/>
<path d="M246.181 124.069L236.103 94.2675C242.697 95.8186 246.719 99.3011 247.906 100.848L257.757 129.98C254.94 126.356 248.866 124.529 246.181 124.069Z" fill="#E8FFA3" stroke="#404040" stroke-width="0.6"/>
<path d="M214.068 93.5415C218.933 91.8961 223.764 91.7057 227.634 92.7135C231.506 93.7221 234.381 95.9172 235.428 99.0153C236.476 102.113 235.524 105.602 233.058 108.754C230.594 111.904 226.64 114.684 221.774 116.329C216.908 117.975 212.079 118.165 208.209 117.157C204.336 116.148 201.461 113.954 200.414 110.856C199.366 107.758 200.319 104.269 202.785 101.117C205.249 97.9671 209.202 95.1868 214.068 93.5415Z" fill="#E8FFA3" stroke="#404040" stroke-width="0.6"/>
<path d="M216.113 99.5924C218.475 98.7939 220.811 98.7018 222.674 99.1828C224.54 99.6647 225.893 100.708 226.382 102.154C226.871 103.601 226.43 105.251 225.239 106.767C224.05 108.28 222.137 109.624 219.776 110.422C217.414 111.221 215.078 111.314 213.215 110.833C211.349 110.351 209.995 109.308 209.506 107.862C209.017 106.415 209.459 104.765 210.65 103.249C211.839 101.736 213.752 100.391 216.113 99.5924Z" fill="#FFFEA3" stroke="#404040" stroke-width="0.6"/>
<path d="M210.907 137.969L200.766 114.663C202.464 116.738 209.402 122.066 222.808 117.954C233.539 114.663 237.047 106.286 237.366 102.316L244.324 126.937C244.617 130.424 243.632 138.992 231.353 143.144C219.074 147.297 212.989 140.852 210.907 137.969Z" fill="#E8FFA3" stroke="#404040" stroke-width="0.6"/>
<g opacity="0.8">
<path d="M270.959 174.766L281.617 149.843C284.959 154.629 285.539 159.176 285.412 160.851L274.993 185.214C275.268 181.268 272.418 176.605 270.959 174.766Z" fill="#E8FFA3" stroke="#404040" stroke-width="0.516973"/>
<path d="M267.89 136.714C271.959 138.454 275.169 141.107 277.074 143.978C278.98 146.851 279.564 149.912 278.456 152.503C277.348 155.094 274.732 156.787 271.337 157.393C267.945 157.999 263.809 157.511 259.74 155.771C255.671 154.031 252.461 151.377 250.556 148.506C248.65 145.633 248.066 142.572 249.174 139.981C250.282 137.39 252.898 135.698 256.293 135.091C259.685 134.486 263.821 134.973 267.89 136.714Z" fill="#E8FFA3" stroke="#404040" stroke-width="0.516973"/>
<path d="M265.725 141.773C267.7 142.618 269.253 143.901 270.173 145.28C271.094 146.662 271.362 148.109 270.845 149.319C270.328 150.529 269.096 151.334 267.46 151.623C265.828 151.911 263.826 151.675 261.852 150.83C259.877 149.986 258.323 148.702 257.404 147.323C256.483 145.941 256.214 144.493 256.732 143.284C257.249 142.074 258.481 141.268 260.116 140.98C261.749 140.692 263.75 140.929 265.725 141.773Z" fill="#FFFEA3" stroke="#404040" stroke-width="0.516973"/>
<path d="M240.327 163.417L247.211 142.627C247.109 144.935 248.501 152.343 259.47 157.408C268.25 161.462 275.317 158.101 277.803 155.735L268.119 175.54C266.303 177.947 260.747 182.881 250.478 178.489C240.209 174.098 240.007 166.463 240.327 163.417Z" fill="#E8FFA3" stroke="#404040" stroke-width="0.516973"/>
</g>
<path d="M151.101 170.764V169.23H157.383V166.742C156.471 166.59 155.725 166.189 155.144 165.54C154.577 164.89 154.294 164.116 154.294 163.218C154.294 162.306 154.577 161.525 155.144 160.875H152.677V159.341H157.362V156.169H159.062V159.341H163.685V160.875H158.212C157.577 160.875 157.045 161.082 156.616 161.497C156.201 161.912 155.994 162.437 155.994 163.073C155.994 163.708 156.201 164.24 156.616 164.669C157.045 165.084 157.577 165.291 158.212 165.291C158.862 165.291 159.394 165.084 159.809 164.669C160.237 164.24 160.451 163.708 160.451 163.073C160.451 162.658 160.368 162.299 160.203 161.995H161.84C162.048 162.34 162.151 162.748 162.151 163.218C162.151 164.116 161.868 164.89 161.301 165.54C160.735 166.175 159.995 166.576 159.083 166.742V169.23H164.059C164.598 169.23 164.992 169.119 165.24 168.898C165.503 168.663 165.634 168.318 165.634 167.862V157.786H167.334V162.451H170.237V163.985H167.334V166.348C167.334 167.302 167.493 168.021 167.811 168.504C168.143 168.988 168.703 169.23 169.49 169.23H170.009V170.764H169.449C168.813 170.764 168.26 170.667 167.79 170.474C167.32 170.266 166.954 169.997 166.692 169.665C166.512 170.011 166.229 170.28 165.842 170.474C165.455 170.667 164.971 170.764 164.39 170.764H151.101ZM184.317 157.786H186.017V162.451H188.919V163.985H186.017V166.348C186.017 167.302 186.175 168.021 186.493 168.504C186.825 168.988 187.385 169.23 188.173 169.23H188.691V170.764H188.152C186.894 170.764 185.941 170.398 185.291 169.665C184.641 168.933 184.317 167.848 184.317 166.41V157.786ZM169.556 170.764V169.23H171.173C172.735 169.23 173.944 168.87 174.801 168.152C175.672 167.433 176.107 166.424 176.107 165.125V163.985H171.898V162.451H181.953V163.985H177.869V165.125C177.869 166.383 178.27 167.371 179.071 168.09C179.887 168.794 181.02 169.161 182.471 169.188V170.681C181.255 170.681 180.17 170.446 179.217 169.976C178.263 169.492 177.524 168.822 176.998 167.965C176.487 168.85 175.741 169.541 174.759 170.038C173.778 170.522 172.652 170.764 171.38 170.764H169.556ZM181.518 180.487C180.689 180.487 179.942 180.314 179.279 179.969C178.629 179.623 178.118 179.146 177.745 178.538C177.385 177.93 177.206 177.246 177.206 176.486C177.206 175.726 177.385 175.042 177.745 174.433C178.118 173.825 178.629 173.355 179.279 173.024C179.942 172.678 180.689 172.505 181.518 172.505H185.374V174.04H181.518C180.758 174.04 180.129 174.268 179.631 174.724C179.148 175.18 178.906 175.767 178.906 176.486C178.906 177.205 179.148 177.792 179.631 178.248C180.129 178.718 180.758 178.953 181.518 178.953C182.278 178.953 182.9 178.718 183.384 178.248C183.867 177.792 184.109 177.205 184.109 176.486C184.109 175.947 183.985 175.505 183.736 175.159H185.415C185.678 175.518 185.809 175.961 185.809 176.486C185.809 177.246 185.623 177.93 185.249 178.538C184.89 179.146 184.386 179.623 183.736 179.969C183.086 180.314 182.347 180.487 181.518 180.487ZM204.839 170.764C203.83 170.695 203.022 170.26 202.414 169.458C201.805 168.656 201.501 167.461 201.501 165.871V157.786H203.201V165.498C203.201 166.604 203.34 167.454 203.616 168.048C203.906 168.642 204.314 169.036 204.839 169.23V170.764ZM188.212 169.23C189.691 169.188 190.852 168.753 191.695 167.924C192.538 167.081 192.96 165.954 192.96 164.545V161.538H194.681V164.545C194.681 165.94 195.088 167.053 195.904 167.882C196.733 168.712 197.866 169.147 199.304 169.188V170.681C198.074 170.667 196.968 170.391 195.987 169.852C195.019 169.299 194.301 168.546 193.831 167.592C193.375 168.573 192.649 169.347 191.654 169.914C190.659 170.467 189.512 170.75 188.212 170.764V169.23ZM196.318 179.948H203.346V181.482H195.551C195.247 181.482 195.012 181.399 194.847 181.233C194.694 181.081 194.618 180.853 194.618 180.549V176.258H201.253V174.164H194.618V172.63H202.02C202.324 172.63 202.552 172.713 202.704 172.879C202.87 173.031 202.953 173.259 202.953 173.563V177.771H196.318V179.948Z" fill="#404040"/>
<path d="M191.328 94.9547L181.308 101.411" stroke="#404040" stroke-width="1.84641" stroke-linecap="round" stroke-linejoin="round" stroke-dasharray="4.25 5.54"/>
<path d="M183.07 93.1261L189.57 103.215" stroke="#404040" stroke-width="1.84641" stroke-linecap="round" stroke-linejoin="round" stroke-dasharray="4.25 5.54"/>
<path d="M281.765 124.456L269.845 124.456" stroke="#404040" stroke-width="1.84641" stroke-linecap="round" stroke-linejoin="round" stroke-dasharray="4.25 5.54"/>
<path d="M275.814 118.446L275.814 130.447" stroke="#404040" stroke-width="1.84641" stroke-linecap="round" stroke-linejoin="round" stroke-dasharray="4.25 5.54"/>
<rect x="140.3" y="346.277" width="152.38" height="117.147" rx="4.7" fill="#FFFEA3" stroke="#404040" stroke-width="0.6"/>
<path d="M159.157 430.831C158.314 430.831 157.561 430.658 156.897 430.312C156.248 429.967 155.737 429.49 155.363 428.882C155.004 428.26 154.824 427.562 154.824 426.788C154.824 426.014 155.004 425.323 155.363 424.715C155.737 424.093 156.248 423.609 156.897 423.264C157.561 422.918 158.314 422.745 159.157 422.745H162.993V424.279H159.157C158.383 424.279 157.747 424.514 157.25 424.984C156.766 425.454 156.524 426.055 156.524 426.788C156.524 427.52 156.766 428.122 157.25 428.592C157.747 429.061 158.383 429.296 159.157 429.296C159.931 429.296 160.56 429.061 161.044 428.592C161.541 428.122 161.79 427.52 161.79 426.788C161.79 426.207 161.638 425.703 161.334 425.274H163.075C163.2 425.454 163.297 425.682 163.366 425.959C163.449 426.235 163.49 426.511 163.49 426.788C163.49 427.562 163.303 428.26 162.93 428.882C162.571 429.49 162.06 429.967 161.396 430.312C160.747 430.658 160 430.831 159.157 430.831ZM150.948 434.293V432.759H167.367V434.293H150.948ZM162.329 439.185H164.029V443.767H155.052C154.748 443.767 154.513 443.684 154.347 443.518C154.195 443.366 154.119 443.138 154.119 442.834V436.532H164.029V438.066H155.819V442.254H162.329V439.185ZM183.538 434.293C182.529 434.224 181.721 433.788 181.113 432.987C180.505 432.185 180.2 430.989 180.2 429.4V421.315H181.9V429.027C181.9 430.133 182.039 430.983 182.315 431.577C182.605 432.171 183.013 432.565 183.538 432.759V434.293ZM166.912 432.759C168.39 432.717 169.551 432.282 170.394 431.452C171.238 430.609 171.659 429.483 171.659 428.073V425.067H173.38V428.073C173.38 429.469 173.788 430.582 174.603 431.411C175.432 432.24 176.566 432.676 178.003 432.717V434.21C176.773 434.196 175.667 433.919 174.686 433.38C173.718 432.828 173 432.074 172.53 431.121C172.074 432.102 171.348 432.876 170.353 433.443C169.358 433.996 168.211 434.279 166.912 434.293V432.759ZM181.735 443.477H180.035V437.755H173.297V436.221H180.802C181.106 436.221 181.334 436.304 181.486 436.469C181.652 436.621 181.735 436.85 181.735 437.154V443.477ZM203.644 434.293C202.579 434.224 201.757 433.843 201.177 433.152C200.596 432.448 200.306 431.446 200.306 430.146V427.513H196.263V425.979H200.306V421.315H202.006V429.815C202.006 431.528 202.552 432.51 203.644 432.759V434.293ZM183.078 434.293V432.759H184.695C186.215 432.759 187.39 432.399 188.219 431.68C189.049 430.962 189.463 429.953 189.463 428.654V427.513H185.421V425.979H195.144V427.513H191.226V428.654C191.226 429.911 191.613 430.9 192.387 431.618C193.174 432.323 194.266 432.689 195.662 432.717V434.21C194.473 434.21 193.416 433.975 192.49 433.505C191.564 433.021 190.852 432.351 190.355 431.494C189.871 432.378 189.152 433.07 188.199 433.567C187.245 434.051 186.146 434.293 184.902 434.293H183.078ZM199.891 438.812H201.591V443.767H193.713C193.409 443.767 193.174 443.684 193.008 443.518C192.856 443.366 192.78 443.138 192.78 442.834V436.158H201.591V437.693H194.48V442.233H199.891V438.812Z" fill="#404040"/>
<ellipse cx="245.189" cy="456.036" rx="24.7944" ry="4.14861" fill="#CCD9A4"/>
<path d="M284.735 422.755L281.504 432.532L281.459 432.594C279.809 434.885 277.661 438.212 275.095 441.454C272.521 444.705 269.478 447.937 265.97 450.086C258.899 454.416 250.098 454.399 241.87 451.787L241.868 451.791L240.919 451.477L240.92 451.473C232.756 448.667 225.678 443.436 222.581 435.745C221.044 431.928 220.527 427.519 220.398 423.375C220.269 419.242 220.527 415.291 220.568 412.467L220.569 412.39L223.8 402.614L284.735 422.755Z" fill="#E8FFA3"/>
<path d="M284.735 422.755L285.02 422.849L285.114 422.564L284.83 422.47L284.735 422.755ZM281.504 432.532L281.746 432.708L281.774 432.67L281.789 432.626L281.504 432.532ZM281.459 432.594L281.216 432.417L281.215 432.418L281.459 432.594ZM275.095 441.454L275.33 441.641L275.33 441.641L275.095 441.454ZM265.97 450.086L266.126 450.342L266.126 450.342L265.97 450.086ZM241.87 451.787L241.961 451.501L241.678 451.411L241.585 451.692L241.87 451.787ZM241.868 451.791L241.774 452.076L242.059 452.17L242.153 451.885L241.868 451.791ZM240.919 451.477L240.634 451.383L240.54 451.668L240.825 451.762L240.919 451.477ZM240.92 451.473L241.205 451.567L241.298 451.285L241.018 451.189L240.92 451.473ZM222.581 435.745L222.303 435.857L222.303 435.857L222.581 435.745ZM220.398 423.375L220.098 423.385L220.098 423.385L220.398 423.375ZM220.568 412.467L220.868 412.472L220.868 412.47L220.568 412.467ZM220.569 412.39L220.284 412.296L220.269 412.341L220.269 412.388L220.569 412.39ZM223.8 402.614L223.894 402.329L223.609 402.235L223.515 402.52L223.8 402.614ZM284.735 422.755L284.451 422.661L281.219 432.437L281.504 432.532L281.789 432.626L285.02 422.849L284.735 422.755ZM281.504 432.532L281.261 432.355L281.216 432.417L281.459 432.594L281.701 432.77L281.746 432.708L281.504 432.532ZM281.459 432.594L281.215 432.418C279.552 434.728 277.422 438.031 274.859 441.268L275.095 441.454L275.33 441.641C277.901 438.392 280.065 435.042 281.702 432.769L281.459 432.594ZM275.095 441.454L274.859 441.268C272.294 444.508 269.277 447.709 265.813 449.83L265.97 450.086L266.126 450.342C269.679 448.166 272.748 444.902 275.33 441.641L275.095 441.454ZM265.97 450.086L265.813 449.83C258.841 454.1 250.137 454.097 241.961 451.501L241.87 451.787L241.779 452.072C250.058 454.701 258.957 454.733 266.126 450.342L265.97 450.086ZM241.87 451.787L241.585 451.692L241.583 451.697L241.868 451.791L242.153 451.885L242.155 451.881L241.87 451.787ZM241.868 451.791L241.962 451.506L241.013 451.192L240.919 451.477L240.825 451.762L241.774 452.076L241.868 451.791ZM240.919 451.477L241.204 451.571L241.205 451.567L240.92 451.473L240.635 451.379L240.634 451.383L240.919 451.477ZM240.92 451.473L241.018 451.189C232.905 448.401 225.914 443.217 222.859 435.633L222.581 435.745L222.303 435.857C225.443 443.655 232.608 448.933 240.823 451.756L240.92 451.473ZM222.581 435.745L222.859 435.633C221.342 431.864 220.826 427.496 220.698 423.366L220.398 423.375L220.098 423.385C220.227 427.542 220.746 431.992 222.303 435.857L222.581 435.745ZM220.398 423.375L220.698 423.366C220.569 419.24 220.827 415.318 220.868 412.472L220.568 412.467L220.268 412.463C220.228 415.264 219.969 419.244 220.098 423.385L220.398 423.375ZM220.568 412.467L220.868 412.47L220.869 412.393L220.569 412.39L220.269 412.388L220.268 412.464L220.568 412.467ZM220.569 412.39L220.853 412.485L224.085 402.708L223.8 402.614L223.515 402.52L220.284 412.296L220.569 412.39ZM223.8 402.614L223.706 402.899L284.641 423.04L284.735 422.755L284.83 422.47L223.894 402.329L223.8 402.614Z" fill="#404040"/>
<path d="M277.743 392.153C278.614 392.153 279.315 391.439 279.301 390.569C279.287 389.699 278.564 389.008 277.694 389.035L234.308 390.388C233.819 390.403 233.433 390.807 233.441 391.296C233.448 391.785 233.848 392.178 234.337 392.177L277.743 392.153Z" fill="#717171" stroke="black" stroke-width="0.6"/>
<path d="M280.095 402.638C280.948 402.814 281.779 402.258 281.941 401.403C282.104 400.548 281.535 399.725 280.678 399.575L237.916 392.116C237.435 392.032 236.975 392.35 236.883 392.831C236.792 393.311 237.103 393.776 237.582 393.875L280.095 402.638Z" fill="#717171" stroke="black" stroke-width="0.6"/>
<path d="M253.28 415.673C261.618 418.429 269.275 420.584 274.912 421.841C277.732 422.471 280.037 422.873 281.666 423.015C282.483 423.086 283.113 423.09 283.548 423.031C283.766 423.001 283.917 422.957 284.013 422.91C284.108 422.863 284.119 422.828 284.119 422.827C284.121 422.821 284.138 422.733 283.957 422.512C283.788 422.306 283.5 422.052 283.085 421.756C282.258 421.165 280.988 420.445 279.339 419.628C276.045 417.995 271.281 415.995 265.63 413.889C262.373 412.675 258.822 411.427 255.091 410.194C246.753 407.438 239.096 405.281 233.459 404.024C230.639 403.395 228.334 402.993 226.705 402.851C225.888 402.78 225.257 402.776 224.822 402.835C224.605 402.865 224.454 402.908 224.358 402.955C224.265 403.001 224.252 403.036 224.251 403.038C224.251 403.039 224.239 403.074 224.287 403.169C224.336 403.264 224.431 403.389 224.588 403.543C224.902 403.849 225.411 404.222 226.109 404.651C227.502 405.508 229.593 406.559 232.232 407.735C237.508 410.084 244.942 412.917 253.28 415.673Z" fill="#FFFEA3" stroke="#404040" stroke-width="0.6"/>
<path d="M284.803 422.297C285.218 421.039 277.383 417.259 266.013 413.038C262.735 411.821 259.164 410.568 255.411 409.328C238.643 403.785 224.616 400.606 224.081 402.226C223.545 403.847 236.704 409.653 253.472 415.196C270.24 420.738 284.267 423.917 284.803 422.297Z" fill="#FFFEA3"/>
<path d="M240.409 387.835C240.886 387.73 241.298 387.865 241.604 388.147C241.884 388.406 242.05 388.766 242.151 389.094C242.247 389.406 242.296 389.736 242.314 390.025C242.822 389.6 243.292 389.342 243.732 389.273C244.215 389.197 244.617 389.357 244.905 389.658C245.169 389.934 245.313 390.303 245.393 390.637C245.474 390.97 245.503 391.318 245.5 391.618C245.508 391.751 245.519 391.895 245.531 392.048C245.833 391.86 246.123 391.743 246.403 391.704C246.861 391.64 247.243 391.794 247.517 392.074C247.771 392.334 247.914 392.678 247.995 392.988C248.075 393.295 248.105 393.614 248.107 393.89C248.273 396.09 249.127 401.453 251.23 406.961C252.687 407.419 254.174 407.898 255.684 408.397C258.942 409.474 262.059 410.564 264.96 411.63C266.643 411.775 270.115 411.57 274.168 409.746C275.709 409.053 276.983 408.871 278 409.07C279.031 409.271 279.753 409.855 280.178 410.589C280.596 411.31 280.721 412.162 280.604 412.921C280.549 413.284 280.433 413.641 280.257 413.961C281.036 414.066 281.895 414.299 282.579 414.742C283.099 415.078 283.544 415.551 283.749 416.2C283.954 416.849 283.896 417.603 283.546 418.457C283.371 418.885 283.167 419.254 282.943 419.571C284.003 420.275 284.525 420.83 284.407 421.189C283.864 422.831 270.125 419.766 253.719 414.344C237.313 408.921 224.453 403.194 224.996 401.552C225.352 400.48 231.334 401.415 240.011 403.703C239.062 401.841 238.087 399.802 237.285 397.876C236.559 396.132 235.965 394.462 235.661 393.094C235.509 392.412 235.424 391.781 235.439 391.245C235.454 390.72 235.567 390.206 235.891 389.837C236.34 389.326 236.775 388.992 237.207 388.857C237.675 388.711 238.096 388.81 238.424 389.065C238.502 389.125 238.572 389.192 238.636 389.264C238.726 389.05 238.848 388.856 239.013 388.697C239.504 388.227 239.966 387.933 240.409 387.835Z" fill="#E8FFA3"/>
<path d="M240.409 387.835L240.344 387.542L240.344 387.542L240.409 387.835ZM241.604 388.147L241.807 387.927L241.807 387.926L241.604 388.147ZM242.151 389.094L242.438 389.006L242.438 389.006L242.151 389.094ZM242.314 390.025L242.014 390.044L242.051 390.636L242.506 390.255L242.314 390.025ZM243.732 389.273L243.685 388.977L243.685 388.977L243.732 389.273ZM244.905 389.658L245.121 389.45L245.121 389.45L244.905 389.658ZM245.393 390.637L245.685 390.566L245.685 390.566L245.393 390.637ZM245.5 391.618L245.2 391.615L245.2 391.626L245.201 391.636L245.5 391.618ZM245.531 392.048L245.232 392.072L245.271 392.563L245.689 392.303L245.531 392.048ZM246.403 391.704L246.361 391.407L246.361 391.407L246.403 391.704ZM247.517 392.074L247.732 391.865L247.732 391.864L247.517 392.074ZM247.995 392.988L248.285 392.912L248.285 392.912L247.995 392.988ZM248.107 393.89L247.807 393.892L247.807 393.902L247.808 393.913L248.107 393.89ZM251.23 406.961L250.95 407.068L251.002 407.204L251.14 407.247L251.23 406.961ZM255.684 408.397L255.778 408.113L255.778 408.113L255.684 408.397ZM264.96 411.63L264.856 411.911L264.894 411.925L264.934 411.929L264.96 411.63ZM274.168 409.746L274.292 410.02L274.292 410.02L274.168 409.746ZM278 409.07L278.058 408.775L278.058 408.775L278 409.07ZM280.178 410.589L280.438 410.438L280.438 410.438L280.178 410.589ZM280.604 412.921L280.901 412.967L280.901 412.967L280.604 412.921ZM280.257 413.961L279.994 413.816L279.783 414.199L280.216 414.258L280.257 413.961ZM282.579 414.742L282.742 414.49L282.742 414.49L282.579 414.742ZM283.749 416.2L284.035 416.11L284.035 416.11L283.749 416.2ZM283.546 418.457L283.824 418.571L283.824 418.571L283.546 418.457ZM282.943 419.571L282.698 419.399L282.52 419.651L282.777 419.821L282.943 419.571ZM284.407 421.189L284.692 421.283L284.692 421.283L284.407 421.189ZM253.719 414.344L253.625 414.629L253.625 414.629L253.719 414.344ZM224.996 401.552L224.711 401.457L224.711 401.457L224.996 401.552ZM240.011 403.703L239.935 403.993L240.583 404.164L240.279 403.566L240.011 403.703ZM237.285 397.876L237.008 397.991L237.008 397.991L237.285 397.876ZM235.661 393.094L235.368 393.159L235.368 393.159L235.661 393.094ZM235.439 391.245L235.139 391.236L235.139 391.236L235.439 391.245ZM235.891 389.837L235.666 389.639L235.665 389.639L235.891 389.837ZM237.207 388.857L237.118 388.57L237.118 388.57L237.207 388.857ZM238.424 389.065L238.608 388.828L238.608 388.828L238.424 389.065ZM238.636 389.264L238.412 389.464L238.729 389.819L238.913 389.38L238.636 389.264ZM239.013 388.697L238.805 388.481L238.805 388.481L239.013 388.697ZM240.409 387.835L240.473 388.128C240.852 388.045 241.165 388.15 241.4 388.367L241.604 388.147L241.807 387.926C241.432 387.579 240.921 387.415 240.344 387.542L240.409 387.835ZM241.604 388.147L241.4 388.367C241.625 388.575 241.771 388.877 241.865 389.182L242.151 389.094L242.438 389.006C242.33 388.654 242.143 388.237 241.807 387.927L241.604 388.147ZM242.151 389.094L241.864 389.182C241.952 389.467 241.997 389.772 242.014 390.044L242.314 390.025L242.613 390.007C242.594 389.699 242.542 389.346 242.438 389.006L242.151 389.094ZM242.314 390.025L242.506 390.255C242.996 389.846 243.416 389.626 243.778 389.569L243.732 389.273L243.685 388.977C243.168 389.058 242.648 389.354 242.121 389.795L242.314 390.025ZM243.732 389.273L243.778 389.569C244.161 389.509 244.466 389.633 244.688 389.865L244.905 389.658L245.121 389.45C244.768 389.081 244.269 388.885 243.685 388.977L243.732 389.273ZM244.905 389.658L244.688 389.865C244.9 390.087 245.027 390.397 245.102 390.707L245.393 390.637L245.685 390.566C245.599 390.208 245.438 389.781 245.121 389.45L244.905 389.658ZM245.393 390.637L245.102 390.707C245.175 391.012 245.203 391.335 245.2 391.615L245.5 391.618L245.8 391.621C245.803 391.302 245.772 390.928 245.685 390.566L245.393 390.637ZM245.5 391.618L245.201 391.636C245.209 391.772 245.219 391.918 245.232 392.072L245.531 392.048L245.83 392.024C245.818 391.872 245.807 391.73 245.799 391.6L245.5 391.618ZM245.531 392.048L245.689 392.303C245.968 392.13 246.218 392.032 246.444 392.001L246.403 391.704L246.361 391.407C246.029 391.453 245.699 391.59 245.372 391.793L245.531 392.048ZM246.403 391.704L246.444 392.001C246.804 391.951 247.092 392.069 247.303 392.284L247.517 392.074L247.732 391.864C247.393 391.518 246.917 391.329 246.361 391.407L246.403 391.704ZM247.517 392.074L247.303 392.284C247.505 392.491 247.63 392.779 247.705 393.064L247.995 392.988L248.285 392.912C248.198 392.576 248.036 392.176 247.732 391.865L247.517 392.074ZM247.995 392.988L247.705 393.064C247.777 393.341 247.805 393.635 247.807 393.892L248.107 393.89L248.407 393.888C248.405 393.594 248.373 393.248 248.285 392.912L247.995 392.988ZM248.107 393.89L247.808 393.913C247.976 396.138 248.835 401.53 250.95 407.068L251.23 406.961L251.51 406.854C249.418 401.375 248.57 396.041 248.406 393.868L248.107 393.89ZM251.23 406.961L251.14 407.247C252.595 407.704 254.081 408.184 255.59 408.682L255.684 408.397L255.778 408.113C254.267 407.613 252.778 407.133 251.32 406.675L251.23 406.961ZM255.684 408.397L255.59 408.682C258.844 409.758 261.959 410.846 264.856 411.911L264.96 411.63L265.063 411.348C262.159 410.281 259.039 409.19 255.778 408.113L255.684 408.397ZM264.96 411.63L264.934 411.929C266.666 412.078 270.189 411.865 274.292 410.02L274.168 409.746L274.045 409.472C270.04 411.274 266.62 411.472 264.985 411.331L264.96 411.63ZM274.168 409.746L274.292 410.02C275.797 409.342 277.006 409.181 277.943 409.364L278 409.07L278.058 408.775C276.96 408.561 275.621 408.764 274.045 409.472L274.168 409.746ZM278 409.07L277.943 409.364C278.885 409.548 279.535 410.078 279.919 410.739L280.178 410.589L280.438 410.438C279.971 409.633 279.177 408.994 278.058 408.775L278 409.07ZM280.178 410.589L279.919 410.739C280.299 411.396 280.415 412.178 280.308 412.876L280.604 412.921L280.901 412.967C281.027 412.147 280.893 411.224 280.438 410.438L280.178 410.589ZM280.604 412.921L280.308 412.876C280.257 413.207 280.151 413.53 279.994 413.816L280.257 413.961L280.52 414.105C280.714 413.753 280.84 413.361 280.901 412.967L280.604 412.921ZM280.257 413.961L280.216 414.258C280.972 414.361 281.783 414.584 282.416 414.993L282.579 414.742L282.742 414.49C282.006 414.014 281.099 413.772 280.297 413.663L280.257 413.961ZM282.579 414.742L282.416 414.993C282.894 415.303 283.285 415.725 283.463 416.29L283.749 416.2L284.035 416.11C283.804 415.377 283.303 414.853 282.742 414.49L282.579 414.742ZM283.749 416.2L283.463 416.29C283.642 416.856 283.6 417.536 283.268 418.343L283.546 418.457L283.824 418.571C284.193 417.671 284.267 416.843 284.035 416.11L283.749 416.2ZM283.546 418.457L283.268 418.343C283.101 418.751 282.908 419.1 282.698 419.399L282.943 419.571L283.188 419.744C283.426 419.407 283.64 419.018 283.824 418.571L283.546 418.457ZM282.943 419.571L282.777 419.821C283.3 420.169 283.672 420.467 283.896 420.712C284.008 420.834 284.071 420.931 284.102 421.002C284.117 421.037 284.122 421.06 284.123 421.075C284.124 421.088 284.123 421.093 284.122 421.095L284.407 421.189L284.692 421.283C284.751 421.103 284.721 420.923 284.653 420.765C284.586 420.609 284.475 420.456 284.338 420.307C284.066 420.009 283.646 419.678 283.109 419.322L282.943 419.571ZM284.407 421.189L284.122 421.095C284.122 421.096 284.119 421.103 284.106 421.116C284.092 421.13 284.066 421.151 284.02 421.173C283.927 421.219 283.779 421.262 283.565 421.291C283.138 421.35 282.519 421.346 281.716 421.276C280.115 421.136 277.849 420.741 275.077 420.123C269.536 418.887 262.01 416.768 253.813 414.059L253.719 414.344L253.625 414.629C261.834 417.342 269.38 419.467 274.946 420.708C277.728 421.329 280.024 421.731 281.664 421.873C282.482 421.945 283.153 421.953 283.646 421.886C283.892 421.852 284.111 421.798 284.286 421.711C284.462 421.624 284.624 421.489 284.692 421.283L284.407 421.189ZM253.719 414.344L253.813 414.059C245.616 411.35 238.31 408.566 233.124 406.256C230.529 405.1 228.474 404.067 227.105 403.225C226.419 402.803 225.919 402.437 225.611 402.136C225.457 401.985 225.364 401.862 225.316 401.769C225.293 401.724 225.284 401.692 225.281 401.673C225.278 401.654 225.28 401.647 225.281 401.646L224.996 401.552L224.711 401.457C224.643 401.663 224.693 401.868 224.782 402.043C224.871 402.217 225.015 402.391 225.192 402.565C225.547 402.912 226.092 403.306 226.791 403.736C228.193 404.599 230.277 405.645 232.88 406.804C238.089 409.124 245.415 411.915 253.625 414.629L253.719 414.344ZM224.996 401.552L225.281 401.646C225.281 401.645 225.285 401.632 225.313 401.61C225.344 401.586 225.397 401.556 225.484 401.527C225.658 401.468 225.922 401.427 226.283 401.414C227.002 401.387 228.033 401.472 229.34 401.664C231.948 402.047 235.601 402.85 239.935 403.993L240.011 403.703L240.088 403.412C235.745 402.267 232.068 401.458 229.427 401.07C228.109 400.877 227.035 400.786 226.261 400.814C225.876 400.828 225.546 400.872 225.292 400.958C225.046 401.041 224.801 401.188 224.711 401.457L224.996 401.552ZM240.011 403.703L240.279 403.566C239.332 401.709 238.36 399.677 237.562 397.761L237.285 397.876L237.008 397.991C237.814 399.927 238.793 401.973 239.744 403.839L240.011 403.703ZM237.285 397.876L237.562 397.761C236.839 396.023 236.252 394.371 235.954 393.029L235.661 393.094L235.368 393.159C235.678 394.552 236.28 396.242 237.008 397.991L237.285 397.876ZM235.661 393.094L235.954 393.029C235.804 392.358 235.725 391.755 235.739 391.253L235.439 391.245L235.139 391.236C235.123 391.808 235.213 392.465 235.368 393.159L235.661 393.094ZM235.439 391.245L235.739 391.253C235.753 390.756 235.86 390.327 236.116 390.035L235.891 389.837L235.665 389.639C235.274 390.085 235.155 390.683 235.139 391.236L235.439 391.245ZM235.891 389.837L236.116 390.035C236.549 389.542 236.94 389.255 237.297 389.143L237.207 388.857L237.118 388.57C236.609 388.73 236.13 389.11 235.666 389.639L235.891 389.837ZM237.207 388.857L237.297 389.143C237.667 389.027 237.987 389.105 238.241 389.302L238.424 389.065L238.608 388.828C238.205 388.514 237.682 388.394 237.118 388.57L237.207 388.857ZM238.424 389.065L238.24 389.302C238.301 389.349 238.358 389.403 238.412 389.464L238.636 389.264L238.86 389.065C238.786 388.981 238.702 388.9 238.608 388.828L238.424 389.065ZM238.636 389.264L238.913 389.38C238.99 389.195 239.091 389.038 239.22 388.914L239.013 388.697L238.805 388.481C238.604 388.673 238.461 388.905 238.359 389.148L238.636 389.264ZM239.013 388.697L239.22 388.914C239.694 388.461 240.108 388.209 240.473 388.128L240.409 387.835L240.344 387.542C239.824 387.657 239.314 387.994 238.805 388.481L239.013 388.697Z" fill="#404040"/>
<path d="M238.886 391.066C238.604 392.618 241.227 400.86 243.801 404.643M241.908 391.923C242.13 393.608 242.892 397.546 244.16 399.815M245.311 396.333C245.506 397.65 246.238 400.969 247.602 403.711M245.205 393.154C245.113 393.593 244.977 393.839 245.174 394.45" stroke="#404040" stroke-width="0.6" stroke-linecap="round"/>
<path d="M283.3 407.506C283.976 407.419 284.598 407.522 285.054 407.742C285.512 407.964 285.769 408.285 285.813 408.626C285.857 408.967 285.69 409.342 285.302 409.673C284.917 410.001 284.342 410.258 283.666 410.345C282.99 410.432 282.368 410.33 281.912 410.109C281.454 409.887 281.197 409.567 281.153 409.226C281.109 408.885 281.276 408.51 281.664 408.179C282.049 407.85 282.624 407.593 283.3 407.506Z" fill="#E8FFA3" stroke="#404040" stroke-width="0.6"/>
<path d="M188.417 371.825C189.918 372.434 191.088 373.42 191.771 374.507C192.454 375.595 192.639 376.76 192.23 377.766C191.822 378.772 190.876 379.479 189.628 379.782C188.381 380.085 186.855 379.977 185.354 379.367C183.854 378.758 182.685 377.772 182.002 376.685C181.319 375.598 181.133 374.431 181.541 373.425C181.95 372.419 182.896 371.713 184.144 371.41C185.391 371.107 186.917 371.215 188.417 371.825Z" fill="#E8FFA3" stroke="#404040" stroke-width="0.6"/>
<circle cx="196.855" cy="384.631" r="2.40264" fill="#E8FFA3" stroke="#404040" stroke-width="0.6"/>
<circle cx="212.018" cy="414.607" r="1.37383" fill="#E8FFA3" stroke="#404040" stroke-width="0.6"/>
<circle cx="272.053" cy="355.677" r="5.15687" fill="#E8FFA3" stroke="#404040" stroke-width="0.6"/>
<circle cx="285.404" cy="365.721" r="3.24226" fill="#E8FFA3" stroke="#404040" stroke-width="0.6"/>
<circle cx="265.651" cy="377.441" r="2.29668" fill="#E8FFA3" stroke="#404040" stroke-width="0.6"/>
<rect x="140.3" y="213.288" width="152.38" height="117.147" rx="4.7" fill="#FFFEA3" stroke="#404040" stroke-width="0.6"/>
<path d="M216.055 297.263C217.547 297.166 218.701 296.772 219.517 296.081C220.346 295.376 220.761 294.443 220.761 293.282V291.541H222.482V293.282C222.482 294.429 222.882 295.348 223.684 296.039C224.499 296.73 225.64 297.124 227.105 297.221V298.714C225.819 298.645 224.7 298.368 223.746 297.885C222.793 297.387 222.088 296.73 221.632 295.915C221.175 296.758 220.457 297.435 219.475 297.947C218.508 298.444 217.368 298.728 216.055 298.797V297.263ZM226.462 311.94H224.762V306.841H216.552V305.306H220.761V302.528H213.401V300.994H229.82V302.528H222.461V305.306H225.529C225.833 305.306 226.061 305.389 226.213 305.555C226.379 305.707 226.462 305.935 226.462 306.239V311.94ZM243.483 289.55H245.183V294.215H248.086V295.749H245.183V298.113C245.183 299.066 245.342 299.785 245.66 300.269C245.992 300.752 246.552 300.994 247.339 300.994H247.858V302.528H247.319C246.061 302.528 245.107 302.162 244.458 301.43C243.808 300.697 243.483 299.612 243.483 298.175V289.55ZM238.321 293.324H240.021V302.528H229.365V300.994H232.185C232.046 300.842 231.943 300.656 231.874 300.434C231.805 300.2 231.77 299.895 231.77 299.522V293.324H233.47V296.475H237.16V298.009H233.47V299.605C233.47 300.089 233.567 300.441 233.76 300.663C233.968 300.884 234.279 300.994 234.693 300.994H238.321V293.324ZM245.163 311.588H243.463V305.991H236.683V304.456H244.23C244.534 304.456 244.762 304.539 244.914 304.705C245.08 304.857 245.163 305.085 245.163 305.389V311.588ZM267.545 302.528C266.481 302.459 265.659 302.079 265.078 301.388C264.498 300.683 264.208 299.681 264.208 298.382V295.832H259.584V294.298H264.208V289.55H265.907V298.05C265.907 299.764 266.453 300.745 267.545 300.994V302.528ZM247.394 302.528V300.994H253.614C254.346 300.994 254.947 300.752 255.417 300.269C255.887 299.785 256.122 299.17 256.122 298.424C256.122 297.677 255.887 297.062 255.417 296.578C254.947 296.095 254.346 295.853 253.614 295.853C252.881 295.853 252.28 296.095 251.81 296.578C251.34 297.062 251.105 297.677 251.105 298.424C251.105 298.99 251.237 299.474 251.499 299.875H249.778C249.53 299.474 249.405 298.99 249.405 298.424C249.405 297.636 249.585 296.931 249.944 296.309C250.317 295.687 250.822 295.203 251.458 294.858C252.093 294.498 252.812 294.319 253.614 294.319C254.415 294.319 255.134 294.498 255.77 294.858C256.406 295.203 256.903 295.687 257.262 296.309C257.636 296.931 257.822 297.636 257.822 298.424C257.822 299.211 257.636 299.916 257.262 300.538C256.903 301.16 256.406 301.651 255.77 302.01C255.134 302.356 254.415 302.528 253.614 302.528H247.394ZM264.042 304.187H265.742V312.251H258.092C257.788 312.251 257.553 312.169 257.387 312.003C257.235 311.851 257.159 311.623 257.159 311.319V304.187H258.859V306.716H262.881V308.25H258.859V310.717H264.042V304.187ZM269.737 296.122C271.23 296.026 272.384 295.576 273.199 294.775C274.029 293.973 274.443 292.895 274.443 291.541V289.861H276.164V291.541C276.164 292.868 276.565 293.932 277.366 294.733C278.182 295.535 279.322 295.984 280.787 296.081V297.574C279.529 297.491 278.424 297.187 277.47 296.661C276.516 296.122 275.798 295.411 275.314 294.526C274.83 295.438 274.098 296.171 273.116 296.724C272.149 297.263 271.023 297.574 269.737 297.656V296.122ZM276.185 297.615V300.994H283.503V302.528H267.084V300.994H274.485V297.615H276.185Z" fill="#404040"/>
<path d="M176.507 278.057C178.155 278.057 179.633 278.323 180.688 278.742C181.216 278.952 181.624 279.195 181.894 279.449C182.164 279.703 182.276 279.947 182.276 280.17C182.276 280.393 182.164 280.637 181.894 280.891C181.624 281.145 181.216 281.388 180.688 281.598C179.633 282.017 178.155 282.283 176.507 282.283C174.86 282.283 173.382 282.017 172.328 281.598C171.799 281.388 171.392 281.145 171.122 280.891C170.852 280.637 170.739 280.393 170.739 280.17C170.739 279.947 170.852 279.703 171.122 279.449C171.392 279.195 171.799 278.952 172.328 278.742C173.382 278.323 174.86 278.057 176.507 278.057Z" fill="#E8FFA3" stroke="#404040" stroke-width="0.6"/>
<path d="M186.667 286.804C188.302 286.804 189.767 287.174 190.813 287.758C191.869 288.346 192.436 289.113 192.436 289.889C192.436 290.666 191.869 291.432 190.813 292.021C189.767 292.604 188.302 292.974 186.667 292.974C185.033 292.974 183.569 292.604 182.523 292.021C181.467 291.432 180.899 290.666 180.899 289.889C180.899 289.113 181.467 288.346 182.523 287.758C183.569 287.174 185.033 286.804 186.667 286.804Z" fill="#E8FFA3" stroke="#404040" stroke-width="0.6"/>
<path opacity="0.69" d="M183.89 297.156C185.106 297.156 186.193 297.432 186.964 297.862C187.746 298.298 188.145 298.853 188.145 299.396C188.145 299.94 187.746 300.495 186.964 300.931C186.193 301.362 185.106 301.637 183.89 301.637C182.674 301.637 181.588 301.362 180.816 300.931C180.034 300.495 179.635 299.94 179.635 299.396C179.635 298.853 180.034 298.298 180.816 297.862C181.588 297.432 182.674 297.156 183.89 297.156Z" fill="#E8FFA3" stroke="#404040" stroke-width="0.6"/>
<path opacity="0.72" d="M167.388 307.404C169.594 307.404 171.578 307.903 172.998 308.696C174.429 309.494 175.229 310.548 175.229 311.644C175.229 312.74 174.429 313.794 172.998 314.592C171.578 315.385 169.594 315.884 167.388 315.884C165.182 315.884 163.199 315.385 161.779 314.592C160.348 313.794 159.548 312.74 159.548 311.644C159.548 310.548 160.348 309.494 161.779 308.696C163.199 307.904 165.182 307.404 167.388 307.404Z" fill="#E8FFA3" stroke="#404040" stroke-width="0.6"/>
<path d="M182.782 234.358L154.152 248.01V274.175H231.321V249.147L182.782 234.358Z" fill="#E8FFA3" stroke="#404040" stroke-width="0.6" stroke-linecap="round"/>
<path d="M231.966 245.531C233.136 245.887 233.795 247.124 233.439 248.294C233.094 249.427 231.922 250.081 230.786 249.797L230.676 249.766L182.958 235.228L155.104 248.51C154.001 249.036 152.68 248.568 152.153 247.464C151.627 246.36 152.095 245.039 153.199 244.512L182.605 230.491L231.966 245.531Z" fill="white" stroke="#404040" stroke-width="0.6" stroke-linecap="round"/>
<path d="M232.966 243.092C234.296 243.497 235.047 244.904 234.641 246.235C234.236 247.565 232.829 248.315 231.499 247.909L182.748 233.056L154.325 246.609L154.206 246.662C152.976 247.174 151.547 246.636 150.968 245.42C150.369 244.165 150.902 242.662 152.157 242.063L182.346 227.668L232.966 243.092Z" fill="#E8FFA3" stroke="#404040" stroke-width="0.6" stroke-linecap="round"/>
<circle cx="189.897" cy="247.798" r="7.32071" fill="white" stroke="#404040" stroke-width="0.6"/>
<path d="M182.576 247.532H197.365" stroke="#404040" stroke-width="0.6" stroke-linecap="round"/>
<path d="M189.897 255.193L189.897 240.403" stroke="#404040" stroke-width="0.6" stroke-linecap="round"/>
<path d="M195.974 269.227C185.489 270.303 163.776 271.426 154.152 271.311V274.175H231.321V272.179C223.855 270.385 206.773 268.119 195.974 269.227Z" fill="white" stroke="#404040" stroke-width="0.6" stroke-linecap="round"/>
<rect x="164.599" y="251.742" width="13.0844" height="22.133" fill="white" stroke="#404040" stroke-width="0.6"/>
<circle cx="166.73" cy="267.801" r="0.779569" fill="#E8FFA3" stroke="#404040" stroke-width="0.6"/>
<rect x="170.26" y="254.567" width="5.11286" height="7.94209" fill="#E8FFA3" stroke="#404040" stroke-width="0.6"/>
<path d="M172.817 262.643L172.817 254.267" stroke="#404040" stroke-width="0.6" stroke-linecap="round"/>
<path d="M170.222 260.725H175.528" stroke="#404040" stroke-width="0.6" stroke-linecap="round"/>
<g opacity="0.58">
<mask id="mask0_151_116" style="mask-type:alpha" maskUnits="userSpaceOnUse" x="139" y="212" width="154" height="119">
<rect x="140.221" y="212.775" width="152.38" height="117.147" rx="4.7" fill="#FFFEA3" stroke="#404040" stroke-width="0.6"/>
</mask>
<g mask="url(#mask0_151_116)">
<path d="M161.691 324.664C163.898 324.664 165.881 325.163 167.302 325.956C168.732 326.753 169.532 327.808 169.532 328.904C169.532 330 168.732 331.054 167.302 331.852C165.881 332.644 163.898 333.144 161.691 333.144C159.485 333.144 157.502 332.644 156.082 331.852C154.652 331.054 153.852 330 153.852 328.904C153.852 327.808 154.652 326.753 156.082 325.956C157.502 325.163 159.485 324.664 161.691 324.664Z" fill="#E8FFA3" stroke="#404040" stroke-width="0.6"/>
</g>
</g>
<rect x="247.817" y="267.66" width="1.74708" height="6.21532" fill="#E8FFA3" stroke="#404040" stroke-width="0.6"/>
<circle cx="248.922" cy="265.074" r="3.35261" fill="#E8FFA3" stroke="#404040" stroke-width="0.6"/>
<rect x="238.372" y="264.403" width="2.86875" height="9.47235" fill="#E8FFA3" stroke="#404040" stroke-width="0.6"/>
<mask id="path-69-inside-1_151_116" fill="white">
<path d="M239.808 256.118C241.598 256.118 243.05 257.906 243.05 260.11C243.05 260.848 242.886 261.539 242.603 262.132C243.342 263.024 243.802 264.267 243.802 265.643C243.802 268.359 242.014 270.56 239.808 270.561C237.601 270.561 235.812 268.359 235.812 265.643C235.813 264.267 236.272 263.024 237.011 262.132C236.727 261.539 236.564 260.848 236.564 260.11C236.565 257.906 238.017 256.118 239.808 256.118Z"/>
</mask>
<path d="M239.808 256.118C241.598 256.118 243.05 257.906 243.05 260.11C243.05 260.848 242.886 261.539 242.603 262.132C243.342 263.024 243.802 264.267 243.802 265.643C243.802 268.359 242.014 270.56 239.808 270.561C237.601 270.561 235.812 268.359 235.812 265.643C235.813 264.267 236.272 263.024 237.011 262.132C236.727 261.539 236.564 260.848 236.564 260.11C236.565 257.906 238.017 256.118 239.808 256.118Z" fill="#E8FFA3"/>
<path d="M239.808 256.118L239.808 255.518H239.808V256.118ZM243.05 260.11L243.65 260.11L243.65 260.11L243.05 260.11ZM242.603 262.132L242.061 261.873L241.896 262.219L242.141 262.515L242.603 262.132ZM243.802 265.643L244.402 265.643L244.402 265.643L243.802 265.643ZM239.808 270.561L239.808 271.161L239.808 271.161L239.808 270.561ZM235.812 265.643L235.212 265.643V265.643H235.812ZM237.011 262.132L237.473 262.515L237.717 262.219L237.552 261.873L237.011 262.132ZM236.564 260.11L235.964 260.11V260.11H236.564ZM239.808 256.118L239.808 256.718C241.156 256.718 242.45 258.114 242.45 260.11L243.05 260.11L243.65 260.11C243.65 257.697 242.04 255.518 239.808 255.518L239.808 256.118ZM243.05 260.11H242.45C242.45 260.76 242.306 261.362 242.061 261.873L242.603 262.132L243.144 262.391C243.466 261.716 243.65 260.937 243.65 260.11H243.05ZM242.603 262.132L242.141 262.515C242.785 263.293 243.202 264.398 243.202 265.643L243.802 265.643L244.402 265.643C244.402 264.136 243.899 262.756 243.065 261.749L242.603 262.132ZM243.802 265.643H243.202C243.202 268.15 241.572 269.96 239.808 269.961L239.808 270.561L239.808 271.161C242.456 271.16 244.402 268.567 244.402 265.643H243.802ZM239.808 270.561V269.961C238.043 269.961 236.413 268.15 236.413 265.643H235.812H235.212C235.212 268.568 237.16 271.161 239.808 271.161V270.561ZM235.812 265.643L236.413 265.643C236.413 264.398 236.828 263.293 237.473 262.515L237.011 262.132L236.549 261.749C235.715 262.756 235.213 264.137 235.212 265.643L235.812 265.643ZM237.011 262.132L237.552 261.873C237.308 261.363 237.164 260.76 237.164 260.11H236.564H235.964C235.964 260.936 236.147 261.716 236.469 262.391L237.011 262.132ZM236.564 260.11L237.164 260.11C237.165 258.115 238.458 256.718 239.808 256.718V256.118V255.518C237.575 255.518 235.965 257.697 235.964 260.11L236.564 260.11Z" fill="#404040" mask="url(#path-69-inside-1_151_116)"/>
</svg>
