<svg width="154" height="119" viewBox="0 0 154 119" fill="none" xmlns="http://www.w3.org/2000/svg">
<rect x="0.668652" y="0.983838" width="152.38" height="117.147" rx="4.7" fill="#FFFEA3" stroke="#404040" stroke-width="0.6"/>
<path d="M106.55 44.7528L96.4717 14.9513C103.066 16.5025 107.088 19.9849 108.275 21.5323L118.126 50.6641C115.308 47.0398 109.234 45.2131 106.55 44.7528Z" fill="#E8FFA3" stroke="#404040" stroke-width="0.6"/>
<path d="M74.4363 14.2253C79.3019 12.5799 84.1322 12.3895 88.0022 13.3973C91.8751 14.4059 94.7494 16.6011 95.7971 19.6992C96.8446 22.7972 95.8922 26.2856 93.4266 29.4376C90.9626 32.5874 87.0082 35.3678 82.1426 37.0132C77.2771 38.6586 72.4476 38.8486 68.5776 37.8409C64.7047 36.8323 61.8299 34.6383 60.7822 31.5403C59.7344 28.4421 60.6873 24.9528 63.1532 21.8006C65.6173 18.651 69.571 15.8706 74.4363 14.2253Z" fill="#E8FFA3" stroke="#404040" stroke-width="0.6"/>
<path d="M76.4819 20.2762C78.8432 19.4778 81.1801 19.3856 83.0431 19.8666C84.909 20.3485 86.2619 21.3919 86.7511 22.8383C87.2401 24.2847 86.7983 25.9351 85.6078 27.4506C84.4191 28.9635 82.5056 30.3077 80.1443 31.1063C77.783 31.9049 75.4464 31.9978 73.5834 31.5169C71.7173 31.0351 70.3638 29.9919 69.8745 28.5455C69.3853 27.099 69.828 25.4485 71.0187 23.9329C72.2074 22.4199 74.1204 21.0748 76.4819 20.2762Z" fill="#FFFEA3" stroke="#404040" stroke-width="0.6"/>
<path d="M71.2759 58.6529L61.1348 35.347C62.8327 37.4213 69.771 42.7496 83.1769 38.6381C93.9077 35.347 97.4161 26.9694 97.7342 22.9994L104.692 47.621C104.986 51.1083 104.001 59.6759 91.7218 63.8283C79.4428 67.9807 73.3577 61.5354 71.2759 58.6529Z" fill="#E8FFA3" stroke="#404040" stroke-width="0.6"/>
<g opacity="0.8">
<path d="M131.328 95.45L141.986 70.5271C145.328 75.3127 145.908 79.8597 145.781 81.535L135.362 105.898C135.636 101.952 132.787 97.2885 131.328 95.45Z" fill="#E8FFA3" stroke="#404040" stroke-width="0.516973"/>
<path d="M128.259 57.3974C132.327 59.1375 135.538 61.7909 137.443 64.662C139.349 67.5353 139.933 70.5962 138.825 73.1871C137.717 75.778 135.1 77.4704 131.706 78.0767C128.314 78.6826 124.178 78.1945 120.109 76.4545C116.04 74.7145 112.83 72.0609 110.925 69.1899C109.018 66.3166 108.435 63.2557 109.542 60.6648C110.65 58.0738 113.267 56.3815 116.661 55.7752C120.053 55.1694 124.19 55.6573 128.259 57.3974Z" fill="#E8FFA3" stroke="#404040" stroke-width="0.516973"/>
<path d="M126.093 62.4571C128.068 63.3017 129.622 64.5846 130.542 65.9641C131.462 67.3459 131.731 68.7933 131.214 70.003C130.696 71.2126 129.464 72.0183 127.829 72.3069C126.196 72.5951 124.195 72.3588 122.22 71.5143C120.245 70.6698 118.692 69.3859 117.773 68.0064C116.852 66.6246 116.583 65.1772 117.1 63.9676C117.618 62.758 118.85 61.9521 120.485 61.6636C122.118 61.3755 124.119 61.6126 126.093 62.4571Z" fill="#FFFEA3" stroke="#404040" stroke-width="0.516973"/>
<path d="M100.696 84.1003L107.58 63.311C107.478 65.6185 108.87 73.0264 119.838 78.0918C128.618 82.1463 135.685 78.7847 138.171 76.419L128.487 96.2236C126.672 98.631 121.115 103.565 110.846 99.1733C100.578 94.7819 100.376 87.1472 100.696 84.1003Z" fill="#E8FFA3" stroke="#404040" stroke-width="0.516973"/>
</g>
<path d="M11.4701 91.4478V89.9137H17.7518V87.4259C16.8396 87.2739 16.0933 86.8731 15.5128 86.2235C14.9461 85.5739 14.6628 84.7999 14.6628 83.9016C14.6628 82.9894 14.9461 82.2085 15.5128 81.5589H13.0457V80.0248H17.731V76.8529H19.431V80.0248H24.0541V81.5589H18.581C17.9453 81.5589 17.4132 81.7662 16.9847 82.1808C16.5701 82.5955 16.3628 83.1207 16.3628 83.7564C16.3628 84.3922 16.5701 84.9243 16.9847 85.3528C17.4132 85.7674 17.9453 85.9747 18.581 85.9747C19.2306 85.9747 19.7627 85.7674 20.1774 85.3528C20.6058 84.9243 20.82 84.3922 20.82 83.7564C20.82 83.3418 20.7371 82.9825 20.5713 82.6784H22.209C22.4164 83.0239 22.52 83.4316 22.52 83.9016C22.52 84.7999 22.2367 85.5739 21.67 86.2235C21.1034 86.8592 20.3639 87.2601 19.4518 87.4259V89.9137H24.4273C24.9663 89.9137 25.3602 89.8031 25.609 89.582C25.8716 89.347 26.0029 89.0015 26.0029 88.5454V78.4699H27.7029V83.1345H30.6053V84.6686H27.7029V87.032C27.7029 87.9857 27.8618 88.7043 28.1797 89.1881C28.5114 89.6718 29.0712 89.9137 29.859 89.9137H30.3772V91.4478H29.8175C29.1817 91.4478 28.6289 91.3511 28.159 91.1576C27.6891 90.9503 27.3228 90.6807 27.0602 90.349C26.8805 90.6946 26.5972 90.9641 26.2102 91.1576C25.8232 91.3511 25.3395 91.4478 24.759 91.4478H11.4701ZM44.6852 78.4699H46.3852V83.1345H49.2876V84.6686H46.3852V87.032C46.3852 87.9857 46.5441 88.7043 46.862 89.1881C47.1937 89.6718 47.7535 89.9137 48.5413 89.9137H49.0595V91.4478H48.5205C47.2628 91.4478 46.3092 91.0816 45.6596 90.349C45.01 89.6165 44.6852 88.5316 44.6852 87.0942V78.4699ZM29.9244 91.4478V89.9137H31.5414C33.1032 89.9137 34.3126 89.5543 35.1695 88.8356C36.0402 88.117 36.4755 87.108 36.4755 85.8089V84.6686H32.267V83.1345H42.3218V84.6686H38.2377V85.8089C38.2377 87.0666 38.6385 88.0548 39.4401 88.7735C40.2556 89.4783 41.3889 89.8446 42.8401 89.8722V91.3649C41.6239 91.3649 40.5389 91.1299 39.5853 90.66C38.6316 90.1763 37.8922 89.506 37.367 88.6491C36.8556 89.5336 36.1093 90.2247 35.128 90.7222C34.1467 91.2059 33.0203 91.4478 31.7488 91.4478H29.9244ZM41.8865 101.171C41.0572 101.171 40.3109 100.998 39.6475 100.653C38.9979 100.307 38.4865 99.8302 38.1133 99.2221C37.754 98.614 37.5743 97.9299 37.5743 97.1697C37.5743 96.4095 37.754 95.7254 38.1133 95.1173C38.4865 94.5092 38.9979 94.0392 39.6475 93.7075C40.3109 93.362 41.0572 93.1893 41.8865 93.1893H45.7425V94.7234H41.8865C41.1263 94.7234 40.4974 94.9514 39.9999 95.4075C39.5162 95.8636 39.2743 96.451 39.2743 97.1697C39.2743 97.8884 39.5162 98.4758 39.9999 98.9319C40.4974 99.4018 41.1263 99.6367 41.8865 99.6367C42.6466 99.6367 43.2686 99.4018 43.7523 98.9319C44.236 98.4758 44.4779 97.8884 44.4779 97.1697C44.4779 96.6307 44.3535 96.1884 44.1047 95.8429H45.784C46.0466 96.2022 46.1779 96.6445 46.1779 97.1697C46.1779 97.9299 45.9913 98.614 45.6181 99.2221C45.2588 99.8302 44.7543 100.307 44.1047 100.653C43.4551 100.998 42.7157 101.171 41.8865 101.171ZM65.2077 91.4478C64.1988 91.3787 63.3903 90.9433 62.7822 90.1417C62.174 89.3401 61.87 88.1446 61.87 86.5552V78.4699H63.57V86.182C63.57 87.2877 63.7082 88.1377 63.9846 88.732C64.2748 89.3263 64.6825 89.7202 65.2077 89.9137V91.4478ZM48.5811 89.9137C50.0599 89.8722 51.2209 89.4369 52.064 88.6076C52.9071 87.7645 53.3286 86.6381 53.3286 85.2284V82.2223H55.0493V85.2284C55.0493 86.6243 55.457 87.7369 56.2725 88.5661C57.1017 89.3954 58.2351 89.8308 59.6724 89.8722V91.3649C58.4424 91.3511 57.3367 91.0746 56.3554 90.5356C55.3879 89.9828 54.6692 89.2295 54.1993 88.2759C53.7432 89.2572 53.0176 90.0312 52.0225 90.5978C51.0274 91.1507 49.8803 91.434 48.5811 91.4478V89.9137ZM56.6871 100.632H63.7151V102.166H55.92C55.616 102.166 55.381 102.083 55.2152 101.917C55.0631 101.765 54.9871 101.537 54.9871 101.233V96.9417H61.6212V94.8478H54.9871V93.3136H62.3883C62.6923 93.3136 62.9204 93.3966 63.0724 93.5624C63.2383 93.7145 63.3212 93.9425 63.3212 94.2466V98.4551H56.6871V100.632Z" fill="#404040"/>
<path d="M51.6964 15.6385L41.6761 22.0945" stroke="#404040" stroke-width="1.84641" stroke-linecap="round" stroke-linejoin="round" stroke-dasharray="4.25 5.54"/>
<path d="M43.4383 13.81L49.9386 23.8989" stroke="#404040" stroke-width="1.84641" stroke-linecap="round" stroke-linejoin="round" stroke-dasharray="4.25 5.54"/>
<path d="M142.134 45.1394L130.214 45.1394" stroke="#404040" stroke-width="1.84641" stroke-linecap="round" stroke-linejoin="round" stroke-dasharray="4.25 5.54"/>
<path d="M136.182 39.1295L136.182 51.1312" stroke="#404040" stroke-width="1.84641" stroke-linecap="round" stroke-linejoin="round" stroke-dasharray="4.25 5.54"/>
</svg>
