<svg width="154" height="119" viewBox="0 0 154 119" fill="none" xmlns="http://www.w3.org/2000/svg">
<rect x="0.668652" y="0.972119" width="152.38" height="117.147" rx="4.7" fill="#FFFEA3" stroke="#404040" stroke-width="0.6"/>
<path d="M76.4235 84.9464C77.9162 84.8497 79.0703 84.4558 79.8857 83.7647C80.715 83.0599 81.1296 82.1269 81.1296 80.966V79.2245H82.8503V80.966C82.8503 82.1131 83.2511 83.0322 84.0527 83.7233C84.8682 84.4143 86.0084 84.8082 87.4734 84.905V86.3976C86.1881 86.3285 85.0686 86.0521 84.1149 85.5684C83.1613 85.0708 82.4564 84.4143 82.0003 83.5989C81.5442 84.442 80.8255 85.1192 79.8442 85.6306C78.8768 86.1281 77.7365 86.4114 76.4235 86.4806V84.9464ZM86.8307 99.6243H85.1308V94.5244H76.9211V92.9902H81.1296V90.2122H73.7699V88.6781H90.1892V90.2122H82.8296V92.9902H85.8978C86.2019 92.9902 86.4299 93.0732 86.582 93.239C86.7478 93.391 86.8307 93.6191 86.8307 93.9232V99.6243ZM103.852 77.2343H105.552V81.8989H108.454V83.433H105.552V85.7964C105.552 86.7501 105.711 87.4688 106.029 87.9525C106.361 88.4362 106.92 88.6781 107.708 88.6781H108.226V90.2122H107.687C106.43 90.2122 105.476 89.846 104.826 89.1134C104.177 88.3809 103.852 87.296 103.852 85.8586V77.2343ZM98.69 81.0074H100.39V90.2122H89.734V88.6781H92.5534C92.4152 88.5261 92.3116 88.3395 92.2425 88.1183C92.1734 87.8834 92.1388 87.5793 92.1388 87.2062V81.0074H93.8388V84.1586H97.529V85.6928H93.8388V87.2891C93.8388 87.7728 93.9355 88.1252 94.129 88.3464C94.3364 88.5675 94.6473 88.6781 95.062 88.6781H98.69V81.0074ZM105.531 99.2719H103.831V93.6744H97.0522V92.1402H104.598C104.902 92.1402 105.131 92.2232 105.283 92.389C105.448 92.5411 105.531 92.7691 105.531 93.0732V99.2719ZM127.914 90.2122C126.85 90.1431 126.027 89.763 125.447 89.072C124.867 88.3671 124.576 87.3651 124.576 86.0659V83.5159H119.953V81.9818H124.576V77.2343H126.276V85.7342C126.276 87.448 126.822 88.4293 127.914 88.6781V90.2122ZM107.763 90.2122V88.6781H113.983C114.715 88.6781 115.316 88.4362 115.786 87.9525C116.256 87.4688 116.491 86.8537 116.491 86.1074C116.491 85.3611 116.256 84.746 115.786 84.2623C115.316 83.7785 114.715 83.5367 113.983 83.5367C113.25 83.5367 112.649 83.7785 112.179 84.2623C111.709 84.746 111.474 85.3611 111.474 86.1074C111.474 86.674 111.605 87.1578 111.868 87.5586H110.147C109.898 87.1578 109.774 86.674 109.774 86.1074C109.774 85.3196 109.954 84.6147 110.313 83.9928C110.686 83.3708 111.191 82.8871 111.826 82.5416C112.462 82.1822 113.181 82.0026 113.983 82.0026C114.784 82.0026 115.503 82.1822 116.139 82.5416C116.774 82.8871 117.272 83.3708 117.631 83.9928C118.004 84.6147 118.191 85.3196 118.191 86.1074C118.191 86.8952 118.004 87.6001 117.631 88.222C117.272 88.8439 116.774 89.3346 116.139 89.6939C115.503 90.0395 114.784 90.2122 113.983 90.2122H107.763ZM124.41 91.8707H126.11V99.9353H118.461C118.156 99.9353 117.921 99.8524 117.756 99.6865C117.604 99.5345 117.528 99.3064 117.528 99.0024V91.8707H119.228V94.4H123.249V95.9341H119.228V98.4012H124.41V91.8707ZM130.106 83.8062C131.599 83.7094 132.753 83.2603 133.568 82.4586C134.397 81.657 134.812 80.579 134.812 79.2245V77.5453H136.533V79.2245C136.533 80.5513 136.933 81.6156 137.735 82.4172C138.551 83.2188 139.691 83.668 141.156 83.7647V85.2574C139.898 85.1745 138.792 84.8704 137.839 84.3452C136.885 83.8062 136.166 83.0944 135.683 82.2099C135.199 83.1221 134.466 83.8546 133.485 84.4074C132.518 84.9464 131.391 85.2574 130.106 85.3403V83.8062ZM136.553 85.2989V88.6781H143.872V90.2122H127.452V88.6781H134.853V85.2989H136.553Z" fill="#404040"/>
<path d="M36.876 65.7405C38.5236 65.7405 40.0018 66.0065 41.0566 66.426C41.5849 66.6361 41.9924 66.8789 42.2627 67.1331C42.5323 67.3865 42.6445 67.6304 42.6445 67.8538C42.6445 68.0771 42.5322 68.321 42.2627 68.5745C41.9924 68.8286 41.5848 69.0714 41.0566 69.2815C40.0018 69.701 38.5236 69.967 36.876 69.967C35.2286 69.967 33.7511 69.7009 32.6963 69.2815C32.168 69.0714 31.7605 68.8286 31.4902 68.5745C31.2205 68.3209 31.1074 68.0772 31.1074 67.8538C31.1075 67.6303 31.2206 67.3866 31.4902 67.1331C31.7605 66.879 32.1681 66.6361 32.6963 66.426C33.7511 66.0066 35.2287 65.7405 36.876 65.7405Z" fill="#E8FFA3" stroke="#404040" stroke-width="0.6"/>
<path d="M47.0361 74.4883C48.6706 74.4883 50.136 74.8582 51.1816 75.4414C52.2372 76.0302 52.8047 76.7964 52.8047 77.5732C52.8047 78.3501 52.2372 79.1163 51.1816 79.7051C50.136 80.2883 48.6706 80.6582 47.0361 80.6582C45.402 80.6582 43.9372 80.2882 42.8916 79.7051C41.836 79.1163 41.2676 78.3501 41.2676 77.5732C41.2676 76.7964 41.836 76.0302 42.8916 75.4414C43.9372 74.8583 45.402 74.4883 47.0361 74.4883Z" fill="#E8FFA3" stroke="#404040" stroke-width="0.6"/>
<path opacity="0.69" d="M44.2588 84.8398C45.475 84.8398 46.5613 85.1156 47.333 85.5459C48.1145 85.9818 48.5135 86.5365 48.5137 87.0801C48.5137 87.6238 48.1146 88.1793 47.333 88.6152C46.5613 89.0455 45.475 89.3213 44.2588 89.3213C43.0426 89.3213 41.9563 89.0455 41.1846 88.6152C40.4029 88.1793 40.0039 87.6238 40.0039 87.0801C40.0041 86.5365 40.4031 85.9818 41.1846 85.5459C41.9563 85.1156 43.0426 84.8398 44.2588 84.8398Z" fill="#E8FFA3" stroke="#404040" stroke-width="0.6"/>
<path opacity="0.72" d="M27.7566 95.0876C29.9631 95.0876 31.9464 95.5873 33.3669 96.3796C34.7973 97.1775 35.5973 98.232 35.5974 99.3279C35.5974 100.424 34.7973 101.478 33.3669 102.276C31.9464 103.068 29.9631 103.568 27.7566 103.568C25.5503 103.568 23.5677 103.068 22.1472 102.276C20.7168 101.478 19.9167 100.424 19.9167 99.3279C19.9168 98.232 20.7168 97.1775 22.1472 96.3796C23.5677 95.5874 25.5503 95.0877 27.7566 95.0876Z" fill="#E8FFA3" stroke="#404040" stroke-width="0.6"/>
<path d="M43.1507 22.042L14.5206 35.6936V61.8591H91.6898V36.8312L43.1507 22.042Z" fill="#E8FFA3" stroke="#404040" stroke-width="0.6" stroke-linecap="round"/>
<path d="M92.3349 33.2144C93.5045 33.5708 94.1638 34.808 93.8076 35.9776C93.4624 37.1107 92.2906 37.7651 91.1544 37.481L91.0444 37.4503L43.3269 22.9116L15.4732 36.1934C14.3695 36.7196 13.0484 36.2515 12.5221 35.1479C11.9958 34.0441 12.4639 32.7226 13.5676 32.1963L42.9737 18.175L92.3349 33.2144Z" fill="white" stroke="#404040" stroke-width="0.6" stroke-linecap="round"/>
<path d="M93.3348 30.7758C94.6651 31.1812 95.4152 32.5882 95.0099 33.9186C94.6045 35.2488 93.1974 35.9985 91.8672 35.5932L43.1168 20.7397L14.6934 34.2929L14.5749 34.346C13.3449 34.8577 11.9161 34.3197 11.3362 33.1036C10.7378 31.8484 11.2703 30.3455 12.5254 29.7469L42.7145 15.3523L93.3348 30.7758Z" fill="#E8FFA3" stroke="#404040" stroke-width="0.6" stroke-linecap="round"/>
<circle cx="50.2657" cy="35.4819" r="7.32071" fill="white" stroke="#404040" stroke-width="0.6"/>
<path d="M42.9445 35.2163H57.734" stroke="#404040" stroke-width="0.6" stroke-linecap="round"/>
<path d="M50.2657 42.8766L50.2657 28.0871" stroke="#404040" stroke-width="0.6" stroke-linecap="round"/>
<path d="M56.3427 56.9109C45.8575 57.9864 24.1449 59.1101 14.5206 58.9943V61.8591H91.69V59.8624C84.2239 58.0684 67.1418 55.8031 56.3427 56.9109Z" fill="white" stroke="#404040" stroke-width="0.6" stroke-linecap="round"/>
<rect x="24.9675" y="39.4261" width="13.0844" height="22.133" fill="white" stroke="#404040" stroke-width="0.6"/>
<circle cx="27.0981" cy="55.4844" r="0.779569" fill="#E8FFA3" stroke="#404040" stroke-width="0.6"/>
<rect x="30.6291" y="42.2504" width="5.11286" height="7.94209" fill="#E8FFA3" stroke="#404040" stroke-width="0.6"/>
<path d="M33.1855 50.327L33.1855 41.9504" stroke="#404040" stroke-width="0.6" stroke-linecap="round"/>
<path d="M30.5911 48.4091H35.8965" stroke="#404040" stroke-width="0.6" stroke-linecap="round"/>
<g opacity="0.58">
<mask id="mask0_137_129" style="mask-type:alpha" maskUnits="userSpaceOnUse" x="0" y="0" width="154" height="118">
<rect x="0.589551" y="0.458691" width="152.38" height="117.147" rx="4.7" fill="#FFFEA3" stroke="#404040" stroke-width="0.6"/>
</mask>
<g mask="url(#mask0_137_129)">
<path d="M22.0601 112.347C24.2665 112.347 26.2499 112.847 27.6704 113.639C29.1008 114.437 29.9008 115.492 29.9009 116.588C29.9009 117.684 29.1008 118.738 27.6704 119.536C26.2499 120.328 24.2665 120.828 22.0601 120.828C19.8538 120.828 17.8711 120.328 16.4507 119.536C15.0203 118.738 14.2202 117.684 14.2202 116.588C14.2203 115.492 15.0203 114.437 16.4507 113.639C17.8711 112.847 19.8538 112.347 22.0601 112.347Z" fill="#E8FFA3" stroke="#404040" stroke-width="0.6"/>
</g>
</g>
<rect x="108.185" y="55.3438" width="1.74708" height="6.21532" fill="#E8FFA3" stroke="#404040" stroke-width="0.6"/>
<circle cx="109.291" cy="52.7583" r="3.35261" fill="#E8FFA3" stroke="#404040" stroke-width="0.6"/>
<rect x="98.7409" y="52.0869" width="2.86875" height="9.47235" fill="#E8FFA3" stroke="#404040" stroke-width="0.6"/>
<mask id="path-24-inside-1_137_129" fill="white">
<path d="M100.176 43.8021C101.967 43.8023 103.418 45.5896 103.418 47.7943C103.418 48.5322 103.255 49.2228 102.971 49.8158C103.711 50.7082 104.17 51.9511 104.17 53.3265C104.17 56.0424 102.382 58.2442 100.176 58.2445C97.9701 58.2445 96.1812 56.0426 96.1812 53.3265C96.1812 51.9513 96.6402 50.7082 97.3794 49.8158C97.096 49.2229 96.9331 48.532 96.9331 47.7943C96.9332 45.5895 98.3853 43.8021 100.176 43.8021Z"/>
</mask>
<path d="M100.176 43.8021C101.967 43.8023 103.418 45.5896 103.418 47.7943C103.418 48.5322 103.255 49.2228 102.971 49.8158C103.711 50.7082 104.17 51.9511 104.17 53.3265C104.17 56.0424 102.382 58.2442 100.176 58.2445C97.9701 58.2445 96.1812 56.0426 96.1812 53.3265C96.1812 51.9513 96.6402 50.7082 97.3794 49.8158C97.096 49.2229 96.9331 48.532 96.9331 47.7943C96.9332 45.5895 98.3853 43.8021 100.176 43.8021Z" fill="#E8FFA3"/>
<path d="M100.176 43.8021L100.176 43.2021H100.176V43.8021ZM103.418 47.7943L104.018 47.7943L104.018 47.7943L103.418 47.7943ZM102.971 49.8158L102.43 49.557L102.264 49.9032L102.509 50.1986L102.971 49.8158ZM104.17 53.3265L104.77 53.3265L104.77 53.3265L104.17 53.3265ZM100.176 58.2445L100.176 58.8445L100.176 58.8445L100.176 58.2445ZM96.1812 53.3265L95.5812 53.3265V53.3265H96.1812ZM97.3794 49.8158L97.8415 50.1985L98.0861 49.9032L97.9208 49.5571L97.3794 49.8158ZM96.9331 47.7943L96.3331 47.7943V47.7943H96.9331ZM100.176 43.8021L100.176 44.4021C101.525 44.4022 102.818 45.7983 102.818 47.7943L103.418 47.7943L104.018 47.7943C104.018 45.3809 102.409 43.2023 100.176 43.2021L100.176 43.8021ZM103.418 47.7943H102.818C102.818 48.4438 102.674 49.0458 102.43 49.557L102.971 49.8158L103.513 50.0746C103.835 49.3997 104.018 48.6206 104.018 47.7943H103.418ZM102.971 49.8158L102.509 50.1986C103.154 50.9768 103.57 52.082 103.57 53.3266L104.17 53.3265L104.77 53.3265C104.77 51.8201 104.267 50.4397 103.433 49.433L102.971 49.8158ZM104.17 53.3265H103.57C103.57 55.8336 101.94 57.6442 100.176 57.6445L100.176 58.2445L100.176 58.8445C102.824 58.8441 104.77 56.2511 104.77 53.3265H104.17ZM100.176 58.2445V57.6445C98.412 57.6445 96.7812 55.8337 96.7812 53.3265H96.1812H95.5812C95.5812 56.2514 97.5282 58.8445 100.176 58.8445V58.2445ZM96.1812 53.3265L96.7812 53.3266C96.7812 52.082 97.197 50.9766 97.8415 50.1985L97.3794 49.8158L96.9173 49.4331C96.0834 50.4398 95.5812 51.8206 95.5812 53.3265L96.1812 53.3265ZM97.3794 49.8158L97.9208 49.5571C97.6767 49.0464 97.5331 48.4441 97.5331 47.7943H96.9331H96.3331C96.3331 48.6199 96.5154 49.3994 96.838 50.0745L97.3794 49.8158ZM96.9331 47.7943L97.5331 47.7943C97.5332 45.7983 98.8272 44.4021 100.176 44.4021V43.8021V43.2021C97.9434 43.2021 96.3332 45.3806 96.3331 47.7943L96.9331 47.7943Z" fill="#404040" mask="url(#path-24-inside-1_137_129)"/>
</svg>
