<svg width="17" height="24" viewBox="0 0 17 24" fill="none" xmlns="http://www.w3.org/2000/svg">
<path d="M8.05859 6.40527C8.5216 6.40531 8.89673 6.47787 9.31641 6.73926C9.71165 6.98543 10.1365 7.39325 10.7266 8.01953L11.9121 9.27832L12.6729 8.54492C13.0005 8.22846 13.3187 7.97992 13.6045 7.82324C13.7473 7.74495 13.8926 7.68368 14.0342 7.65234C14.1742 7.6214 14.3336 7.6145 14.4863 7.67285C14.7446 7.77162 14.9661 7.93893 15.0723 8.20215C15.1759 8.45899 15.1403 8.73748 15.042 9C14.8493 9.51379 14.3526 10.1374 13.6182 10.8584L12.1826 12.2686L11.9512 12.4951L11.7139 12.2734L10.9873 11.5938L10.8311 11.4473V11.9902C10.8311 12.7391 10.6935 13.736 10.5078 14.2236C10.439 14.4039 10.4116 14.5068 10.4092 14.5908C10.4072 14.6612 10.423 14.7433 10.498 14.874C10.5781 15.0134 10.7172 15.1934 10.9521 15.4521C11.1851 15.7086 11.498 16.0279 11.9141 16.4463C12.7158 17.2526 13.1507 17.6599 13.4541 17.8467C13.595 17.9334 13.6833 17.9562 13.749 17.96C13.8179 17.9639 13.8995 17.9492 14.0361 17.8975C14.4704 17.7329 15.0038 17.764 15.4199 17.8896C15.6309 17.9533 15.8369 18.0483 15.9971 18.1777C16.1533 18.3041 16.3085 18.5005 16.3086 18.7617C16.3086 18.8299 16.2896 18.8852 16.2793 18.9121C16.2671 18.9439 16.2526 18.9733 16.2393 18.9971C16.2125 19.045 16.1773 19.0962 16.1406 19.1465C16.0663 19.2484 15.9634 19.3736 15.8428 19.5117C15.6 19.7897 15.2687 20.1387 14.9062 20.4932L13.6055 21.7656L13.3672 21.999L13.1309 21.7637L10.46 19.1133L8.03027 16.7021L6.35742 18.4014C5.50067 19.2709 5.06225 19.7468 4.85742 20.0742C4.76059 20.229 4.73372 20.3244 4.72852 20.3926C4.72334 20.4609 4.73636 20.5391 4.78711 20.6699C4.96723 21.1341 4.99424 21.6434 4.89551 22.0508C4.84612 22.2543 4.75967 22.453 4.62598 22.6074C4.48782 22.7669 4.29055 22.8857 4.0459 22.8857C3.95075 22.8857 3.86615 22.8535 3.81445 22.8311C3.75448 22.8051 3.69205 22.771 3.63086 22.7334C3.50777 22.6577 3.36416 22.5526 3.21094 22.4307C2.98017 22.2471 2.71478 22.0139 2.44531 21.7549L2.17578 21.4883L0.899414 20.1924L0.664062 19.9531L0.901367 19.7158L3.45898 17.1543L5.7832 14.8271L4.25977 13.2471L2.50684 11.4268L2.2793 11.1914L2.50684 10.957L4.66016 8.73242H4.66113C5.59197 7.77117 6.18549 7.18962 6.66211 6.85352C6.90667 6.68107 7.13118 6.56545 7.36426 6.49512C7.59704 6.42493 7.82196 6.40527 8.05859 6.40527ZM8.04297 0.977539C8.63589 0.978129 9.1984 1.23994 9.73535 1.7002C10.34 2.21857 10.6611 2.89109 10.6611 3.58301C10.6611 4.27493 10.34 4.94744 9.73535 5.46582C9.20218 5.92285 8.64105 6.18308 8.05273 6.18848C7.46302 6.19381 6.90436 5.94262 6.37891 5.49219C5.15991 4.44719 5.13825 2.73671 6.35059 1.69727C6.88687 1.23755 7.4498 0.977014 8.04297 0.977539Z" fill="white" stroke="#404040" stroke-width="0.677188"/>
</svg>
