<svg width="107" height="66" viewBox="0 0 107 66" fill="none" xmlns="http://www.w3.org/2000/svg">
<path d="M0.834853 25.9509C0.653873 25.8242 0.404461 25.8682 0.277776 26.0492C0.15109 26.2301 0.195104 26.4796 0.376084 26.6062L0.605469 26.2786L0.834853 25.9509ZM52.2617 12.0286L52.6006 12.2411L52.2617 12.0286ZM75.6605 63.685C75.6605 64.8632 76.6156 65.8183 77.7938 65.8183C78.972 65.8183 79.9272 64.8632 79.9272 63.685C79.9272 62.5068 78.972 61.5517 77.7938 61.5517C76.6156 61.5517 75.6605 62.5068 75.6605 63.685ZM1.22305 27.1762C1.40849 27.2963 1.65615 27.2433 1.7762 27.0578C1.89625 26.8724 1.84324 26.6247 1.65779 26.5047L1.44042 26.8404L1.22305 27.1762ZM5.14107 28.4548C4.94217 28.3587 4.703 28.442 4.60686 28.6409C4.51071 28.8398 4.59401 29.0789 4.79291 29.1751L4.96699 28.8149L5.14107 28.4548ZM6.65163 30.0098C6.8556 30.0946 7.08974 29.9981 7.17458 29.7941C7.25943 29.5901 7.16286 29.356 6.95889 29.2711L6.80526 29.6405L6.65163 30.0098ZM10.7292 30.6014C10.5172 30.5395 10.295 30.6611 10.2331 30.8732C10.1711 31.0852 10.2928 31.3073 10.5048 31.3693L10.617 30.9854L10.7292 30.6014ZM12.4787 31.8874C12.6938 31.9375 12.9089 31.8037 12.959 31.5886C13.0092 31.3734 12.8754 31.1583 12.6602 31.1082L12.5695 31.4978L12.4787 31.8874ZM16.5973 31.7929C16.3779 31.7676 16.1795 31.9251 16.1542 32.1446C16.129 32.364 16.2864 32.5624 16.5059 32.5877L16.5516 32.1903L16.5973 31.7929ZM18.5417 32.7612C18.7623 32.7734 18.951 32.6045 18.9632 32.3839C18.9754 32.1634 18.8065 31.9746 18.5859 31.9624L18.5638 32.3618L18.5417 32.7612ZM22.5732 31.9399C22.3528 31.9548 22.1862 32.1456 22.201 32.366C22.2159 32.5864 22.4067 32.753 22.6271 32.7381L22.6001 32.339L22.5732 31.9399ZM24.6624 32.5359C24.8815 32.5071 25.0357 32.3062 25.0069 32.0872C24.9781 31.8682 24.7772 31.714 24.5582 31.7427L24.6103 32.1393L24.6624 32.5359ZM28.4708 30.9715C28.2572 31.028 28.1299 31.247 28.1864 31.4606C28.2429 31.6741 28.4619 31.8014 28.6754 31.7449L28.5731 31.3582L28.4708 30.9715ZM30.6358 31.1584C30.8453 31.0883 30.9584 30.8617 30.8884 30.6522C30.8183 30.4427 30.5917 30.3296 30.3822 30.3996L30.509 30.779L30.6358 31.1584ZM34.0782 28.9C33.879 28.9956 33.795 29.2345 33.8906 29.4337C33.9862 29.6328 34.2251 29.7168 34.4243 29.6212L34.2512 29.2606L34.0782 28.9ZM36.239 28.6822C36.4321 28.5749 36.5016 28.3314 36.3943 28.1383C36.287 27.9452 36.0434 27.8756 35.8503 27.983L36.0447 28.3326L36.239 28.6822ZM39.221 25.8482C39.0412 25.9766 38.9995 26.2264 39.1279 26.4062C39.2563 26.586 39.5061 26.6277 39.6859 26.4993L39.4534 26.1738L39.221 25.8482ZM41.3133 25.2708C41.4861 25.1331 41.5146 24.8815 41.3769 24.7087C41.2393 24.5359 40.9876 24.5074 40.8148 24.645L41.0641 24.9579L41.3133 25.2708ZM43.818 22.0008C43.6593 22.1544 43.6552 22.4077 43.8089 22.5664C43.9626 22.7251 44.2158 22.7291 44.3745 22.5755L44.0963 22.2881L43.818 22.0008ZM45.8115 21.1204C45.9632 20.9599 45.9561 20.7067 45.7956 20.555C45.635 20.4032 45.3819 20.4103 45.2301 20.5709L45.5208 20.8457L45.8115 21.1204ZM47.8545 17.5572C47.716 17.7294 47.7433 17.9812 47.9154 18.1196C48.0876 18.2581 48.3394 18.2308 48.4778 18.0587L48.1662 17.808L47.8545 17.5572ZM49.7248 16.4489C49.8569 16.2718 49.8205 16.0212 49.6435 15.8891C49.4664 15.757 49.2158 15.7934 49.0837 15.9704L49.4042 16.2096L49.7248 16.4489ZM51.374 12.6765C51.2538 12.8618 51.3066 13.1095 51.4919 13.2297C51.6772 13.35 51.9249 13.2972 52.0452 13.1119L51.7096 12.8942L51.374 12.6765ZM53.1473 11.4035C53.2714 11.2208 53.2239 10.972 53.0411 10.8479C52.8584 10.7237 52.6096 10.7713 52.4855 10.954L52.8164 11.1787L53.1473 11.4035ZM54.9813 7.82278C54.8302 7.98398 54.8385 8.23711 54.9997 8.38816C55.1609 8.53922 55.414 8.53099 55.565 8.36979L55.2732 8.09628L54.9813 7.82278ZM56.9393 7.02216C57.1036 6.87441 57.1169 6.6215 56.9692 6.45726C56.8214 6.29302 56.5685 6.27966 56.4043 6.4274L56.6718 6.72478L56.9393 7.02216ZM59.6177 4.0232C59.4294 4.13875 59.3704 4.38505 59.486 4.57334C59.6015 4.76163 59.8478 4.8206 60.0361 4.70506L59.8269 4.36413L59.6177 4.0232ZM61.7358 3.76855C61.9341 3.67111 62.0158 3.43139 61.9183 3.23313C61.8209 3.03486 61.5812 2.95313 61.3829 3.05057L61.5594 3.40956L61.7358 3.76855ZM65.1298 1.62036C64.9171 1.68012 64.7931 1.90097 64.8529 2.11365C64.9127 2.32632 65.1335 2.45029 65.3462 2.39053L65.238 2.00544L65.1298 1.62036ZM67.2326 1.94868C67.4497 1.90763 67.5924 1.69839 67.5513 1.48132C67.5103 1.26425 67.301 1.12156 67.0839 1.16261L67.1583 1.55564L67.2326 1.94868ZM71.07 0.743553C70.8491 0.7492 70.6747 0.932806 70.6803 1.15365C70.686 1.37449 70.8696 1.54894 71.0904 1.54329L71.0802 1.14342L71.07 0.743553ZM73.0314 1.56595C73.2521 1.57659 73.4396 1.40633 73.4502 1.18567C73.4608 0.965014 73.2906 0.777515 73.0699 0.766881L73.0507 1.16642L73.0314 1.56595ZM77.0418 1.23334C76.8246 1.19314 76.6159 1.33665 76.5757 1.55387C76.5355 1.7711 76.679 1.97978 76.8962 2.01998L76.969 1.62666L77.0418 1.23334ZM78.802 2.43454C79.0163 2.48808 79.2335 2.35774 79.287 2.14341C79.3406 1.92909 79.2102 1.71193 78.9959 1.65839L78.899 2.04646L78.802 2.43454ZM82.8052 2.84924C82.5984 2.77154 82.3677 2.87619 82.29 3.08299C82.2123 3.28978 82.317 3.52042 82.5238 3.59812L82.6645 3.22368L82.8052 2.84924ZM84.3365 4.336C84.5388 4.42474 84.7747 4.33269 84.8635 4.13038C84.9522 3.92808 84.8602 3.69213 84.6579 3.60339L84.4972 3.96969L84.3365 4.336ZM88.2201 5.39178C88.0279 5.28271 87.7838 5.35003 87.6747 5.54215C87.5657 5.73426 87.633 5.97842 87.8251 6.08748L88.0226 5.73963L88.2201 5.39178ZM89.4991 7.0941C89.6855 7.21264 89.9327 7.15761 90.0512 6.97119C90.1698 6.78476 90.1147 6.53755 89.9283 6.41902L89.7137 6.75656L89.4991 7.0941ZM93.1826 8.72262C93.0089 8.5862 92.7574 8.61647 92.621 8.79023C92.4846 8.96399 92.5149 9.21544 92.6886 9.35186L92.9356 9.03724L93.1826 8.72262ZM94.1958 10.5972C94.3625 10.7421 94.6151 10.7244 94.7601 10.5577C94.905 10.391 94.8874 10.1383 94.7206 9.99341L94.4582 10.2953L94.1958 10.5972ZM97.5935 12.7601C97.4425 12.5989 97.1894 12.5905 97.0281 12.7415C96.8669 12.8925 96.8585 13.1456 97.0095 13.3069L97.3015 13.0335L97.5935 12.7601ZM98.305 14.7667C98.4472 14.9358 98.6995 14.9576 98.8686 14.8155C99.0377 14.6734 99.0596 14.421 98.9174 14.2519L98.6112 14.5093L98.305 14.7667ZM101.312 17.4476C101.19 17.2635 100.941 17.2132 100.757 17.3353C100.573 17.4573 100.523 17.7055 100.645 17.8897L100.978 17.6686L101.312 17.4476ZM101.671 19.5434C101.782 19.7346 102.026 19.7998 102.218 19.6891C102.409 19.5784 102.474 19.3337 102.363 19.1425L102.017 19.3429L101.671 19.5434ZM104.14 22.7249C104.055 22.5208 103.821 22.4241 103.617 22.5088C103.413 22.5935 103.316 22.8276 103.401 23.0316L103.77 22.8782L104.14 22.7249ZM104.083 24.8545C104.153 25.0641 104.38 25.1772 104.589 25.1072C104.799 25.0372 104.912 24.8106 104.842 24.6011L104.463 24.7278L104.083 24.8545ZM105.821 28.4833C105.784 28.2656 105.577 28.1192 105.359 28.1564C105.142 28.1936 104.995 28.4003 105.032 28.6181L105.427 28.5507L105.821 28.4833ZM105.281 30.5408C105.301 30.7608 105.495 30.9235 105.715 30.9042C105.935 30.8848 106.098 30.6907 106.078 30.4706L105.68 30.5057L105.281 30.5408ZM106.092 34.4794C106.11 34.2592 105.946 34.0661 105.726 34.0481C105.506 34.03 105.313 34.1939 105.295 34.4141L105.694 34.4467L106.092 34.4794ZM105.054 36.3333C105.018 36.5511 105.164 36.7576 105.382 36.7944C105.6 36.8312 105.806 36.6845 105.843 36.4667L105.449 36.4L105.054 36.3333ZM104.846 40.3428C104.918 40.1341 104.808 39.9061 104.599 39.8335C104.391 39.7609 104.163 39.8712 104.09 40.0798L104.468 40.2113L104.846 40.3428ZM103.371 41.9053C103.282 42.1075 103.373 42.3436 103.575 42.4327C103.777 42.5218 104.014 42.4302 104.103 42.2281L103.737 42.0667L103.371 41.9053ZM102.222 45.7555C102.34 45.5685 102.283 45.3216 102.096 45.204C101.909 45.0864 101.662 45.1427 101.545 45.3297L101.884 45.5426L102.222 45.7555ZM100.471 46.9191C100.342 47.098 100.382 47.3481 100.561 47.4776C100.74 47.6071 100.99 47.5669 101.119 47.388L100.795 47.1535L100.471 46.9191ZM98.5941 50.4701C98.7436 50.3075 98.7329 50.0544 98.5703 49.9049C98.4077 49.7554 98.1546 49.7661 98.0051 49.9287L98.2996 50.1994L98.5941 50.4701ZM96.6201 51.3567C96.4622 51.5113 96.4595 51.7645 96.614 51.9224C96.7686 52.0802 97.0218 52.0829 97.1797 51.9284L96.8999 51.6426L96.6201 51.3567ZM94.2292 54.5596C94.4004 54.4199 94.426 54.168 94.2863 53.9968C94.1467 53.8256 93.8947 53.8 93.7235 53.9397L93.9764 54.2496L94.2292 54.5596ZM92.1754 55.1509C91.9987 55.2836 91.963 55.5343 92.0957 55.711C92.2283 55.8876 92.4791 55.9233 92.6557 55.7907L92.4155 55.4708L92.1754 55.1509ZM89.3833 58.0661C89.5689 57.9463 89.6223 57.6988 89.5025 57.5131C89.3827 57.3275 89.1352 57.2741 88.9495 57.3939L89.1664 57.73L89.3833 58.0661ZM87.3108 58.4154C87.1215 58.5293 87.0605 58.7752 87.1745 58.9644C87.2885 59.1536 87.5343 59.2146 87.7235 59.1007L87.5171 58.758L87.3108 58.4154ZM84.2367 61.0656C84.432 60.9625 84.5068 60.7205 84.4037 60.5251C84.3006 60.3298 84.0586 60.255 83.8632 60.3581L84.05 60.7119L84.2367 61.0656ZM82.1476 61.2365C81.9497 61.3348 81.869 61.5749 81.9673 61.7727C82.0656 61.9706 82.3056 62.0513 82.5035 61.953L82.3255 61.5948L82.1476 61.2365ZM78.8986 63.6407C79.1007 63.5515 79.1922 63.3153 79.103 63.1132C79.0137 62.9111 78.7776 62.8196 78.5755 62.9088L78.737 63.2748L78.8986 63.6407ZM0.605469 26.2786L0.376084 26.6062C0.648099 26.7967 0.930562 26.9869 1.22305 27.1762L1.44042 26.8404L1.65779 26.5047C1.37324 26.3204 1.09879 26.1356 0.834853 25.9509L0.605469 26.2786ZM4.96699 28.8149L4.79291 29.1751C5.38951 29.4635 6.00972 29.7427 6.65163 30.0098L6.80526 29.6405L6.95889 29.2711C6.33088 29.0099 5.72431 28.7367 5.14107 28.4548L4.96699 28.8149ZM10.617 30.9854L10.5048 31.3693C11.1485 31.5574 11.8069 31.7308 12.4787 31.8874L12.5695 31.4978L12.6602 31.1082C12.0032 30.9551 11.359 30.7854 10.7292 30.6014L10.617 30.9854ZM16.5516 32.1903L16.5059 32.5877C17.1755 32.6647 17.8545 32.7232 18.5417 32.7612L18.5638 32.3618L18.5859 31.9624C17.9149 31.9253 17.2516 31.8682 16.5973 31.7929L16.5516 32.1903ZM22.6001 32.339L22.6271 32.7381C23.3005 32.6926 23.9793 32.6257 24.6624 32.5359L24.6103 32.1393L24.5582 31.7427C23.892 31.8303 23.23 31.8955 22.5732 31.9399L22.6001 32.339ZM28.5731 31.3582L28.6754 31.7449C29.327 31.5725 29.9807 31.3774 30.6358 31.1584L30.509 30.779L30.3822 30.3996C29.7433 30.6132 29.1059 30.8034 28.4708 30.9715L28.5731 31.3582ZM34.2512 29.2606L34.4243 29.6212C35.0295 29.3308 35.6346 29.0181 36.239 28.6822L36.0447 28.3326L35.8503 27.983C35.2599 28.3111 34.669 28.6165 34.0782 28.9L34.2512 29.2606ZM39.4534 26.1738L39.6859 26.4993C40.2301 26.1106 40.7727 25.7014 41.3133 25.2708L41.0641 24.9579L40.8148 24.645C40.2851 25.067 39.7537 25.4678 39.221 25.8482L39.4534 26.1738ZM44.0963 22.2881L44.3745 22.5755C44.856 22.1093 45.3351 21.6244 45.8115 21.1204L45.5208 20.8457L45.2301 20.5709C44.7617 21.0664 44.2909 21.5429 43.818 22.0008L44.0963 22.2881ZM48.1662 17.808L48.4778 18.0587C48.8962 17.5385 49.312 17.0021 49.7248 16.4489L49.4042 16.2096L49.0837 15.9704C48.6765 16.516 48.2667 17.0448 47.8545 17.5572L48.1662 17.808ZM51.7096 12.8942L52.0452 13.1119C52.231 12.8254 52.4162 12.5351 52.6006 12.2411L52.2617 12.0286L51.9228 11.816C51.7406 12.1066 51.5576 12.3934 51.374 12.6765L51.7096 12.8942ZM52.2617 12.0286L52.6006 12.2411C52.7797 11.9555 52.9619 11.6764 53.1473 11.4035L52.8164 11.1787L52.4855 10.954C52.2946 11.235 52.107 11.5223 51.9228 11.816L52.2617 12.0286ZM55.2732 8.09628L55.565 8.36979C56.0113 7.89356 56.4697 7.44459 56.9393 7.02216L56.6718 6.72478L56.4043 6.4274C55.9176 6.86521 55.4429 7.33012 54.9813 7.82278L55.2732 8.09628ZM59.8269 4.36413L60.0361 4.70506C60.5922 4.36381 61.1592 4.05193 61.7358 3.76855L61.5594 3.40956L61.3829 3.05057C60.7841 3.34489 60.1952 3.66881 59.6177 4.0232L59.8269 4.36413ZM65.238 2.00544L65.3462 2.39053C65.9679 2.21584 66.5971 2.06884 67.2326 1.94868L67.1583 1.55564L67.0839 1.16261C66.4262 1.28699 65.7743 1.43925 65.1298 1.62036L65.238 2.00544ZM71.0802 1.14342L71.0904 1.54329C71.7344 1.52682 72.3818 1.53465 73.0314 1.56595L73.0507 1.16642L73.0699 0.766881C72.4012 0.734655 71.7341 0.72657 71.07 0.743553L71.0802 1.14342ZM76.969 1.62666L76.8962 2.01998C77.5323 2.13769 78.168 2.27613 78.802 2.43454L78.899 2.04646L78.9959 1.65839C78.3462 1.49608 77.6945 1.35412 77.0418 1.23334L76.969 1.62666ZM82.6645 3.22368L82.5238 3.59812C83.1322 3.82675 83.7368 4.07296 84.3365 4.336L84.4972 3.96969L84.6579 3.60339C84.0452 3.33465 83.4273 3.08301 82.8052 2.84924L82.6645 3.22368ZM88.0226 5.73963L87.8251 6.08748C88.3904 6.40843 88.9488 6.74421 89.4991 7.0941L89.7137 6.75656L89.9283 6.41902C89.3668 6.062 88.7971 5.71934 88.2201 5.39178L88.0226 5.73963ZM92.9356 9.03724L92.6886 9.35186C93.2015 9.75456 93.7043 10.1699 94.1958 10.5972L94.4582 10.2953L94.7206 9.99341C94.219 9.55735 93.706 9.13352 93.1826 8.72262L92.9356 9.03724ZM97.3015 13.0335L97.0095 13.3069C97.4553 13.7831 97.8875 14.2699 98.305 14.7667L98.6112 14.5093L98.9174 14.2519C98.4906 13.7441 98.0489 13.2466 97.5935 12.7601L97.3015 13.0335ZM100.978 17.6686L100.645 17.8897C101.005 18.4325 101.347 18.984 101.671 19.5434L102.017 19.3429L102.363 19.1425C102.031 18.5688 101.68 18.0036 101.312 17.4476L100.978 17.6686ZM103.77 22.8782L103.401 23.0316C103.65 23.6329 103.878 24.2408 104.083 24.8545L104.463 24.7278L104.842 24.6011C104.631 23.9689 104.396 23.3433 104.14 22.7249L103.77 22.8782ZM105.427 28.5507L105.032 28.6181C105.141 29.255 105.225 29.8961 105.281 30.5408L105.68 30.5057L106.078 30.4706C106.02 29.8039 105.933 29.1412 105.821 28.4833L105.427 28.5507ZM105.694 34.4467L105.295 34.4141C105.243 35.0521 105.163 35.6921 105.054 36.3333L105.449 36.4L105.843 36.4667C105.955 35.8028 106.038 35.1401 106.092 34.4794L105.694 34.4467ZM104.468 40.2113L104.09 40.0798C103.878 40.6885 103.639 41.2972 103.371 41.9053L103.737 42.0667L104.103 42.2281C104.379 41.6005 104.627 40.9719 104.846 40.3428L104.468 40.2113ZM101.884 45.5426L101.545 45.3297C101.211 45.8609 100.853 46.3909 100.471 46.9191L100.795 47.1535L101.119 47.388C101.511 46.846 101.879 46.3017 102.222 45.7555L101.884 45.5426ZM98.2996 50.1994L98.0051 49.9287C97.5654 50.407 97.1039 50.8831 96.6201 51.3567L96.8999 51.6426L97.1797 51.9284C97.6733 51.4452 98.1446 50.959 98.5941 50.4701L98.2996 50.1994ZM93.9764 54.2496L93.7235 53.9397C93.2255 54.346 92.7096 54.7498 92.1754 55.1509L92.4155 55.4708L92.6557 55.7907C93.1983 55.3832 93.7227 54.9728 94.2292 54.5596L93.9764 54.2496ZM89.1664 57.73L88.9495 57.3939C88.418 57.7369 87.8718 58.0774 87.3108 58.4154L87.5171 58.758L87.7235 59.1007C88.2915 58.7586 88.8447 58.4137 89.3833 58.0661L89.1664 57.73ZM84.05 60.7119L83.8632 60.3581C83.3039 60.6533 82.7321 60.9462 82.1476 61.2365L82.3255 61.5948L82.5035 61.953C83.0937 61.6598 83.6714 61.364 84.2367 61.0656L84.05 60.7119ZM78.737 63.2748L78.5755 62.9088C78.2655 63.0457 77.9525 63.1818 77.6363 63.3173L77.7938 63.685L77.9514 64.0527C78.2702 63.916 78.5859 63.7787 78.8986 63.6407L78.737 63.2748Z" fill="#FFFEA3"/>
</svg>
