<svg width="81" height="41" viewBox="0 0 81 41" fill="none" xmlns="http://www.w3.org/2000/svg">
<path d="M80.5026 3.88977L74.0469 3.88977" stroke="#FFFEA3" stroke-linecap="round" stroke-linejoin="round" stroke-dasharray="2.3 3"/>
<path d="M77.2798 0.634888L77.2798 7.13489" stroke="#FFFEA3" stroke-linecap="round" stroke-linejoin="round" stroke-dasharray="2.3 3"/>
<path d="M75.0981 18.3454C75.2875 18.2317 75.349 17.986 75.2353 17.7966C75.1217 17.6071 74.876 17.5457 74.6866 17.6593L74.8923 18.0023L75.0981 18.3454ZM38.3416 10.4398L38.0027 10.6524L38.3416 10.4398ZM3.47775 38.1665C3.47775 39.3447 4.43288 40.2999 5.61108 40.2999C6.78929 40.2999 7.74442 39.3447 7.74442 38.1665C7.74442 36.9883 6.78929 36.0332 5.61108 36.0332C4.43288 36.0332 3.47775 36.9883 3.47775 38.1665ZM5.38656 37.0602C5.27146 36.8717 5.02529 36.8121 4.83673 36.9272C4.64817 37.0423 4.58863 37.2885 4.70373 37.477L5.04514 37.2686L5.38656 37.0602ZM2.73854 33.7698C2.82923 33.9713 3.06606 34.061 3.26749 33.9703C3.46893 33.8796 3.5587 33.6428 3.468 33.4414L3.10327 33.6056L2.73854 33.7698ZM2.6917 31.5408C2.61565 31.3334 2.38587 31.2269 2.17845 31.3029C1.97104 31.379 1.86455 31.6088 1.9406 31.8162L2.31615 31.6785L2.6917 31.5408ZM0.807059 27.7656C0.848847 27.9825 1.05858 28.1245 1.2755 28.0827C1.49243 28.0409 1.6344 27.8312 1.59262 27.6143L1.19984 27.6899L0.807059 27.7656ZM1.29614 25.5999C1.27386 25.3801 1.07762 25.22 0.85783 25.2423C0.638043 25.2646 0.477936 25.4608 0.50022 25.6806L0.89818 25.6402L1.29614 25.5999ZM0.475068 21.4525C0.454857 21.6725 0.616808 21.8672 0.836796 21.8874C1.05678 21.9076 1.2515 21.7457 1.27171 21.5257L0.87339 21.4891L0.475068 21.4525ZM1.55956 19.5087C1.60176 19.2919 1.46017 19.0819 1.24332 19.0397C1.02648 18.9975 0.816483 19.1391 0.77429 19.356L1.16693 19.4324L1.55956 19.5087ZM1.99774 15.3076C1.91284 15.5116 2.00934 15.7457 2.21329 15.8306C2.41724 15.9155 2.6514 15.819 2.7363 15.6151L2.36702 15.4613L1.99774 15.3076ZM3.61189 13.7757C3.71659 13.5812 3.64377 13.3386 3.44925 13.2339C3.25472 13.1292 3.01215 13.202 2.90745 13.3966L3.25967 13.5861L3.61189 13.7757ZM5.2599 9.88605C5.12007 10.0571 5.14537 10.3091 5.31641 10.4489C5.48744 10.5887 5.73944 10.5634 5.87926 10.3924L5.56958 10.1392L5.2599 9.88605ZM7.24236 8.87407C7.39732 8.71662 7.3953 8.46336 7.23785 8.3084C7.0804 8.15344 6.82714 8.15546 6.67218 8.31291L6.95727 8.59349L7.24236 8.87407ZM9.89167 5.58166C9.71118 5.70904 9.66813 5.95863 9.79552 6.13911C9.92291 6.3196 10.1725 6.36265 10.353 6.23526L10.1223 5.90846L9.89167 5.58166ZM12.0716 5.13238C12.2627 5.02138 12.3275 4.77656 12.2165 4.58555C12.1055 4.39455 11.8607 4.3297 11.6697 4.44071L11.8707 4.78654L12.0716 5.13238ZM15.4942 2.65105C15.2865 2.72638 15.1792 2.9558 15.2545 3.16348C15.3299 3.37115 15.5593 3.47843 15.767 3.4031L15.6306 3.02708L15.4942 2.65105ZM17.7153 2.79607C17.9291 2.74022 18.057 2.52168 18.0012 2.30794C17.9454 2.0942 17.7268 1.9662 17.5131 2.02205L17.6142 2.40906L17.7153 2.79607ZM21.6881 1.35291C21.4675 1.36601 21.2994 1.55541 21.3125 1.77593C21.3256 1.99646 21.515 2.1646 21.7355 2.1515L21.7118 1.7522L21.6881 1.35291ZM23.7703 2.13702C23.991 2.14719 24.1781 1.97654 24.1883 1.75586C24.1985 1.53518 24.0278 1.34804 23.8071 1.33787L23.7887 1.73744L23.7703 2.13702ZM27.9909 2.00318C27.7782 1.9437 27.5575 2.06795 27.498 2.28071C27.4385 2.49347 27.5628 2.71416 27.7755 2.77364L27.8832 2.38841L27.9909 2.00318ZM29.6927 3.43487C29.8968 3.51929 30.1308 3.42224 30.2152 3.21809C30.2996 3.01395 30.2026 2.78002 29.9984 2.69559L29.8456 3.06523L29.6927 3.43487ZM33.6922 4.77726C33.5141 4.64646 33.2638 4.68475 33.133 4.86279C33.0022 5.04082 33.0405 5.29117 33.2185 5.42197L33.4553 5.09961L33.6922 4.77726ZM34.7801 6.7168C34.9418 6.86738 35.1949 6.85843 35.3455 6.69679C35.496 6.53515 35.4871 6.28204 35.3254 6.13146L35.0528 6.42413L34.7801 6.7168ZM38.0878 9.33134C37.9615 9.15011 37.7122 9.10561 37.5309 9.23194C37.3497 9.35827 37.3052 9.6076 37.4315 9.78882L37.7597 9.56008L38.0878 9.33134ZM38.5549 11.5041C38.6779 11.6876 38.9264 11.7367 39.1099 11.6137C39.2934 11.4908 39.3425 11.2423 39.2195 11.0588L38.8872 11.2815L38.5549 11.5041ZM41.6015 14.1598C41.4553 13.9943 41.2025 13.9786 41.0369 14.1249C40.8713 14.2711 40.8557 14.5239 41.0019 14.6895L41.3017 14.4247L41.6015 14.1598ZM42.3875 16.1454C42.5458 16.2995 42.7991 16.2961 42.9532 16.1378C43.1073 15.9796 43.1039 15.7263 42.9457 15.5722L42.6666 15.8588L42.3875 16.1454ZM45.9557 18.0596C45.7741 17.9338 45.5249 17.979 45.3991 18.1605C45.2732 18.3421 45.3184 18.5913 45.5 18.7172L45.7278 18.3884L45.9557 18.0596ZM47.2061 19.792C47.3981 19.9014 47.6423 19.8344 47.7517 19.6425C47.861 19.4505 47.7941 19.2063 47.6021 19.0969L47.4041 19.4445L47.2061 19.792ZM51.1455 20.713C50.9371 20.6397 50.7088 20.7493 50.6355 20.9577C50.5623 21.1661 50.6718 21.3945 50.8802 21.4677L51.0129 21.0904L51.1455 20.713ZM52.8133 22.0526C53.0274 22.1072 53.2452 21.978 53.2999 21.764C53.3545 21.5499 53.2253 21.3321 53.0113 21.2775L52.9123 21.665L52.8133 22.0526ZM56.8577 21.921C56.6376 21.9024 56.4441 22.0657 56.4255 22.2859C56.4069 22.506 56.5702 22.6995 56.7904 22.7181L56.8241 22.3196L56.8577 21.921ZM58.8034 22.8104C59.0243 22.8122 59.2048 22.6345 59.2066 22.4136C59.2084 22.1927 59.0307 22.0122 58.8098 22.0104L58.8066 22.4104L58.8034 22.8104ZM62.7133 21.7645C62.4943 21.7934 62.3401 21.9943 62.369 22.2133C62.3978 22.4324 62.5988 22.5865 62.8178 22.5577L62.7656 22.1611L62.7133 21.7645ZM64.8037 22.2309C65.0204 22.1881 65.1615 21.9778 65.1188 21.761C65.076 21.5443 64.8657 21.4032 64.6489 21.446L64.7263 21.8384L64.8037 22.2309ZM68.4408 20.457C68.2307 20.5253 68.1158 20.751 68.1841 20.9611C68.2524 21.1711 68.4781 21.2861 68.6882 21.2177L68.5645 20.8374L68.4408 20.457ZM70.5809 20.5402C70.7866 20.4597 70.888 20.2276 70.8075 20.0219C70.7269 19.8162 70.4949 19.7148 70.2892 19.7953L70.435 20.1678L70.5809 20.5402ZM73.8413 18.1439C73.6476 18.2501 73.5767 18.4933 73.6829 18.687C73.7891 18.8807 74.0323 18.9516 74.226 18.8454L74.0337 18.4946L73.8413 18.1439ZM5.61108 38.1665L5.94643 37.9485C5.75338 37.6516 5.56679 37.3555 5.38656 37.0602L5.04514 37.2686L4.70373 37.477C4.88796 37.7789 5.0786 38.0814 5.27574 38.3846L5.61108 38.1665ZM3.10327 33.6056L3.468 33.4414C3.18036 32.8025 2.92198 32.1688 2.6917 31.5408L2.31615 31.6785L1.9406 31.8162C2.17759 32.4625 2.44322 33.1139 2.73854 33.7698L3.10327 33.6056ZM1.19984 27.6899L1.59262 27.6143C1.4616 26.9342 1.36332 26.2625 1.29614 25.5999L0.89818 25.6402L0.50022 25.6806C0.569829 26.3671 0.671592 27.0624 0.807059 27.7656L1.19984 27.6899ZM0.87339 21.4891L1.27171 21.5257C1.33467 20.8405 1.43132 20.1678 1.55956 19.5087L1.16693 19.4324L0.77429 19.356C0.640944 20.0413 0.540485 20.7405 0.475068 21.4525L0.87339 21.4891ZM2.36702 15.4613L2.7363 15.6151C2.99874 14.9846 3.2914 14.3711 3.61189 13.7757L3.25967 13.5861L2.90745 13.3966C2.57459 14.015 2.27051 14.6524 1.99774 15.3076L2.36702 15.4613ZM5.56958 10.1392L5.87926 10.3924C6.31063 9.86474 6.76585 9.35823 7.24236 8.87407L6.95727 8.59349L6.67218 8.31291C6.17869 8.81433 5.70704 9.33911 5.2599 9.88605L5.56958 10.1392ZM10.1223 5.90846L10.353 6.23526C10.9104 5.84185 11.4842 5.47381 12.0716 5.13238L11.8707 4.78654L11.6697 4.44071C11.0619 4.79392 10.4683 5.17465 9.89167 5.58166L10.1223 5.90846ZM15.6306 3.02708L15.767 3.4031C16.4089 3.17024 17.0593 2.96748 17.7153 2.79607L17.6142 2.40906L17.5131 2.02205C16.8329 2.19977 16.159 2.4099 15.4942 2.65105L15.6306 3.02708ZM21.7118 1.7522L21.7355 2.1515C22.4149 2.11111 23.0942 2.10586 23.7703 2.13702L23.7887 1.73744L23.8071 1.33787C23.1023 1.30538 22.3949 1.31089 21.6881 1.35291L21.7118 1.7522ZM27.8832 2.38841L27.7755 2.77364C28.4243 2.955 29.0643 3.17498 29.6927 3.43487L29.8456 3.06523L29.9984 2.69559C29.34 2.42331 28.6698 2.19298 27.9909 2.00318L27.8832 2.38841ZM33.4553 5.09961L33.2185 5.42197C33.7545 5.81574 34.2758 6.24696 34.7801 6.7168L35.0528 6.42413L35.3254 6.13146C34.7985 5.64056 34.2533 5.18951 33.6922 4.77726L33.4553 5.09961ZM37.7597 9.56008L37.4315 9.78882C37.6263 10.0683 37.8168 10.3561 38.0027 10.6524L38.3416 10.4398L38.6804 10.2273C38.4877 9.92014 38.2901 9.62152 38.0878 9.33134L37.7597 9.56008ZM38.3416 10.4398L38.0027 10.6524C38.1847 10.9425 38.3688 11.2263 38.5549 11.5041L38.8872 11.2815L39.2195 11.0588C39.0379 10.7877 38.8581 10.5106 38.6804 10.2273L38.3416 10.4398ZM41.3017 14.4247L41.0019 14.6895C41.4556 15.203 41.9177 15.6879 42.3875 16.1454L42.6666 15.8588L42.9457 15.5722C42.4904 15.1289 42.0421 14.6585 41.6015 14.1598L41.3017 14.4247ZM45.7278 18.3884L45.5 18.7172C46.0622 19.1068 46.6314 19.4646 47.2061 19.792L47.4041 19.4445L47.6021 19.0969C47.0478 18.7811 46.4985 18.4359 45.9557 18.0596L45.7278 18.3884ZM51.0129 21.0904L50.8802 21.4677C51.5224 21.6934 52.1673 21.8877 52.8133 22.0526L52.9123 21.665L53.0113 21.2775C52.3874 21.1182 51.765 20.9307 51.1455 20.713L51.0129 21.0904ZM56.8241 22.3196L56.7904 22.7181C57.465 22.7751 58.1367 22.805 58.8034 22.8104L58.8066 22.4104L58.8098 22.0104C58.1627 22.0052 57.5114 21.9762 56.8577 21.921L56.8241 22.3196ZM62.7656 22.1611L62.8178 22.5577C63.4906 22.469 64.1534 22.3591 64.8037 22.2309L64.7263 21.8384L64.6489 21.446C64.0147 21.571 63.3687 21.6782 62.7133 21.7645L62.7656 22.1611ZM68.5645 20.8374L68.6882 21.2177C69.3414 21.0053 69.9733 20.7781 70.5809 20.5402L70.435 20.1678L70.2892 19.7953C69.696 20.0276 69.0788 20.2495 68.4408 20.457L68.5645 20.8374ZM74.0337 18.4946L74.226 18.8454C74.5292 18.6791 74.8201 18.5121 75.0981 18.3454L74.8923 18.0023L74.6866 17.6593C74.4177 17.8206 74.1357 17.9825 73.8413 18.1439L74.0337 18.4946Z" fill="#FFFEA3"/>
</svg>
