<svg width="42" height="30" viewBox="0 0 42 30" fill="none" xmlns="http://www.w3.org/2000/svg">
<path d="M20.357 7.58188H21.9297V11.897H24.6146V13.3162H21.9297V15.5025C21.9297 16.3847 22.0767 17.0495 22.3708 17.497C22.6776 17.9445 23.1954 18.1682 23.9242 18.1682H24.4036V19.5874H23.905C22.7415 19.5874 21.8593 19.2486 21.2584 18.571C20.6575 17.8934 20.357 16.8897 20.357 15.56V7.58188ZM18.7653 18.1682V19.5874H8.06383V18.1682H11.1707C11.0428 18.0276 10.947 17.855 10.883 17.6504C10.8191 17.4331 10.7871 17.1518 10.7871 16.8066V11.9737H12.3597V16.8833C12.3597 17.3308 12.4492 17.6568 12.6282 17.8614C12.82 18.066 13.1077 18.1682 13.4913 18.1682H18.7653ZM15.7351 28.0834H22.1406V29.5026H15.0255C14.7442 29.5026 14.5269 29.4258 14.3735 29.2724C14.2328 29.1318 14.1625 28.9208 14.1625 28.6395V24.6696H20.2036V22.7327H14.1625V21.3135H20.9132C21.1945 21.3135 21.4055 21.3902 21.5461 21.5436C21.6995 21.6842 21.7762 21.8952 21.7762 22.1765V26.0697H15.7351V28.0834ZM40.314 19.5874C39.3807 19.5235 38.6328 19.1208 38.0702 18.3792C37.5076 17.6376 37.2264 16.5317 37.2264 15.0614V7.58188H38.799V14.7162C38.799 15.739 38.9268 16.5253 39.1825 17.0751C39.451 17.6249 39.8282 17.9892 40.314 18.1682V19.5874ZM23.9742 18.1682C24.7158 18.1043 25.3167 17.8166 25.777 17.3052C26.2373 16.7938 26.4674 16.1481 26.4674 15.3682V11.3408H28.0592V15.3682C28.0592 16.1098 28.2062 16.7299 28.5003 17.2285C28.7943 17.7144 29.1843 17.9829 29.6702 18.034C30.156 17.9829 30.546 17.7144 30.84 17.2285C31.1341 16.7299 31.2811 16.1098 31.2811 15.3682V11.3408H32.8729V15.3682C32.8729 16.1226 33.0903 16.7491 33.525 17.2477C33.9597 17.7463 34.535 18.0276 35.251 18.0915V19.5107C34.5862 19.4724 33.9597 19.2678 33.3715 18.897C32.7962 18.5135 32.3679 18.0404 32.0866 17.4778C31.882 18.0532 31.556 18.5198 31.1085 18.8778C30.661 19.2358 30.1816 19.4212 29.6702 19.434C29.1332 19.4212 28.6409 19.2358 28.1934 18.8778C27.7587 18.5198 27.4519 18.0532 27.2729 17.4778C27.0683 18.066 26.6592 18.5582 26.0455 18.9545C25.4446 19.3381 24.7541 19.5491 23.9742 19.5874V18.1682Z" fill="#404040"/>
<path d="M8.08105 4.60291L0.834053 4.60291" stroke="#404040" stroke-width="1.12257" stroke-linecap="round" stroke-linejoin="round" stroke-dasharray="2.58 3.37"/>
<path d="M4.46487 0.950171L4.46487 8.24688" stroke="#404040" stroke-width="1.12257" stroke-linecap="round" stroke-linejoin="round" stroke-dasharray="2.58 3.37"/>
</svg>
