<svg width="23" height="19" viewBox="0 0 23 19" fill="none" xmlns="http://www.w3.org/2000/svg">
<mask id="path-1-outside-1_2375_2456" maskUnits="userSpaceOnUse" x="0.633789" y="0.508545" width="23" height="19" fill="black">
<rect fill="white" x="0.633789" y="0.508545" width="23" height="19"/>
<path d="M5.80598 9.46292C8.71055 9.46292 10.7334 11.0708 10.7334 13.8716C10.7334 16.6725 8.71055 18.2803 6.11719 18.2803C2.95329 18.2803 1.39727 15.8945 1.39727 12.0563C1.39727 6.03968 4.71677 1.99404 10.2147 1.2679V4.89861C7.62134 5.26168 5.80598 7.33636 5.80598 9.46292ZM17.2168 9.46292C20.1213 9.46292 22.1441 11.0708 22.1441 13.8716C22.1441 16.6725 20.1213 18.2803 17.528 18.2803C14.3641 18.2803 12.8081 15.8945 12.8081 12.0563C12.8081 6.03968 16.1276 1.99404 21.6255 1.2679V4.89861C19.0321 5.26168 17.2168 7.33636 17.2168 9.46292Z"/>
</mask>
<path d="M5.80598 9.46292C8.71055 9.46292 10.7334 11.0708 10.7334 13.8716C10.7334 16.6725 8.71055 18.2803 6.11719 18.2803C2.95329 18.2803 1.39727 15.8945 1.39727 12.0563C1.39727 6.03968 4.71677 1.99404 10.2147 1.2679V4.89861C7.62134 5.26168 5.80598 7.33636 5.80598 9.46292ZM17.2168 9.46292C20.1213 9.46292 22.1441 11.0708 22.1441 13.8716C22.1441 16.6725 20.1213 18.2803 17.528 18.2803C14.3641 18.2803 12.8081 15.8945 12.8081 12.0563C12.8081 6.03968 16.1276 1.99404 21.6255 1.2679V4.89861C19.0321 5.26168 17.2168 7.33636 17.2168 9.46292Z" fill="white"/>
<path d="M5.80598 9.46292H5.31598V9.95292H5.80598V9.46292ZM10.2147 1.2679H10.7047V0.708929L10.1505 0.78212L10.2147 1.2679ZM10.2147 4.89861L10.2826 5.38387L10.7047 5.32479V4.89861H10.2147ZM17.2168 9.46292H16.7268V9.95292H17.2168V9.46292ZM21.6255 1.2679H22.1155V0.708929L21.5613 0.78212L21.6255 1.2679ZM21.6255 4.89861L21.6934 5.38387L22.1155 5.32479V4.89861H21.6255ZM5.80598 9.46292V9.95292C7.17167 9.95292 8.27951 10.3307 9.03818 10.9874C9.78818 11.6367 10.2434 12.5978 10.2434 13.8716H10.7334H11.2234C11.2234 12.3446 10.6671 11.1014 9.67959 10.2465C8.70071 9.3991 7.34487 8.97292 5.80598 8.97292V9.46292ZM10.7334 13.8716H10.2434C10.2434 15.1464 9.78708 16.1122 9.06874 16.7632C8.34428 17.4198 7.31456 17.7903 6.11719 17.7903V18.2803V18.7703C7.51317 18.7703 8.79155 18.337 9.72683 17.4894C10.6682 16.6362 11.2234 15.3977 11.2234 13.8716H10.7334ZM6.11719 18.2803V17.7903C4.6747 17.7903 3.64935 17.2555 2.96674 16.319C2.26685 15.3588 1.88727 13.9203 1.88727 12.0563H1.39727H0.907274C0.907274 14.0305 1.30571 15.7039 2.1748 16.8963C3.06117 18.1123 4.39578 18.7703 6.11719 18.7703V18.2803ZM1.39727 12.0563H1.88727C1.88727 9.13778 2.6915 6.73868 4.1235 4.98846C5.55291 3.2414 7.63889 2.10236 10.2789 1.75368L10.2147 1.2679L10.1505 0.78212C7.29258 1.15959 4.96985 2.40643 3.36502 4.36788C1.76279 6.32617 0.907274 8.95818 0.907274 12.0563H1.39727ZM10.2147 1.2679H9.7247V4.89861H10.2147H10.7047V1.2679H10.2147ZM10.2147 4.89861L10.1468 4.41334C7.34405 4.80572 5.31598 7.0604 5.31598 9.46292H5.80598H6.29598C6.29598 7.61233 7.89862 5.71764 10.2826 5.38387L10.2147 4.89861ZM17.2168 9.46292V9.95292C18.5824 9.95292 19.6903 10.3307 20.449 10.9874C21.199 11.6367 21.6542 12.5978 21.6542 13.8716H22.1441H22.6341C22.6341 12.3446 22.0779 11.1014 21.0904 10.2465C20.1115 9.3991 18.7556 8.97292 17.2168 8.97292V9.46292ZM22.1441 13.8716H21.6542C21.6542 15.1464 21.1979 16.1122 20.4795 16.7632C19.7551 17.4198 18.7253 17.7903 17.528 17.7903V18.2803V18.7703C18.924 18.7703 20.2023 18.337 21.1376 17.4894C22.079 16.6362 22.6341 15.3977 22.6341 13.8716H22.1441ZM17.528 18.2803V17.7903C16.0855 17.7903 15.0601 17.2555 14.3775 16.319C13.6776 15.3588 13.2981 13.9203 13.2981 12.0563H12.8081H12.3181C12.3181 14.0305 12.7165 15.7039 13.5856 16.8963C14.4719 18.1123 15.8066 18.7703 17.528 18.7703V18.2803ZM12.8081 12.0563H13.2981C13.2981 9.13778 14.1023 6.73868 15.5343 4.98846C16.9637 3.2414 19.0497 2.10236 21.6896 1.75368L21.6255 1.2679L21.5613 0.78212C18.7034 1.15959 16.3806 2.40643 14.7758 4.36788C13.1736 6.32617 12.3181 8.95818 12.3181 12.0563H12.8081ZM21.6255 1.2679H21.1355V4.89861H21.6255H22.1155V1.2679H21.6255ZM21.6255 4.89861L21.5575 4.41334C18.7548 4.80572 16.7268 7.0604 16.7268 9.46292H17.2168H17.7068C17.7068 7.61233 19.3094 5.71764 21.6934 5.38387L21.6255 4.89861Z" fill="#404040" mask="url(#path-1-outside-1_2375_2456)"/>
</svg>
