<svg width="40" height="29" viewBox="0 0 40 29" fill="none" xmlns="http://www.w3.org/2000/svg">
<path d="M15.842 16.7998C15.0621 16.7998 14.3653 16.64 13.7516 16.3204C13.1506 16.0007 12.6776 15.5596 12.3324 14.9971C12 14.4217 11.8337 13.7761 11.8337 13.0601C11.8337 12.3441 12 11.7048 12.3324 11.1423C12.6776 10.5669 13.1506 10.1194 13.7516 9.7998C14.3653 9.48016 15.0621 9.32034 15.842 9.32034H19.39V10.7395H15.842C15.126 10.7395 14.5379 10.9569 14.0776 11.3916C13.6301 11.8263 13.4064 12.3825 13.4064 13.0601C13.4064 13.7377 13.6301 14.2939 14.0776 14.7286C14.5379 15.1633 15.126 15.3806 15.842 15.3806C16.558 15.3806 17.1397 15.1633 17.5872 14.7286C18.0475 14.2939 18.2776 13.7377 18.2776 13.0601C18.2776 12.5231 18.137 12.0564 17.8557 11.6601H19.4667C19.5817 11.8263 19.6712 12.0373 19.7352 12.293C19.8119 12.5487 19.8502 12.8044 19.8502 13.0601C19.8502 13.7761 19.6776 14.4217 19.3324 14.9971C19 15.5596 18.5269 16.0007 17.9132 16.3204C17.3123 16.64 16.6219 16.7998 15.842 16.7998ZM8.24742 20.0026V18.5834H23.4365V20.0026H8.24742ZM18.7762 24.5286H20.3489V28.767H12.0447C11.7634 28.767 11.5461 28.6903 11.3926 28.5369C11.252 28.3962 11.1817 28.1853 11.1817 27.904V22.0738H20.3489V23.493H12.7543V27.367H18.7762V24.5286ZM38.3963 20.0026C37.4629 19.9387 36.715 19.5359 36.1524 18.7944C35.5899 18.0528 35.3086 16.9469 35.3086 15.4765V7.99705H36.8812V15.1313C36.8812 16.1542 37.0091 16.9405 37.2648 17.4902C37.5333 18.04 37.9104 18.4044 38.3963 18.5834V20.0026ZM23.0154 18.5834C24.3834 18.545 25.4574 18.1423 26.2373 17.3752C27.0172 16.5953 27.4072 15.5533 27.4072 14.2491V11.4683H28.999V14.2491C28.999 15.5405 29.3761 16.5697 30.1305 17.3368C30.8976 18.104 31.946 18.5067 33.2757 18.545V19.9259C32.1378 19.9131 31.115 19.6574 30.2072 19.1588C29.3122 18.6473 28.6474 17.9505 28.2127 17.0683C27.7907 17.9761 27.1195 18.6921 26.199 19.2163C25.2784 19.7277 24.2172 19.9898 23.0154 20.0026V18.5834ZM36.7278 28.4985H35.1552V23.2053H28.9223V21.7862H35.8648C36.146 21.7862 36.357 21.8629 36.4976 22.0163C36.6511 22.1569 36.7278 22.3679 36.7278 22.6492V28.4985Z" fill="#404040"/>
<path d="M8.26837 5.01649L1.02138 5.01649" stroke="#404040" stroke-width="1.12257" stroke-linecap="round" stroke-linejoin="round" stroke-dasharray="2.58 3.37"/>
<path d="M4.65219 1.36375L4.65219 8.66046" stroke="#404040" stroke-width="1.12257" stroke-linecap="round" stroke-linejoin="round" stroke-dasharray="2.58 3.37"/>
</svg>
