<svg width="50" height="31" viewBox="0 0 50 31" fill="none" xmlns="http://www.w3.org/2000/svg">
<path d="M8.49087 18.4989H15.2608V19.9181H0.0716421V18.4989H6.91825V15.8332H4.1566C3.87532 15.8332 3.65796 15.7628 3.50454 15.6222C3.3639 15.4688 3.29358 15.2514 3.29358 14.9701V9.81121H4.86619V14.414H12.0197V15.8332H8.49087V18.4989ZM4.65523 28.9127H12.4608V30.3319H3.94564C3.66436 30.3319 3.447 30.2552 3.29358 30.1017C3.15294 29.9611 3.08262 29.7501 3.08262 29.4689V25.4606H10.6005V23.4853H3.08262V22.0661H11.3101C11.5913 22.0661 11.8023 22.1428 11.9429 22.2962C12.0964 22.4369 12.1731 22.6478 12.1731 22.9291V26.8606H4.65523V28.9127ZM33.0972 19.9181C32.1127 19.8542 31.352 19.5026 30.815 18.8633C30.278 18.2113 30.0095 17.2843 30.0095 16.0825V13.7236H25.3301V12.3044H30.0095V7.91257H31.5822V15.7756C31.5822 17.361 32.0872 18.2688 33.0972 18.4989V19.9181ZM14.8396 19.9181V18.4989H17.2177C18.9693 18.4989 20.2862 18.1665 21.1684 17.5017C22.0634 16.824 22.5109 15.8268 22.5109 14.5099V13.6852H17.0067V12.266H24.1027V14.5099C24.1027 16.2487 23.5273 17.5848 22.3766 18.5181C21.2259 19.4514 19.5702 19.9181 17.4095 19.9181H14.8396ZM48.6353 19.9181C47.702 19.8542 46.954 19.4514 46.3915 18.7099C45.8289 17.9683 45.5476 16.8624 45.5476 15.3921V7.91257H47.1202V15.0469C47.1202 16.0697 47.2481 16.856 47.5038 17.4058C47.7723 17.9556 48.1495 18.3199 48.6353 18.4989V19.9181ZM42.9777 18.4989V19.9181H32.6791V18.4989H35.2489C35.0444 18.2304 34.9421 17.8277 34.9421 17.2907V14.5482H40.3887V12.2468H34.9421V10.8277H41.1175C41.3987 10.8277 41.6097 10.9044 41.7503 11.0578C41.9038 11.1984 41.9805 11.4094 41.9805 11.6907V15.9482H36.5147V17.3482C36.5147 17.7574 36.5914 18.0514 36.7448 18.2304C36.911 18.4094 37.1667 18.4989 37.512 18.4989H42.9777Z" fill="#404040"/>
<path d="M19.7158 4.4071L12.4688 4.4071" stroke="#404040" stroke-width="1.12257" stroke-linecap="round" stroke-linejoin="round" stroke-dasharray="2.58 3.37"/>
<path d="M16.0996 0.754378L16.0996 8.05109" stroke="#404040" stroke-width="1.12257" stroke-linecap="round" stroke-linejoin="round" stroke-dasharray="2.58 3.37"/>
</svg>
