<svg width="44" height="29" viewBox="0 0 44 29" fill="none" xmlns="http://www.w3.org/2000/svg">
<path d="M10.4356 14.7972C11.8037 14.7333 12.8585 14.4264 13.6 13.8767C14.3544 13.3141 14.7315 12.547 14.7315 11.5753V11.4027H10.7233V9.98348H14.7699V7.73963H16.4V9.98348H20.3699V11.4027H16.4384V11.5753C16.4384 12.5342 16.8028 13.2885 17.5316 13.8383C18.2731 14.3881 19.3151 14.6949 20.6576 14.7588V16.1397C19.4941 16.1013 18.4713 15.8904 17.5891 15.5068C16.7069 15.1104 16.0421 14.5735 15.5946 13.8958C15.1471 14.599 14.4694 15.1552 13.5617 15.5643C12.6539 15.9607 11.6119 16.178 10.4356 16.2164V14.7972ZM20.0631 28.0493H18.4905V23.3315H10.8959V21.9123H14.7891V19.3424H7.98082V17.9232H23.1699V19.3424H16.3617V21.9123H19.2001C19.4813 21.9123 19.6923 21.989 19.8329 22.1425C19.9864 22.2831 20.0631 22.4941 20.0631 22.7753V28.0493ZM43.3078 19.3424C42.3361 19.2785 41.5818 18.9269 41.0448 18.2876C40.5206 17.6484 40.2585 16.7214 40.2585 15.5068V7.33689H41.7927V15.1999C41.7927 16.0566 41.9142 16.6958 42.1571 17.1178C42.4 17.5397 42.7836 17.8082 43.3078 17.9232V19.3424ZM36.7105 11.7479V7.45196H38.2447V19.3424H36.7105V13.1671H34.3324V11.7479H36.7105ZM22.7488 19.3424V17.9232H24.0529C25.3826 17.9232 26.4118 17.5972 27.1406 16.9452C27.8693 16.2931 28.2337 15.3726 28.2337 14.1835V13.1671H24.7241V11.7479H33.2584V13.1671H29.8639V14.1835C29.8639 15.3214 30.2027 16.2164 30.8803 16.8684C31.558 17.5205 32.5105 17.8593 33.7379 17.8849V19.2657C32.6383 19.2657 31.6794 19.0548 30.8611 18.6328C30.0429 18.1981 29.442 17.5908 29.0584 16.8109C28.6493 17.6164 28.0228 18.2429 27.1789 18.6904C26.3479 19.1251 25.3698 19.3424 24.2447 19.3424H22.7488Z" fill="#404040"/>
<path d="M8.17004 4.48545L0.923048 4.48545" stroke="#404040" stroke-width="1.12257" stroke-linecap="round" stroke-linejoin="round" stroke-dasharray="2.58 3.37"/>
<path d="M4.55386 0.832709L4.55386 8.12942" stroke="#404040" stroke-width="1.12257" stroke-linecap="round" stroke-linejoin="round" stroke-dasharray="2.58 3.37"/>
</svg>
