<svg width="23" height="19" viewBox="0 0 23 19" fill="none" xmlns="http://www.w3.org/2000/svg">
<mask id="path-1-outside-1_2364_1255" maskUnits="userSpaceOnUse" x="0.292969" y="0.0117188" width="23" height="19" fill="black">
<rect fill="white" x="0.292969" y="0.0117188" width="23" height="19"/>
<path d="M5.46516 8.96609C8.36973 8.96609 10.3925 10.574 10.3925 13.3748C10.3925 16.1756 8.36973 17.7835 5.77637 17.7835C2.61247 17.7835 1.05645 15.3976 1.05645 11.5595C1.05645 5.54286 4.37595 1.49722 9.87388 0.771075V4.40178C7.28052 4.76485 5.46516 6.83954 5.46516 8.96609ZM16.8759 8.96609C19.7805 8.96609 21.8033 10.574 21.8033 13.3748C21.8033 16.1756 19.7805 17.7835 17.1871 17.7835C14.0233 17.7835 12.4672 15.3976 12.4672 11.5595C12.4672 5.54286 15.7867 1.49722 21.2847 0.771075V4.40178C18.6913 4.76485 16.8759 6.83954 16.8759 8.96609Z"/>
</mask>
<path d="M5.46516 8.96609C8.36973 8.96609 10.3925 10.574 10.3925 13.3748C10.3925 16.1756 8.36973 17.7835 5.77637 17.7835C2.61247 17.7835 1.05645 15.3976 1.05645 11.5595C1.05645 5.54286 4.37595 1.49722 9.87388 0.771075V4.40178C7.28052 4.76485 5.46516 6.83954 5.46516 8.96609ZM16.8759 8.96609C19.7805 8.96609 21.8033 10.574 21.8033 13.3748C21.8033 16.1756 19.7805 17.7835 17.1871 17.7835C14.0233 17.7835 12.4672 15.3976 12.4672 11.5595C12.4672 5.54286 15.7867 1.49722 21.2847 0.771075V4.40178C18.6913 4.76485 16.8759 6.83954 16.8759 8.96609Z" fill="#FFFEA3"/>
<path d="M5.46516 8.96609H4.97516V9.45609H5.46516V8.96609ZM9.87388 0.771075H10.3639V0.212103L9.80972 0.285294L9.87388 0.771075ZM9.87388 4.40178L9.94181 4.88705L10.3639 4.82796V4.40178H9.87388ZM16.8759 8.96609H16.3859V9.45609H16.8759V8.96609ZM21.2847 0.771075H21.7747V0.212103L21.2205 0.285294L21.2847 0.771075ZM21.2847 4.40178L21.3526 4.88705L21.7747 4.82796V4.40178H21.2847ZM5.46516 8.96609V9.45609C6.83084 9.45609 7.93869 9.83385 8.69736 10.4906C9.44736 11.1399 9.90255 12.101 9.90255 13.3748H10.3925H10.8825C10.8825 11.8478 10.3263 10.6046 9.33877 9.74967C8.35989 8.90228 7.00405 8.47609 5.46516 8.47609V8.96609ZM10.3925 13.3748H9.90255C9.90255 14.6496 9.44626 15.6154 8.72792 16.2664C8.00346 16.9229 6.97374 17.2935 5.77637 17.2935V17.7835V18.2735C7.17235 18.2735 8.45073 17.8402 9.38601 16.9926C10.3274 16.1394 10.8825 14.9008 10.8825 13.3748H10.3925ZM5.77637 17.7835V17.2935C4.33388 17.2935 3.30853 16.7586 2.62592 15.8222C1.92603 14.862 1.54645 13.4234 1.54645 11.5595H1.05645H0.566453C0.566453 13.5336 0.964886 15.2071 1.83398 16.3994C2.72035 17.6154 4.05496 18.2735 5.77637 18.2735V17.7835ZM1.05645 11.5595H1.54645C1.54645 8.64095 2.35068 6.24185 3.78268 4.49163C5.21209 2.74458 7.29807 1.60553 9.93804 1.25686L9.87388 0.771075L9.80972 0.285294C6.95176 0.662759 4.62903 1.90961 3.0242 3.87106C1.42197 5.82934 0.566453 8.46135 0.566453 11.5595H1.05645ZM9.87388 0.771075H9.38388V4.40178H9.87388H10.3639V0.771075H9.87388ZM9.87388 4.40178L9.80594 3.91651C7.00323 4.30889 4.97516 6.56357 4.97516 8.96609H5.46516H5.95516C5.95516 7.11551 7.5578 5.22081 9.94181 4.88705L9.87388 4.40178ZM16.8759 8.96609V9.45609C18.2416 9.45609 19.3495 9.83385 20.1081 10.4906C20.8581 11.1399 21.3133 12.101 21.3133 13.3748H21.8033H22.2933C22.2933 11.8478 21.7371 10.6046 20.7496 9.74967C19.7707 8.90228 18.4148 8.47609 16.8759 8.47609V8.96609ZM21.8033 13.3748H21.3133C21.3133 14.6496 20.857 15.6154 20.1387 16.2664C19.4142 16.9229 18.3845 17.2935 17.1871 17.2935V17.7835V18.2735C18.5831 18.2735 19.8615 17.8402 20.7968 16.9926C21.7382 16.1394 22.2933 14.9008 22.2933 13.3748H21.8033ZM17.1871 17.7835V17.2935C15.7447 17.2935 14.7193 16.7586 14.0367 15.8222C13.3368 14.862 12.9572 13.4234 12.9572 11.5595H12.4672H11.9772C11.9772 13.5336 12.3757 15.2071 13.2448 16.3994C14.1311 17.6154 15.4657 18.2735 17.1871 18.2735V17.7835ZM12.4672 11.5595H12.9572C12.9572 8.64095 13.7615 6.24185 15.1935 4.49163C16.6229 2.74458 18.7088 1.60553 21.3488 1.25686L21.2847 0.771075L21.2205 0.285294C18.3625 0.662759 16.0398 1.90961 14.435 3.87106C12.8328 5.82934 11.9772 8.46135 11.9772 11.5595H12.4672ZM21.2847 0.771075H20.7947V4.40178H21.2847H21.7747V0.771075H21.2847ZM21.2847 4.40178L21.2167 3.91651C18.414 4.30889 16.3859 6.56357 16.3859 8.96609H16.8759H17.3659C17.3659 7.11551 18.9686 5.22081 21.3526 4.88705L21.2847 4.40178Z" fill="#404040" mask="url(#path-1-outside-1_2364_1255)"/>
</svg>
