<svg width="49" height="28" viewBox="0 0 49 28" fill="none" xmlns="http://www.w3.org/2000/svg">
<path d="M12.995 7.46653H14.5677V11.7816H17.2526V13.2008H14.5677V15.3871C14.5677 16.2693 14.7147 16.9342 15.0088 17.3817C15.3156 17.8291 15.8334 18.0529 16.5622 18.0529H17.0416V19.4721H16.543C15.3795 19.4721 14.4973 19.1333 13.8964 18.4556C13.2955 17.778 12.995 16.7743 12.995 15.4447V7.46653ZM11.4033 18.0529V19.4721H0.70183V18.0529H3.8087C3.68084 17.9122 3.58495 17.7396 3.52102 17.5351C3.4571 17.3177 3.42513 17.0364 3.42513 16.6912V11.8583H4.99774V16.7679C4.99774 17.2154 5.08724 17.5415 5.26624 17.746C5.45802 17.9506 5.74569 18.0529 6.12926 18.0529H11.4033ZM8.23886 26.242H14.5868V27.6612H7.52926C7.24798 27.6612 7.03063 27.5844 6.87721 27.431C6.73657 27.2904 6.66625 27.0794 6.66625 26.7981V21.5817H8.23886V26.242ZM33.1438 19.4721C32.2105 19.4081 31.4625 19.0054 30.9 18.2638C30.3374 17.5223 30.0561 16.4163 30.0561 14.946V7.46653H31.6288V14.6008C31.6288 15.6237 31.7566 16.41 32.0123 16.9597C32.2808 17.5095 32.658 17.8739 33.1438 18.0529V19.4721ZM16.6122 19.4721V18.0529H22.3849C23.0625 18.0529 23.6187 17.8291 24.0534 17.3817C24.5009 16.9342 24.7246 16.3652 24.7246 15.6748C24.7246 14.9716 24.5009 14.3962 24.0534 13.9488C23.6187 13.5013 23.0625 13.2775 22.3849 13.2775C21.7072 13.2775 21.1511 13.5013 20.7164 13.9488C20.2817 14.3962 20.0643 14.9716 20.0643 15.6748C20.0643 16.199 20.1858 16.6465 20.4287 17.0173H18.8369C18.6068 16.6593 18.4917 16.2118 18.4917 15.6748C18.4917 14.946 18.6579 14.294 18.9903 13.7186C19.3355 13.1305 19.8022 12.6766 20.3903 12.357C20.9785 12.0245 21.6433 11.8583 22.3849 11.8583C23.1264 11.8583 23.7913 12.0245 24.3794 12.357C24.9803 12.6766 25.447 13.1305 25.7794 13.7186C26.1246 14.294 26.2972 14.946 26.2972 15.6748C26.2972 16.4036 26.1246 17.0556 25.7794 17.631C25.447 18.2063 24.9803 18.6602 24.3794 18.9926C23.7913 19.3123 23.1264 19.4721 22.3849 19.4721H16.6122ZM41.1479 18.0529H47.9178V19.4721H32.7287V18.0529H39.5753V14.7734H36.9287C36.6474 14.7734 36.43 14.7031 36.2766 14.5625C36.136 14.409 36.0657 14.1917 36.0657 13.9104V7.94598H44.6767V9.36517H37.6383V13.3542H44.6767V14.7734H41.1479V18.0529Z" fill="#404040"/>
<path d="M8.26299 4.48532L1.01599 4.48532" stroke="#404040" stroke-width="1.12257" stroke-linecap="round" stroke-linejoin="round" stroke-dasharray="2.58 3.37"/>
<path d="M4.6468 0.832579L4.6468 8.12929" stroke="#404040" stroke-width="1.12257" stroke-linecap="round" stroke-linejoin="round" stroke-dasharray="2.58 3.37"/>
</svg>
